<svg xmlns="http://www.w3.org/2000/svg" xmlns:xlink="http://www.w3.org/1999/xlink" version="1.1" id="Layer_1" x="0px" y="0px" width="100px" height="100px" viewBox="0 0 100 100" enable-background="new 0 0 100 100" xml:space="preserve">
<path fill="#000000" d="M43.697,54.239c1.815-0.577,3.748-0.891,5.752-0.891c2.044,0,4.01,0.331,5.858,0.93l-0.054-27.462h9.949  L50.279,10.233L33.696,26.816h9.95L43.697,54.239z"/>
<path fill="#000000" d="M68.287,28.474l7.116,6.954L56.593,54.75c3.7,1.5,6.816,4.131,8.938,7.462l18.175-18.671l7.116,6.954  l0.915-22.021H68.287z"/>
<path fill="#000000" d="M42.306,54.75l-18.81-19.322l7.116-6.954H7.163l0.915,22.021l7.116-6.954l18.175,18.671  C35.49,58.881,38.606,56.25,42.306,54.75z"/>
<circle fill="#000000" cx="49.449" cy="72.419" r="13.202"/>
</svg>