<?xml version="1.0" encoding="UTF-8" standalone="no"?>
<!DOCTYPE svg PUBLIC "-//W3C//DTD SVG 1.1//EN" "http://www.w3.org/Graphics/SVG/1.1/DTD/svg11.dtd">
<svg width="100%" height="100%" viewBox="0 0 255 255" version="1.1" xmlns="http://www.w3.org/2000/svg" xmlns:xlink="http://www.w3.org/1999/xlink" xml:space="preserve" xmlns:serif="http://www.serif.com/" style="fill-rule:evenodd;clip-rule:evenodd;stroke-linecap:round;stroke-linejoin:round;stroke-miterlimit:1.5;">
    <g transform="matrix(1,0,0,1,-335.75,-1313.75)">
        <g>
            <g transform="matrix(-1.53423,-1.88017e-16,2.04696e-16,-1.67212,2506.8,3766.3)">
                <ellipse cx="1332" cy="1390.5" rx="79" ry="72.5" style="fill:rgb(236,240,241);stroke:rgb(42,62,80);stroke-width:7.79px;"/>
            </g>
            <g transform="matrix(-1.16721,-1.4304e-16,1.55729e-16,-1.27212,2017.93,3232.82)">
                <ellipse cx="1332" cy="1390.5" rx="79" ry="72.5" style="fill:rgb(236,240,241);stroke:rgb(42,62,80);stroke-width:10.24px;"/>
            </g>
            <g transform="matrix(-0.823219,-1.00884e-16,1.09833e-16,-0.897203,1559.73,2733.24)">
                <path d="M1332,1318C1375.6,1318 1411,1350.49 1411,1390.5C1411,1430.51 1375.6,1463 1332,1463C1288.4,1463 1252.96,1430.51 1252.96,1390.5C1252.96,1350.49 1288.4,1318 1332,1318Z" style="fill:rgb(236,240,241);stroke:rgb(42,62,80);stroke-width:14.52px;"/>
            </g>
        </g>
    </g>
</svg>