<?xml version="1.0" encoding="UTF-8"?>
<!DOCTYPE svg PUBLIC "-//W3C//DTD SVG 1.1//EN" "http://www.w3.org/Graphics/SVG/1.1/DTD/svg11.dtd">
<svg version="1.1" xmlns="http://www.w3.org/2000/svg" xmlns:xlink="http://www.w3.org/1999/xlink" x="0" y="0" width="512" height="512" viewBox="0, 0, 512, 512">
  <g id="Layer_1">
    <path d="M145.5,143.5 C110.43,143.5 82,115.07 82,80 C82,44.93 110.43,16.5 145.5,16.5 C180.57,16.5 209,44.93 209,80 C209,115.07 180.57,143.5 145.5,143.5 z" fill="#000000"/>
    <path d="M286,100 L287,100 L287,100 L286,100 L286,100 z" fill="#000000"/>
    <path d="M134.5,235.333 L385.5,235.333 L385.5,283.667 L134.5,283.667 L134.5,235.333 z" fill="#000000"/>
    <path d="M130.5,55.833 L381.5,55.833 L381.5,104.167 L130.5,104.167 L130.5,55.833 z" fill="#000000"/>
    <path d="M169.667,66.667 L169.667,452.333 L121.333,452.333 L121.333,66.667 L169.667,66.667 z" fill="#000000"/>
    <path d="M374.5,143.5 C339.43,143.5 311,115.07 311,80 C311,44.93 339.43,16.5 374.5,16.5 C409.57,16.5 438,44.93 438,80 C438,115.07 409.57,143.5 374.5,143.5 z" fill="#000000"/>
    <path d="M374.5,314 C339.43,314 311,285.57 311,250.5 C311,215.43 339.43,187 374.5,187 C409.57,187 438,215.43 438,250.5 C438,285.57 409.57,314 374.5,314 z" fill="#000000"/>
    <path d="M145.5,323 C110.43,323 82,294.57 82,259.5 C82,224.43 110.43,196 145.5,196 C180.57,196 209,224.43 209,259.5 C209,294.57 180.57,323 145.5,323 z" fill="#000000"/>
    <path d="M145.5,501 C110.43,501 82,472.57 82,437.5 C82,402.43 110.43,374 145.5,374 C180.57,374 209,402.43 209,437.5 C209,472.57 180.57,501 145.5,501 z" fill="#000000"/>
  </g>
</svg>
