<?xml version="1.0" encoding="UTF-8" standalone="no"?>
<!DOCTYPE svg PUBLIC "-//W3C//DTD SVG 1.1//EN" "http://www.w3.org/Graphics/SVG/1.1/DTD/svg11.dtd">
<svg width="100%" height="100%" viewBox="0 0 109 110" version="1.1" xmlns="http://www.w3.org/2000/svg" xmlns:xlink="http://www.w3.org/1999/xlink" xml:space="preserve" xmlns:serif="http://www.serif.com/" style="fill-rule:evenodd;clip-rule:evenodd;stroke-linecap:round;stroke-linejoin:round;stroke-miterlimit:1.5;">
    <g transform="matrix(1,0,0,1,-1222.31,-1298.12)">
        <g transform="matrix(1.10376,0,0,1.10376,318.656,51.7572)">
            <g transform="matrix(7.15428e-18,0.116838,-0.116838,7.15428e-18,1012.04,1018.89)">
                <path d="M1369.82,847.06L1540.04,945.334L1540.04,1141.88L1369.82,1240.16L1199.61,1141.88L1199.61,945.334L1369.82,847.06Z" style="fill:white;stroke:rgb(255,212,121);stroke-width:64.62px;"/>
            </g>
            <g transform="matrix(7.15428e-18,0.116838,-0.116838,7.15428e-18,968.142,992.805)">
                <path d="M1369.82,847.06L1540.04,945.334L1540.04,1141.88L1369.82,1240.16L1199.61,1141.88L1199.61,945.334L1369.82,847.06Z" style="fill:white;stroke:rgb(255,212,121);stroke-width:64.62px;"/>
            </g>
            <g transform="matrix(7.15428e-18,0.116838,-0.116838,7.15428e-18,967.37,1044.45)">
                <path d="M1369.82,847.06L1540.04,945.334L1540.04,1141.88L1369.82,1240.16L1199.61,1141.88L1199.61,945.334L1369.82,847.06Z" style="fill:white;stroke:rgb(255,212,121);stroke-width:64.62px;"/>
            </g>
        </g>
    </g>
</svg>
