<?xml version="1.0" encoding="UTF-8"?>
<!DOCTYPE svg PUBLIC "-//W3C//DTD SVG 1.1//EN" "http://www.w3.org/Graphics/SVG/1.1/DTD/svg11.dtd">
<svg version="1.1" xmlns="http://www.w3.org/2000/svg" xmlns:xlink="http://www.w3.org/1999/xlink" x="0" y="0" width="312.075" height="63.999" viewBox="0, 0, 312.075, 63.999">
  <g id="Layer_1">
    <path d="M71.733,0 L73.933,0 L73.933,17.888 L74.048,17.888 Q74.685,16.151 75.843,14.848 Q77.001,13.546 78.506,12.649 Q80.011,11.751 81.748,11.317 Q83.484,10.883 85.337,10.883 Q88.636,10.883 91.039,12.041 Q93.441,13.199 95.062,15.225 Q96.683,17.251 97.464,19.943 Q98.246,22.635 98.246,25.761 Q98.246,31.086 96.799,34.299 Q95.351,37.512 93.325,39.22 Q91.299,40.927 89.099,41.477 Q86.9,42.027 85.337,42.027 Q82.384,42.027 80.329,41.101 Q78.274,40.175 76.943,38.93 Q75.611,37.686 74.917,36.47 Q74.222,35.254 74.048,34.675 L73.933,34.675 L73.933,41.333 L71.733,41.333 z M85.337,40.117 Q88.289,40.117 90.315,38.843 Q92.341,37.57 93.615,35.515 Q94.888,33.46 95.467,30.884 Q96.046,28.308 96.046,25.761 Q96.046,23.271 95.38,20.956 Q94.715,18.64 93.354,16.817 Q91.994,14.993 89.997,13.893 Q88,12.793 85.337,12.793 Q82.442,12.793 80.3,13.778 Q78.158,14.762 76.769,16.498 Q75.38,18.235 74.685,20.608 Q73.99,22.982 73.99,25.761 Q73.99,28.481 74.627,31.086 Q75.264,33.691 76.624,35.688 Q77.985,37.686 80.127,38.901 Q82.269,40.117 85.337,40.117 z" fill="#717D8A"/>
    <path d="M103.913,5.963 L103.913,-0 L106.113,-0 L106.113,5.963 z M103.913,41.333 L103.913,11.578 L106.113,11.578 L106.113,41.333 z" fill="#717D8A"/>
    <path d="M111.722,26.455 Q111.722,23.271 112.62,20.464 Q113.517,17.656 115.254,15.514 Q116.99,13.372 119.537,12.128 Q122.084,10.883 125.384,10.883 Q128.684,10.883 131.231,12.128 Q133.778,13.372 135.515,15.514 Q137.251,17.656 138.149,20.464 Q139.046,23.271 139.046,26.455 Q139.046,29.639 138.149,32.476 Q137.251,35.312 135.515,37.425 Q133.778,39.538 131.231,40.783 Q128.684,42.027 125.384,42.027 Q122.084,42.027 119.537,40.783 Q116.99,39.538 115.254,37.425 Q113.517,35.312 112.62,32.476 Q111.722,29.639 111.722,26.455 z M113.922,26.455 Q113.922,29.118 114.675,31.578 Q115.427,34.039 116.874,35.949 Q118.322,37.859 120.464,38.988 Q122.605,40.117 125.384,40.117 Q128.163,40.117 130.305,38.988 Q132.447,37.859 133.894,35.949 Q135.341,34.039 136.094,31.578 Q136.846,29.118 136.846,26.455 Q136.846,23.792 136.094,21.332 Q135.341,18.872 133.894,16.961 Q132.447,15.051 130.305,13.922 Q128.163,12.793 125.384,12.793 Q122.605,12.793 120.464,13.922 Q118.322,15.051 116.874,16.961 Q115.427,18.872 114.675,21.332 Q113.922,23.792 113.922,26.455 z" fill="#717D8A"/>
    <path d="M141.488,11.404 L146.409,11.404 L146.409,8.915 Q146.409,6.078 147.103,4.313 Q147.798,2.547 148.956,1.592 Q150.113,0.637 151.59,0.318 Q153.066,-0 154.687,-0 Q157.871,-0 159.318,0.405 L159.318,5.557 Q158.681,5.384 157.957,5.297 Q157.234,5.21 156.25,5.21 Q154.918,5.21 153.963,5.847 Q153.008,6.484 153.008,8.336 L153.008,11.404 L158.623,11.404 L158.623,16.325 L153.008,16.325 L153.008,41.333 L146.409,41.333 L146.409,16.325 L141.488,16.325 z" fill="#717D8A"/>
    <path d="M187.747,34.675 Q187.747,35.891 188.065,36.412 Q188.384,36.933 189.31,36.933 Q189.599,36.933 190.005,36.933 Q190.41,36.933 190.931,36.817 L190.931,41.39 Q190.583,41.506 190.034,41.651 Q189.484,41.796 188.905,41.911 Q188.326,42.027 187.747,42.085 Q187.168,42.143 186.763,42.143 Q184.737,42.143 183.405,41.333 Q182.074,40.522 181.669,38.496 Q179.7,40.406 176.835,41.275 Q173.969,42.143 171.307,42.143 Q169.28,42.143 167.428,41.593 Q165.576,41.043 164.157,39.972 Q162.739,38.901 161.9,37.251 Q161.06,35.602 161.06,33.402 Q161.06,30.623 162.073,28.887 Q163.086,27.15 164.736,26.166 Q166.386,25.182 168.441,24.747 Q170.496,24.313 172.58,24.082 Q174.375,23.734 175.996,23.59 Q177.616,23.445 178.861,23.098 Q180.106,22.75 180.829,22.027 Q181.553,21.303 181.553,19.856 Q181.553,18.582 180.945,17.772 Q180.337,16.961 179.44,16.527 Q178.543,16.093 177.443,15.948 Q176.343,15.804 175.359,15.804 Q172.58,15.804 170.786,16.961 Q168.991,18.119 168.759,20.551 L162.16,20.551 Q162.334,17.656 163.549,15.746 Q164.765,13.835 166.646,12.678 Q168.528,11.52 170.901,11.057 Q173.275,10.594 175.764,10.594 Q177.964,10.594 180.106,11.057 Q182.248,11.52 183.955,12.562 Q185.663,13.604 186.705,15.254 Q187.747,16.904 187.747,19.277 z M181.148,26.339 Q179.643,27.324 177.443,27.526 Q175.243,27.729 173.043,28.134 Q172.001,28.308 171.017,28.626 Q170.033,28.944 169.28,29.494 Q168.528,30.044 168.094,30.942 Q167.66,31.839 167.66,33.112 Q167.66,34.212 168.296,34.965 Q168.933,35.717 169.83,36.152 Q170.728,36.586 171.799,36.759 Q172.87,36.933 173.738,36.933 Q174.838,36.933 176.111,36.644 Q177.385,36.354 178.514,35.66 Q179.643,34.965 180.395,33.894 Q181.148,32.823 181.148,31.26 z" fill="#717D8A"/>
    <path d="M215.065,21.419 Q214.659,18.64 212.836,17.222 Q211.012,15.804 208.234,15.804 Q206.96,15.804 205.513,16.238 Q204.066,16.672 202.85,17.859 Q201.634,19.045 200.824,21.158 Q200.014,23.271 200.014,26.687 Q200.014,28.539 200.448,30.392 Q200.882,32.244 201.837,33.691 Q202.792,35.139 204.297,36.036 Q205.802,36.933 207.944,36.933 Q210.839,36.933 212.72,35.139 Q214.602,33.344 215.065,30.102 L221.664,30.102 Q220.738,35.949 217.236,39.046 Q213.733,42.143 207.944,42.143 Q204.413,42.143 201.721,40.956 Q199.029,39.77 197.177,37.715 Q195.325,35.66 194.369,32.823 Q193.414,29.986 193.414,26.687 Q193.414,23.329 194.34,20.377 Q195.267,17.425 197.119,15.254 Q198.972,13.083 201.721,11.838 Q204.471,10.594 208.176,10.594 Q210.781,10.594 213.125,11.259 Q215.47,11.925 217.293,13.257 Q219.117,14.588 220.275,16.614 Q221.432,18.64 221.664,21.419 z" fill="#717D8A"/>
    <path d="M224.032,11.404 L229.01,11.404 L229.01,2.431 L235.609,2.431 L235.609,11.404 L241.572,11.404 L241.572,16.325 L235.609,16.325 L235.609,32.302 Q235.609,33.344 235.696,34.097 Q235.783,34.849 236.101,35.37 Q236.42,35.891 237.057,36.152 Q237.693,36.412 238.793,36.412 Q239.488,36.412 240.183,36.383 Q240.877,36.354 241.572,36.181 L241.572,41.275 Q240.472,41.39 239.43,41.506 Q238.388,41.622 237.288,41.622 Q234.683,41.622 233.091,41.13 Q231.499,40.638 230.602,39.683 Q229.705,38.728 229.386,37.28 Q229.068,35.833 229.01,33.981 L229.01,16.325 L224.032,16.325 z" fill="#717D8A"/>
    <path d="M244.704,26.455 Q244.704,23.271 245.602,20.464 Q246.499,17.656 248.236,15.514 Q249.972,13.372 252.519,12.128 Q255.067,10.883 258.366,10.883 Q261.666,10.883 264.213,12.128 Q266.76,13.372 268.497,15.514 Q270.233,17.656 271.131,20.464 Q272.028,23.271 272.028,26.455 Q272.028,29.639 271.131,32.476 Q270.233,35.312 268.497,37.425 Q266.76,39.538 264.213,40.783 Q261.666,42.027 258.366,42.027 Q255.067,42.027 252.519,40.783 Q249.972,39.538 248.236,37.425 Q246.499,35.312 245.602,32.476 Q244.704,29.639 244.704,26.455 z M246.904,26.455 Q246.904,29.118 247.657,31.578 Q248.409,34.039 249.857,35.949 Q251.304,37.859 253.446,38.988 Q255.588,40.117 258.366,40.117 Q261.145,40.117 263.287,38.988 Q265.429,37.859 266.876,35.949 Q268.323,34.039 269.076,31.578 Q269.828,29.118 269.828,26.455 Q269.828,23.792 269.076,21.332 Q268.323,18.872 266.876,16.961 Q265.429,15.051 263.287,13.922 Q261.145,12.793 258.366,12.793 Q255.588,12.793 253.446,13.922 Q251.304,15.051 249.857,16.961 Q248.409,18.872 247.657,21.332 Q246.904,23.792 246.904,26.455 z" fill="#717D8A"/>
    <path d="M277.695,5.963 L277.695,-0 L279.895,-0 L279.895,5.963 z M277.695,41.333 L277.695,11.578 L279.895,11.578 L279.895,41.333 z" fill="#717D8A"/>
    <path d="M309.876,34.965 L309.76,34.965 Q307.907,38.496 305.129,40.262 Q302.35,42.027 298.356,42.027 Q294.998,42.027 292.567,40.754 Q290.136,39.48 288.573,37.338 Q287.01,35.196 286.257,32.389 Q285.504,29.581 285.504,26.513 Q285.504,23.213 286.315,20.348 Q287.125,17.482 288.775,15.398 Q290.425,13.314 292.914,12.099 Q295.403,10.883 298.761,10.883 Q300.556,10.883 302.292,11.375 Q304.029,11.867 305.505,12.793 Q306.981,13.72 308.081,15.109 Q309.181,16.498 309.76,18.235 L309.876,18.235 L309.876,0 L312.075,0 L312.075,41.333 L309.876,41.333 z M298.819,40.117 Q301.655,40.117 303.711,38.959 Q305.766,37.801 307.126,35.891 Q308.486,33.981 309.152,31.52 Q309.818,29.06 309.818,26.513 Q309.818,23.908 309.152,21.448 Q308.486,18.988 307.155,17.048 Q305.823,15.109 303.711,13.951 Q301.598,12.793 298.761,12.793 Q295.809,12.793 293.725,13.922 Q291.641,15.051 290.28,16.961 Q288.92,18.872 288.312,21.361 Q287.704,23.85 287.704,26.513 Q287.704,29.118 288.37,31.578 Q289.036,34.039 290.396,35.949 Q291.756,37.859 293.84,38.988 Q295.924,40.117 298.819,40.117 z" fill="#717D8A"/>
    <path d="M96.74,53.48 L97.765,53.48 Q97.733,52.796 97.489,52.291 Q97.244,51.787 96.829,51.445 Q96.414,51.103 95.869,50.94 Q95.323,50.777 94.688,50.777 Q94.135,50.777 93.573,50.908 Q93.011,51.038 92.556,51.315 Q92.1,51.591 91.815,52.047 Q91.53,52.503 91.53,53.138 Q91.53,53.675 91.709,54.042 Q91.888,54.408 92.205,54.66 Q92.523,54.913 92.946,55.084 Q93.37,55.255 93.874,55.385 L95.193,55.678 Q95.535,55.759 95.869,55.873 Q96.202,55.987 96.463,56.158 Q96.723,56.329 96.878,56.582 Q97.033,56.834 97.033,57.208 Q97.033,57.648 96.813,57.949 Q96.593,58.25 96.251,58.446 Q95.909,58.641 95.511,58.723 Q95.112,58.804 94.737,58.804 Q93.711,58.804 93.02,58.275 Q92.328,57.746 92.262,56.704 L91.237,56.704 Q91.367,58.25 92.287,58.95 Q93.207,59.651 94.688,59.651 Q95.274,59.651 95.877,59.52 Q96.479,59.39 96.96,59.089 Q97.44,58.788 97.749,58.307 Q98.059,57.827 98.059,57.143 Q98.059,56.59 97.847,56.183 Q97.635,55.776 97.301,55.499 Q96.968,55.222 96.536,55.051 Q96.105,54.88 95.665,54.815 L94.298,54.506 Q94.037,54.441 93.728,54.335 Q93.418,54.229 93.158,54.066 Q92.897,53.903 92.726,53.667 Q92.556,53.431 92.556,53.089 Q92.556,52.682 92.735,52.405 Q92.914,52.129 93.207,51.958 Q93.5,51.787 93.85,51.713 Q94.2,51.64 94.542,51.64 Q94.981,51.64 95.372,51.746 Q95.763,51.852 96.064,52.08 Q96.365,52.308 96.544,52.658 Q96.723,53.008 96.74,53.48 z" fill="#717D8A"/>
    <path d="M106.344,59.423 L106.344,51.022 L105.318,51.022 L105.318,55.434 Q105.318,56.069 105.172,56.679 Q105.025,57.29 104.716,57.762 Q104.407,58.234 103.934,58.519 Q103.462,58.804 102.795,58.804 Q101.574,58.804 101.077,58.218 Q100.581,57.632 100.548,56.492 L100.548,51.022 L99.522,51.022 L99.522,56.476 Q99.522,57.225 99.685,57.811 Q99.848,58.397 100.198,58.804 Q100.548,59.211 101.11,59.431 Q101.671,59.651 102.469,59.651 Q103.413,59.651 104.187,59.203 Q104.96,58.755 105.367,57.908 L105.4,57.908 L105.4,59.423 z" fill="#717D8A"/>
    <path d="M108.28,51.022 L108.28,59.423 L109.306,59.423 L109.306,54.734 Q109.306,54.066 109.452,53.504 Q109.599,52.943 109.9,52.528 Q110.201,52.112 110.681,51.876 Q111.162,51.64 111.813,51.64 Q112.301,51.64 112.643,51.803 Q112.985,51.966 113.189,52.251 Q113.392,52.536 113.482,52.918 Q113.571,53.301 113.571,53.724 L113.571,59.423 L114.597,59.423 L114.597,54.668 Q114.597,54.082 114.703,53.537 Q114.809,52.992 115.069,52.568 Q115.33,52.145 115.769,51.893 Q116.209,51.64 116.876,51.64 Q117.983,51.64 118.423,52.186 Q118.863,52.731 118.863,53.773 L118.863,59.423 L119.888,59.423 L119.888,53.724 Q119.888,50.777 117.104,50.777 Q116.274,50.777 115.541,51.184 Q114.809,51.591 114.434,52.422 Q114.206,51.591 113.531,51.184 Q112.855,50.777 112.025,50.777 Q110.999,50.777 110.339,51.217 Q109.68,51.656 109.273,52.438 L109.224,52.438 L109.224,51.022 z" fill="#717D8A"/>
    <path d="M121.84,51.022 L121.84,59.423 L122.866,59.423 L122.866,54.734 Q122.866,54.066 123.013,53.504 Q123.159,52.943 123.46,52.528 Q123.762,52.112 124.242,51.876 Q124.722,51.64 125.374,51.64 Q125.862,51.64 126.204,51.803 Q126.546,51.966 126.749,52.251 Q126.953,52.536 127.042,52.918 Q127.132,53.301 127.132,53.724 L127.132,59.423 L128.158,59.423 L128.158,54.668 Q128.158,54.082 128.263,53.537 Q128.369,52.992 128.63,52.568 Q128.89,52.145 129.33,51.893 Q129.769,51.64 130.437,51.64 Q131.544,51.64 131.984,52.186 Q132.423,52.731 132.423,53.773 L132.423,59.423 L133.449,59.423 L133.449,53.724 Q133.449,50.777 130.665,50.777 Q129.835,50.777 129.102,51.184 Q128.369,51.591 127.995,52.422 Q127.767,51.591 127.091,51.184 Q126.416,50.777 125.585,50.777 Q124.559,50.777 123.9,51.217 Q123.241,51.656 122.834,52.438 L122.785,52.438 L122.785,51.022 z" fill="#717D8A"/>
    <path d="M135.303,53.594 L136.329,53.594 Q136.362,52.568 136.98,52.104 Q137.599,51.64 138.576,51.64 Q139.032,51.64 139.431,51.713 Q139.83,51.787 140.131,51.982 Q140.432,52.177 140.603,52.511 Q140.774,52.845 140.774,53.366 Q140.774,53.708 140.684,53.92 Q140.595,54.131 140.432,54.253 Q140.269,54.375 140.025,54.424 Q139.781,54.473 139.455,54.506 Q138.625,54.603 137.819,54.709 Q137.013,54.815 136.37,55.076 Q135.727,55.336 135.336,55.833 Q134.945,56.329 134.945,57.208 Q134.945,57.843 135.165,58.307 Q135.385,58.771 135.767,59.073 Q136.15,59.374 136.663,59.512 Q137.176,59.651 137.762,59.651 Q138.381,59.651 138.828,59.537 Q139.276,59.423 139.626,59.211 Q139.976,58.999 140.261,58.682 Q140.546,58.364 140.823,57.957 L140.855,57.957 Q140.855,58.283 140.896,58.552 Q140.937,58.82 141.067,59.016 Q141.197,59.211 141.433,59.317 Q141.669,59.423 142.06,59.423 Q142.272,59.423 142.41,59.406 Q142.549,59.39 142.728,59.357 L142.728,58.495 Q142.581,58.56 142.402,58.56 Q141.8,58.56 141.8,57.941 L141.8,53.48 Q141.8,52.633 141.523,52.104 Q141.246,51.575 140.806,51.282 Q140.367,50.989 139.813,50.883 Q139.26,50.777 138.706,50.777 Q137.974,50.777 137.371,50.94 Q136.769,51.103 136.321,51.445 Q135.873,51.787 135.613,52.324 Q135.352,52.861 135.303,53.594 z M140.774,54.831 L140.774,56.166 Q140.774,56.785 140.538,57.273 Q140.302,57.762 139.903,58.104 Q139.504,58.446 138.967,58.625 Q138.429,58.804 137.843,58.804 Q137.485,58.804 137.143,58.69 Q136.801,58.576 136.541,58.356 Q136.28,58.136 136.126,57.835 Q135.971,57.534 135.971,57.143 Q135.971,56.525 136.337,56.191 Q136.704,55.857 137.273,55.678 Q137.843,55.499 138.535,55.409 Q139.227,55.32 139.878,55.206 Q140.09,55.173 140.367,55.092 Q140.644,55.01 140.741,54.831 z" fill="#717D8A"/>
    <path d="M143.849,51.044 L143.849,59.445 L144.875,59.445 L144.875,54.968 Q144.875,54.3 145.103,53.738 Q145.331,53.177 145.746,52.77 Q146.161,52.363 146.731,52.143 Q147.301,51.923 148.001,51.956 L148.001,50.93 Q146.861,50.881 146.039,51.435 Q145.217,51.988 144.826,53.014 L144.794,53.014 L144.794,51.044 z" fill="#717D8A"/>
    <path d="M148.993,47.798 L148.993,49.442 L150.018,49.442 L150.018,47.798 z M148.993,51.022 L148.993,59.423 L150.018,59.423 L150.018,51.022 z" fill="#717D8A"/>
    <path d="M152.491,58.56 L158.043,51.754 L158.043,51.022 L151.629,51.022 L151.629,51.884 L156.741,51.884 L151.254,58.592 L151.254,59.423 L158.271,59.423 L158.271,58.56 z" fill="#717D8A"/>
    <path d="M165.55,54.636 L160.112,54.636 Q160.177,54.066 160.38,53.521 Q160.584,52.975 160.926,52.56 Q161.268,52.145 161.756,51.893 Q162.245,51.64 162.88,51.64 Q163.498,51.64 163.987,51.893 Q164.475,52.145 164.817,52.56 Q165.159,52.975 165.346,53.513 Q165.533,54.05 165.55,54.636 z M160.112,55.499 L166.575,55.499 Q166.608,54.62 166.413,53.765 Q166.217,52.91 165.77,52.251 Q165.322,51.591 164.605,51.184 Q163.889,50.777 162.88,50.777 Q161.886,50.777 161.162,51.16 Q160.437,51.543 159.982,52.169 Q159.526,52.796 159.306,53.594 Q159.086,54.392 159.086,55.222 Q159.086,56.118 159.306,56.923 Q159.526,57.729 159.982,58.34 Q160.437,58.95 161.162,59.3 Q161.886,59.651 162.88,59.651 Q164.475,59.651 165.346,58.869 Q166.217,58.088 166.543,56.655 L165.517,56.655 Q165.273,57.632 164.638,58.218 Q164.003,58.804 162.88,58.804 Q162.147,58.804 161.626,58.495 Q161.105,58.185 160.763,57.713 Q160.421,57.241 160.266,56.647 Q160.112,56.052 160.112,55.499 z" fill="#717D8A"/>
    <path d="M172.318,55.548 Q172.318,55.146 172.469,54.793 Q172.621,54.441 172.882,54.18 Q173.142,53.92 173.495,53.768 Q173.848,53.616 174.25,53.616 Q174.651,53.616 175.004,53.768 Q175.357,53.92 175.623,54.18 Q175.889,54.441 176.04,54.793 Q176.192,55.146 176.192,55.548 Q176.192,55.949 176.04,56.302 Q175.889,56.655 175.623,56.921 Q175.357,57.187 175.004,57.339 Q174.651,57.491 174.25,57.491 Q173.848,57.491 173.495,57.339 Q173.142,57.187 172.882,56.921 Q172.621,56.655 172.469,56.302 Q172.318,55.949 172.318,55.548 z" fill="#717D8A"/>
    <path d="M187.497,53.48 L188.522,53.48 Q188.49,52.796 188.246,52.291 Q188.001,51.787 187.586,51.445 Q187.171,51.103 186.626,50.94 Q186.08,50.777 185.445,50.777 Q184.892,50.777 184.33,50.908 Q183.768,51.038 183.312,51.315 Q182.857,51.591 182.572,52.047 Q182.287,52.503 182.287,53.138 Q182.287,53.675 182.466,54.042 Q182.645,54.408 182.962,54.66 Q183.28,54.913 183.703,55.084 Q184.127,55.255 184.631,55.385 L185.95,55.678 Q186.292,55.759 186.626,55.873 Q186.959,55.987 187.22,56.158 Q187.48,56.329 187.635,56.582 Q187.79,56.834 187.79,57.208 Q187.79,57.648 187.57,57.949 Q187.35,58.25 187.008,58.446 Q186.666,58.641 186.268,58.723 Q185.869,58.804 185.494,58.804 Q184.468,58.804 183.777,58.275 Q183.085,57.746 183.019,56.704 L181.994,56.704 Q182.124,58.25 183.044,58.95 Q183.964,59.651 185.445,59.651 Q186.031,59.651 186.634,59.52 Q187.236,59.39 187.717,59.089 Q188.197,58.788 188.506,58.307 Q188.816,57.827 188.816,57.143 Q188.816,56.59 188.604,56.183 Q188.392,55.776 188.058,55.499 Q187.725,55.222 187.293,55.051 Q186.862,54.88 186.422,54.815 L185.055,54.506 Q184.794,54.441 184.485,54.335 Q184.175,54.229 183.915,54.066 Q183.654,53.903 183.483,53.667 Q183.312,53.431 183.312,53.089 Q183.312,52.682 183.492,52.405 Q183.671,52.129 183.964,51.958 Q184.257,51.787 184.607,51.713 Q184.957,51.64 185.299,51.64 Q185.738,51.64 186.129,51.746 Q186.52,51.852 186.821,52.08 Q187.122,52.308 187.301,52.658 Q187.48,53.008 187.497,53.48 z" fill="#717D8A"/>
    <path d="M190.279,47.798 L190.279,59.423 L191.305,59.423 L191.305,54.522 Q191.321,53.903 191.508,53.374 Q191.696,52.845 192.029,52.462 Q192.363,52.08 192.844,51.86 Q193.324,51.64 193.943,51.64 Q194.561,51.64 194.976,51.836 Q195.392,52.031 195.636,52.373 Q195.88,52.715 195.978,53.179 Q196.075,53.643 196.075,54.18 L196.075,59.423 L197.101,59.423 L197.101,54.017 Q197.101,53.268 196.955,52.666 Q196.808,52.063 196.45,51.648 Q196.092,51.233 195.497,51.005 Q194.903,50.777 194.024,50.777 Q193.128,50.777 192.38,51.241 Q191.631,51.705 191.338,52.471 L191.305,52.471 L191.305,47.798 z" fill="#717D8A"/>
    <path d="M198.939,53.594 L199.965,53.594 Q199.997,52.568 200.616,52.104 Q201.235,51.64 202.212,51.64 Q202.668,51.64 203.066,51.713 Q203.465,51.787 203.767,51.982 Q204.068,52.177 204.239,52.511 Q204.41,52.845 204.41,53.366 Q204.41,53.708 204.32,53.92 Q204.231,54.131 204.068,54.253 Q203.905,54.375 203.661,54.424 Q203.417,54.473 203.091,54.506 Q202.261,54.603 201.455,54.709 Q200.649,54.815 200.006,55.076 Q199.363,55.336 198.972,55.833 Q198.581,56.329 198.581,57.208 Q198.581,57.843 198.801,58.307 Q199.021,58.771 199.403,59.073 Q199.786,59.374 200.299,59.512 Q200.812,59.651 201.398,59.651 Q202.016,59.651 202.464,59.537 Q202.912,59.423 203.262,59.211 Q203.612,58.999 203.897,58.682 Q204.182,58.364 204.459,57.957 L204.491,57.957 Q204.491,58.283 204.532,58.552 Q204.572,58.82 204.703,59.016 Q204.833,59.211 205.069,59.317 Q205.305,59.423 205.696,59.423 Q205.908,59.423 206.046,59.406 Q206.184,59.39 206.363,59.357 L206.363,58.495 Q206.217,58.56 206.038,58.56 Q205.435,58.56 205.435,57.941 L205.435,53.48 Q205.435,52.633 205.159,52.104 Q204.882,51.575 204.442,51.282 Q204.003,50.989 203.449,50.883 Q202.896,50.777 202.342,50.777 Q201.609,50.777 201.007,50.94 Q200.405,51.103 199.957,51.445 Q199.509,51.787 199.249,52.324 Q198.988,52.861 198.939,53.594 z M204.41,54.831 L204.41,56.166 Q204.41,56.785 204.174,57.273 Q203.938,57.762 203.539,58.104 Q203.14,58.446 202.602,58.625 Q202.065,58.804 201.479,58.804 Q201.121,58.804 200.779,58.69 Q200.437,58.576 200.177,58.356 Q199.916,58.136 199.761,57.835 Q199.607,57.534 199.607,57.143 Q199.607,56.525 199.973,56.191 Q200.339,55.857 200.909,55.678 Q201.479,55.499 202.171,55.409 Q202.863,55.32 203.514,55.206 Q203.726,55.173 204.003,55.092 Q204.279,55.01 204.377,54.831 z" fill="#717D8A"/>
    <path d="M207.485,51.044 L207.485,59.445 L208.511,59.445 L208.511,54.968 Q208.511,54.3 208.739,53.738 Q208.967,53.177 209.382,52.77 Q209.797,52.363 210.367,52.143 Q210.937,51.923 211.637,51.956 L211.637,50.93 Q210.497,50.881 209.675,51.435 Q208.853,51.988 208.462,53.014 L208.43,53.014 L208.43,51.044 z" fill="#717D8A"/>
    <path d="M218.347,54.636 L212.909,54.636 Q212.974,54.066 213.178,53.521 Q213.381,52.975 213.723,52.56 Q214.065,52.145 214.554,51.893 Q215.042,51.64 215.677,51.64 Q216.296,51.64 216.784,51.893 Q217.273,52.145 217.614,52.56 Q217.956,52.975 218.144,53.513 Q218.331,54.05 218.347,54.636 z M212.909,55.499 L219.373,55.499 Q219.405,54.62 219.21,53.765 Q219.015,52.91 218.567,52.251 Q218.119,51.591 217.403,51.184 Q216.686,50.777 215.677,50.777 Q214.684,50.777 213.959,51.16 Q213.235,51.543 212.779,52.169 Q212.323,52.796 212.103,53.594 Q211.883,54.392 211.883,55.222 Q211.883,56.118 212.103,56.923 Q212.323,57.729 212.779,58.34 Q213.235,58.95 213.959,59.3 Q214.684,59.651 215.677,59.651 Q217.273,59.651 218.144,58.869 Q219.015,58.088 219.34,56.655 L218.315,56.655 Q218.07,57.632 217.435,58.218 Q216.8,58.804 215.677,58.804 Q214.944,58.804 214.423,58.495 Q213.902,58.185 213.56,57.713 Q213.219,57.241 213.064,56.647 Q212.909,56.052 212.909,55.499 z" fill="#717D8A"/>
    <path d="M225.107,55.548 Q225.107,55.146 225.258,54.793 Q225.41,54.441 225.671,54.18 Q225.931,53.92 226.284,53.768 Q226.637,53.616 227.039,53.616 Q227.44,53.616 227.793,53.768 Q228.146,53.92 228.412,54.18 Q228.678,54.441 228.829,54.793 Q228.981,55.146 228.981,55.548 Q228.981,55.949 228.829,56.302 Q228.678,56.655 228.412,56.921 Q228.146,57.187 227.793,57.339 Q227.44,57.491 227.039,57.491 Q226.637,57.491 226.284,57.339 Q225.931,57.187 225.671,56.921 Q225.41,56.655 225.258,56.302 Q225.107,55.949 225.107,55.548 z" fill="#717D8A"/>
    <path d="M242.648,59.423 L242.648,47.798 L241.622,47.798 L241.622,52.617 L241.589,52.617 Q241.426,52.161 241.125,51.819 Q240.824,51.477 240.433,51.241 Q240.043,51.005 239.595,50.891 Q239.147,50.777 238.675,50.777 Q237.714,50.777 237.006,51.135 Q236.298,51.494 235.826,52.104 Q235.354,52.715 235.126,53.521 Q234.898,54.327 234.898,55.222 Q234.898,56.118 235.126,56.923 Q235.354,57.729 235.826,58.34 Q236.298,58.95 237.006,59.3 Q237.714,59.651 238.675,59.651 Q239.131,59.651 239.595,59.52 Q240.059,59.39 240.466,59.154 Q240.873,58.918 241.19,58.576 Q241.508,58.234 241.671,57.827 L241.703,57.827 L241.703,59.423 z M235.923,55.222 Q235.923,54.571 236.078,53.928 Q236.233,53.285 236.567,52.78 Q236.9,52.275 237.421,51.958 Q237.942,51.64 238.675,51.64 Q239.489,51.64 240.051,51.958 Q240.612,52.275 240.962,52.78 Q241.312,53.285 241.467,53.928 Q241.622,54.571 241.622,55.222 Q241.622,55.873 241.467,56.516 Q241.312,57.16 240.962,57.664 Q240.612,58.169 240.051,58.486 Q239.489,58.804 238.675,58.804 Q237.942,58.804 237.421,58.486 Q236.9,58.169 236.567,57.664 Q236.233,57.16 236.078,56.516 Q235.923,55.873 235.923,55.222 z" fill="#717D8A"/>
    <path d="M244.616,47.798 L244.616,49.442 L245.642,49.442 L245.642,47.798 z M244.616,51.022 L244.616,59.423 L245.642,59.423 L245.642,51.022 z" fill="#717D8A"/>
    <path d="M252.641,53.48 L253.667,53.48 Q253.634,52.796 253.39,52.291 Q253.146,51.787 252.73,51.445 Q252.315,51.103 251.77,50.94 Q251.224,50.777 250.59,50.777 Q250.036,50.777 249.474,50.908 Q248.913,51.038 248.457,51.315 Q248.001,51.591 247.716,52.047 Q247.431,52.503 247.431,53.138 Q247.431,53.675 247.61,54.042 Q247.789,54.408 248.107,54.66 Q248.424,54.913 248.847,55.084 Q249.271,55.255 249.775,55.385 L251.094,55.678 Q251.436,55.759 251.77,55.873 Q252.104,55.987 252.364,56.158 Q252.625,56.329 252.779,56.582 Q252.934,56.834 252.934,57.208 Q252.934,57.648 252.714,57.949 Q252.494,58.25 252.153,58.446 Q251.811,58.641 251.412,58.723 Q251.013,58.804 250.638,58.804 Q249.613,58.804 248.921,58.275 Q248.229,57.746 248.164,56.704 L247.138,56.704 Q247.268,58.25 248.188,58.95 Q249.108,59.651 250.59,59.651 Q251.176,59.651 251.778,59.52 Q252.38,59.39 252.861,59.089 Q253.341,58.788 253.65,58.307 Q253.96,57.827 253.96,57.143 Q253.96,56.59 253.748,56.183 Q253.536,55.776 253.203,55.499 Q252.869,55.222 252.437,55.051 Q252.006,54.88 251.566,54.815 L250.199,54.506 Q249.938,54.441 249.629,54.335 Q249.32,54.229 249.059,54.066 Q248.799,53.903 248.628,53.667 Q248.457,53.431 248.457,53.089 Q248.457,52.682 248.636,52.405 Q248.815,52.129 249.108,51.958 Q249.401,51.787 249.751,51.713 Q250.101,51.64 250.443,51.64 Q250.883,51.64 251.273,51.746 Q251.664,51.852 251.965,52.08 Q252.266,52.308 252.446,52.658 Q252.625,53.008 252.641,53.48 z" fill="#717D8A"/>
    <path d="M261.399,53.659 L262.424,53.659 Q262.245,52.21 261.309,51.494 Q260.373,50.777 259.022,50.777 Q258.061,50.777 257.32,51.135 Q256.579,51.494 256.075,52.096 Q255.57,52.698 255.309,53.504 Q255.049,54.31 255.049,55.222 Q255.049,56.134 255.309,56.94 Q255.57,57.746 256.075,58.348 Q256.579,58.95 257.32,59.3 Q258.061,59.651 259.022,59.651 Q260.454,59.651 261.366,58.796 Q262.278,57.941 262.489,56.411 L261.464,56.411 Q261.415,56.932 261.203,57.371 Q260.992,57.811 260.666,58.128 Q260.34,58.446 259.917,58.625 Q259.494,58.804 259.022,58.804 Q258.289,58.804 257.735,58.495 Q257.182,58.185 256.815,57.681 Q256.449,57.176 256.262,56.533 Q256.075,55.89 256.075,55.222 Q256.075,54.555 256.262,53.911 Q256.449,53.268 256.815,52.764 Q257.182,52.259 257.735,51.95 Q258.289,51.64 259.022,51.64 Q260.047,51.64 260.617,52.177 Q261.187,52.715 261.399,53.659 z" fill="#717D8A"/>
    <path d="M267.437,51.64 Q268.17,51.64 268.724,51.95 Q269.277,52.259 269.643,52.764 Q270.01,53.268 270.197,53.911 Q270.384,54.555 270.384,55.222 Q270.384,55.89 270.197,56.533 Q270.01,57.176 269.643,57.681 Q269.277,58.185 268.724,58.495 Q268.17,58.804 267.437,58.804 Q266.705,58.804 266.151,58.495 Q265.598,58.185 265.231,57.681 Q264.865,57.176 264.678,56.533 Q264.49,55.89 264.49,55.222 Q264.49,54.555 264.678,53.911 Q264.865,53.268 265.231,52.764 Q265.598,52.259 266.151,51.95 Q266.705,51.64 267.437,51.64 z M267.437,50.777 Q266.477,50.777 265.736,51.135 Q264.995,51.494 264.49,52.096 Q263.986,52.698 263.725,53.504 Q263.465,54.31 263.465,55.222 Q263.465,56.134 263.725,56.94 Q263.986,57.746 264.49,58.348 Q264.995,58.95 265.736,59.3 Q266.477,59.651 267.437,59.651 Q268.398,59.651 269.139,59.3 Q269.879,58.95 270.384,58.348 Q270.889,57.746 271.149,56.94 Q271.41,56.134 271.41,55.222 Q271.41,54.31 271.149,53.504 Q270.889,52.698 270.384,52.096 Q269.879,51.494 269.139,51.135 Q268.398,50.777 267.437,50.777 z" fill="#717D8A"/>
    <path d="M271.994,51.022 L275.234,59.423 L276.325,59.423 L279.467,51.022 L278.409,51.022 L275.804,58.397 L275.772,58.397 L273.134,51.022 z" fill="#717D8A"/>
    <path d="M286.502,54.636 L281.064,54.636 Q281.129,54.066 281.332,53.521 Q281.536,52.975 281.878,52.56 Q282.22,52.145 282.708,51.893 Q283.197,51.64 283.832,51.64 Q284.45,51.64 284.939,51.893 Q285.427,52.145 285.769,52.56 Q286.111,52.975 286.298,53.513 Q286.485,54.05 286.502,54.636 z M281.064,55.499 L287.527,55.499 Q287.56,54.62 287.365,53.765 Q287.169,52.91 286.721,52.251 Q286.274,51.591 285.557,51.184 Q284.841,50.777 283.832,50.777 Q282.838,50.777 282.114,51.16 Q281.389,51.543 280.933,52.169 Q280.478,52.796 280.258,53.594 Q280.038,54.392 280.038,55.222 Q280.038,56.118 280.258,56.923 Q280.478,57.729 280.933,58.34 Q281.389,58.95 282.114,59.3 Q282.838,59.651 283.832,59.651 Q285.427,59.651 286.298,58.869 Q287.169,58.088 287.495,56.655 L286.469,56.655 Q286.225,57.632 285.59,58.218 Q284.955,58.804 283.832,58.804 Q283.099,58.804 282.578,58.495 Q282.057,58.185 281.715,57.713 Q281.373,57.241 281.218,56.647 Q281.064,56.052 281.064,55.499 z" fill="#717D8A"/>
    <path d="M288.924,51.044 L288.924,59.445 L289.949,59.445 L289.949,54.968 Q289.949,54.3 290.177,53.738 Q290.405,53.177 290.82,52.77 Q291.236,52.363 291.805,52.143 Q292.375,51.923 293.075,51.956 L293.075,50.93 Q291.936,50.881 291.113,51.435 Q290.291,51.988 289.9,53.014 L289.868,53.014 L289.868,51.044 z" fill="#717D8A"/>
    <path d="M63.271,32.673 L54.479,47.901 L36.896,47.901 L28.105,32.673 L36.896,17.446 L54.479,17.446 z" fill="#FFDB8B"/>
    <path d="M35.166,16.538 L26.374,31.765 L8.791,31.765 L0,16.538 L8.791,1.311 L26.374,1.311 z" fill="#FFDB8B"/>
    <path d="M35.166,48.771 L26.374,63.999 L8.791,63.999 L0,48.771 L8.791,33.544 L26.374,33.544 z" fill="#FFDB8B"/>
  </g>
</svg>
