<?xml version="1.0" encoding="UTF-8"?>
<!DOCTYPE svg PUBLIC "-//W3C//DTD SVG 1.1//EN" "http://www.w3.org/Graphics/SVG/1.1/DTD/svg11.dtd">
<svg version="1.1" xmlns="http://www.w3.org/2000/svg" xmlns:xlink="http://www.w3.org/1999/xlink" x="0" y="0" width="841.92" height="595.44" viewBox="0, 0, 841.92, 595.44">
  <g id="Layer_1">
    <path d="M170.083,166.713 L171.3,166.713 L171.3,176.608 L171.364,176.608 Q171.717,175.647 172.357,174.927 Q172.997,174.206 173.83,173.71 Q174.663,173.214 175.623,172.974 Q176.584,172.733 177.609,172.733 Q179.434,172.733 180.763,173.374 Q182.092,174.014 182.988,175.135 Q183.885,176.256 184.317,177.745 Q184.75,179.234 184.75,180.963 Q184.75,183.909 183.949,185.686 Q183.148,187.464 182.028,188.408 Q180.907,189.353 179.69,189.657 Q178.473,189.961 177.609,189.961 Q175.975,189.961 174.839,189.449 Q173.702,188.937 172.965,188.248 Q172.229,187.56 171.845,186.887 Q171.46,186.215 171.364,185.894 L171.3,185.894 L171.3,189.577 L170.083,189.577 z M177.609,188.905 Q179.242,188.905 180.362,188.2 Q181.483,187.496 182.188,186.359 Q182.892,185.222 183.212,183.797 Q183.533,182.372 183.533,180.963 Q183.533,179.586 183.164,178.305 Q182.796,177.024 182.044,176.016 Q181.291,175.007 180.186,174.399 Q179.082,173.79 177.609,173.79 Q176.008,173.79 174.823,174.335 Q173.638,174.879 172.869,175.84 Q172.101,176.8 171.717,178.113 Q171.332,179.426 171.332,180.963 Q171.332,182.468 171.685,183.909 Q172.037,185.35 172.789,186.455 Q173.542,187.56 174.727,188.232 Q175.911,188.905 177.609,188.905 z" fill="#717D8A"/>
    <path d="M187.884,170.012 L187.884,166.713 L189.101,166.713 L189.101,170.012 z M187.884,189.577 L187.884,173.118 L189.101,173.118 L189.101,189.577 z" fill="#717D8A"/>
    <path d="M192.211,181.347 Q192.211,179.586 192.707,178.033 Q193.203,176.48 194.164,175.295 Q195.125,174.11 196.534,173.422 Q197.943,172.733 199.768,172.733 Q201.593,172.733 203.002,173.422 Q204.411,174.11 205.372,175.295 Q206.332,176.48 206.829,178.033 Q207.325,179.586 207.325,181.347 Q207.325,183.109 206.829,184.678 Q206.332,186.247 205.372,187.416 Q204.411,188.584 203.002,189.273 Q201.593,189.961 199.768,189.961 Q197.943,189.961 196.534,189.273 Q195.125,188.584 194.164,187.416 Q193.203,186.247 192.707,184.678 Q192.211,183.109 192.211,181.347 z M193.427,181.347 Q193.427,182.82 193.844,184.181 Q194.26,185.542 195.061,186.599 Q195.861,187.656 197.046,188.28 Q198.231,188.905 199.768,188.905 Q201.305,188.905 202.49,188.28 Q203.675,187.656 204.475,186.599 Q205.276,185.542 205.692,184.181 Q206.108,182.82 206.108,181.347 Q206.108,179.874 205.692,178.513 Q205.276,177.152 204.475,176.096 Q203.675,175.039 202.49,174.415 Q201.305,173.79 199.768,173.79 Q198.231,173.79 197.046,174.415 Q195.861,175.039 195.061,176.096 Q194.26,177.152 193.844,178.513 Q193.427,179.874 193.427,181.347 z" fill="#717D8A"/>
    <path d="M208.67,173.022 L211.392,173.022 L211.392,171.645 Q211.392,170.076 211.776,169.099 Q212.161,168.122 212.801,167.594 Q213.441,167.066 214.258,166.889 Q215.075,166.713 215.971,166.713 Q217.732,166.713 218.533,166.937 L218.533,169.787 Q218.181,169.691 217.78,169.643 Q217.38,169.595 216.836,169.595 Q216.099,169.595 215.571,169.948 Q215.043,170.3 215.043,171.324 L215.043,173.022 L218.149,173.022 L218.149,175.743 L215.043,175.743 L215.043,189.577 L211.392,189.577 L211.392,175.743 L208.67,175.743 z" fill="#717D8A"/>
    <path d="M234.256,185.894 Q234.256,186.567 234.432,186.855 Q234.608,187.143 235.12,187.143 Q235.28,187.143 235.505,187.143 Q235.729,187.143 236.017,187.079 L236.017,189.609 Q235.825,189.673 235.521,189.753 Q235.216,189.833 234.896,189.897 Q234.576,189.961 234.256,189.993 Q233.936,190.025 233.711,190.025 Q232.591,190.025 231.854,189.577 Q231.118,189.129 230.893,188.008 Q229.805,189.065 228.22,189.545 Q226.635,190.025 225.162,190.025 Q224.041,190.025 223.016,189.721 Q221.991,189.417 221.207,188.824 Q220.422,188.232 219.958,187.319 Q219.494,186.407 219.494,185.19 Q219.494,183.653 220.054,182.692 Q220.614,181.732 221.527,181.187 Q222.44,180.643 223.576,180.403 Q224.713,180.163 225.866,180.034 Q226.859,179.842 227.755,179.762 Q228.652,179.682 229.34,179.49 Q230.029,179.298 230.429,178.898 Q230.829,178.497 230.829,177.697 Q230.829,176.992 230.493,176.544 Q230.157,176.096 229.661,175.856 Q229.164,175.615 228.556,175.535 Q227.947,175.455 227.403,175.455 Q225.866,175.455 224.873,176.096 Q223.881,176.736 223.753,178.081 L220.102,178.081 Q220.198,176.48 220.871,175.423 Q221.543,174.367 222.584,173.726 Q223.624,173.086 224.937,172.829 Q226.25,172.573 227.627,172.573 Q228.844,172.573 230.029,172.829 Q231.214,173.086 232.158,173.662 Q233.103,174.238 233.679,175.151 Q234.256,176.064 234.256,177.377 z M230.605,181.283 Q229.773,181.828 228.556,181.94 Q227.339,182.052 226.122,182.276 Q225.546,182.372 225.001,182.548 Q224.457,182.724 224.041,183.029 Q223.624,183.333 223.384,183.829 Q223.144,184.325 223.144,185.03 Q223.144,185.638 223.496,186.055 Q223.849,186.471 224.345,186.711 Q224.841,186.951 225.434,187.047 Q226.026,187.143 226.506,187.143 Q227.115,187.143 227.819,186.983 Q228.524,186.823 229.148,186.439 Q229.773,186.055 230.189,185.462 Q230.605,184.87 230.605,184.005 z" fill="#717D8A"/>
    <path d="M249.367,178.561 Q249.143,177.024 248.134,176.24 Q247.125,175.455 245.588,175.455 Q244.884,175.455 244.083,175.695 Q243.283,175.936 242.61,176.592 Q241.938,177.249 241.49,178.417 Q241.041,179.586 241.041,181.475 Q241.041,182.5 241.281,183.525 Q241.522,184.55 242.05,185.35 Q242.578,186.151 243.411,186.647 Q244.243,187.143 245.428,187.143 Q247.029,187.143 248.07,186.151 Q249.111,185.158 249.367,183.365 L253.017,183.365 Q252.505,186.599 250.568,188.312 Q248.63,190.025 245.428,190.025 Q243.475,190.025 241.986,189.369 Q240.497,188.712 239.472,187.576 Q238.447,186.439 237.919,184.87 Q237.391,183.301 237.391,181.475 Q237.391,179.618 237.903,177.985 Q238.415,176.352 239.44,175.151 Q240.465,173.95 241.986,173.262 Q243.507,172.573 245.556,172.573 Q246.997,172.573 248.294,172.942 Q249.591,173.31 250.6,174.046 Q251.608,174.783 252.249,175.904 Q252.889,177.024 253.017,178.561 z" fill="#717D8A"/>
    <path d="M254.327,173.022 L257.081,173.022 L257.081,168.058 L260.732,168.058 L260.732,173.022 L264.03,173.022 L264.03,175.743 L260.732,175.743 L260.732,184.582 Q260.732,185.158 260.78,185.574 Q260.828,185.991 261.004,186.279 Q261.18,186.567 261.532,186.711 Q261.884,186.855 262.493,186.855 Q262.877,186.855 263.261,186.839 Q263.646,186.823 264.03,186.727 L264.03,189.545 Q263.421,189.609 262.845,189.673 Q262.269,189.737 261.66,189.737 Q260.219,189.737 259.339,189.465 Q258.458,189.193 257.962,188.664 Q257.465,188.136 257.289,187.335 Q257.113,186.535 257.081,185.51 L257.081,175.743 L254.327,175.743 z" fill="#717D8A"/>
    <path d="M265.766,181.347 Q265.766,179.586 266.262,178.033 Q266.758,176.48 267.719,175.295 Q268.68,174.11 270.089,173.422 Q271.498,172.733 273.323,172.733 Q275.148,172.733 276.557,173.422 Q277.966,174.11 278.927,175.295 Q279.887,176.48 280.384,178.033 Q280.88,179.586 280.88,181.347 Q280.88,183.109 280.384,184.678 Q279.887,186.247 278.927,187.416 Q277.966,188.584 276.557,189.273 Q275.148,189.961 273.323,189.961 Q271.498,189.961 270.089,189.273 Q268.68,188.584 267.719,187.416 Q266.758,186.247 266.262,184.678 Q265.766,183.109 265.766,181.347 z M266.983,181.347 Q266.983,182.82 267.399,184.181 Q267.815,185.542 268.616,186.599 Q269.416,187.656 270.601,188.28 Q271.786,188.905 273.323,188.905 Q274.86,188.905 276.045,188.28 Q277.23,187.656 278.03,186.599 Q278.831,185.542 279.247,184.181 Q279.663,182.82 279.663,181.347 Q279.663,179.874 279.247,178.513 Q278.831,177.152 278.03,176.096 Q277.23,175.039 276.045,174.415 Q274.86,173.79 273.323,173.79 Q271.786,173.79 270.601,174.415 Q269.416,175.039 268.616,176.096 Q267.815,177.152 267.399,178.513 Q266.983,179.874 266.983,181.347 z" fill="#717D8A"/>
    <path d="M284.021,170.012 L284.021,166.713 L285.238,166.713 L285.238,170.012 z M284.021,189.577 L284.021,173.118 L285.238,173.118 L285.238,189.577 z" fill="#717D8A"/>
    <path d="M301.829,186.055 L301.765,186.055 Q300.74,188.008 299.203,188.985 Q297.666,189.961 295.457,189.961 Q293.599,189.961 292.254,189.257 Q290.909,188.552 290.045,187.367 Q289.18,186.183 288.764,184.63 Q288.348,183.077 288.348,181.379 Q288.348,179.554 288.796,177.969 Q289.244,176.384 290.157,175.231 Q291.069,174.078 292.446,173.406 Q293.823,172.733 295.681,172.733 Q296.673,172.733 297.634,173.006 Q298.595,173.278 299.411,173.79 Q300.228,174.303 300.836,175.071 Q301.445,175.84 301.765,176.8 L301.829,176.8 L301.829,166.713 L303.046,166.713 L303.046,189.577 L301.829,189.577 z M295.713,188.905 Q297.282,188.905 298.419,188.264 Q299.555,187.624 300.308,186.567 Q301.06,185.51 301.429,184.149 Q301.797,182.788 301.797,181.379 Q301.797,179.938 301.429,178.577 Q301.06,177.217 300.324,176.144 Q299.587,175.071 298.419,174.431 Q297.25,173.79 295.681,173.79 Q294.048,173.79 292.895,174.415 Q291.742,175.039 290.989,176.096 Q290.237,177.152 289.901,178.529 Q289.564,179.906 289.564,181.379 Q289.564,182.82 289.933,184.181 Q290.301,185.542 291.053,186.599 Q291.806,187.656 292.959,188.28 Q294.112,188.905 295.713,188.905 z" fill="#717D8A"/>
    <path d="M177.968,198.089 Q178.013,198.539 178.311,198.719 Q178.608,198.9 179.022,198.9 Q179.166,198.9 179.351,198.877 Q179.535,198.854 179.698,198.791 Q179.86,198.728 179.963,198.607 Q180.067,198.485 180.058,198.287 Q180.049,198.089 179.914,197.963 Q179.779,197.837 179.567,197.76 Q179.355,197.684 179.085,197.63 Q178.815,197.576 178.536,197.513 Q178.248,197.45 177.982,197.359 Q177.716,197.269 177.505,197.116 Q177.293,196.963 177.167,196.725 Q177.041,196.486 177.041,196.135 Q177.041,195.756 177.225,195.5 Q177.41,195.243 177.694,195.085 Q177.977,194.928 178.324,194.865 Q178.671,194.802 178.986,194.802 Q179.346,194.802 179.675,194.878 Q180.004,194.955 180.269,195.126 Q180.535,195.297 180.711,195.572 Q180.886,195.846 180.931,196.234 L179.86,196.234 Q179.788,195.864 179.522,195.738 Q179.256,195.612 178.914,195.612 Q178.806,195.612 178.657,195.63 Q178.509,195.648 178.378,195.698 Q178.248,195.747 178.158,195.842 Q178.067,195.936 178.067,196.09 Q178.067,196.279 178.198,196.396 Q178.329,196.513 178.54,196.589 Q178.752,196.666 179.022,196.72 Q179.292,196.774 179.581,196.837 Q179.86,196.9 180.13,196.99 Q180.4,197.08 180.612,197.233 Q180.823,197.386 180.954,197.621 Q181.085,197.855 181.085,198.197 Q181.085,198.611 180.895,198.9 Q180.706,199.188 180.405,199.368 Q180.103,199.548 179.734,199.629 Q179.364,199.71 179.004,199.71 Q178.563,199.71 178.189,199.611 Q177.815,199.512 177.541,199.309 Q177.266,199.107 177.108,198.805 Q176.951,198.503 176.942,198.089 z" fill="#717D8A"/>
    <path d="M185.961,199.584 L184.952,199.584 L184.952,198.936 L184.934,198.936 Q184.745,199.287 184.371,199.498 Q183.997,199.71 183.61,199.71 Q182.691,199.71 182.281,199.255 Q181.872,198.8 181.872,197.882 L181.872,194.928 L182.898,194.928 L182.898,197.783 Q182.898,198.395 183.133,198.647 Q183.367,198.9 183.79,198.9 Q184.114,198.9 184.33,198.8 Q184.547,198.701 184.682,198.535 Q184.817,198.368 184.875,198.134 Q184.934,197.9 184.934,197.63 L184.934,194.928 L185.961,194.928 z" fill="#717D8A"/>
    <path d="M187.042,194.928 L188.015,194.928 L188.015,195.576 L188.042,195.576 Q188.159,195.405 188.294,195.261 Q188.429,195.117 188.596,195.018 Q188.762,194.919 188.978,194.86 Q189.195,194.802 189.474,194.802 Q189.897,194.802 190.262,194.991 Q190.627,195.18 190.78,195.576 Q191.041,195.216 191.383,195.009 Q191.725,194.802 192.239,194.802 Q192.977,194.802 193.387,195.162 Q193.797,195.522 193.797,196.369 L193.797,199.584 L192.77,199.584 L192.77,196.864 Q192.77,196.585 192.752,196.355 Q192.734,196.126 192.649,195.959 Q192.563,195.792 192.392,195.702 Q192.221,195.612 191.924,195.612 Q191.401,195.612 191.167,195.936 Q190.933,196.261 190.933,196.855 L190.933,199.584 L189.906,199.584 L189.906,196.594 Q189.906,196.108 189.73,195.86 Q189.555,195.612 189.087,195.612 Q188.888,195.612 188.704,195.693 Q188.519,195.774 188.38,195.927 Q188.24,196.081 188.154,196.306 Q188.069,196.531 188.069,196.819 L188.069,199.584 L187.042,199.584 z" fill="#717D8A"/>
    <path d="M194.878,194.928 L195.851,194.928 L195.851,195.576 L195.878,195.576 Q195.995,195.405 196.13,195.261 Q196.265,195.117 196.432,195.018 Q196.599,194.919 196.815,194.86 Q197.031,194.802 197.31,194.802 Q197.733,194.802 198.098,194.991 Q198.463,195.18 198.616,195.576 Q198.877,195.216 199.219,195.009 Q199.562,194.802 200.075,194.802 Q200.814,194.802 201.223,195.162 Q201.633,195.522 201.633,196.369 L201.633,199.584 L200.606,199.584 L200.606,196.864 Q200.606,196.585 200.588,196.355 Q200.57,196.126 200.485,195.959 Q200.399,195.792 200.228,195.702 Q200.057,195.612 199.76,195.612 Q199.237,195.612 199.003,195.936 Q198.769,196.261 198.769,196.855 L198.769,199.584 L197.742,199.584 L197.742,196.594 Q197.742,196.108 197.567,195.86 Q197.391,195.612 196.923,195.612 Q196.725,195.612 196.54,195.693 Q196.355,195.774 196.216,195.927 Q196.076,196.081 195.991,196.306 Q195.905,196.531 195.905,196.819 L195.905,199.584 L194.878,199.584 z" fill="#717D8A"/>
    <path d="M206.614,198.548 Q206.614,198.737 206.664,198.818 Q206.713,198.9 206.858,198.9 Q206.903,198.9 206.966,198.9 Q207.029,198.9 207.11,198.882 L207.11,199.593 Q207.056,199.611 206.97,199.634 Q206.885,199.656 206.795,199.674 Q206.704,199.692 206.614,199.701 Q206.524,199.71 206.461,199.71 Q206.146,199.71 205.939,199.584 Q205.732,199.458 205.669,199.143 Q205.363,199.44 204.917,199.575 Q204.471,199.71 204.057,199.71 Q203.741,199.71 203.453,199.625 Q203.165,199.539 202.944,199.372 Q202.724,199.206 202.593,198.949 Q202.463,198.692 202.463,198.35 Q202.463,197.918 202.62,197.648 Q202.778,197.377 203.034,197.224 Q203.291,197.071 203.611,197.004 Q203.931,196.936 204.255,196.9 Q204.534,196.846 204.786,196.824 Q205.038,196.801 205.232,196.747 Q205.426,196.693 205.538,196.58 Q205.651,196.468 205.651,196.243 Q205.651,196.045 205.556,195.918 Q205.462,195.792 205.322,195.725 Q205.182,195.657 205.011,195.635 Q204.84,195.612 204.687,195.612 Q204.255,195.612 203.976,195.792 Q203.696,195.973 203.66,196.351 L202.634,196.351 Q202.661,195.9 202.85,195.603 Q203.039,195.306 203.332,195.126 Q203.624,194.946 203.994,194.874 Q204.363,194.802 204.75,194.802 Q205.092,194.802 205.426,194.874 Q205.759,194.946 206.025,195.108 Q206.29,195.27 206.452,195.527 Q206.614,195.783 206.614,196.153 z M205.588,197.251 Q205.354,197.404 205.011,197.436 Q204.669,197.468 204.327,197.531 Q204.165,197.558 204.012,197.607 Q203.859,197.657 203.741,197.742 Q203.624,197.828 203.557,197.967 Q203.489,198.107 203.489,198.305 Q203.489,198.476 203.588,198.593 Q203.687,198.71 203.827,198.778 Q203.967,198.845 204.133,198.873 Q204.3,198.9 204.435,198.9 Q204.606,198.9 204.804,198.854 Q205.002,198.809 205.178,198.701 Q205.354,198.593 205.471,198.427 Q205.588,198.26 205.588,198.017 z" fill="#717D8A"/>
    <path d="M207.721,194.928 L208.685,194.928 L208.685,195.828 L208.703,195.828 Q208.748,195.639 208.879,195.459 Q209.009,195.279 209.194,195.13 Q209.378,194.982 209.604,194.892 Q209.829,194.802 210.063,194.802 Q210.243,194.802 210.311,194.811 Q210.378,194.82 210.45,194.829 L210.45,195.819 Q210.342,195.801 210.23,195.788 Q210.117,195.774 210.009,195.774 Q209.748,195.774 209.518,195.878 Q209.288,195.982 209.117,196.184 Q208.946,196.387 208.847,196.684 Q208.748,196.981 208.748,197.368 L208.748,199.584 L207.721,199.584 z" fill="#717D8A"/>
    <path d="M210.918,193.154 L211.944,193.154 L211.944,194.126 L210.918,194.126 z M210.918,194.928 L211.944,194.928 L211.944,199.584 L210.918,199.584 z" fill="#717D8A"/>
    <path d="M212.9,194.928 L216.682,194.928 L216.682,195.648 L214.017,198.773 L216.818,198.773 L216.818,199.584 L212.72,199.584 L212.72,198.864 L215.296,195.738 L212.9,195.738 z" fill="#717D8A"/>
    <path d="M220.742,196.846 Q220.724,196.603 220.638,196.378 Q220.553,196.153 220.404,195.986 Q220.256,195.819 220.044,195.716 Q219.832,195.612 219.571,195.612 Q219.301,195.612 219.08,195.707 Q218.86,195.801 218.702,195.968 Q218.544,196.135 218.45,196.36 Q218.355,196.585 218.346,196.846 z M218.346,197.522 Q218.346,197.792 218.423,198.044 Q218.499,198.296 218.652,198.485 Q218.806,198.674 219.04,198.787 Q219.274,198.9 219.598,198.9 Q220.048,198.9 220.323,198.706 Q220.598,198.512 220.733,198.125 L221.706,198.125 Q221.625,198.503 221.426,198.8 Q221.228,199.098 220.949,199.3 Q220.67,199.503 220.323,199.607 Q219.976,199.71 219.598,199.71 Q219.049,199.71 218.625,199.53 Q218.202,199.35 217.909,199.026 Q217.617,198.701 217.468,198.251 Q217.32,197.801 217.32,197.26 Q217.32,196.765 217.477,196.319 Q217.635,195.873 217.927,195.536 Q218.22,195.198 218.634,195 Q219.049,194.802 219.571,194.802 Q220.12,194.802 220.557,195.031 Q220.994,195.261 221.282,195.639 Q221.57,196.018 221.701,196.508 Q221.832,196.999 221.769,197.522 z" fill="#717D8A"/>
    <path d="M224.967,197.441 Q224.967,197.218 225.051,197.023 Q225.135,196.828 225.28,196.684 Q225.424,196.54 225.619,196.456 Q225.814,196.372 226.036,196.372 Q226.258,196.372 226.453,196.456 Q226.648,196.54 226.796,196.684 Q226.943,196.828 227.027,197.023 Q227.111,197.218 227.111,197.441 Q227.111,197.663 227.027,197.858 Q226.943,198.053 226.796,198.2 Q226.648,198.347 226.453,198.431 Q226.258,198.515 226.036,198.515 Q225.814,198.515 225.619,198.431 Q225.424,198.347 225.28,198.2 Q225.135,198.053 225.051,197.858 Q224.967,197.663 224.967,197.441 z" fill="#717D8A"/>
    <path d="M231.351,198.089 Q231.396,198.539 231.694,198.719 Q231.991,198.9 232.405,198.9 Q232.549,198.9 232.734,198.877 Q232.918,198.854 233.081,198.791 Q233.243,198.728 233.346,198.607 Q233.45,198.485 233.441,198.287 Q233.432,198.089 233.297,197.963 Q233.162,197.837 232.95,197.76 Q232.738,197.684 232.468,197.63 Q232.198,197.576 231.919,197.513 Q231.631,197.45 231.365,197.359 Q231.099,197.269 230.888,197.116 Q230.676,196.963 230.55,196.725 Q230.424,196.486 230.424,196.135 Q230.424,195.756 230.608,195.5 Q230.793,195.243 231.077,195.085 Q231.36,194.928 231.707,194.865 Q232.054,194.802 232.369,194.802 Q232.729,194.802 233.058,194.878 Q233.387,194.955 233.652,195.126 Q233.918,195.297 234.094,195.572 Q234.269,195.846 234.314,196.234 L233.243,196.234 Q233.171,195.864 232.905,195.738 Q232.639,195.612 232.297,195.612 Q232.189,195.612 232.04,195.63 Q231.892,195.648 231.761,195.698 Q231.631,195.747 231.541,195.842 Q231.45,195.936 231.45,196.09 Q231.45,196.279 231.581,196.396 Q231.712,196.513 231.923,196.589 Q232.135,196.666 232.405,196.72 Q232.675,196.774 232.964,196.837 Q233.243,196.9 233.513,196.99 Q233.783,197.08 233.995,197.233 Q234.206,197.386 234.337,197.621 Q234.468,197.855 234.468,198.197 Q234.468,198.611 234.278,198.9 Q234.089,199.188 233.788,199.368 Q233.486,199.548 233.117,199.629 Q232.747,199.71 232.387,199.71 Q231.946,199.71 231.572,199.611 Q231.198,199.512 230.924,199.309 Q230.649,199.107 230.491,198.805 Q230.334,198.503 230.325,198.089 z" fill="#717D8A"/>
    <path d="M235.255,193.154 L236.281,193.154 L236.281,195.54 L236.299,195.54 Q236.489,195.225 236.862,195.013 Q237.236,194.802 237.695,194.802 Q238.461,194.802 238.902,195.198 Q239.344,195.594 239.344,196.387 L239.344,199.584 L238.317,199.584 L238.317,196.657 Q238.299,196.108 238.083,195.86 Q237.866,195.612 237.407,195.612 Q237.146,195.612 236.939,195.707 Q236.732,195.801 236.588,195.968 Q236.444,196.135 236.362,196.36 Q236.281,196.585 236.281,196.837 L236.281,199.584 L235.255,199.584 z" fill="#717D8A"/>
    <path d="M244.325,198.548 Q244.325,198.737 244.374,198.818 Q244.424,198.9 244.568,198.9 Q244.613,198.9 244.676,198.9 Q244.739,198.9 244.82,198.882 L244.82,199.593 Q244.766,199.611 244.681,199.634 Q244.595,199.656 244.505,199.674 Q244.415,199.692 244.325,199.701 Q244.235,199.71 244.172,199.71 Q243.857,199.71 243.649,199.584 Q243.442,199.458 243.379,199.143 Q243.073,199.44 242.627,199.575 Q242.181,199.71 241.767,199.71 Q241.452,199.71 241.164,199.625 Q240.875,199.539 240.655,199.372 Q240.434,199.206 240.304,198.949 Q240.173,198.692 240.173,198.35 Q240.173,197.918 240.331,197.648 Q240.488,197.377 240.745,197.224 Q241.002,197.071 241.321,197.004 Q241.641,196.936 241.965,196.9 Q242.244,196.846 242.497,196.824 Q242.749,196.801 242.942,196.747 Q243.136,196.693 243.249,196.58 Q243.361,196.468 243.361,196.243 Q243.361,196.045 243.267,195.918 Q243.172,195.792 243.032,195.725 Q242.893,195.657 242.722,195.635 Q242.551,195.612 242.398,195.612 Q241.965,195.612 241.686,195.792 Q241.407,195.973 241.371,196.351 L240.344,196.351 Q240.371,195.9 240.56,195.603 Q240.749,195.306 241.042,195.126 Q241.335,194.946 241.704,194.874 Q242.073,194.802 242.461,194.802 Q242.803,194.802 243.136,194.874 Q243.469,194.946 243.735,195.108 Q244.001,195.27 244.163,195.527 Q244.325,195.783 244.325,196.153 z M243.298,197.251 Q243.064,197.404 242.722,197.436 Q242.38,197.468 242.037,197.531 Q241.875,197.558 241.722,197.607 Q241.569,197.657 241.452,197.742 Q241.335,197.828 241.267,197.967 Q241.2,198.107 241.2,198.305 Q241.2,198.476 241.299,198.593 Q241.398,198.71 241.537,198.778 Q241.677,198.845 241.844,198.873 Q242.01,198.9 242.145,198.9 Q242.316,198.9 242.515,198.854 Q242.713,198.809 242.888,198.701 Q243.064,198.593 243.181,198.427 Q243.298,198.26 243.298,198.017 z" fill="#717D8A"/>
    <path d="M245.432,194.928 L246.395,194.928 L246.395,195.828 L246.413,195.828 Q246.458,195.639 246.589,195.459 Q246.72,195.279 246.904,195.13 Q247.089,194.982 247.314,194.892 Q247.539,194.802 247.773,194.802 Q247.953,194.802 248.021,194.811 Q248.089,194.82 248.161,194.829 L248.161,195.819 Q248.053,195.801 247.94,195.788 Q247.827,195.774 247.719,195.774 Q247.458,195.774 247.228,195.878 Q246.999,195.982 246.828,196.184 Q246.657,196.387 246.557,196.684 Q246.458,196.981 246.458,197.368 L246.458,199.584 L245.432,199.584 z" fill="#717D8A"/>
    <path d="M251.616,196.846 Q251.598,196.603 251.512,196.378 Q251.427,196.153 251.278,195.986 Q251.129,195.819 250.918,195.716 Q250.706,195.612 250.445,195.612 Q250.175,195.612 249.954,195.707 Q249.733,195.801 249.576,195.968 Q249.418,196.135 249.324,196.36 Q249.229,196.585 249.22,196.846 z M249.22,197.522 Q249.22,197.792 249.297,198.044 Q249.373,198.296 249.526,198.485 Q249.679,198.674 249.914,198.787 Q250.148,198.9 250.472,198.9 Q250.922,198.9 251.197,198.706 Q251.472,198.512 251.607,198.125 L252.579,198.125 Q252.498,198.503 252.3,198.8 Q252.102,199.098 251.823,199.3 Q251.544,199.503 251.197,199.607 Q250.85,199.71 250.472,199.71 Q249.923,199.71 249.499,199.53 Q249.076,199.35 248.783,199.026 Q248.491,198.701 248.342,198.251 Q248.193,197.801 248.193,197.26 Q248.193,196.765 248.351,196.319 Q248.509,195.873 248.801,195.536 Q249.094,195.198 249.508,195 Q249.923,194.802 250.445,194.802 Q250.994,194.802 251.431,195.031 Q251.868,195.261 252.156,195.639 Q252.444,196.018 252.575,196.508 Q252.705,196.999 252.642,197.522 z" fill="#717D8A"/>
    <path d="M255.843,197.441 Q255.843,197.218 255.927,197.023 Q256.011,196.828 256.156,196.684 Q256.3,196.54 256.495,196.456 Q256.69,196.372 256.912,196.372 Q257.134,196.372 257.329,196.456 Q257.524,196.54 257.672,196.684 Q257.819,196.828 257.903,197.023 Q257.987,197.218 257.987,197.441 Q257.987,197.663 257.903,197.858 Q257.819,198.053 257.672,198.2 Q257.524,198.347 257.329,198.431 Q257.134,198.515 256.912,198.515 Q256.69,198.515 256.495,198.431 Q256.3,198.347 256.156,198.2 Q256.011,198.053 255.927,197.858 Q255.843,197.663 255.843,197.441 z" fill="#717D8A"/>
    <path d="M265.843,199.584 L264.871,199.584 L264.871,198.954 L264.853,198.954 Q264.646,199.359 264.249,199.534 Q263.853,199.71 263.412,199.71 Q262.862,199.71 262.453,199.516 Q262.043,199.323 261.773,198.99 Q261.502,198.656 261.367,198.202 Q261.232,197.747 261.232,197.224 Q261.232,196.594 261.403,196.135 Q261.574,195.675 261.858,195.378 Q262.142,195.081 262.507,194.941 Q262.871,194.802 263.25,194.802 Q263.466,194.802 263.691,194.842 Q263.916,194.883 264.123,194.973 Q264.33,195.063 264.506,195.202 Q264.682,195.342 264.799,195.531 L264.817,195.531 L264.817,193.154 L265.843,193.154 z M262.259,197.305 Q262.259,197.603 262.335,197.891 Q262.412,198.179 262.57,198.404 Q262.727,198.629 262.97,198.764 Q263.214,198.9 263.547,198.9 Q263.889,198.9 264.137,198.755 Q264.384,198.611 264.542,198.377 Q264.7,198.143 264.776,197.85 Q264.853,197.558 264.853,197.251 Q264.853,196.477 264.506,196.045 Q264.159,195.612 263.565,195.612 Q263.205,195.612 262.957,195.761 Q262.709,195.909 262.552,196.148 Q262.394,196.387 262.326,196.689 Q262.259,196.99 262.259,197.305 z" fill="#717D8A"/>
    <path d="M266.986,193.154 L268.013,193.154 L268.013,194.126 L266.986,194.126 z M266.986,194.928 L268.013,194.928 L268.013,199.584 L266.986,199.584 z" fill="#717D8A"/>
    <path d="M269.901,198.089 Q269.946,198.539 270.243,198.719 Q270.54,198.9 270.954,198.9 Q271.099,198.9 271.283,198.877 Q271.468,198.854 271.63,198.791 Q271.792,198.728 271.896,198.607 Q271.999,198.485 271.99,198.287 Q271.981,198.089 271.846,197.963 Q271.711,197.837 271.499,197.76 Q271.288,197.684 271.017,197.63 Q270.747,197.576 270.468,197.513 Q270.18,197.45 269.914,197.359 Q269.648,197.269 269.437,197.116 Q269.225,196.963 269.099,196.725 Q268.973,196.486 268.973,196.135 Q268.973,195.756 269.158,195.5 Q269.342,195.243 269.626,195.085 Q269.91,194.928 270.256,194.865 Q270.603,194.802 270.918,194.802 Q271.279,194.802 271.607,194.878 Q271.936,194.955 272.202,195.126 Q272.467,195.297 272.643,195.572 Q272.819,195.846 272.864,196.234 L271.792,196.234 Q271.72,195.864 271.454,195.738 Q271.189,195.612 270.846,195.612 Q270.738,195.612 270.59,195.63 Q270.441,195.648 270.31,195.698 Q270.18,195.747 270.09,195.842 Q270,195.936 270,196.09 Q270,196.279 270.13,196.396 Q270.261,196.513 270.473,196.589 Q270.684,196.666 270.954,196.72 Q271.225,196.774 271.513,196.837 Q271.792,196.9 272.062,196.99 Q272.332,197.08 272.544,197.233 Q272.756,197.386 272.886,197.621 Q273.017,197.855 273.017,198.197 Q273.017,198.611 272.828,198.9 Q272.639,199.188 272.337,199.368 Q272.035,199.548 271.666,199.629 Q271.297,199.71 270.936,199.71 Q270.495,199.71 270.121,199.611 Q269.748,199.512 269.473,199.309 Q269.198,199.107 269.041,198.805 Q268.883,198.503 268.874,198.089 z" fill="#717D8A"/>
    <path d="M276.947,196.486 Q276.884,196.054 276.6,195.833 Q276.317,195.612 275.884,195.612 Q275.686,195.612 275.461,195.68 Q275.236,195.747 275.047,195.932 Q274.858,196.117 274.732,196.445 Q274.606,196.774 274.606,197.305 Q274.606,197.594 274.673,197.882 Q274.741,198.17 274.889,198.395 Q275.038,198.62 275.272,198.76 Q275.506,198.9 275.839,198.9 Q276.29,198.9 276.582,198.62 Q276.875,198.341 276.947,197.837 L277.974,197.837 Q277.83,198.746 277.285,199.228 Q276.74,199.71 275.839,199.71 Q275.29,199.71 274.871,199.525 Q274.452,199.341 274.164,199.021 Q273.876,198.701 273.727,198.26 Q273.579,197.819 273.579,197.305 Q273.579,196.783 273.723,196.324 Q273.867,195.864 274.155,195.527 Q274.443,195.189 274.871,194.995 Q275.299,194.802 275.875,194.802 Q276.281,194.802 276.645,194.905 Q277.01,195.009 277.294,195.216 Q277.578,195.423 277.758,195.738 Q277.938,196.054 277.974,196.486 z" fill="#717D8A"/>
    <path d="M280.945,199.71 Q280.387,199.71 279.95,199.525 Q279.513,199.341 279.211,199.017 Q278.91,198.692 278.752,198.242 Q278.594,197.792 278.594,197.251 Q278.594,196.72 278.752,196.27 Q278.91,195.819 279.211,195.495 Q279.513,195.171 279.95,194.986 Q280.387,194.802 280.945,194.802 Q281.503,194.802 281.94,194.986 Q282.377,195.171 282.679,195.495 Q282.98,195.819 283.138,196.27 Q283.296,196.72 283.296,197.251 Q283.296,197.792 283.138,198.242 Q282.98,198.692 282.679,199.017 Q282.377,199.341 281.94,199.525 Q281.503,199.71 280.945,199.71 z M280.945,198.9 Q281.287,198.9 281.539,198.755 Q281.792,198.611 281.954,198.377 Q282.116,198.143 282.192,197.85 Q282.269,197.558 282.269,197.251 Q282.269,196.954 282.192,196.657 Q282.116,196.36 281.954,196.13 Q281.792,195.9 281.539,195.756 Q281.287,195.612 280.945,195.612 Q280.603,195.612 280.351,195.756 Q280.098,195.9 279.936,196.13 Q279.774,196.36 279.698,196.657 Q279.621,196.954 279.621,197.251 Q279.621,197.558 279.698,197.85 Q279.774,198.143 279.936,198.377 Q280.098,198.611 280.351,198.755 Q280.603,198.9 280.945,198.9 z" fill="#717D8A"/>
    <path d="M283.691,194.928 L284.808,194.928 L285.988,198.503 L286.006,198.503 L287.14,194.928 L288.203,194.928 L286.537,199.584 L285.384,199.584 z" fill="#717D8A"/>
    <path d="M292,196.846 Q291.982,196.603 291.896,196.378 Q291.81,196.153 291.662,195.986 Q291.513,195.819 291.302,195.716 Q291.09,195.612 290.829,195.612 Q290.559,195.612 290.338,195.707 Q290.117,195.801 289.96,195.968 Q289.802,196.135 289.707,196.36 Q289.613,196.585 289.604,196.846 z M289.604,197.522 Q289.604,197.792 289.68,198.044 Q289.757,198.296 289.91,198.485 Q290.063,198.674 290.297,198.787 Q290.532,198.9 290.856,198.9 Q291.306,198.9 291.581,198.706 Q291.855,198.512 291.991,198.125 L292.963,198.125 Q292.882,198.503 292.684,198.8 Q292.486,199.098 292.207,199.3 Q291.927,199.503 291.581,199.607 Q291.234,199.71 290.856,199.71 Q290.306,199.71 289.883,199.53 Q289.46,199.35 289.167,199.026 Q288.874,198.701 288.726,198.251 Q288.577,197.801 288.577,197.26 Q288.577,196.765 288.735,196.319 Q288.892,195.873 289.185,195.536 Q289.478,195.198 289.892,195 Q290.306,194.802 290.829,194.802 Q291.378,194.802 291.815,195.031 Q292.252,195.261 292.54,195.639 Q292.828,196.018 292.959,196.508 Q293.089,196.999 293.026,197.522 z" fill="#717D8A"/>
    <path d="M293.83,194.928 L294.794,194.928 L294.794,195.828 L294.812,195.828 Q294.857,195.639 294.987,195.459 Q295.118,195.279 295.303,195.13 Q295.487,194.982 295.712,194.892 Q295.938,194.802 296.172,194.802 Q296.352,194.802 296.419,194.811 Q296.487,194.82 296.559,194.829 L296.559,195.819 Q296.451,195.801 296.338,195.788 Q296.226,195.774 296.118,195.774 Q295.857,195.774 295.627,195.878 Q295.397,195.982 295.226,196.184 Q295.055,196.387 294.956,196.684 Q294.857,196.981 294.857,197.368 L294.857,199.584 L293.83,199.584 z" fill="#717D8A"/>
    <path d="M275.54,120.829 L265.693,137.885 L246,137.885 L236.153,120.829 L246,103.774 L265.693,103.774 z" fill="#FFDB8B"/>
    <path d="M244.062,102.757 L234.215,119.812 L214.521,119.812 L204.674,102.757 L214.521,85.702 L234.215,85.702 z" fill="#FFDB8B"/>
    <path d="M244.062,138.86 L234.215,155.915 L214.521,155.915 L204.674,138.86 L214.521,121.805 L234.215,121.805 z" fill="#FFDB8B"/>
    <path d="M267.031,332.783 L258.469,347.613 L241.345,347.613 L232.783,332.783 L241.345,317.953 L258.469,317.953 z" fill="#FFDB8B"/>
    <path d="M239.66,317.069 L231.098,331.899 L213.974,331.899 L205.411,317.069 L213.974,302.239 L231.098,302.239 z" fill="#FFDB8B"/>
    <path d="M239.66,348.461 L231.098,363.291 L213.974,363.291 L205.411,348.461 L213.974,333.631 L231.098,333.631 z" fill="#FFDB8B"/>
    <path d="M242.702,349.453 L243.418,349.453 L243.418,355.279 L243.456,355.279 Q243.663,354.713 244.04,354.289 Q244.417,353.865 244.908,353.573 Q245.398,353.28 245.963,353.139 Q246.529,352.997 247.132,352.997 Q248.207,352.997 248.99,353.375 Q249.772,353.752 250.3,354.412 Q250.828,355.071 251.082,355.948 Q251.337,356.825 251.337,357.843 Q251.337,359.578 250.866,360.624 Q250.394,361.671 249.734,362.227 Q249.074,362.783 248.358,362.962 Q247.641,363.141 247.132,363.141 Q246.171,363.141 245.501,362.84 Q244.832,362.538 244.398,362.133 Q243.965,361.727 243.739,361.331 Q243.512,360.935 243.456,360.747 L243.418,360.747 L243.418,362.915 L242.702,362.915 z M247.132,362.519 Q248.094,362.519 248.754,362.104 Q249.414,361.689 249.829,361.02 Q250.243,360.351 250.432,359.512 Q250.62,358.673 250.62,357.843 Q250.62,357.032 250.404,356.278 Q250.187,355.524 249.744,354.93 Q249.301,354.336 248.65,353.978 Q248,353.62 247.132,353.62 Q246.19,353.62 245.492,353.94 Q244.794,354.261 244.342,354.826 Q243.889,355.392 243.663,356.165 Q243.437,356.938 243.437,357.843 Q243.437,358.729 243.644,359.578 Q243.852,360.426 244.295,361.077 Q244.738,361.727 245.435,362.123 Q246.133,362.519 247.132,362.519 z" fill="#717D8A"/>
    <path d="M253.183,351.395 L253.183,349.453 L253.899,349.453 L253.899,351.395 z M253.183,362.915 L253.183,353.224 L253.899,353.224 L253.899,362.915 z" fill="#717D8A"/>
    <path d="M255.726,358.069 Q255.726,357.032 256.019,356.118 Q256.311,355.203 256.876,354.506 Q257.442,353.808 258.272,353.403 Q259.101,352.997 260.176,352.997 Q261.251,352.997 262.08,353.403 Q262.91,353.808 263.476,354.506 Q264.041,355.203 264.333,356.118 Q264.626,357.032 264.626,358.069 Q264.626,359.106 264.333,360.03 Q264.041,360.954 263.476,361.642 Q262.91,362.331 262.08,362.736 Q261.251,363.141 260.176,363.141 Q259.101,363.141 258.272,362.736 Q257.442,362.331 256.876,361.642 Q256.311,360.954 256.019,360.03 Q255.726,359.106 255.726,358.069 z M256.443,358.069 Q256.443,358.937 256.688,359.738 Q256.933,360.539 257.404,361.162 Q257.876,361.784 258.573,362.151 Q259.271,362.519 260.176,362.519 Q261.081,362.519 261.779,362.151 Q262.476,361.784 262.948,361.162 Q263.419,360.539 263.664,359.738 Q263.909,358.937 263.909,358.069 Q263.909,357.202 263.664,356.401 Q263.419,355.599 262.948,354.977 Q262.476,354.355 261.779,353.987 Q261.081,353.62 260.176,353.62 Q259.271,353.62 258.573,353.987 Q257.876,354.355 257.404,354.977 Q256.933,355.599 256.688,356.401 Q256.443,357.202 256.443,358.069 z" fill="#717D8A"/>
    <path d="M265.422,353.167 L267.024,353.167 L267.024,352.356 Q267.024,351.433 267.251,350.857 Q267.477,350.282 267.854,349.971 Q268.231,349.66 268.712,349.557 Q269.193,349.453 269.721,349.453 Q270.758,349.453 271.229,349.585 L271.229,351.263 Q271.022,351.206 270.786,351.178 Q270.55,351.15 270.23,351.15 Q269.796,351.15 269.485,351.357 Q269.174,351.565 269.174,352.168 L269.174,353.167 L271.003,353.167 L271.003,354.77 L269.174,354.77 L269.174,362.915 L267.024,362.915 L267.024,354.77 L265.422,354.77 z" fill="#717D8A"/>
    <path d="M280.485,360.747 Q280.485,361.143 280.588,361.312 Q280.692,361.482 280.994,361.482 Q281.088,361.482 281.22,361.482 Q281.352,361.482 281.522,361.444 L281.522,362.934 Q281.409,362.972 281.229,363.019 Q281.05,363.066 280.862,363.104 Q280.673,363.141 280.485,363.16 Q280.296,363.179 280.164,363.179 Q279.504,363.179 279.071,362.915 Q278.637,362.651 278.505,361.991 Q277.864,362.613 276.931,362.896 Q275.997,363.179 275.13,363.179 Q274.47,363.179 273.867,363 Q273.263,362.821 272.801,362.472 Q272.339,362.123 272.066,361.586 Q271.793,361.048 271.793,360.332 Q271.793,359.427 272.123,358.861 Q272.453,358.296 272.99,357.975 Q273.527,357.655 274.197,357.513 Q274.866,357.372 275.545,357.296 Q276.129,357.183 276.657,357.136 Q277.185,357.089 277.59,356.976 Q277.996,356.863 278.232,356.627 Q278.467,356.391 278.467,355.92 Q278.467,355.505 278.269,355.241 Q278.071,354.977 277.779,354.836 Q277.487,354.694 277.129,354.647 Q276.77,354.6 276.45,354.6 Q275.545,354.6 274.96,354.977 Q274.376,355.354 274.3,356.146 L272.151,356.146 Q272.207,355.203 272.603,354.581 Q272.999,353.959 273.612,353.582 Q274.225,353.205 274.998,353.054 Q275.771,352.903 276.582,352.903 Q277.298,352.903 277.996,353.054 Q278.693,353.205 279.25,353.544 Q279.806,353.884 280.145,354.421 Q280.485,354.958 280.485,355.731 z M278.335,358.032 Q277.845,358.352 277.129,358.418 Q276.412,358.484 275.696,358.616 Q275.356,358.673 275.036,358.776 Q274.715,358.88 274.47,359.059 Q274.225,359.238 274.083,359.531 Q273.942,359.823 273.942,360.238 Q273.942,360.596 274.149,360.841 Q274.357,361.086 274.649,361.228 Q274.941,361.369 275.29,361.425 Q275.639,361.482 275.922,361.482 Q276.28,361.482 276.695,361.388 Q277.11,361.294 277.477,361.067 Q277.845,360.841 278.09,360.492 Q278.335,360.143 278.335,359.634 z" fill="#717D8A"/>
    <path d="M289.382,356.429 Q289.25,355.524 288.656,355.062 Q288.062,354.6 287.157,354.6 Q286.742,354.6 286.271,354.742 Q285.8,354.883 285.404,355.269 Q285.008,355.656 284.744,356.344 Q284.48,357.032 284.48,358.145 Q284.48,358.748 284.621,359.351 Q284.763,359.955 285.074,360.426 Q285.385,360.898 285.875,361.19 Q286.365,361.482 287.063,361.482 Q288.006,361.482 288.618,360.898 Q289.231,360.313 289.382,359.257 L291.532,359.257 Q291.23,361.162 290.089,362.17 Q288.948,363.179 287.063,363.179 Q285.913,363.179 285.036,362.792 Q284.159,362.406 283.556,361.737 Q282.953,361.067 282.642,360.143 Q282.331,359.22 282.331,358.145 Q282.331,357.051 282.632,356.09 Q282.934,355.128 283.537,354.421 Q284.141,353.714 285.036,353.309 Q285.932,352.903 287.138,352.903 Q287.987,352.903 288.75,353.12 Q289.514,353.337 290.108,353.771 Q290.702,354.204 291.079,354.864 Q291.456,355.524 291.532,356.429 z" fill="#717D8A"/>
    <path d="M292.303,353.167 L293.924,353.167 L293.924,350.245 L296.074,350.245 L296.074,353.167 L298.016,353.167 L298.016,354.77 L296.074,354.77 L296.074,359.974 Q296.074,360.313 296.102,360.558 Q296.13,360.803 296.234,360.973 Q296.338,361.143 296.545,361.228 Q296.752,361.312 297.111,361.312 Q297.337,361.312 297.563,361.303 Q297.789,361.294 298.016,361.237 L298.016,362.896 Q297.657,362.934 297.318,362.972 Q296.979,363.009 296.62,363.009 Q295.772,363.009 295.253,362.849 Q294.735,362.689 294.443,362.378 Q294.15,362.067 294.047,361.595 Q293.943,361.124 293.924,360.52 L293.924,354.77 L292.303,354.77 z" fill="#717D8A"/>
    <path d="M299.039,358.069 Q299.039,357.032 299.332,356.118 Q299.624,355.203 300.189,354.506 Q300.755,353.808 301.585,353.403 Q302.414,352.997 303.489,352.997 Q304.564,352.997 305.393,353.403 Q306.223,353.808 306.789,354.506 Q307.354,355.203 307.646,356.118 Q307.939,357.032 307.939,358.069 Q307.939,359.106 307.646,360.03 Q307.354,360.954 306.789,361.642 Q306.223,362.331 305.393,362.736 Q304.564,363.141 303.489,363.141 Q302.414,363.141 301.585,362.736 Q300.755,362.331 300.189,361.642 Q299.624,360.954 299.332,360.03 Q299.039,359.106 299.039,358.069 z M299.756,358.069 Q299.756,358.937 300.001,359.738 Q300.246,360.539 300.717,361.162 Q301.189,361.784 301.886,362.151 Q302.584,362.519 303.489,362.519 Q304.394,362.519 305.092,362.151 Q305.789,361.784 306.261,361.162 Q306.732,360.539 306.977,359.738 Q307.222,358.937 307.222,358.069 Q307.222,357.202 306.977,356.401 Q306.732,355.599 306.261,354.977 Q305.789,354.355 305.092,353.987 Q304.394,353.62 303.489,353.62 Q302.584,353.62 301.886,353.987 Q301.189,354.355 300.717,354.977 Q300.246,355.599 300.001,356.401 Q299.756,357.202 299.756,358.069 z" fill="#717D8A"/>
    <path d="M309.788,351.395 L309.788,349.453 L310.505,349.453 L310.505,351.395 z M309.788,362.915 L309.788,353.224 L310.505,353.224 L310.505,362.915 z" fill="#717D8A"/>
    <path d="M320.27,360.841 L320.232,360.841 Q319.629,361.991 318.724,362.566 Q317.819,363.141 316.518,363.141 Q315.424,363.141 314.632,362.726 Q313.84,362.312 313.331,361.614 Q312.822,360.916 312.577,360.002 Q312.332,359.088 312.332,358.088 Q312.332,357.014 312.596,356.08 Q312.86,355.147 313.397,354.468 Q313.934,353.789 314.745,353.393 Q315.556,352.997 316.65,352.997 Q317.234,352.997 317.8,353.158 Q318.365,353.318 318.846,353.62 Q319.327,353.921 319.685,354.374 Q320.043,354.826 320.232,355.392 L320.27,355.392 L320.27,349.453 L320.986,349.453 L320.986,362.915 L320.27,362.915 z M316.668,362.519 Q317.592,362.519 318.262,362.142 Q318.931,361.765 319.374,361.143 Q319.817,360.52 320.034,359.719 Q320.251,358.918 320.251,358.088 Q320.251,357.24 320.034,356.438 Q319.817,355.637 319.383,355.005 Q318.95,354.374 318.262,353.997 Q317.573,353.62 316.65,353.62 Q315.688,353.62 315.009,353.987 Q314.33,354.355 313.887,354.977 Q313.444,355.599 313.246,356.41 Q313.048,357.221 313.048,358.088 Q313.048,358.937 313.265,359.738 Q313.482,360.539 313.925,361.162 Q314.368,361.784 315.047,362.151 Q315.726,362.519 316.668,362.519 z" fill="#717D8A"/>
    <path d="M516.858,109.206 L519.058,109.206 L519.058,127.094 L519.173,127.094 Q519.81,125.357 520.968,124.055 Q522.126,122.752 523.631,121.855 Q525.136,120.958 526.873,120.524 Q528.609,120.089 530.462,120.089 Q533.761,120.089 536.164,121.247 Q538.566,122.405 540.187,124.431 Q541.808,126.457 542.589,129.149 Q543.371,131.841 543.371,134.967 Q543.371,140.293 541.924,143.506 Q540.476,146.718 538.45,148.426 Q536.424,150.134 534.224,150.684 Q532.025,151.234 530.462,151.234 Q527.509,151.234 525.454,150.307 Q523.399,149.381 522.068,148.137 Q520.736,146.892 520.042,145.676 Q519.347,144.461 519.173,143.882 L519.058,143.882 L519.058,150.539 L516.858,150.539 z M530.462,149.323 Q533.414,149.323 535.44,148.05 Q537.466,146.776 538.74,144.721 Q540.013,142.666 540.592,140.09 Q541.171,137.514 541.171,134.967 Q541.171,132.478 540.505,130.162 Q539.84,127.847 538.479,126.023 Q537.119,124.2 535.122,123.1 Q533.125,122 530.462,122 Q527.567,122 525.425,122.984 Q523.283,123.968 521.894,125.705 Q520.505,127.441 519.81,129.815 Q519.115,132.188 519.115,134.967 Q519.115,137.688 519.752,140.293 Q520.389,142.898 521.749,144.895 Q523.11,146.892 525.252,148.108 Q527.394,149.323 530.462,149.323 z" fill="#717D8A"/>
    <path d="M549.038,115.169 L549.038,109.206 L551.238,109.206 L551.238,115.169 z M549.038,150.539 L549.038,120.784 L551.238,120.784 L551.238,150.539 z" fill="#717D8A"/>
    <path d="M556.847,135.662 Q556.847,132.478 557.745,129.67 Q558.642,126.862 560.379,124.721 Q562.115,122.579 564.662,121.334 Q567.209,120.089 570.509,120.089 Q573.809,120.089 576.356,121.334 Q578.903,122.579 580.64,124.721 Q582.376,126.862 583.274,129.67 Q584.171,132.478 584.171,135.662 Q584.171,138.845 583.274,141.682 Q582.376,144.519 580.64,146.632 Q578.903,148.744 576.356,149.989 Q573.809,151.234 570.509,151.234 Q567.209,151.234 564.662,149.989 Q562.115,148.744 560.379,146.632 Q558.642,144.519 557.745,141.682 Q556.847,138.845 556.847,135.662 z M559.047,135.662 Q559.047,138.324 559.8,140.785 Q560.552,143.245 561.999,145.155 Q563.447,147.066 565.589,148.195 Q567.73,149.323 570.509,149.323 Q573.288,149.323 575.43,148.195 Q577.572,147.066 579.019,145.155 Q580.466,143.245 581.219,140.785 Q581.971,138.324 581.971,135.662 Q581.971,132.999 581.219,130.538 Q580.466,128.078 579.019,126.168 Q577.572,124.257 575.43,123.129 Q573.288,122 570.509,122 Q567.73,122 565.589,123.129 Q563.447,124.257 561.999,126.168 Q560.552,128.078 559.8,130.538 Q559.047,132.999 559.047,135.662 z" fill="#717D8A"/>
    <path d="M586.613,120.61 L591.534,120.61 L591.534,118.121 Q591.534,115.285 592.228,113.519 Q592.923,111.754 594.081,110.798 Q595.238,109.843 596.715,109.525 Q598.191,109.206 599.812,109.206 Q602.996,109.206 604.443,109.612 L604.443,114.764 Q603.806,114.59 603.082,114.503 Q602.359,114.416 601.375,114.416 Q600.043,114.416 599.088,115.053 Q598.133,115.69 598.133,117.542 L598.133,120.61 L603.748,120.61 L603.748,125.531 L598.133,125.531 L598.133,150.539 L591.534,150.539 L591.534,125.531 L586.613,125.531 z" fill="#717D8A"/>
    <path d="M632.872,143.882 Q632.872,145.097 633.19,145.618 Q633.509,146.139 634.435,146.139 Q634.724,146.139 635.13,146.139 Q635.535,146.139 636.056,146.024 L636.056,150.597 Q635.708,150.713 635.159,150.857 Q634.609,151.002 634.03,151.118 Q633.451,151.234 632.872,151.292 Q632.293,151.349 631.888,151.349 Q629.862,151.349 628.53,150.539 Q627.199,149.729 626.794,147.702 Q624.825,149.613 621.96,150.481 Q619.094,151.349 616.432,151.349 Q614.405,151.349 612.553,150.799 Q610.701,150.25 609.282,149.179 Q607.864,148.108 607.025,146.458 Q606.185,144.808 606.185,142.608 Q606.185,139.83 607.198,138.093 Q608.211,136.356 609.861,135.372 Q611.511,134.388 613.566,133.954 Q615.621,133.52 617.705,133.288 Q619.5,132.941 621.12,132.796 Q622.741,132.651 623.986,132.304 Q625.231,131.957 625.954,131.233 Q626.678,130.509 626.678,129.062 Q626.678,127.789 626.07,126.978 Q625.462,126.168 624.565,125.734 Q623.668,125.299 622.568,125.155 Q621.468,125.01 620.484,125.01 Q617.705,125.01 615.911,126.168 Q614.116,127.326 613.884,129.757 L607.285,129.757 Q607.459,126.862 608.674,124.952 Q609.89,123.042 611.771,121.884 Q613.653,120.726 616.026,120.263 Q618.4,119.8 620.889,119.8 Q623.089,119.8 625.231,120.263 Q627.372,120.726 629.08,121.768 Q630.788,122.81 631.83,124.46 Q632.872,126.11 632.872,128.483 z M626.273,135.546 Q624.768,136.53 622.568,136.733 Q620.368,136.935 618.168,137.34 Q617.126,137.514 616.142,137.832 Q615.158,138.151 614.405,138.701 Q613.653,139.251 613.219,140.148 Q612.785,141.045 612.785,142.319 Q612.785,143.419 613.421,144.171 Q614.058,144.924 614.955,145.358 Q615.853,145.792 616.924,145.966 Q617.995,146.139 618.863,146.139 Q619.963,146.139 621.236,145.85 Q622.51,145.561 623.639,144.866 Q624.768,144.171 625.52,143.1 Q626.273,142.029 626.273,140.466 z" fill="#717D8A"/>
    <path d="M660.19,130.625 Q659.784,127.847 657.961,126.428 Q656.137,125.01 653.359,125.01 Q652.085,125.01 650.638,125.444 Q649.191,125.878 647.975,127.065 Q646.759,128.252 645.949,130.365 Q645.139,132.478 645.139,135.893 Q645.139,137.746 645.573,139.598 Q646.007,141.45 646.962,142.898 Q647.917,144.345 649.422,145.242 Q650.927,146.139 653.069,146.139 Q655.964,146.139 657.845,144.345 Q659.727,142.55 660.19,139.309 L666.789,139.309 Q665.863,145.155 662.36,148.252 Q658.858,151.349 653.069,151.349 Q649.538,151.349 646.846,150.163 Q644.154,148.976 642.302,146.921 Q640.45,144.866 639.494,142.029 Q638.539,139.193 638.539,135.893 Q638.539,132.536 639.465,129.583 Q640.392,126.631 642.244,124.46 Q644.097,122.289 646.846,121.045 Q649.596,119.8 653.301,119.8 Q655.906,119.8 658.25,120.466 Q660.595,121.131 662.418,122.463 Q664.242,123.794 665.4,125.82 Q666.557,127.847 666.789,130.625 z" fill="#717D8A"/>
    <path d="M669.157,120.61 L674.135,120.61 L674.135,111.638 L680.734,111.638 L680.734,120.61 L686.697,120.61 L686.697,125.531 L680.734,125.531 L680.734,141.508 Q680.734,142.55 680.821,143.303 Q680.908,144.055 681.226,144.576 Q681.545,145.097 682.182,145.358 Q682.818,145.618 683.918,145.618 Q684.613,145.618 685.308,145.59 Q686.002,145.561 686.697,145.387 L686.697,150.481 Q685.597,150.597 684.555,150.713 Q683.513,150.828 682.413,150.828 Q679.808,150.828 678.216,150.336 Q676.624,149.844 675.727,148.889 Q674.83,147.934 674.511,146.487 Q674.193,145.04 674.135,143.187 L674.135,125.531 L669.157,125.531 z" fill="#717D8A"/>
    <path d="M689.829,135.662 Q689.829,132.478 690.727,129.67 Q691.624,126.862 693.361,124.721 Q695.097,122.579 697.644,121.334 Q700.192,120.089 703.491,120.089 Q706.791,120.089 709.338,121.334 Q711.885,122.579 713.622,124.721 Q715.358,126.862 716.256,129.67 Q717.153,132.478 717.153,135.662 Q717.153,138.845 716.256,141.682 Q715.358,144.519 713.622,146.632 Q711.885,148.744 709.338,149.989 Q706.791,151.234 703.491,151.234 Q700.192,151.234 697.644,149.989 Q695.097,148.744 693.361,146.632 Q691.624,144.519 690.727,141.682 Q689.829,138.845 689.829,135.662 z M692.029,135.662 Q692.029,138.324 692.782,140.785 Q693.534,143.245 694.982,145.155 Q696.429,147.066 698.571,148.195 Q700.713,149.323 703.491,149.323 Q706.27,149.323 708.412,148.195 Q710.554,147.066 712.001,145.155 Q713.448,143.245 714.201,140.785 Q714.953,138.324 714.953,135.662 Q714.953,132.999 714.201,130.538 Q713.448,128.078 712.001,126.168 Q710.554,124.257 708.412,123.129 Q706.27,122 703.491,122 Q700.713,122 698.571,123.129 Q696.429,124.257 694.982,126.168 Q693.534,128.078 692.782,130.538 Q692.029,132.999 692.029,135.662 z" fill="#717D8A"/>
    <path d="M722.82,115.169 L722.82,109.206 L725.02,109.206 L725.02,115.169 z M722.82,150.539 L722.82,120.784 L725.02,120.784 L725.02,150.539 z" fill="#717D8A"/>
    <path d="M755.001,144.171 L754.885,144.171 Q753.032,147.702 750.254,149.468 Q747.475,151.234 743.481,151.234 Q740.123,151.234 737.692,149.96 Q735.261,148.687 733.698,146.545 Q732.135,144.403 731.382,141.595 Q730.629,138.788 730.629,135.719 Q730.629,132.42 731.44,129.554 Q732.25,126.689 733.9,124.605 Q735.55,122.521 738.039,121.305 Q740.528,120.089 743.886,120.089 Q745.681,120.089 747.417,120.582 Q749.154,121.074 750.63,122 Q752.106,122.926 753.206,124.315 Q754.306,125.705 754.885,127.441 L755.001,127.441 L755.001,109.206 L757.2,109.206 L757.2,150.539 L755.001,150.539 z M743.944,149.323 Q746.78,149.323 748.836,148.166 Q750.891,147.008 752.251,145.097 Q753.611,143.187 754.277,140.727 Q754.943,138.267 754.943,135.719 Q754.943,133.114 754.277,130.654 Q753.611,128.194 752.28,126.255 Q750.948,124.315 748.836,123.158 Q746.723,122 743.886,122 Q740.934,122 738.85,123.129 Q736.766,124.257 735.405,126.168 Q734.045,128.078 733.437,130.567 Q732.829,133.057 732.829,135.719 Q732.829,138.324 733.495,140.785 Q734.161,143.245 735.521,145.155 Q736.881,147.066 738.965,148.195 Q741.049,149.323 743.944,149.323 z" fill="#717D8A"/>
    <path d="M541.865,162.686 L542.891,162.686 Q542.858,162.003 542.614,161.498 Q542.37,160.993 541.954,160.651 Q541.539,160.309 540.994,160.146 Q540.448,159.984 539.813,159.984 Q539.26,159.984 538.698,160.114 Q538.136,160.244 537.68,160.521 Q537.225,160.798 536.94,161.254 Q536.655,161.709 536.655,162.344 Q536.655,162.882 536.834,163.248 Q537.013,163.614 537.33,163.867 Q537.648,164.119 538.071,164.29 Q538.495,164.461 538.999,164.591 L540.318,164.884 Q540.66,164.966 540.994,165.08 Q541.327,165.194 541.588,165.365 Q541.849,165.536 542.003,165.788 Q542.158,166.04 542.158,166.415 Q542.158,166.854 541.938,167.156 Q541.718,167.457 541.376,167.652 Q541.034,167.848 540.636,167.929 Q540.237,168.01 539.862,168.01 Q538.836,168.01 538.145,167.481 Q537.453,166.952 537.387,165.91 L536.362,165.91 Q536.492,167.457 537.412,168.157 Q538.332,168.857 539.813,168.857 Q540.399,168.857 541.002,168.727 Q541.604,168.596 542.085,168.295 Q542.565,167.994 542.874,167.514 Q543.184,167.033 543.184,166.35 Q543.184,165.796 542.972,165.389 Q542.76,164.982 542.426,164.705 Q542.093,164.428 541.661,164.257 Q541.23,164.087 540.79,164.021 L539.423,163.712 Q539.162,163.647 538.853,163.541 Q538.543,163.435 538.283,163.272 Q538.022,163.11 537.851,162.874 Q537.68,162.638 537.68,162.296 Q537.68,161.889 537.86,161.612 Q538.039,161.335 538.332,161.164 Q538.625,160.993 538.975,160.92 Q539.325,160.847 539.667,160.847 Q540.106,160.847 540.497,160.952 Q540.888,161.058 541.189,161.286 Q541.49,161.514 541.669,161.864 Q541.849,162.214 541.865,162.686 z" fill="#717D8A"/>
    <path d="M551.469,168.629 L551.469,160.228 L550.443,160.228 L550.443,164.64 Q550.443,165.275 550.297,165.886 Q550.15,166.496 549.841,166.968 Q549.532,167.44 549.059,167.725 Q548.587,168.01 547.92,168.01 Q546.699,168.01 546.202,167.424 Q545.706,166.838 545.673,165.698 L545.673,160.228 L544.647,160.228 L544.647,165.682 Q544.647,166.431 544.81,167.017 Q544.973,167.603 545.323,168.01 Q545.673,168.417 546.235,168.637 Q546.796,168.857 547.594,168.857 Q548.538,168.857 549.312,168.409 Q550.085,167.961 550.492,167.115 L550.525,167.115 L550.525,168.629 z" fill="#717D8A"/>
    <path d="M553.405,160.228 L553.405,168.629 L554.431,168.629 L554.431,163.94 Q554.431,163.272 554.577,162.711 Q554.724,162.149 555.025,161.734 Q555.326,161.319 555.806,161.083 Q556.287,160.847 556.938,160.847 Q557.426,160.847 557.768,161.009 Q558.11,161.172 558.314,161.457 Q558.517,161.742 558.607,162.125 Q558.696,162.507 558.696,162.931 L558.696,168.629 L559.722,168.629 L559.722,163.875 Q559.722,163.289 559.828,162.743 Q559.934,162.198 560.194,161.775 Q560.455,161.351 560.894,161.099 Q561.334,160.847 562.001,160.847 Q563.108,160.847 563.548,161.392 Q563.988,161.937 563.988,162.979 L563.988,168.629 L565.013,168.629 L565.013,162.931 Q565.013,159.984 562.229,159.984 Q561.399,159.984 560.666,160.391 Q559.934,160.798 559.559,161.628 Q559.331,160.798 558.656,160.391 Q557.98,159.984 557.15,159.984 Q556.124,159.984 555.464,160.423 Q554.805,160.863 554.398,161.644 L554.349,161.644 L554.349,160.228 z" fill="#717D8A"/>
    <path d="M566.966,160.228 L566.966,168.629 L567.991,168.629 L567.991,163.94 Q567.991,163.272 568.138,162.711 Q568.284,162.149 568.585,161.734 Q568.887,161.319 569.367,161.083 Q569.847,160.847 570.499,160.847 Q570.987,160.847 571.329,161.009 Q571.671,161.172 571.874,161.457 Q572.078,161.742 572.167,162.125 Q572.257,162.507 572.257,162.931 L572.257,168.629 L573.283,168.629 L573.283,163.875 Q573.283,163.289 573.388,162.743 Q573.494,162.198 573.755,161.775 Q574.015,161.351 574.455,161.099 Q574.894,160.847 575.562,160.847 Q576.669,160.847 577.109,161.392 Q577.548,161.937 577.548,162.979 L577.548,168.629 L578.574,168.629 L578.574,162.931 Q578.574,159.984 575.79,159.984 Q574.96,159.984 574.227,160.391 Q573.494,160.798 573.12,161.628 Q572.892,160.798 572.216,160.391 Q571.541,159.984 570.71,159.984 Q569.684,159.984 569.025,160.423 Q568.366,160.863 567.959,161.644 L567.91,161.644 L567.91,160.228 z" fill="#717D8A"/>
    <path d="M580.428,162.8 L581.454,162.8 Q581.487,161.775 582.105,161.311 Q582.724,160.847 583.701,160.847 Q584.157,160.847 584.556,160.92 Q584.955,160.993 585.256,161.188 Q585.557,161.384 585.728,161.718 Q585.899,162.051 585.899,162.572 Q585.899,162.914 585.809,163.126 Q585.72,163.338 585.557,163.46 Q585.394,163.582 585.15,163.631 Q584.906,163.68 584.58,163.712 Q583.75,163.81 582.944,163.916 Q582.138,164.021 581.495,164.282 Q580.852,164.542 580.461,165.039 Q580.07,165.536 580.07,166.415 Q580.07,167.05 580.29,167.514 Q580.51,167.978 580.892,168.279 Q581.275,168.58 581.788,168.719 Q582.301,168.857 582.887,168.857 Q583.506,168.857 583.953,168.743 Q584.401,168.629 584.751,168.417 Q585.101,168.206 585.386,167.888 Q585.671,167.571 585.948,167.164 L585.98,167.164 Q585.98,167.489 586.021,167.758 Q586.062,168.027 586.192,168.222 Q586.322,168.417 586.558,168.523 Q586.794,168.629 587.185,168.629 Q587.397,168.629 587.535,168.613 Q587.674,168.596 587.853,168.564 L587.853,167.701 Q587.706,167.766 587.527,167.766 Q586.925,167.766 586.925,167.147 L586.925,162.686 Q586.925,161.84 586.648,161.311 Q586.371,160.781 585.931,160.488 Q585.492,160.195 584.938,160.09 Q584.385,159.984 583.831,159.984 Q583.099,159.984 582.496,160.146 Q581.894,160.309 581.446,160.651 Q580.998,160.993 580.738,161.53 Q580.477,162.068 580.428,162.8 z M585.899,164.038 L585.899,165.373 Q585.899,165.991 585.663,166.48 Q585.427,166.968 585.028,167.31 Q584.629,167.652 584.092,167.831 Q583.554,168.01 582.968,168.01 Q582.61,168.01 582.268,167.896 Q581.926,167.782 581.666,167.563 Q581.405,167.343 581.251,167.042 Q581.096,166.74 581.096,166.35 Q581.096,165.731 581.462,165.397 Q581.829,165.063 582.398,164.884 Q582.968,164.705 583.66,164.616 Q584.352,164.526 585.003,164.412 Q585.215,164.38 585.492,164.298 Q585.769,164.217 585.866,164.038 z" fill="#717D8A"/>
    <path d="M588.974,160.25 L588.974,168.651 L590,168.651 L590,164.174 Q590,163.507 590.228,162.945 Q590.456,162.383 590.871,161.976 Q591.286,161.569 591.856,161.349 Q592.426,161.13 593.126,161.162 L593.126,160.136 Q591.986,160.088 591.164,160.641 Q590.342,161.195 589.951,162.22 L589.919,162.22 L589.919,160.25 z" fill="#717D8A"/>
    <path d="M594.118,157.004 L594.118,158.649 L595.143,158.649 L595.143,157.004 z M594.118,160.228 L594.118,168.629 L595.143,168.629 L595.143,160.228 z" fill="#717D8A"/>
    <path d="M597.616,167.766 L603.168,160.961 L603.168,160.228 L596.754,160.228 L596.754,161.091 L601.866,161.091 L596.379,167.799 L596.379,168.629 L603.396,168.629 L603.396,167.766 z" fill="#717D8A"/>
    <path d="M610.675,163.842 L605.237,163.842 Q605.302,163.272 605.505,162.727 Q605.709,162.182 606.051,161.766 Q606.393,161.351 606.881,161.099 Q607.37,160.847 608.005,160.847 Q608.623,160.847 609.112,161.099 Q609.6,161.351 609.942,161.766 Q610.284,162.182 610.471,162.719 Q610.658,163.256 610.675,163.842 z M605.237,164.705 L611.7,164.705 Q611.733,163.826 611.538,162.971 Q611.342,162.117 610.894,161.457 Q610.447,160.798 609.73,160.391 Q609.014,159.984 608.005,159.984 Q607.011,159.984 606.287,160.366 Q605.562,160.749 605.107,161.376 Q604.651,162.003 604.431,162.8 Q604.211,163.598 604.211,164.428 Q604.211,165.324 604.431,166.13 Q604.651,166.936 605.107,167.546 Q605.562,168.157 606.287,168.507 Q607.011,168.857 608.005,168.857 Q609.6,168.857 610.471,168.075 Q611.342,167.294 611.668,165.861 L610.642,165.861 Q610.398,166.838 609.763,167.424 Q609.128,168.01 608.005,168.01 Q607.272,168.01 606.751,167.701 Q606.23,167.392 605.888,166.919 Q605.546,166.447 605.391,165.853 Q605.237,165.259 605.237,164.705 z" fill="#717D8A"/>
    <path d="M617.443,164.754 Q617.443,164.352 617.594,164 Q617.746,163.647 618.007,163.386 Q618.267,163.126 618.62,162.974 Q618.973,162.822 619.375,162.822 Q619.776,162.822 620.129,162.974 Q620.482,163.126 620.748,163.386 Q621.013,163.647 621.165,164 Q621.317,164.352 621.317,164.754 Q621.317,165.156 621.165,165.508 Q621.013,165.861 620.748,166.127 Q620.482,166.393 620.129,166.545 Q619.776,166.697 619.375,166.697 Q618.973,166.697 618.62,166.545 Q618.267,166.393 618.007,166.127 Q617.746,165.861 617.594,165.508 Q617.443,165.156 617.443,164.754 z" fill="#717D8A"/>
    <path d="M632.622,162.686 L633.647,162.686 Q633.615,162.003 633.371,161.498 Q633.126,160.993 632.711,160.651 Q632.296,160.309 631.751,160.146 Q631.205,159.984 630.57,159.984 Q630.017,159.984 629.455,160.114 Q628.893,160.244 628.438,160.521 Q627.982,160.798 627.697,161.254 Q627.412,161.709 627.412,162.344 Q627.412,162.882 627.591,163.248 Q627.77,163.614 628.087,163.867 Q628.405,164.119 628.828,164.29 Q629.252,164.461 629.756,164.591 L631.075,164.884 Q631.417,164.966 631.751,165.08 Q632.084,165.194 632.345,165.365 Q632.605,165.536 632.76,165.788 Q632.915,166.04 632.915,166.415 Q632.915,166.854 632.695,167.156 Q632.475,167.457 632.133,167.652 Q631.791,167.848 631.393,167.929 Q630.994,168.01 630.619,168.01 Q629.593,168.01 628.901,167.481 Q628.21,166.952 628.144,165.91 L627.119,165.91 Q627.249,167.457 628.169,168.157 Q629.089,168.857 630.57,168.857 Q631.156,168.857 631.759,168.727 Q632.361,168.596 632.842,168.295 Q633.322,167.994 633.631,167.514 Q633.941,167.033 633.941,166.35 Q633.941,165.796 633.729,165.389 Q633.517,164.982 633.183,164.705 Q632.85,164.428 632.418,164.257 Q631.987,164.087 631.547,164.021 L630.18,163.712 Q629.919,163.647 629.61,163.541 Q629.3,163.435 629.04,163.272 Q628.779,163.11 628.608,162.874 Q628.438,162.638 628.438,162.296 Q628.438,161.889 628.617,161.612 Q628.796,161.335 629.089,161.164 Q629.382,160.993 629.732,160.92 Q630.082,160.847 630.424,160.847 Q630.863,160.847 631.254,160.952 Q631.645,161.058 631.946,161.286 Q632.247,161.514 632.426,161.864 Q632.605,162.214 632.622,162.686 z" fill="#717D8A"/>
    <path d="M635.404,157.004 L635.404,168.629 L636.43,168.629 L636.43,163.728 Q636.446,163.11 636.633,162.581 Q636.821,162.051 637.154,161.669 Q637.488,161.286 637.969,161.066 Q638.449,160.847 639.068,160.847 Q639.686,160.847 640.101,161.042 Q640.517,161.237 640.761,161.579 Q641.005,161.921 641.103,162.385 Q641.2,162.849 641.2,163.386 L641.2,168.629 L642.226,168.629 L642.226,163.224 Q642.226,162.475 642.08,161.872 Q641.933,161.27 641.575,160.855 Q641.217,160.44 640.622,160.212 Q640.028,159.984 639.149,159.984 Q638.253,159.984 637.505,160.448 Q636.756,160.912 636.463,161.677 L636.43,161.677 L636.43,157.004 z" fill="#717D8A"/>
    <path d="M644.064,162.8 L645.09,162.8 Q645.122,161.775 645.741,161.311 Q646.36,160.847 647.337,160.847 Q647.793,160.847 648.191,160.92 Q648.59,160.993 648.892,161.188 Q649.193,161.384 649.364,161.718 Q649.535,162.051 649.535,162.572 Q649.535,162.914 649.445,163.126 Q649.356,163.338 649.193,163.46 Q649.03,163.582 648.786,163.631 Q648.542,163.68 648.216,163.712 Q647.386,163.81 646.58,163.916 Q645.774,164.021 645.131,164.282 Q644.487,164.542 644.097,165.039 Q643.706,165.536 643.706,166.415 Q643.706,167.05 643.926,167.514 Q644.146,167.978 644.528,168.279 Q644.911,168.58 645.424,168.719 Q645.937,168.857 646.523,168.857 Q647.141,168.857 647.589,168.743 Q648.037,168.629 648.387,168.417 Q648.737,168.206 649.022,167.888 Q649.307,167.571 649.583,167.164 L649.616,167.164 Q649.616,167.489 649.657,167.758 Q649.698,168.027 649.828,168.222 Q649.958,168.417 650.194,168.523 Q650.43,168.629 650.821,168.629 Q651.033,168.629 651.171,168.613 Q651.309,168.596 651.488,168.564 L651.488,167.701 Q651.342,167.766 651.163,167.766 Q650.56,167.766 650.56,167.147 L650.56,162.686 Q650.56,161.84 650.284,161.311 Q650.007,160.781 649.567,160.488 Q649.128,160.195 648.574,160.09 Q648.021,159.984 647.467,159.984 Q646.734,159.984 646.132,160.146 Q645.529,160.309 645.082,160.651 Q644.634,160.993 644.374,161.53 Q644.113,162.068 644.064,162.8 z M649.535,164.038 L649.535,165.373 Q649.535,165.991 649.299,166.48 Q649.062,166.968 648.664,167.31 Q648.265,167.652 647.727,167.831 Q647.19,168.01 646.604,168.01 Q646.246,168.01 645.904,167.896 Q645.562,167.782 645.302,167.563 Q645.041,167.343 644.886,167.042 Q644.732,166.74 644.732,166.35 Q644.732,165.731 645.098,165.397 Q645.464,165.063 646.034,164.884 Q646.604,164.705 647.296,164.616 Q647.988,164.526 648.639,164.412 Q648.851,164.38 649.128,164.298 Q649.404,164.217 649.502,164.038 z" fill="#717D8A"/>
    <path d="M652.61,160.25 L652.61,168.651 L653.636,168.651 L653.636,164.174 Q653.636,163.507 653.864,162.945 Q654.092,162.383 654.507,161.976 Q654.922,161.569 655.492,161.349 Q656.062,161.13 656.762,161.162 L656.762,160.136 Q655.622,160.088 654.8,160.641 Q653.978,161.195 653.587,162.22 L653.555,162.22 L653.555,160.25 z" fill="#717D8A"/>
    <path d="M663.472,163.842 L658.034,163.842 Q658.099,163.272 658.303,162.727 Q658.506,162.182 658.848,161.766 Q659.19,161.351 659.679,161.099 Q660.167,160.847 660.802,160.847 Q661.421,160.847 661.909,161.099 Q662.398,161.351 662.739,161.766 Q663.081,162.182 663.269,162.719 Q663.456,163.256 663.472,163.842 z M658.034,164.705 L664.498,164.705 Q664.53,163.826 664.335,162.971 Q664.14,162.117 663.692,161.457 Q663.244,160.798 662.528,160.391 Q661.811,159.984 660.802,159.984 Q659.809,159.984 659.084,160.366 Q658.36,160.749 657.904,161.376 Q657.448,162.003 657.228,162.8 Q657.008,163.598 657.008,164.428 Q657.008,165.324 657.228,166.13 Q657.448,166.936 657.904,167.546 Q658.36,168.157 659.084,168.507 Q659.809,168.857 660.802,168.857 Q662.398,168.857 663.269,168.075 Q664.14,167.294 664.465,165.861 L663.44,165.861 Q663.195,166.838 662.56,167.424 Q661.925,168.01 660.802,168.01 Q660.069,168.01 659.548,167.701 Q659.027,167.392 658.685,166.919 Q658.344,166.447 658.189,165.853 Q658.034,165.259 658.034,164.705 z" fill="#717D8A"/>
    <path d="M670.232,164.754 Q670.232,164.352 670.383,164 Q670.535,163.647 670.796,163.386 Q671.056,163.126 671.409,162.974 Q671.762,162.822 672.164,162.822 Q672.565,162.822 672.918,162.974 Q673.271,163.126 673.537,163.386 Q673.802,163.647 673.954,164 Q674.106,164.352 674.106,164.754 Q674.106,165.156 673.954,165.508 Q673.802,165.861 673.537,166.127 Q673.271,166.393 672.918,166.545 Q672.565,166.697 672.164,166.697 Q671.762,166.697 671.409,166.545 Q671.056,166.393 670.796,166.127 Q670.535,165.861 670.383,165.508 Q670.232,165.156 670.232,164.754 z" fill="#717D8A"/>
    <path d="M687.773,168.629 L687.773,157.004 L686.747,157.004 L686.747,161.823 L686.714,161.823 Q686.551,161.368 686.25,161.026 Q685.949,160.684 685.558,160.448 Q685.168,160.212 684.72,160.098 Q684.272,159.984 683.8,159.984 Q682.839,159.984 682.131,160.342 Q681.423,160.7 680.951,161.311 Q680.479,161.921 680.251,162.727 Q680.023,163.533 680.023,164.428 Q680.023,165.324 680.251,166.13 Q680.479,166.936 680.951,167.546 Q681.423,168.157 682.131,168.507 Q682.839,168.857 683.8,168.857 Q684.256,168.857 684.72,168.727 Q685.184,168.596 685.591,168.36 Q685.998,168.124 686.315,167.782 Q686.633,167.44 686.796,167.033 L686.828,167.033 L686.828,168.629 z M681.048,164.428 Q681.048,163.777 681.203,163.134 Q681.358,162.491 681.692,161.986 Q682.025,161.482 682.546,161.164 Q683.067,160.847 683.8,160.847 Q684.614,160.847 685.176,161.164 Q685.737,161.482 686.087,161.986 Q686.438,162.491 686.592,163.134 Q686.747,163.777 686.747,164.428 Q686.747,165.08 686.592,165.723 Q686.438,166.366 686.087,166.871 Q685.737,167.375 685.176,167.693 Q684.614,168.01 683.8,168.01 Q683.067,168.01 682.546,167.693 Q682.025,167.375 681.692,166.871 Q681.358,166.366 681.203,165.723 Q681.048,165.08 681.048,164.428 z" fill="#717D8A"/>
    <path d="M689.741,157.004 L689.741,158.649 L690.767,158.649 L690.767,157.004 z M689.741,160.228 L689.741,168.629 L690.767,168.629 L690.767,160.228 z" fill="#717D8A"/>
    <path d="M697.766,162.686 L698.792,162.686 Q698.759,162.003 698.515,161.498 Q698.271,160.993 697.855,160.651 Q697.44,160.309 696.895,160.146 Q696.349,159.984 695.714,159.984 Q695.161,159.984 694.599,160.114 Q694.038,160.244 693.582,160.521 Q693.126,160.798 692.841,161.254 Q692.556,161.709 692.556,162.344 Q692.556,162.882 692.735,163.248 Q692.914,163.614 693.232,163.867 Q693.549,164.119 693.972,164.29 Q694.396,164.461 694.9,164.591 L696.219,164.884 Q696.561,164.966 696.895,165.08 Q697.229,165.194 697.489,165.365 Q697.75,165.536 697.904,165.788 Q698.059,166.04 698.059,166.415 Q698.059,166.854 697.839,167.156 Q697.619,167.457 697.278,167.652 Q696.936,167.848 696.537,167.929 Q696.138,168.01 695.763,168.01 Q694.738,168.01 694.046,167.481 Q693.354,166.952 693.289,165.91 L692.263,165.91 Q692.393,167.457 693.313,168.157 Q694.233,168.857 695.714,168.857 Q696.301,168.857 696.903,168.727 Q697.505,168.596 697.986,168.295 Q698.466,167.994 698.775,167.514 Q699.085,167.033 699.085,166.35 Q699.085,165.796 698.873,165.389 Q698.661,164.982 698.328,164.705 Q697.994,164.428 697.562,164.257 Q697.131,164.087 696.691,164.021 L695.324,163.712 Q695.063,163.647 694.754,163.541 Q694.445,163.435 694.184,163.272 Q693.924,163.11 693.753,162.874 Q693.582,162.638 693.582,162.296 Q693.582,161.889 693.761,161.612 Q693.94,161.335 694.233,161.164 Q694.526,160.993 694.876,160.92 Q695.226,160.847 695.568,160.847 Q696.008,160.847 696.398,160.952 Q696.789,161.058 697.09,161.286 Q697.391,161.514 697.571,161.864 Q697.75,162.214 697.766,162.686 z" fill="#717D8A"/>
    <path d="M706.524,162.865 L707.549,162.865 Q707.37,161.416 706.434,160.7 Q705.498,159.984 704.147,159.984 Q703.186,159.984 702.445,160.342 Q701.704,160.7 701.2,161.302 Q700.695,161.905 700.434,162.711 Q700.174,163.517 700.174,164.428 Q700.174,165.34 700.434,166.146 Q700.695,166.952 701.2,167.554 Q701.704,168.157 702.445,168.507 Q703.186,168.857 704.147,168.857 Q705.579,168.857 706.491,168.002 Q707.403,167.147 707.614,165.617 L706.589,165.617 Q706.54,166.138 706.328,166.578 Q706.117,167.017 705.791,167.335 Q705.465,167.652 705.042,167.831 Q704.619,168.01 704.147,168.01 Q703.414,168.01 702.86,167.701 Q702.307,167.392 701.94,166.887 Q701.574,166.382 701.387,165.739 Q701.2,165.096 701.2,164.428 Q701.2,163.761 701.387,163.118 Q701.574,162.475 701.94,161.97 Q702.307,161.465 702.86,161.156 Q703.414,160.847 704.147,160.847 Q705.172,160.847 705.742,161.384 Q706.312,161.921 706.524,162.865 z" fill="#717D8A"/>
    <path d="M712.562,160.847 Q713.295,160.847 713.849,161.156 Q714.402,161.465 714.768,161.97 Q715.135,162.475 715.322,163.118 Q715.509,163.761 715.509,164.428 Q715.509,165.096 715.322,165.739 Q715.135,166.382 714.768,166.887 Q714.402,167.392 713.849,167.701 Q713.295,168.01 712.562,168.01 Q711.83,168.01 711.276,167.701 Q710.723,167.392 710.356,166.887 Q709.99,166.382 709.803,165.739 Q709.615,165.096 709.615,164.428 Q709.615,163.761 709.803,163.118 Q709.99,162.475 710.356,161.97 Q710.723,161.465 711.276,161.156 Q711.83,160.847 712.562,160.847 z M712.562,159.984 Q711.602,159.984 710.861,160.342 Q710.12,160.7 709.615,161.302 Q709.111,161.905 708.85,162.711 Q708.59,163.517 708.59,164.428 Q708.59,165.34 708.85,166.146 Q709.111,166.952 709.615,167.554 Q710.12,168.157 710.861,168.507 Q711.602,168.857 712.562,168.857 Q713.523,168.857 714.264,168.507 Q715.004,168.157 715.509,167.554 Q716.014,166.952 716.274,166.146 Q716.535,165.34 716.535,164.428 Q716.535,163.517 716.274,162.711 Q716.014,161.905 715.509,161.302 Q715.004,160.7 714.264,160.342 Q713.523,159.984 712.562,159.984 z" fill="#717D8A"/>
    <path d="M717.119,160.228 L720.359,168.629 L721.45,168.629 L724.592,160.228 L723.534,160.228 L720.929,167.603 L720.897,167.603 L718.259,160.228 z" fill="#717D8A"/>
    <path d="M731.627,163.842 L726.189,163.842 Q726.254,163.272 726.457,162.727 Q726.661,162.182 727.003,161.766 Q727.345,161.351 727.833,161.099 Q728.322,160.847 728.957,160.847 Q729.575,160.847 730.064,161.099 Q730.552,161.351 730.894,161.766 Q731.236,162.182 731.423,162.719 Q731.61,163.256 731.627,163.842 z M726.189,164.705 L732.652,164.705 Q732.685,163.826 732.49,162.971 Q732.294,162.117 731.846,161.457 Q731.399,160.798 730.682,160.391 Q729.966,159.984 728.957,159.984 Q727.963,159.984 727.239,160.366 Q726.514,160.749 726.058,161.376 Q725.603,162.003 725.383,162.8 Q725.163,163.598 725.163,164.428 Q725.163,165.324 725.383,166.13 Q725.603,166.936 726.058,167.546 Q726.514,168.157 727.239,168.507 Q727.963,168.857 728.957,168.857 Q730.552,168.857 731.423,168.075 Q732.294,167.294 732.62,165.861 L731.594,165.861 Q731.35,166.838 730.715,167.424 Q730.08,168.01 728.957,168.01 Q728.224,168.01 727.703,167.701 Q727.182,167.392 726.84,166.919 Q726.498,166.447 726.343,165.853 Q726.189,165.259 726.189,164.705 z" fill="#717D8A"/>
    <path d="M734.049,160.25 L734.049,168.651 L735.074,168.651 L735.074,164.174 Q735.074,163.507 735.302,162.945 Q735.53,162.383 735.945,161.976 Q736.361,161.569 736.93,161.349 Q737.5,161.13 738.2,161.162 L738.2,160.136 Q737.061,160.088 736.238,160.641 Q735.416,161.195 735.025,162.22 L734.993,162.22 L734.993,160.25 z" fill="#717D8A"/>
    <path d="M508.396,141.879 L499.604,157.107 L482.021,157.107 L473.23,141.879 L482.021,126.652 L499.604,126.652 z" fill="#FFDB8B"/>
    <path d="M480.291,125.744 L471.499,140.971 L453.916,140.971 L445.125,125.744 L453.916,110.517 L471.499,110.517 z" fill="#FFDB8B"/>
    <path d="M480.291,157.977 L471.499,173.205 L453.916,173.205 L445.125,157.977 L453.916,142.75 L471.499,142.75 z" fill="#FFDB8B"/>
    <path d="M516.858,308.481 L519.058,308.481 L519.058,326.369 L519.173,326.369 Q519.81,324.632 520.968,323.33 Q522.126,322.027 523.631,321.13 Q525.136,320.233 526.873,319.799 Q528.609,319.365 530.462,319.365 Q533.761,319.365 536.164,320.522 Q538.566,321.68 540.187,323.706 Q541.808,325.732 542.589,328.424 Q543.371,331.116 543.371,334.242 Q543.371,339.568 541.924,342.781 Q540.476,345.993 538.45,347.701 Q536.424,349.409 534.224,349.959 Q532.025,350.509 530.462,350.509 Q527.509,350.509 525.454,349.582 Q523.399,348.656 522.068,347.412 Q520.736,346.167 520.042,344.951 Q519.347,343.736 519.173,343.157 L519.058,343.157 L519.058,349.814 L516.858,349.814 z M530.462,348.598 Q533.414,348.598 535.44,347.325 Q537.466,346.051 538.74,343.996 Q540.013,341.941 540.592,339.365 Q541.171,336.789 541.171,334.242 Q541.171,331.753 540.505,329.437 Q539.84,327.122 538.479,325.298 Q537.119,323.475 535.122,322.375 Q533.125,321.275 530.462,321.275 Q527.567,321.275 525.425,322.259 Q523.283,323.243 521.894,324.98 Q520.505,326.716 519.81,329.09 Q519.115,331.463 519.115,334.242 Q519.115,336.963 519.752,339.568 Q520.389,342.173 521.749,344.17 Q523.11,346.167 525.252,347.383 Q527.394,348.598 530.462,348.598 z" fill="#717D8A"/>
    <path d="M549.038,314.444 L549.038,308.481 L551.238,308.481 L551.238,314.444 z M549.038,349.814 L549.038,320.059 L551.238,320.059 L551.238,349.814 z" fill="#717D8A"/>
    <path d="M556.847,334.937 Q556.847,331.753 557.745,328.945 Q558.642,326.137 560.379,323.996 Q562.115,321.854 564.662,320.609 Q567.209,319.365 570.509,319.365 Q573.809,319.365 576.356,320.609 Q578.903,321.854 580.64,323.996 Q582.376,326.137 583.274,328.945 Q584.171,331.753 584.171,334.937 Q584.171,338.12 583.274,340.957 Q582.376,343.794 580.64,345.906 Q578.903,348.019 576.356,349.264 Q573.809,350.509 570.509,350.509 Q567.209,350.509 564.662,349.264 Q562.115,348.019 560.379,345.906 Q558.642,343.794 557.745,340.957 Q556.847,338.12 556.847,334.937 z M559.047,334.937 Q559.047,337.599 559.8,340.06 Q560.552,342.52 561.999,344.43 Q563.447,346.341 565.589,347.47 Q567.73,348.598 570.509,348.598 Q573.288,348.598 575.43,347.47 Q577.572,346.341 579.019,344.43 Q580.466,342.52 581.219,340.06 Q581.971,337.599 581.971,334.937 Q581.971,332.274 581.219,329.813 Q580.466,327.353 579.019,325.443 Q577.572,323.532 575.43,322.404 Q573.288,321.275 570.509,321.275 Q567.73,321.275 565.589,322.404 Q563.447,323.532 561.999,325.443 Q560.552,327.353 559.8,329.813 Q559.047,332.274 559.047,334.937 z" fill="#717D8A"/>
    <path d="M586.613,319.885 L591.534,319.885 L591.534,317.396 Q591.534,314.56 592.228,312.794 Q592.923,311.029 594.081,310.073 Q595.238,309.118 596.715,308.8 Q598.191,308.481 599.812,308.481 Q602.996,308.481 604.443,308.887 L604.443,314.039 Q603.806,313.865 603.082,313.778 Q602.359,313.691 601.375,313.691 Q600.043,313.691 599.088,314.328 Q598.133,314.965 598.133,316.817 L598.133,319.885 L603.748,319.885 L603.748,324.806 L598.133,324.806 L598.133,349.814 L591.534,349.814 L591.534,324.806 L586.613,324.806 z" fill="#717D8A"/>
    <path d="M632.872,343.157 Q632.872,344.372 633.19,344.893 Q633.509,345.414 634.435,345.414 Q634.724,345.414 635.13,345.414 Q635.535,345.414 636.056,345.299 L636.056,349.872 Q635.708,349.988 635.159,350.132 Q634.609,350.277 634.03,350.393 Q633.451,350.509 632.872,350.567 Q632.293,350.624 631.888,350.624 Q629.862,350.624 628.53,349.814 Q627.199,349.004 626.794,346.977 Q624.825,348.888 621.96,349.756 Q619.094,350.624 616.432,350.624 Q614.405,350.624 612.553,350.074 Q610.701,349.525 609.282,348.454 Q607.864,347.383 607.025,345.733 Q606.185,344.083 606.185,341.883 Q606.185,339.105 607.198,337.368 Q608.211,335.631 609.861,334.647 Q611.511,333.663 613.566,333.229 Q615.621,332.795 617.705,332.563 Q619.5,332.216 621.12,332.071 Q622.741,331.926 623.986,331.579 Q625.231,331.232 625.954,330.508 Q626.678,329.784 626.678,328.337 Q626.678,327.064 626.07,326.253 Q625.462,325.443 624.565,325.009 Q623.668,324.574 622.568,324.43 Q621.468,324.285 620.484,324.285 Q617.705,324.285 615.911,325.443 Q614.116,326.601 613.884,329.032 L607.285,329.032 Q607.459,326.137 608.674,324.227 Q609.89,322.317 611.771,321.159 Q613.653,320.001 616.026,319.538 Q618.4,319.075 620.889,319.075 Q623.089,319.075 625.231,319.538 Q627.372,320.001 629.08,321.043 Q630.788,322.085 631.83,323.735 Q632.872,325.385 632.872,327.758 z M626.273,334.821 Q624.768,335.805 622.568,336.008 Q620.368,336.21 618.168,336.615 Q617.126,336.789 616.142,337.107 Q615.158,337.426 614.405,337.976 Q613.653,338.526 613.219,339.423 Q612.785,340.32 612.785,341.594 Q612.785,342.694 613.421,343.446 Q614.058,344.199 614.955,344.633 Q615.853,345.067 616.924,345.241 Q617.995,345.414 618.863,345.414 Q619.963,345.414 621.236,345.125 Q622.51,344.836 623.639,344.141 Q624.768,343.446 625.52,342.375 Q626.273,341.304 626.273,339.741 z" fill="#717D8A"/>
    <path d="M660.19,329.9 Q659.784,327.122 657.961,325.703 Q656.137,324.285 653.359,324.285 Q652.085,324.285 650.638,324.719 Q649.191,325.153 647.975,326.34 Q646.759,327.527 645.949,329.64 Q645.139,331.753 645.139,335.168 Q645.139,337.021 645.573,338.873 Q646.007,340.725 646.962,342.173 Q647.917,343.62 649.422,344.517 Q650.927,345.414 653.069,345.414 Q655.964,345.414 657.845,343.62 Q659.727,341.825 660.19,338.584 L666.789,338.584 Q665.863,344.43 662.36,347.527 Q658.858,350.624 653.069,350.624 Q649.538,350.624 646.846,349.438 Q644.154,348.251 642.302,346.196 Q640.45,344.141 639.494,341.304 Q638.539,338.468 638.539,335.168 Q638.539,331.811 639.465,328.858 Q640.392,325.906 642.244,323.735 Q644.097,321.564 646.846,320.32 Q649.596,319.075 653.301,319.075 Q655.906,319.075 658.25,319.741 Q660.595,320.406 662.418,321.738 Q664.242,323.069 665.4,325.095 Q666.557,327.122 666.789,329.9 z" fill="#717D8A"/>
    <path d="M669.157,319.885 L674.135,319.885 L674.135,310.913 L680.734,310.913 L680.734,319.885 L686.697,319.885 L686.697,324.806 L680.734,324.806 L680.734,340.783 Q680.734,341.825 680.821,342.578 Q680.908,343.33 681.226,343.851 Q681.545,344.372 682.182,344.633 Q682.818,344.893 683.918,344.893 Q684.613,344.893 685.308,344.865 Q686.002,344.836 686.697,344.662 L686.697,349.756 Q685.597,349.872 684.555,349.988 Q683.513,350.103 682.413,350.103 Q679.808,350.103 678.216,349.611 Q676.624,349.119 675.727,348.164 Q674.83,347.209 674.511,345.762 Q674.193,344.315 674.135,342.462 L674.135,324.806 L669.157,324.806 z" fill="#717D8A"/>
    <path d="M689.829,334.937 Q689.829,331.753 690.727,328.945 Q691.624,326.137 693.361,323.996 Q695.097,321.854 697.644,320.609 Q700.192,319.365 703.491,319.365 Q706.791,319.365 709.338,320.609 Q711.885,321.854 713.622,323.996 Q715.358,326.137 716.256,328.945 Q717.153,331.753 717.153,334.937 Q717.153,338.12 716.256,340.957 Q715.358,343.794 713.622,345.906 Q711.885,348.019 709.338,349.264 Q706.791,350.509 703.491,350.509 Q700.192,350.509 697.644,349.264 Q695.097,348.019 693.361,345.906 Q691.624,343.794 690.727,340.957 Q689.829,338.12 689.829,334.937 z M692.029,334.937 Q692.029,337.599 692.782,340.06 Q693.534,342.52 694.982,344.43 Q696.429,346.341 698.571,347.47 Q700.713,348.598 703.491,348.598 Q706.27,348.598 708.412,347.47 Q710.554,346.341 712.001,344.43 Q713.448,342.52 714.201,340.06 Q714.953,337.599 714.953,334.937 Q714.953,332.274 714.201,329.813 Q713.448,327.353 712.001,325.443 Q710.554,323.532 708.412,322.404 Q706.27,321.275 703.491,321.275 Q700.713,321.275 698.571,322.404 Q696.429,323.532 694.982,325.443 Q693.534,327.353 692.782,329.813 Q692.029,332.274 692.029,334.937 z" fill="#717D8A"/>
    <path d="M722.82,314.444 L722.82,308.481 L725.02,308.481 L725.02,314.444 z M722.82,349.814 L722.82,320.059 L725.02,320.059 L725.02,349.814 z" fill="#717D8A"/>
    <path d="M755.001,343.446 L754.885,343.446 Q753.032,346.977 750.254,348.743 Q747.475,350.509 743.481,350.509 Q740.123,350.509 737.692,349.235 Q735.261,347.962 733.698,345.82 Q732.135,343.678 731.382,340.87 Q730.629,338.063 730.629,334.994 Q730.629,331.695 731.44,328.829 Q732.25,325.964 733.9,323.88 Q735.55,321.796 738.039,320.58 Q740.528,319.365 743.886,319.365 Q745.681,319.365 747.417,319.857 Q749.154,320.349 750.63,321.275 Q752.106,322.201 753.206,323.59 Q754.306,324.98 754.885,326.716 L755.001,326.716 L755.001,308.481 L757.2,308.481 L757.2,349.814 L755.001,349.814 z M743.944,348.598 Q746.78,348.598 748.836,347.441 Q750.891,346.283 752.251,344.372 Q753.611,342.462 754.277,340.002 Q754.943,337.542 754.943,334.994 Q754.943,332.389 754.277,329.929 Q753.611,327.469 752.28,325.53 Q750.948,323.59 748.836,322.433 Q746.723,321.275 743.886,321.275 Q740.934,321.275 738.85,322.404 Q736.766,323.532 735.405,325.443 Q734.045,327.353 733.437,329.842 Q732.829,332.332 732.829,334.994 Q732.829,337.599 733.495,340.06 Q734.161,342.52 735.521,344.43 Q736.881,346.341 738.965,347.47 Q741.049,348.598 743.944,348.598 z" fill="#717D8A"/>
    <path d="M508.396,328.359 L499.604,343.587 L482.021,343.587 L473.23,328.359 L482.021,313.132 L499.604,313.132 z" fill="#FFDB8B"/>
    <path d="M480.291,312.224 L471.499,327.451 L453.916,327.451 L445.125,312.224 L453.916,296.997 L471.499,296.997 z" fill="#FFDB8B"/>
    <path d="M480.291,344.457 L471.499,359.685 L453.916,359.685 L445.125,344.457 L453.916,329.23 L471.499,329.23 z" fill="#FFDB8B"/>
  </g>
</svg>
