<?xml version="1.0" encoding="UTF-8"?>
<!DOCTYPE svg PUBLIC "-//W3C//DTD SVG 1.1//EN" "http://www.w3.org/Graphics/SVG/1.1/DTD/svg11.dtd">
<svg version="1.1" xmlns="http://www.w3.org/2000/svg" xmlns:xlink="http://www.w3.org/1999/xlink" x="0" y="0" width="612" height="792" viewBox="0, 0, 612, 792">
  <g id="bg" display="none">
    <path d="M0,-0 L612,-0 L612,792 L0,792 L0,-0 z" fill="#EEEEEE"/>
  </g>
  <g id="n_papers">
    <text transform="matrix(1, 0, 0, 1, 143.18, 69.75)">
      <tspan x="-136.18" y="-36.75" font-family="HelveticaNeue" font-size="24" fill="#222831">1 MILLION CITATIONS</tspan>
      <tspan x="-136.18" y="-17.75" font-family="HelveticaNeue" font-size="14" fill="#222831">added in PubMed per year</tspan>
      <tspan x="-136.18" y="8.25" font-family="HelveticaNeue-Bold" font-size="24" fill="#05ADB5">AND GROWING</tspan>
    </text>
    <path d="M7,101 L63.5,101 L63.5,113.5 L7,113.5 L7,101 z" fill="#00ADB5" id="bar3"/>
    <path d="M7,120.5 L133.5,120.5 L133.5,133 L7,133 L7,120.5 z" fill="#00ADB5" id="bar2"/>
    <path d="M7,139.5 L259.5,139.5 L259.5,152 L7,152 L7,139.5 z" fill="#00ADB5" id="bar"/>
  </g>
  <g id="factoid">
    <path d="M0,348.105 L612,348.105 L612,487.895 L0,487.895 L0,348.105 z" fill="#222831"/>
    <text transform="matrix(1, 0, 0, 1, 359.851, 424.281)">
      <tspan x="-207.278" y="2.052" font-family="HelveticaNeue" font-size="72" fill="#FFFFFF">FACTOID</tspan>
      <tspan x="-207.278" y="42.052" font-family="HelveticaNeue" font-size="24" fill="#FFFFFF">is the ANSWER</tspan>
    </text>
    <path d="M581.888,451.833 L571.372,441.317 L529.68,482.935 L529.68,392.167 L514.763,392.167 L514.763,482.935 L473.146,441.242 L462.555,451.833 L522.222,511.5 L581.888,451.833 z" fill="#05ADB5"/>
    <g id="logo">
      <g>
        <path d="M26.424,421.667 C26.424,394.697 48.283,372.833 75.248,372.833 C102.212,372.833 124.071,394.697 124.071,421.667 C124.071,448.637 102.212,470.5 75.248,470.5 C48.283,470.5 26.424,448.637 26.424,421.667 z" fill="#ECF0F1"/>
        <path d="M26.424,421.667 C26.424,394.697 48.283,372.833 75.248,372.833 C102.212,372.833 124.071,394.697 124.071,421.667 C124.071,448.637 102.212,470.5 75.248,470.5 C48.283,470.5 26.424,448.637 26.424,421.667 z" fill-opacity="0" stroke="#2A3E50" stroke-width="5"/>
      </g>
      <g>
        <path d="M38.104,430.819 C38.104,410.301 54.734,393.667 75.248,393.667 C95.762,393.667 112.392,410.301 112.392,430.819 C112.392,451.337 95.762,467.97 75.248,467.97 C54.734,467.97 38.104,451.337 38.104,430.819 z" fill="#ECF0F1"/>
        <path d="M38.104,430.819 C38.104,410.301 54.734,393.667 75.248,393.667 C95.762,393.667 112.392,410.301 112.392,430.819 C112.392,451.337 95.762,467.97 75.248,467.97 C54.734,467.97 38.104,451.337 38.104,430.819 z" fill-opacity="0" stroke="#2A3E50" stroke-width="5"/>
      </g>
      <g>
        <path d="M75.246,465.779 C60.788,465.779 49.049,454.037 49.049,439.577 C49.049,425.117 60.788,413.375 75.246,413.375 C89.704,413.375 101.457,425.117 101.457,439.577 C101.457,454.037 89.704,465.779 75.246,465.779 z" fill="#ECF0F1"/>
        <path d="M75.246,465.779 C60.788,465.779 49.049,454.037 49.049,439.577 C49.049,425.117 60.788,413.375 75.246,413.375 C89.704,413.375 101.457,425.117 101.457,439.577 C101.457,454.037 89.704,465.779 75.246,465.779 z" fill-opacity="0" stroke="#2A3E50" stroke-width="5"/>
      </g>
    </g>
  </g>
  <g id="valuable">
    <text transform="matrix(1, 0, 0, 1, 448, 75)">
      <tspan x="-153.667" y="-48" font-family="HelveticaNeue-Bold" font-size="24" fill="#05ADB5">VALUABLE</tspan>
      <tspan x="-153.667" y="-19" font-family="HelveticaNeue-Bold" font-size="24" fill="#05ADB5">PATHWAY KNOWLEDGE</tspan>
      <tspan x="-153.667" y="10" font-family="HelveticaNeue" font-size="24" fill="#000000">is buried in articles</tspan>
    </text>
  </g>
  <g id="crowdsource">
    <text transform="matrix(1, 0, 0, 1, 476.697, 563.5)">
      <tspan x="-59.385" y="-29" font-family="HelveticaNeue-Bold" font-size="24" fill="#05ADB5">PATHWAY DATA</tspan>
      <tspan x="-105.273" y="0" font-family="HelveticaNeue" font-size="24" fill="#222831">FROM THE AUTHOR</tspan>
    </text>
    <path d="M338.014,583.278 L338.014,558.319 L333.023,558.319 L333.023,540.017 C333.023,536.356 336.018,533.361 339.678,533.361 L349.662,533.361 C353.322,533.361 356.317,536.356 356.317,540.017 L356.317,558.319 L351.325,558.319 L351.325,583.278 L338.014,583.278 z M344.67,530.033 C348.364,530.033 351.325,527.072 351.325,523.378 C351.325,519.684 348.364,516.722 344.67,516.722 C340.976,516.722 338.014,519.684 338.014,523.378 C338.014,527.072 340.976,530.033 344.67,530.033 z" fill="#222831"/>
    <path d="M302.992,583.278 L302.992,558.319 L298,558.319 L298,540.017 C298,536.356 300.995,533.361 304.656,533.361 L314.639,533.361 C318.299,533.361 321.294,536.356 321.294,540.017 L321.294,558.319 L316.303,558.319 L316.303,583.278 L302.992,583.278 z M309.647,530.033 C313.341,530.033 316.303,527.072 316.303,523.378 C316.303,519.684 313.341,516.722 309.647,516.722 C305.953,516.722 302.992,519.684 302.992,523.378 C302.992,527.072 305.953,530.033 309.647,530.033 z" fill="#222831"/>
    <path d="M267.697,583.278 L267.697,558.319 L262.706,558.319 L262.706,540.017 C262.706,536.356 265.701,533.361 269.361,533.361 L279.344,533.361 C283.005,533.361 286,536.356 286,540.017 L286,558.319 L281.008,558.319 L281.008,583.278 L267.697,583.278 z M274.353,530.033 C278.047,530.033 281.008,527.072 281.008,523.378 C281.008,519.684 278.047,516.722 274.353,516.722 C270.659,516.722 267.697,519.684 267.697,523.378 C267.697,527.072 270.659,530.033 274.353,530.033 z" fill="#222831"/>
    <path d="M231.391,583.278 L231.391,558.319 L226.399,558.319 L226.399,540.017 C226.399,536.356 229.394,533.361 233.054,533.361 L243.038,533.361 C246.698,533.361 249.693,536.356 249.693,540.017 L249.693,558.319 L244.702,558.319 L244.702,583.278 L231.391,583.278 z M238.046,530.033 C241.74,530.033 244.702,527.072 244.702,523.378 C244.702,519.684 241.74,516.722 238.046,516.722 C234.352,516.722 231.391,519.684 231.391,523.378 C231.391,527.072 234.352,530.033 238.046,530.033 z" fill="#222831"/>
    <path d="M196.368,583.278 L196.368,558.319 L191.376,558.319 L191.376,540.017 C191.376,536.356 194.371,533.361 198.032,533.361 L208.015,533.361 C211.676,533.361 214.671,536.356 214.671,540.017 L214.671,558.319 L209.679,558.319 L209.679,583.278 L196.368,583.278 z M203.023,530.033 C206.717,530.033 209.679,527.072 209.679,523.378 C209.679,519.684 206.717,516.722 203.023,516.722 C199.33,516.722 196.368,519.684 196.368,523.378 C196.368,527.072 199.33,530.033 203.023,530.033 z" fill="#222831"/>
    <path d="M161.073,583.278 L161.073,558.319 L156.082,558.319 L156.082,540.017 C156.082,536.356 159.077,533.361 162.737,533.361 L172.721,533.361 C176.381,533.361 179.376,536.356 179.376,540.017 L179.376,558.319 L174.385,558.319 L174.385,583.278 L161.073,583.278 z M167.729,530.033 C171.423,530.033 174.385,527.072 174.385,523.378 C174.385,519.684 171.423,516.722 167.729,516.722 C164.035,516.722 161.073,519.684 161.073,523.378 C161.073,527.072 164.035,530.033 167.729,530.033 z" fill="#222831"/>
    <path d="M128.271,583.278 L128.271,558.319 L123.279,558.319 L123.279,540.017 C123.279,536.356 126.274,533.361 129.935,533.361 L139.918,533.361 C143.578,533.361 146.573,536.356 146.573,540.017 L146.573,558.319 L141.582,558.319 L141.582,583.278 L128.271,583.278 z M134.926,530.033 C138.62,530.033 141.582,527.072 141.582,523.378 C141.582,519.684 138.62,516.722 134.926,516.722 C131.232,516.722 128.271,519.684 128.271,523.378 C128.271,527.072 131.232,530.033 134.926,530.033 z" fill="#222831"/>
    <path d="M93.248,583.278 L93.248,558.319 L88.256,558.319 L88.256,540.017 C88.256,536.356 91.251,533.361 94.912,533.361 L104.895,533.361 C108.556,533.361 111.551,536.356 111.551,540.017 L111.551,558.319 L106.559,558.319 L106.559,583.278 L93.248,583.278 z M99.904,530.033 C103.597,530.033 106.559,527.072 106.559,523.378 C106.559,519.684 103.597,516.722 99.904,516.722 C96.21,516.722 93.248,519.684 93.248,523.378 C93.248,527.072 96.21,530.033 99.904,530.033 z" fill="#222831"/>
    <path d="M57.954,583.278 L57.954,558.319 L52.962,558.319 L52.962,540.017 C52.962,536.356 55.957,533.361 59.617,533.361 L69.601,533.361 C73.261,533.361 76.256,536.356 76.256,540.017 L76.256,558.319 L71.265,558.319 L71.265,583.278 L57.954,583.278 z M64.609,530.033 C68.303,530.033 71.265,527.072 71.265,523.378 C71.265,519.684 68.303,516.722 64.609,516.722 C60.915,516.722 57.954,519.684 57.954,523.378 C57.954,527.072 60.915,530.033 64.609,530.033 z" fill="#222831"/>
    <path d="M21.397,583.278 L21.397,558.319 L16.405,558.319 L16.405,540.017 C16.405,536.356 19.4,533.361 23.061,533.361 L33.044,533.361 C36.705,533.361 39.7,536.356 39.7,540.017 L39.7,558.319 L34.708,558.319 L34.708,583.278 L21.397,583.278 z M28.053,530.033 C31.746,530.033 34.708,527.072 34.708,523.378 C34.708,519.684 31.746,516.722 28.053,516.722 C24.359,516.722 21.397,519.684 21.397,523.378 C21.397,527.072 24.359,530.033 28.053,530.033 z" fill="#222831"/>
  </g>
  <g id="linked">
    <g>
      <path d="M116.918,700.667 L103.239,700.667" fill-opacity="0" stroke="#777777" stroke-width="6"/>
      <path d="M116.918,706.667 L132.918,700.667 L116.918,694.667 z" fill="#777777" fill-opacity="1" stroke="#777777" stroke-width="6" stroke-opacity="1"/>
    </g>
    <path d="M82.572,676.056 L63.684,676.056 C61.087,676.056 58.986,678.181 58.986,680.778 L58.962,718.555 C58.962,721.152 61.063,723.277 63.66,723.277 L92.016,723.277 C94.614,723.277 96.739,721.152 96.739,718.555 L96.739,690.222 L82.572,676.056 z M87.294,713.833 L68.406,713.833 L68.406,709.111 L87.294,709.111 L87.294,713.833 z M87.294,704.389 L68.406,704.389 L68.406,699.667 L87.294,699.667 L87.294,704.389 z M80.211,692.583 L80.211,679.598 L93.197,692.583 L80.211,692.583 z" fill="#000000"/>
    <path d="M173.688,708.51 C171.821,709.556 170.563,711.23 169.932,713.1 L146.701,712.718 C146.507,712.084 146.289,711.464 145.958,710.874 C145.628,710.284 145.213,709.774 144.774,709.278 L156.439,689.475 C158.454,689.96 160.625,689.745 162.566,688.657 C166.645,686.372 168.093,681.235 165.808,677.156 C163.523,673.078 158.386,671.63 154.307,673.915 C150.228,676.2 148.78,681.337 151.065,685.415 C151.396,686.005 151.811,686.515 152.25,687.011 L140.585,706.814 C138.57,706.329 136.399,706.545 134.458,707.632 C130.379,709.917 128.931,715.054 131.216,719.133 C133.501,723.212 138.638,724.66 142.717,722.375 C144.658,721.287 145.976,719.548 146.614,717.576 L169.835,717.997 C170.001,718.582 170.23,719.164 170.533,719.704 C172.749,723.66 177.771,725.076 181.727,722.86 C185.683,720.643 187.099,715.621 184.882,711.666 C182.666,707.71 177.644,706.294 173.688,708.51 z" fill="#05ADB5"/>
    <text transform="matrix(1, 0, 0, 1, 87.59, 637.667)">
      <tspan x="-80.59" y="8" font-family="HelveticaNeue" font-size="24" fill="#000000">ONE ARTICLE</tspan>
    </text>
    <text transform="matrix(1, 0, 0, 1, 155.052, 763.5)">
      <tspan x="-83.052" y="8" font-family="HelveticaNeue" font-size="24" fill="#05ADB5">ONE PATHWAY</tspan>
    </text>
  </g>
  <g id="world">
    <text transform="matrix(1, 0, 0, 1, 438.111, 694.5)">
      <tspan x="-143.778" y="-43.5" font-family="HelveticaNeue" font-size="24" fill="#222831">SHARE YOUR PATHWAY</tspan>
      <tspan x="-143.778" y="-24.5" font-family="HelveticaNeue" font-size="14" fill="#222831">with the</tspan>
      <tspan x="-143.778" y="1.5" font-family="HelveticaNeue-Bold" font-size="24" fill="#05ADB5">WORLD</tspan>
    </text>
    <g id="ic_public_black_24px">
      <path d="M461,658.167 C429.26,658.167 403.5,683.927 403.5,715.667 C403.5,747.407 429.26,773.167 461,773.167 C492.74,773.167 518.5,747.407 518.5,715.667 C518.5,683.927 492.74,658.167 461,658.167 z M455.25,761.264 C432.538,758.447 415,739.127 415,715.667 C415,712.102 415.46,708.709 416.208,705.374 L443.75,732.917 L443.75,738.667 C443.75,744.992 448.925,750.167 455.25,750.167 L455.25,761.264 z M494.925,746.659 C493.43,742.002 489.175,738.667 484,738.667 L478.25,738.667 L478.25,721.417 C478.25,718.254 475.663,715.667 472.5,715.667 L438,715.667 L438,704.167 L449.5,704.167 C452.663,704.167 455.25,701.579 455.25,698.417 L455.25,686.917 L466.75,686.917 C473.075,686.917 478.25,681.742 478.25,675.417 L478.25,673.059 C495.098,679.902 507,696.404 507,715.667 C507,727.627 502.4,738.494 494.925,746.659 z" fill="#05ADB5"/>
    </g>
  </g>
  <g id="lines">
    <path d="M287.5,8.5 L287.5,169.5" fill-opacity="0" stroke="#767676" stroke-width="2" opacity="0.24"/>
    <path d="M5.5,176.5 L607.167,176.5" fill-opacity="0" stroke="#767676" stroke-width="2" stroke-opacity="0.268"/>
    <path d="M242.833,617.167 L242.833,783.167" fill-opacity="0" stroke="#767676" stroke-width="2" opacity="0.24"/>
    <path d="M4.572,608.5 L604.833,608.5" fill-opacity="0" stroke="#767676" stroke-width="2" opacity="0.23"/>
  </g>
  <g id="question">
    <path d="M479.6,135 L468.4,135 C466.86,135 465.614,136.26 465.614,137.8 L465.6,160.2 C465.6,161.74 466.846,163 468.386,163 L485.2,163 C486.74,163 488,161.74 488,160.2 L488,143.4 L479.6,135 z M482.4,157.4 L471.2,157.4 L471.2,154.6 L482.4,154.6 L482.4,157.4 z M482.4,151.8 L471.2,151.8 L471.2,149 L482.4,149 L482.4,151.8 z M478.2,144.8 L478.2,137.1 L485.9,144.8 L478.2,144.8 z" fill="#A6A6A6"/>
    <path d="M507.6,135 L496.4,135 C494.86,135 493.614,136.26 493.614,137.8 L493.6,160.2 C493.6,161.74 494.846,163 496.386,163 L513.2,163 C514.74,163 516,161.74 516,160.2 L516,143.4 L507.6,135 z M510.4,157.4 L499.2,157.4 L499.2,154.6 L510.4,154.6 L510.4,157.4 z M510.4,151.8 L499.2,151.8 L499.2,149 L510.4,149 L510.4,151.8 z M506.2,144.8 L506.2,137.1 L513.9,144.8 L506.2,144.8 z" fill="#A6A6A6"/>
    <path d="M536.022,135 L524.822,135 C523.282,135 522.036,136.26 522.036,137.8 L522.022,160.2 C522.022,161.74 523.268,163 524.808,163 L541.622,163 C543.162,163 544.422,161.74 544.422,160.2 L544.422,143.4 L536.022,135 z M538.822,157.4 L527.622,157.4 L527.622,154.6 L538.822,154.6 L538.822,157.4 z M538.822,151.8 L527.622,151.8 L527.622,149 L538.822,149 L538.822,151.8 z M534.622,144.8 L534.622,137.1 L542.322,144.8 L534.622,144.8 z" fill="#A6A6A6"/>
    <path d="M396.178,135 L384.978,135 C383.438,135 382.192,136.26 382.192,137.8 L382.178,160.2 C382.178,161.74 383.424,163 384.964,163 L401.778,163 C403.318,163 404.578,161.74 404.578,160.2 L404.578,143.4 L396.178,135 z M398.978,157.4 L387.778,157.4 L387.778,154.6 L398.978,154.6 L398.978,157.4 z M398.978,151.8 L387.778,151.8 L387.778,149 L398.978,149 L398.978,151.8 z M394.778,144.8 L394.778,137.1 L402.478,144.8 L394.778,144.8 z" fill="#A6A6A6"/>
    <path d="M424.178,135 L412.978,135 C411.438,135 410.192,136.26 410.192,137.8 L410.178,160.2 C410.178,161.74 411.424,163 412.964,163 L429.778,163 C431.318,163 432.578,161.74 432.578,160.2 L432.578,143.4 L424.178,135 z M426.978,157.4 L415.778,157.4 L415.778,154.6 L426.978,154.6 L426.978,157.4 z M426.978,151.8 L415.778,151.8 L415.778,149 L426.978,149 L426.978,151.8 z M422.778,144.8 L422.778,137.1 L430.478,144.8 L422.778,144.8 z" fill="#A6A6A6"/>
    <path d="M452.6,135 L441.4,135 C439.86,135 438.614,136.26 438.614,137.8 L438.6,160.2 C438.6,161.74 439.846,163 441.386,163 L458.2,163 C459.74,163 461,161.74 461,160.2 L461,143.4 L452.6,135 z M455.4,157.4 L444.2,157.4 L444.2,154.6 L455.4,154.6 L455.4,157.4 z M455.4,151.8 L444.2,151.8 L444.2,149 L455.4,149 L455.4,151.8 z M451.2,144.8 L451.2,137.1 L458.9,144.8 L451.2,144.8 z" fill="#A6A6A6"/>
    <path d="M311.012,135 L299.812,135 C298.272,135 297.026,136.26 297.026,137.8 L297.012,160.2 C297.012,161.74 298.258,163 299.798,163 L316.612,163 C318.152,163 319.412,161.74 319.412,160.2 L319.412,143.4 L311.012,135 z M313.812,157.4 L302.612,157.4 L302.612,154.6 L313.812,154.6 L313.812,157.4 z M313.812,151.8 L302.612,151.8 L302.612,149 L313.812,149 L313.812,151.8 z M309.612,144.8 L309.612,137.1 L317.312,144.8 L309.612,144.8 z" fill="#A6A6A6"/>
    <path d="M339.012,135 L327.812,135 C326.272,135 325.026,136.26 325.026,137.8 L325.012,160.2 C325.012,161.74 326.258,163 327.798,163 L344.612,163 C346.152,163 347.412,161.74 347.412,160.2 L347.412,143.4 L339.012,135 z M341.812,157.4 L330.612,157.4 L330.612,154.6 L341.812,154.6 L341.812,157.4 z M341.812,151.8 L330.612,151.8 L330.612,149 L341.812,149 L341.812,151.8 z M337.612,144.8 L337.612,137.1 L345.312,144.8 L337.612,144.8 z" fill="#A6A6A6"/>
    <path d="M367.433,135 L356.233,135 C354.693,135 353.447,136.26 353.447,137.8 L353.433,160.2 C353.433,161.74 354.679,163 356.219,163 L373.033,163 C374.573,163 375.833,161.74 375.833,160.2 L375.833,143.4 L367.433,135 z M370.233,157.4 L359.033,157.4 L359.033,154.6 L370.233,154.6 L370.233,157.4 z M370.233,151.8 L359.033,151.8 L359.033,149 L370.233,149 L370.233,151.8 z M366.033,144.8 L366.033,137.1 L373.733,144.8 L366.033,144.8 z" fill="#A6A6A6"/>
    <path d="M480.261,103 L469.061,103 C467.521,103 466.275,104.26 466.275,105.8 L466.261,128.2 C466.261,129.74 467.507,131 469.047,131 L485.861,131 C487.401,131 488.661,129.74 488.661,128.2 L488.661,111.4 L480.261,103 z M483.061,125.4 L471.861,125.4 L471.861,122.6 L483.061,122.6 L483.061,125.4 z M483.061,119.8 L471.861,119.8 L471.861,117 L483.061,117 L483.061,119.8 z M478.861,112.8 L478.861,105.1 L486.561,112.8 L478.861,112.8 z" fill="#A6A6A6"/>
    <path d="M508.261,103 L497.061,103 C495.521,103 494.275,104.26 494.275,105.8 L494.261,128.2 C494.261,129.74 495.507,131 497.047,131 L513.861,131 C515.401,131 516.661,129.74 516.661,128.2 L516.661,111.4 L508.261,103 z M511.061,125.4 L499.861,125.4 L499.861,122.6 L511.061,122.6 L511.061,125.4 z M511.061,119.8 L499.861,119.8 L499.861,117 L511.061,117 L511.061,119.8 z M506.861,112.8 L506.861,105.1 L514.561,112.8 L506.861,112.8 z" fill="#A6A6A6"/>
    <path d="M536.683,103 L525.483,103 C523.943,103 522.697,104.26 522.697,105.8 L522.683,128.2 C522.683,129.74 523.929,131 525.469,131 L542.283,131 C543.823,131 545.083,129.74 545.083,128.2 L545.083,111.4 L536.683,103 z M539.483,125.4 L528.283,125.4 L528.283,122.6 L539.483,122.6 L539.483,125.4 z M539.483,119.8 L528.283,119.8 L528.283,117 L539.483,117 L539.483,119.8 z M535.283,112.8 L535.283,105.1 L542.983,112.8 L535.283,112.8 z" fill="#A6A6A6"/>
    <path d="M396.84,103 L385.64,103 C384.1,103 382.854,104.26 382.854,105.8 L382.84,128.2 C382.84,129.74 384.086,131 385.626,131 L402.44,131 C403.98,131 405.24,129.74 405.24,128.2 L405.24,111.4 L396.84,103 z M399.64,125.4 L388.44,125.4 L388.44,122.6 L399.64,122.6 L399.64,125.4 z M399.64,119.8 L388.44,119.8 L388.44,117 L399.64,117 L399.64,119.8 z M395.44,112.8 L395.44,105.1 L403.14,112.8 L395.44,112.8 z" fill="#A6A6A6"/>
    <path d="M424.84,103 L413.64,103 C412.1,103 410.854,104.26 410.854,105.8 L410.84,128.2 C410.84,129.74 412.086,131 413.626,131 L430.44,131 C431.98,131 433.24,129.74 433.24,128.2 L433.24,111.4 L424.84,103 z M427.64,125.4 L416.44,125.4 L416.44,122.6 L427.64,122.6 L427.64,125.4 z M427.64,119.8 L416.44,119.8 L416.44,117 L427.64,117 L427.64,119.8 z M423.44,112.8 L423.44,105.1 L431.14,112.8 L423.44,112.8 z" fill="#A6A6A6"/>
    <path d="M453.261,103 L442.061,103 C440.521,103 439.275,104.26 439.275,105.8 L439.261,128.2 C439.261,129.74 440.507,131 442.047,131 L458.861,131 C460.401,131 461.661,129.74 461.661,128.2 L461.661,111.4 L453.261,103 z M456.061,125.4 L444.861,125.4 L444.861,122.6 L456.061,122.6 L456.061,125.4 z M456.061,119.8 L444.861,119.8 L444.861,117 L456.061,117 L456.061,119.8 z M451.861,112.8 L451.861,105.1 L459.561,112.8 L451.861,112.8 z" fill="#A6A6A6"/>
    <path d="M311.673,103 L300.473,103 C298.933,103 297.687,104.26 297.687,105.8 L297.673,128.2 C297.673,129.74 298.919,131 300.459,131 L317.273,131 C318.813,131 320.073,129.74 320.073,128.2 L320.073,111.4 L311.673,103 z M314.473,125.4 L303.273,125.4 L303.273,122.6 L314.473,122.6 L314.473,125.4 z M314.473,119.8 L303.273,119.8 L303.273,117 L314.473,117 L314.473,119.8 z M310.273,112.8 L310.273,105.1 L317.973,112.8 L310.273,112.8 z" fill="#A6A6A6"/>
    <path d="M339.673,103 L328.473,103 C326.933,103 325.687,104.26 325.687,105.8 L325.673,128.2 C325.673,129.74 326.919,131 328.459,131 L345.273,131 C346.813,131 348.073,129.74 348.073,128.2 L348.073,111.4 L339.673,103 z M342.473,125.4 L331.273,125.4 L331.273,122.6 L342.473,122.6 L342.473,125.4 z M342.473,119.8 L331.273,119.8 L331.273,117 L342.473,117 L342.473,119.8 z M338.273,112.8 L338.273,105.1 L345.973,112.8 L338.273,112.8 z" fill="#A6A6A6"/>
    <path d="M368.095,103 L356.895,103 C355.355,103 354.109,104.26 354.109,105.8 L354.095,128.2 C354.095,129.74 355.341,131 356.881,131 L373.695,131 C375.235,131 376.495,129.74 376.495,128.2 L376.495,111.4 L368.095,103 z M370.895,125.4 L359.695,125.4 L359.695,122.6 L370.895,122.6 L370.895,125.4 z M370.895,119.8 L359.695,119.8 L359.695,117 L370.895,117 L370.895,119.8 z M366.695,112.8 L366.695,105.1 L374.395,112.8 L366.695,112.8 z" fill="#A6A6A6"/>
    <path d="M563.183,135 L551.983,135 C550.443,135 549.197,136.26 549.197,137.8 L549.183,160.2 C549.183,161.74 550.429,163 551.969,163 L568.783,163 C570.323,163 571.583,161.74 571.583,160.2 L571.583,143.4 L563.183,135 z M565.983,157.4 L554.783,157.4 L554.783,154.6 L565.983,154.6 L565.983,157.4 z M565.983,151.8 L554.783,151.8 L554.783,149 L565.983,149 L565.983,151.8 z M561.783,144.8 L561.783,137.1 L569.483,144.8 L561.783,144.8 z" fill="#A6A6A6"/>
    <path d="M591.605,135 L580.405,135 C578.865,135 577.619,136.26 577.619,137.8 L577.605,160.2 C577.605,161.74 578.851,163 580.391,163 L597.205,163 C598.745,163 600.005,161.74 600.005,160.2 L600.005,143.4 L591.605,135 z M594.405,157.4 L583.205,157.4 L583.205,154.6 L594.405,154.6 L594.405,157.4 z M594.405,151.8 L583.205,151.8 L583.205,149 L594.405,149 L594.405,151.8 z M590.205,144.8 L590.205,137.1 L597.905,144.8 L590.205,144.8 z" fill="#A6A6A6"/>
    <path d="M563.845,103 L552.645,103 C551.105,103 549.859,104.26 549.859,105.8 L549.845,128.2 C549.845,129.74 551.091,131 552.631,131 L569.445,131 C570.985,131 572.245,129.74 572.245,128.2 L572.245,111.4 L563.845,103 z M566.645,125.4 L555.445,125.4 L555.445,122.6 L566.645,122.6 L566.645,125.4 z M566.645,119.8 L555.445,119.8 L555.445,117 L566.645,117 L566.645,119.8 z M562.445,112.8 L562.445,105.1 L570.145,112.8 L562.445,112.8 z" fill="#A6A6A6"/>
    <path d="M592.267,103 L581.067,103 C579.527,103 578.281,104.26 578.281,105.8 L578.267,128.2 C578.267,129.74 579.513,131 581.053,131 L597.867,131 C599.407,131 600.667,129.74 600.667,128.2 L600.667,111.4 L592.267,103 z M595.067,125.4 L583.867,125.4 L583.867,122.6 L595.067,122.6 L595.067,125.4 z M595.067,119.8 L583.867,119.8 L583.867,117 L595.067,117 L595.067,119.8 z M590.867,112.8 L590.867,105.1 L598.567,112.8 L590.867,112.8 z" fill="#A6A6A6"/>
    <g id="ic_share_black_24px_(1)">
      <path d="M325.907,277.53 C321.556,279.868 318.585,283.678 317.053,287.969 L263.461,286.143 C263.039,284.672 262.561,283.232 261.823,281.858 C261.084,280.483 260.148,279.29 259.154,278.126 L286.876,232.904 C291.506,234.105 296.525,233.696 301.049,231.266 C310.554,226.159 314.104,214.364 308.997,204.859 C303.89,195.354 292.095,191.804 282.59,196.911 C273.085,202.018 269.535,213.813 274.642,223.318 C275.38,224.692 276.317,225.886 277.311,227.049 L249.588,272.272 C244.958,271.07 239.939,271.479 235.416,273.91 C225.911,279.017 222.361,290.812 227.468,300.317 C232.575,309.822 244.37,313.372 253.875,308.265 C258.398,305.834 261.51,301.875 263.063,297.351 L316.629,299.265 C316.989,300.622 317.494,301.974 318.171,303.233 C323.124,312.452 334.655,315.922 343.874,310.969 C353.093,306.016 356.563,294.485 351.61,285.266 C346.657,276.048 335.126,272.577 325.907,277.53 z" fill="#000000"/>
    </g>
    <text transform="matrix(1, 0, 0, 1, 143.18, 275.791)">
      <tspan x="-102" y="-58.541" font-family="HelveticaNeue" font-size="24" fill="#E54939">Computers do not </tspan>
      <tspan x="-102" y="-29.541" font-family="HelveticaNeue" font-size="24" fill="#E54939">understand </tspan>
      <tspan x="-102" y="-0.541" font-family="HelveticaNeue" font-size="24" fill="#E54939">language and </tspan>
      <tspan x="-102" y="28.459" font-family="HelveticaNeue" font-size="24" fill="#E54939">figures.</tspan>
    </text>
    <text transform="matrix(1, 0, 0, 1, 483.479, 261)">
      <tspan x="-104.64" y="-40.75" font-family="HelveticaNeue" font-size="24" fill="#000000">How will you find </tspan>
      <tspan x="-104.64" y="-11.75" font-family="HelveticaNeue" font-size="24" fill="#000000">the genes and </tspan>
      <tspan x="-104.64" y="17.25" font-family="HelveticaNeue" font-size="24" fill="#000000">pathways you care </tspan>
      <tspan x="-104.64" y="46.25" font-family="HelveticaNeue" font-size="24" fill="#000000">about?</tspan>
    </text>
    <g id="ic_share_black_24px_(1)">
      <path d="M532.657,748.872 C530.099,750.3 528.375,752.587 527.508,755.146 L495.717,754.578 C495.453,753.711 495.156,752.861 494.705,752.054 C494.254,751.246 493.687,750.547 493.087,749.867 L509.088,722.79 C511.844,723.457 514.816,723.167 517.474,721.682 C523.06,718.563 525.052,711.536 521.932,705.95 C518.813,700.364 511.786,698.372 506.2,701.492 C500.614,704.611 498.623,711.638 501.742,717.224 C502.193,718.032 502.76,718.73 503.36,719.41 L487.359,746.488 C484.602,745.82 481.631,746.111 478.972,747.596 C473.386,750.715 471.395,757.742 474.514,763.328 C477.633,768.914 484.66,770.905 490.247,767.786 C492.905,766.302 494.712,763.924 495.589,761.227 L527.366,761.847 C527.592,762.648 527.904,763.445 528.318,764.185 C531.343,769.603 538.213,771.549 543.631,768.524 C549.048,765.499 550.995,758.629 547.97,753.211 C544.945,747.793 538.075,745.847 532.657,748.872 z" fill="#000000"/>
    </g>
  </g>
</svg>
