<?xml version="1.0" encoding="UTF-8"?>
<!DOCTYPE svg PUBLIC "-//W3C//DTD SVG 1.1//EN" "http://www.w3.org/Graphics/SVG/1.1/DTD/svg11.dtd">
<svg version="1.1" xmlns="http://www.w3.org/2000/svg" xmlns:xlink="http://www.w3.org/1999/xlink" x="0" y="0" width="612" height="792" viewBox="0, 0, 612, 792">
  <g id="bg">
    <path d="M0,-0 L612,-0 L612,792 L0,792 L0,-0 z" fill="#EEEEEE"/>
  </g>
  <g id="n_papers">
    <text transform="matrix(1, 0, 0, 1, 143.18, 63.75)">
      <tspan x="-136.18" y="-36.75" font-family="HelveticaNeue" font-size="24" fill="#222831">X THOUSAND PAPERS</tspan>
      <tspan x="-136.18" y="-17.75" font-family="HelveticaNeue" font-size="14" fill="#222831">about biology published per year</tspan>
      <tspan x="-136.18" y="8.25" font-family="HelveticaNeue-Bold" font-size="24" fill="#05ADB5">AND GROWING</tspan>
    </text>
    <path d="M7,84 L63.5,84 L63.5,96.5 L7,96.5 L7,84 z" fill="#00ADB5" id="bar3"/>
    <path d="M7,103.5 L133.5,103.5 L133.5,116 L7,116 L7,103.5 z" fill="#00ADB5" id="bar2"/>
    <path d="M7,122.5 L259.5,122.5 L259.5,135 L7,135 L7,122.5 z" fill="#00ADB5" id="bar"/>
  </g>
  <g id="painful">
    <text transform="matrix(1, 0, 0, 1, 486.5, 91)">
      <tspan x="-49.175" y="-48.333" font-family="HelveticaNeue" font-size="14" fill="#222831">Biological data collection is</tspan>
      <tspan x="-89.005" y="-22.333" font-family="HelveticaNeue" font-size="24" fill="#222831">TIME CONSUMING</tspan>
      <tspan x="-7.613" y="6.667" font-family="HelveticaNeue" font-size="14" fill="#222831">and </tspan>
      <tspan x="19.883" y="6.667" font-family="HelveticaNeue-Bold" font-size="24" fill="#ED4A31">PAINFUL</tspan>
    </text>
    <path d="M357.962,63.714 C357.155,60.627 355.191,57.854 352.223,56.116 C346.288,52.641 338.68,54.642 335.205,60.577 C331.73,66.512 333.709,74.126 339.644,77.601 C344.652,80.533 350.833,79.554 354.741,75.621 L351.948,73.986 C349.015,76.47 344.721,76.967 341.216,74.915 C336.771,72.313 335.274,66.586 337.877,62.141 C340.479,57.697 346.206,56.199 350.651,58.802 C352.88,60.107 354.324,62.197 354.918,64.51 L348.062,66.302 L357.462,71.805 L362.965,62.406 L357.962,63.714 z" fill="#ED4A31" display="none"/>
    <g id="ic_access_time_black_24px" display="none">
      <path d="M346.462,28.083 C325.532,28.083 308.583,45.07 308.583,66 C308.583,86.93 325.532,103.917 346.462,103.917 C367.43,103.917 384.417,86.93 384.417,66 C384.417,45.07 367.43,28.083 346.462,28.083 z M346.5,96.333 C329.741,96.333 316.167,82.759 316.167,66 C316.167,49.241 329.741,35.667 346.5,35.667 C363.259,35.667 376.833,49.241 376.833,66 C376.833,82.759 363.259,96.333 346.5,96.333 z" fill="#00ADB5"/>
      <path d="M348.396,47.042 L342.708,47.042 L342.708,69.792 L362.615,81.735 L365.458,77.072 L348.396,66.948 z" fill="#00ADB5"/>
    </g>
    <g id="ic_mood_bad_black_24px">
      <path d="M347.462,28.083 C326.532,28.083 309.583,45.07 309.583,66 C309.583,86.93 326.532,103.917 347.462,103.917 C368.43,103.917 385.417,86.93 385.417,66 C385.417,45.07 368.43,28.083 347.462,28.083 z M347.5,96.333 C330.741,96.333 317.167,82.759 317.167,66 C317.167,49.241 330.741,35.667 347.5,35.667 C364.259,35.667 377.833,49.241 377.833,66 C377.833,82.759 364.259,96.333 347.5,96.333 z M360.771,62.208 C363.918,62.208 366.458,59.668 366.458,56.521 C366.458,53.374 363.918,50.833 360.771,50.833 C357.624,50.833 355.083,53.374 355.083,56.521 C355.083,59.668 357.624,62.208 360.771,62.208 z M334.229,62.208 C337.376,62.208 339.917,59.668 339.917,56.521 C339.917,53.374 337.376,50.833 334.229,50.833 C331.082,50.833 328.542,53.374 328.542,56.521 C328.542,59.668 331.082,62.208 334.229,62.208 z M347.5,73.583 C338.665,73.583 331.158,79.119 328.125,86.854 L366.875,86.854 C363.842,79.119 356.335,73.583 347.5,73.583 z" fill="#ED4A31"/>
    </g>
  </g>
  <g id="factoid">
    <path d="M0,348.105 L612,348.105 L612,487.895 L0,487.895 L0,348.105 z" fill="#222831"/>
    <text transform="matrix(1, 0, 0, 1, 359.851, 424.281)">
      <tspan x="-207.278" y="2.052" font-family="HelveticaNeue" font-size="72" fill="#FFFFFF">FACTOID</tspan>
      <tspan x="-207.278" y="42.052" font-family="HelveticaNeue" font-size="24" fill="#FFFFFF">is the ANSWER</tspan>
    </text>
    <path d="M581.888,451.833 L571.372,441.317 L529.68,482.935 L529.68,392.167 L514.763,392.167 L514.763,482.935 L473.146,441.242 L462.555,451.833 L522.222,511.5 L581.888,451.833 z" fill="#05ADB5"/>
    <g id="logo">
      <g>
        <path d="M26.424,421.667 C26.424,394.697 48.283,372.833 75.248,372.833 C102.212,372.833 124.071,394.697 124.071,421.667 C124.071,448.637 102.212,470.5 75.248,470.5 C48.283,470.5 26.424,448.637 26.424,421.667 z" fill="#ECF0F1"/>
        <path d="M26.424,421.667 C26.424,394.697 48.283,372.833 75.248,372.833 C102.212,372.833 124.071,394.697 124.071,421.667 C124.071,448.637 102.212,470.5 75.248,470.5 C48.283,470.5 26.424,448.637 26.424,421.667 z" fill-opacity="0" stroke="#2A3E50" stroke-width="5"/>
      </g>
      <g>
        <path d="M38.104,430.819 C38.104,410.301 54.734,393.667 75.248,393.667 C95.762,393.667 112.392,410.301 112.392,430.819 C112.392,451.337 95.762,467.97 75.248,467.97 C54.734,467.97 38.104,451.337 38.104,430.819 z" fill="#ECF0F1"/>
        <path d="M38.104,430.819 C38.104,410.301 54.734,393.667 75.248,393.667 C95.762,393.667 112.392,410.301 112.392,430.819 C112.392,451.337 95.762,467.97 75.248,467.97 C54.734,467.97 38.104,451.337 38.104,430.819 z" fill-opacity="0" stroke="#2A3E50" stroke-width="5"/>
      </g>
      <g>
        <path d="M75.246,465.779 C60.788,465.779 49.049,454.037 49.049,439.577 C49.049,425.117 60.788,413.375 75.246,413.375 C89.704,413.375 101.457,425.117 101.457,439.577 C101.457,454.037 89.704,465.779 75.246,465.779 z" fill="#ECF0F1"/>
        <path d="M75.246,465.779 C60.788,465.779 49.049,454.037 49.049,439.577 C49.049,425.117 60.788,413.375 75.246,413.375 C89.704,413.375 101.457,425.117 101.457,439.577 C101.457,454.037 89.704,465.779 75.246,465.779 z" fill-opacity="0" stroke="#2A3E50" stroke-width="5"/>
      </g>
    </g>
  </g>
  <g id="discoveries_missed">
    <text transform="matrix(1, 0, 0, 1, 422.847, 255.833)">
      <tspan x="-67.572" y="-43.5" font-family="HelveticaNeue" font-size="24" fill="#222831">IMPORTANT</tspan>
      <tspan x="-78.216" y="-14.5" font-family="HelveticaNeue" font-size="24" fill="#222831">DISCOVERIES</tspan>
      <tspan x="-9.723" y="4.5" font-family="HelveticaNeue" font-size="14" fill="#222831">are</tspan>
      <tspan x="-46.668" y="30.5" font-family="HelveticaNeue-Bold" font-size="24" fill="#ED4A31">MISSED</tspan>
      <tspan x="-67.41" y="49.5" font-family="HelveticaNeue" font-size="14" fill="#222831">without pathway data</tspan>
    </text>
    <path d="M540.379,269.958 C540.379,271.265 541.448,272.333 542.754,272.333 L552.254,272.333 C553.56,272.333 554.629,271.265 554.629,269.958 L554.629,267.583 L540.379,267.583 L540.379,269.958 z M547.504,224.833 C538.336,224.833 530.879,232.291 530.879,241.458 C530.879,247.111 533.705,252.075 538.004,255.091 L538.004,260.458 C538.004,261.765 539.073,262.833 540.379,262.833 L554.629,262.833 C555.935,262.833 557.004,261.765 557.004,260.458 L557.004,255.091 C561.303,252.075 564.129,247.111 564.129,241.458 C564.129,232.291 556.671,224.833 547.504,224.833 z M554.273,251.196 L552.254,252.621 L552.254,258.083 L542.754,258.083 L542.754,252.621 L540.735,251.196 C537.529,248.963 535.629,245.33 535.629,241.458 C535.629,234.903 540.949,229.583 547.504,229.583 C554.059,229.583 559.379,234.903 559.379,241.458 C559.379,245.33 557.479,248.963 554.273,251.196 z" fill="#000000" id="ic_lightbulb_outline_black_24px"/>
    <path d="M547.504,210.75 C526.62,210.75 509.671,227.699 509.671,248.583 C509.671,269.467 526.62,286.417 547.504,286.417 C568.388,286.417 585.337,269.467 585.337,248.583 C585.337,227.699 568.388,210.75 547.504,210.75 z M547.504,278.85 C530.782,278.85 517.237,265.306 517.237,248.583 C517.237,241.584 519.621,235.152 523.631,230.045 L566.042,272.456 C560.935,276.466 554.503,278.85 547.504,278.85 z M571.377,267.122 L528.966,224.71 C534.073,220.7 540.505,218.317 547.504,218.317 C564.226,218.317 577.771,231.861 577.771,248.583 C577.771,255.582 575.387,262.014 571.377,267.122 z" fill="#ED4A31"/>
  </g>
  <g id="%_papers">
    <text transform="matrix(1, 0, 0, 1, 140.027, 235.806)">
      <tspan x="-14.266" y="-33.472" font-family="HelveticaNeue" font-size="14" fill="#222831">Only</tspan>
      <tspan x="-25.346" y="-7.472" font-family="HelveticaNeue-Bold" font-size="24" fill="#05ADB5">X</tspan>
      <tspan x="-9.338" y="-7.472" font-family="HelveticaNeue" font-size="14" fill="#222831"> in </tspan>
      <tspan x="9.338" y="-7.472" font-family="HelveticaNeue-Bold" font-size="24" fill="#222831">Y</tspan>
      <tspan x="-82.845" y="11.528" font-family="HelveticaNeue" font-size="14" fill="#222831">papers have pathway data</tspan>
    </text>
    <path d="M61.611,258.944 L41.833,258.944 C39.114,258.944 36.914,261.169 36.914,263.889 L36.889,303.444 C36.889,306.164 39.089,308.389 41.809,308.389 L71.5,308.389 C74.219,308.389 76.444,306.164 76.444,303.444 L76.444,273.778 L61.611,258.944 z M66.556,298.5 L46.778,298.5 L46.778,293.556 L66.556,293.556 L66.556,298.5 z M66.556,288.611 L46.778,288.611 L46.778,283.667 L66.556,283.667 L66.556,288.611 z M59.139,276.25 L59.139,262.653 L72.736,276.25 L59.139,276.25 z" fill="#05ADB5"/>
    <path d="M118.5,258.944 L98.722,258.944 C96.003,258.944 93.803,261.169 93.803,263.889 L93.778,303.444 C93.778,306.164 95.978,308.389 98.698,308.389 L128.389,308.389 C131.108,308.389 133.333,306.164 133.333,303.444 L133.333,273.778 L118.5,258.944 z M123.444,298.5 L103.667,298.5 L103.667,293.556 L123.444,293.556 L123.444,298.5 z M123.444,288.611 L103.667,288.611 L103.667,283.667 L123.444,283.667 L123.444,288.611 z M116.028,276.25 L116.028,262.653 L129.625,276.25 L116.028,276.25 z" fill="#222831" fill-opacity="0.498"/>
    <path d="M174.5,258.944 L154.722,258.944 C152.003,258.944 149.803,261.169 149.803,263.889 L149.778,303.444 C149.778,306.164 151.978,308.389 154.698,308.389 L184.389,308.389 C187.108,308.389 189.333,306.164 189.333,303.444 L189.333,273.778 L174.5,258.944 z M179.444,298.5 L159.667,298.5 L159.667,293.556 L179.444,293.556 L179.444,298.5 z M179.444,288.611 L159.667,288.611 L159.667,283.667 L179.444,283.667 L179.444,288.611 z M172.028,276.25 L172.028,262.653 L185.625,276.25 L172.028,276.25 z" fill="#222831" fill-opacity="0.498"/>
    <path d="M227.5,258.944 L207.722,258.944 C205.003,258.944 202.803,261.169 202.803,263.889 L202.778,303.444 C202.778,306.164 204.978,308.389 207.697,308.389 L237.389,308.389 C240.108,308.389 242.333,306.164 242.333,303.444 L242.333,273.778 L227.5,258.944 z M232.444,298.5 L212.667,298.5 L212.667,293.556 L232.444,293.556 L232.444,298.5 z M232.444,288.611 L212.667,288.611 L212.667,283.667 L232.444,283.667 L232.444,288.611 z M225.028,276.25 L225.028,262.653 L238.625,276.25 L225.028,276.25 z" fill="#222831" fill-opacity="0.498"/>
  </g>
  <g id="crowdsource">
    <text transform="matrix(1, 0, 0, 1, 486.697, 563.5)">
      <tspan x="-109.257" y="-29" font-family="HelveticaNeue-Bold" font-size="24" fill="#05ADB5">CROWD SOURCING</tspan>
      <tspan x="21.259" y="-10" font-family="HelveticaNeue" font-size="14" fill="#222831">pathway data at</tspan>
      <tspan x="-95.481" y="16" font-family="HelveticaNeue" font-size="24" fill="#222831">PUBLICATION TIME</tspan>
    </text>
    <path d="M344.014,583.278 L344.014,558.319 L339.023,558.319 L339.023,540.017 C339.023,536.356 342.018,533.361 345.678,533.361 L355.662,533.361 C359.322,533.361 362.317,536.356 362.317,540.017 L362.317,558.319 L357.325,558.319 L357.325,583.278 L344.014,583.278 z M350.67,530.033 C354.364,530.033 357.325,527.072 357.325,523.378 C357.325,519.684 354.364,516.722 350.67,516.722 C346.976,516.722 344.014,519.684 344.014,523.378 C344.014,527.072 346.976,530.033 350.67,530.033 z" fill="#222831"/>
    <path d="M308.992,583.278 L308.992,558.319 L304,558.319 L304,540.017 C304,536.356 306.995,533.361 310.656,533.361 L320.639,533.361 C324.299,533.361 327.294,536.356 327.294,540.017 L327.294,558.319 L322.303,558.319 L322.303,583.278 L308.992,583.278 z M315.647,530.033 C319.341,530.033 322.303,527.072 322.303,523.378 C322.303,519.684 319.341,516.722 315.647,516.722 C311.953,516.722 308.992,519.684 308.992,523.378 C308.992,527.072 311.953,530.033 315.647,530.033 z" fill="#222831"/>
    <path d="M273.697,583.278 L273.697,558.319 L268.706,558.319 L268.706,540.017 C268.706,536.356 271.701,533.361 275.361,533.361 L285.344,533.361 C289.005,533.361 292,536.356 292,540.017 L292,558.319 L287.008,558.319 L287.008,583.278 L273.697,583.278 z M280.353,530.033 C284.047,530.033 287.008,527.072 287.008,523.378 C287.008,519.684 284.047,516.722 280.353,516.722 C276.659,516.722 273.697,519.684 273.697,523.378 C273.697,527.072 276.659,530.033 280.353,530.033 z" fill="#222831"/>
    <path d="M237.391,583.278 L237.391,558.319 L232.399,558.319 L232.399,540.017 C232.399,536.356 235.394,533.361 239.054,533.361 L249.038,533.361 C252.698,533.361 255.693,536.356 255.693,540.017 L255.693,558.319 L250.702,558.319 L250.702,583.278 L237.391,583.278 z M244.046,530.033 C247.74,530.033 250.702,527.072 250.702,523.378 C250.702,519.684 247.74,516.722 244.046,516.722 C240.352,516.722 237.391,519.684 237.391,523.378 C237.391,527.072 240.352,530.033 244.046,530.033 z" fill="#222831"/>
    <path d="M202.368,583.278 L202.368,558.319 L197.376,558.319 L197.376,540.017 C197.376,536.356 200.371,533.361 204.032,533.361 L214.015,533.361 C217.676,533.361 220.671,536.356 220.671,540.017 L220.671,558.319 L215.679,558.319 L215.679,583.278 L202.368,583.278 z M209.023,530.033 C212.717,530.033 215.679,527.072 215.679,523.378 C215.679,519.684 212.717,516.722 209.023,516.722 C205.33,516.722 202.368,519.684 202.368,523.378 C202.368,527.072 205.33,530.033 209.023,530.033 z" fill="#222831"/>
    <path d="M167.073,583.278 L167.073,558.319 L162.082,558.319 L162.082,540.017 C162.082,536.356 165.077,533.361 168.737,533.361 L178.721,533.361 C182.381,533.361 185.376,536.356 185.376,540.017 L185.376,558.319 L180.385,558.319 L180.385,583.278 L167.073,583.278 z M173.729,530.033 C177.423,530.033 180.385,527.072 180.385,523.378 C180.385,519.684 177.423,516.722 173.729,516.722 C170.035,516.722 167.073,519.684 167.073,523.378 C167.073,527.072 170.035,530.033 173.729,530.033 z" fill="#222831"/>
    <path d="M134.271,583.278 L134.271,558.319 L129.279,558.319 L129.279,540.017 C129.279,536.356 132.274,533.361 135.935,533.361 L145.918,533.361 C149.578,533.361 152.573,536.356 152.573,540.017 L152.573,558.319 L147.582,558.319 L147.582,583.278 L134.271,583.278 z M140.926,530.033 C144.62,530.033 147.582,527.072 147.582,523.378 C147.582,519.684 144.62,516.722 140.926,516.722 C137.232,516.722 134.271,519.684 134.271,523.378 C134.271,527.072 137.232,530.033 140.926,530.033 z" fill="#222831"/>
    <path d="M99.248,583.278 L99.248,558.319 L94.256,558.319 L94.256,540.017 C94.256,536.356 97.251,533.361 100.912,533.361 L110.895,533.361 C114.556,533.361 117.551,536.356 117.551,540.017 L117.551,558.319 L112.559,558.319 L112.559,583.278 L99.248,583.278 z M105.904,530.033 C109.597,530.033 112.559,527.072 112.559,523.378 C112.559,519.684 109.597,516.722 105.904,516.722 C102.21,516.722 99.248,519.684 99.248,523.378 C99.248,527.072 102.21,530.033 105.904,530.033 z" fill="#222831"/>
    <path d="M63.954,583.278 L63.954,558.319 L58.962,558.319 L58.962,540.017 C58.962,536.356 61.957,533.361 65.617,533.361 L75.601,533.361 C79.261,533.361 82.256,536.356 82.256,540.017 L82.256,558.319 L77.265,558.319 L77.265,583.278 L63.954,583.278 z M70.609,530.033 C74.303,530.033 77.265,527.072 77.265,523.378 C77.265,519.684 74.303,516.722 70.609,516.722 C66.915,516.722 63.954,519.684 63.954,523.378 C63.954,527.072 66.915,530.033 70.609,530.033 z" fill="#222831"/>
    <path d="M27.397,583.278 L27.397,558.319 L22.405,558.319 L22.405,540.017 C22.405,536.356 25.4,533.361 29.061,533.361 L39.044,533.361 C42.705,533.361 45.7,536.356 45.7,540.017 L45.7,558.319 L40.708,558.319 L40.708,583.278 L27.397,583.278 z M34.053,530.033 C37.746,530.033 40.708,527.072 40.708,523.378 C40.708,519.684 37.746,516.722 34.053,516.722 C30.359,516.722 27.397,519.684 27.397,523.378 C27.397,527.072 30.359,530.033 34.053,530.033 z" fill="#222831"/>
  </g>
  <g id="peer_review">
    <text transform="matrix(1, 0, 0, 1, 122.203, 678.167)">
      <tspan x="-20.867" y="-24.5" font-family="HelveticaNeue" font-size="14" fill="#222831">Part of</tspan>
      <tspan x="-82.2" y="1.5" font-family="HelveticaNeue-Bold" font-size="24" fill="#05ADB5">PEER REVIEW</tspan>
    </text>
    <g id="ic_school_black_24px_(1)">
      <path d="M96.167,735.797 L96.167,749.797 L120.667,763.167 L145.167,749.797 L145.167,735.797 L120.667,749.167 L96.167,735.797 z M120.667,700.167 L82.167,721.167 L120.667,742.167 L152.167,724.982 L152.167,749.167 L159.167,749.167 L159.167,721.167 L120.667,700.167 z" fill="#05ADB5"/>
    </g>
  </g>
  <g id="world">
    <text transform="matrix(1, 0, 0, 1, 438.111, 694.5)">
      <tspan x="-143.778" y="-43.5" font-family="HelveticaNeue" font-size="24" fill="#222831">SHARE YOUR PATHWAY</tspan>
      <tspan x="-143.778" y="-24.5" font-family="HelveticaNeue" font-size="14" fill="#222831">your pathway with the</tspan>
      <tspan x="-143.778" y="1.5" font-family="HelveticaNeue-Bold" font-size="24" fill="#05ADB5">WORLD</tspan>
    </text>
    <g id="ic_public_black_24px">
      <path d="M484.277,659.5 C452.537,659.5 426.777,685.26 426.777,717 C426.777,748.74 452.537,774.5 484.277,774.5 C516.017,774.5 541.777,748.74 541.777,717 C541.777,685.26 516.017,659.5 484.277,659.5 z M478.527,762.597 C455.814,759.78 438.277,740.46 438.277,717 C438.277,713.435 438.737,710.042 439.484,706.708 L467.027,734.25 L467.027,740 C467.027,746.325 472.202,751.5 478.527,751.5 L478.527,762.597 z M518.202,747.992 C516.707,743.335 512.452,740 507.277,740 L501.527,740 L501.527,722.75 C501.527,719.588 498.939,717 495.777,717 L461.277,717 L461.277,705.5 L472.777,705.5 C475.939,705.5 478.527,702.912 478.527,699.75 L478.527,688.25 L490.027,688.25 C496.352,688.25 501.527,683.075 501.527,676.75 L501.527,674.393 C518.374,681.235 530.277,697.737 530.277,717 C530.277,728.96 525.677,739.828 518.202,747.992 z" fill="#05ADB5"/>
    </g>
  </g>
  <g id="lines">
    <path d="M287.5,8.5 L287.5,337.833" fill-opacity="0" stroke="#767676" stroke-width="2" opacity="0.24"/>
    <path d="M294.833,159.833 L602.167,159.833" fill-opacity="0" stroke="#767676" stroke-width="2" opacity="0.24"/>
    <path d="M242.833,619.167 L242.833,785.167" fill-opacity="0" stroke="#767676" stroke-width="2" opacity="0.24"/>
    <path d="M4.572,608.5 L604.833,608.5" fill-opacity="0" stroke="#767676" stroke-width="2" opacity="0.23"/>
    <path d="M279.86,159.833 L7.5,159.833" fill-opacity="0" stroke="#767676" stroke-width="2" opacity="0.24"/>
  </g>
</svg>
