<?xml version="1.0" encoding="UTF-8" standalone="no"?>
<!DOCTYPE svg PUBLIC "-//W3C//DTD SVG 1.1//EN" "http://www.w3.org/Graphics/SVG/1.1/DTD/svg11.dtd">
<svg width="100%" height="100%" viewBox="0 0 908 255" version="1.1" xmlns="http://www.w3.org/2000/svg" xmlns:xlink="http://www.w3.org/1999/xlink" xml:space="preserve" xmlns:serif="http://www.serif.com/" style="fill-rule:evenodd;clip-rule:evenodd;stroke-linecap:round;stroke-linejoin:round;stroke-miterlimit:1.5;">
    <g transform="matrix(1,0,0,1,-335.75,-851.247)">
        <g>
            <g>
                <g transform="matrix(-1.53423,-1.88017e-16,2.04696e-16,-1.67212,2506.8,3303.8)">
                    <ellipse cx="1332" cy="1390.5" rx="79" ry="72.5" style="fill:rgb(236,240,241);stroke:rgb(42,62,80);stroke-width:7.79px;"/>
                </g>
                <g transform="matrix(-1.16721,-1.4304e-16,1.55729e-16,-1.27212,2017.93,2770.32)">
                    <ellipse cx="1332" cy="1390.5" rx="79" ry="72.5" style="fill:rgb(236,240,241);stroke:rgb(42,62,80);stroke-width:10.24px;"/>
                </g>
                <g transform="matrix(-0.823219,-1.00884e-16,1.09833e-16,-0.897203,1559.73,2270.74)">
                    <path d="M1332,1318C1375.6,1318 1411,1350.49 1411,1390.5C1411,1430.51 1375.6,1463 1332,1463C1288.4,1463 1252.96,1430.51 1252.96,1390.5C1252.96,1350.49 1288.4,1318 1332,1318Z" style="fill:rgb(236,240,241);stroke:rgb(42,62,80);stroke-width:14.52px;"/>
                </g>
            </g>
            <g transform="matrix(1,0,0,1,-492.726,-415.774)">
                <g>
                    <path d="M1157.7,1447.8L1157.7,1441.8C1169.43,1441.8 1175.3,1436.47 1175.3,1425.8L1175.3,1339C1175.3,1327.27 1168.97,1321.4 1156.3,1321.4L1156.3,1315.2L1258.9,1315.2L1262.1,1352L1255.1,1352.6C1253.9,1345.93 1252.13,1340.7 1249.8,1336.9C1247.47,1333.1 1244.57,1330.23 1241.1,1328.3C1237.63,1326.37 1233.6,1325.13 1229,1324.6C1224.4,1324.07 1219.17,1323.8 1213.3,1323.8L1207.3,1323.8C1199.17,1323.8 1195.1,1326.53 1195.1,1332L1195.1,1367.2C1195.1,1372.13 1198.9,1374.6 1206.5,1374.6L1209.5,1374.6C1213.9,1374.6 1217.37,1374.3 1219.9,1373.7C1222.43,1373.1 1224.43,1372.03 1225.9,1370.5C1227.37,1368.97 1228.5,1366.9 1229.3,1364.3C1230.1,1361.7 1230.9,1358.33 1231.7,1354.2L1238.5,1354.2L1238.5,1405.2L1231.7,1405.2L1231.7,1401.2C1231.7,1399.33 1231.47,1397.37 1231,1395.3C1230.53,1393.23 1229.5,1391.3 1227.9,1389.5C1226.3,1387.7 1223.93,1386.2 1220.8,1385C1217.67,1383.8 1213.37,1383.2 1207.9,1383.2L1198.7,1383.2C1196.3,1383.2 1195.1,1385.2 1195.1,1389.2L1195.1,1425.8C1195.1,1436.47 1201.97,1441.8 1215.7,1441.8L1215.7,1447.8L1157.7,1447.8Z" style="fill:rgb(42,62,80);fill-rule:nonzero;"/>
                    <path d="M1343.7,1439.4C1341.7,1446.47 1336.37,1450 1327.7,1450C1320.1,1450 1315.3,1445.67 1313.3,1437C1303.7,1445.67 1293.5,1450 1282.7,1450C1275.63,1450 1270.43,1448.5 1267.1,1445.5C1263.77,1442.5 1262.1,1437.73 1262.1,1431.2C1262.1,1414.8 1278.63,1403.6 1311.7,1397.6L1311.7,1389.8C1311.7,1376.73 1306.63,1370.2 1296.5,1370.2C1292.1,1370.2 1288.3,1370.93 1285.1,1372.4C1281.9,1373.87 1280.3,1376.67 1280.3,1380.8C1281.1,1381.33 1281.7,1382.17 1282.1,1383.3C1282.5,1384.43 1282.7,1385.6 1282.7,1386.8C1282.7,1391.87 1279.63,1394.4 1273.5,1394.4C1271.23,1394.4 1269.3,1393.67 1267.7,1392.2C1266.1,1390.73 1265.3,1388.47 1265.3,1385.4C1265.3,1382.33 1266.23,1379.4 1268.1,1376.6C1269.97,1373.8 1272.4,1371.37 1275.4,1369.3C1278.4,1367.23 1281.87,1365.57 1285.8,1364.3C1289.73,1363.03 1293.77,1362.4 1297.9,1362.4C1308.97,1362.4 1316.83,1364.47 1321.5,1368.6C1326.17,1372.73 1328.5,1379.6 1328.5,1389.2L1328.5,1432.6C1328.5,1437.53 1330.77,1440 1335.3,1440C1337.43,1440 1339.5,1439.27 1341.5,1437.8L1343.7,1439.4ZM1312.5,1404.4C1308.37,1404.8 1304.3,1405.5 1300.3,1406.5C1296.3,1407.5 1292.73,1408.9 1289.6,1410.7C1286.47,1412.5 1283.93,1414.8 1282,1417.6C1280.07,1420.4 1279.1,1423.87 1279.1,1428C1279.1,1436.67 1283.3,1441 1291.7,1441C1295.43,1441 1298.53,1440.43 1301,1439.3C1303.47,1438.17 1305.47,1436.67 1307,1434.8C1308.53,1432.93 1309.73,1430.87 1310.6,1428.6C1311.47,1426.33 1312.1,1424.07 1312.5,1421.8L1312.5,1404.4Z" style="fill:rgb(42,62,80);fill-rule:nonzero;"/>
                    <path d="M1422.3,1431C1420.97,1434.6 1419.03,1437.7 1416.5,1440.3C1413.97,1442.9 1411.13,1445.03 1408,1446.7C1404.87,1448.37 1401.57,1449.6 1398.1,1450.4C1394.63,1451.2 1391.3,1451.6 1388.1,1451.6C1382.23,1451.6 1376.97,1450.5 1372.3,1448.3C1367.63,1446.1 1363.7,1443.07 1360.5,1439.2C1357.3,1435.33 1354.87,1430.8 1353.2,1425.6C1351.53,1420.4 1350.7,1414.8 1350.7,1408.8C1350.7,1402.53 1351.6,1396.6 1353.4,1391C1355.2,1385.4 1357.93,1380.47 1361.6,1376.2C1365.27,1371.93 1369.87,1368.57 1375.4,1366.1C1380.93,1363.63 1387.43,1362.4 1394.9,1362.4C1398.1,1362.4 1401.27,1362.87 1404.4,1363.8C1407.53,1364.73 1410.33,1366.03 1412.8,1367.7C1415.27,1369.37 1417.23,1371.4 1418.7,1373.8C1420.17,1376.2 1420.9,1378.8 1420.9,1381.6C1420.9,1384.27 1419.77,1386.57 1417.5,1388.5C1415.23,1390.43 1412.77,1391.4 1410.1,1391.4C1404.63,1391.4 1401.9,1388.4 1401.9,1382.4C1401.9,1382 1402,1381.13 1402.2,1379.8C1402.4,1378.47 1402.5,1377.27 1402.5,1376.2C1402.5,1373.53 1401.27,1371.6 1398.8,1370.4C1396.33,1369.2 1393.77,1368.6 1391.1,1368.6C1387.23,1368.6 1383.93,1369.63 1381.2,1371.7C1378.47,1373.77 1376.2,1376.43 1374.4,1379.7C1372.6,1382.97 1371.27,1386.6 1370.4,1390.6C1369.53,1394.6 1369.1,1398.47 1369.1,1402.2C1369.1,1407.53 1369.63,1412.5 1370.7,1417.1C1371.77,1421.7 1373.37,1425.7 1375.5,1429.1C1377.63,1432.5 1380.37,1435.17 1383.7,1437.1C1387.03,1439.03 1391.03,1440 1395.7,1440C1404.63,1440 1411.77,1436 1417.1,1428L1422.3,1431Z" style="fill:rgb(42,62,80);fill-rule:nonzero;"/>
                    <path d="M1484.9,1427.4C1484.1,1430.87 1483.1,1434.03 1481.9,1436.9C1480.7,1439.77 1479.1,1442.23 1477.1,1444.3C1475.1,1446.37 1472.6,1447.97 1469.6,1449.1C1466.6,1450.23 1463.03,1450.8 1458.9,1450.8C1452.37,1450.8 1447.2,1449.23 1443.4,1446.1C1439.6,1442.97 1437.7,1437.93 1437.7,1431L1437.7,1374L1424.7,1374L1425.5,1368C1431.63,1366.8 1436.57,1363.3 1440.3,1357.5C1444.03,1351.7 1446.7,1345 1448.3,1337.4L1454.5,1336.6L1454.5,1366.4L1470.3,1366.4C1472.17,1366.4 1473.87,1366.23 1475.4,1365.9C1476.93,1365.57 1478.3,1365.2 1479.5,1364.8L1479.5,1374L1454.5,1374L1454.5,1426.6C1454.5,1428.2 1454.57,1429.77 1454.7,1431.3C1454.83,1432.83 1455.2,1434.27 1455.8,1435.6C1456.4,1436.93 1457.37,1438 1458.7,1438.8C1460.03,1439.6 1461.9,1440 1464.3,1440C1468.17,1440 1471.63,1438.67 1474.7,1436C1477.77,1433.33 1479.63,1429.93 1480.3,1425.8L1484.9,1427.4Z" style="fill:rgb(42,62,80);fill-rule:nonzero;"/>
                    <path d="M1530.7,1451.6C1524.43,1451.6 1518.7,1450.43 1513.5,1448.1C1508.3,1445.77 1503.87,1442.63 1500.2,1438.7C1496.53,1434.77 1493.7,1430.17 1491.7,1424.9C1489.7,1419.63 1488.7,1414.07 1488.7,1408.2C1488.7,1401.27 1489.83,1394.97 1492.1,1389.3C1494.37,1383.63 1497.43,1378.8 1501.3,1374.8C1505.17,1370.8 1509.7,1367.73 1514.9,1365.6C1520.1,1363.47 1525.63,1362.4 1531.5,1362.4C1537.5,1362.4 1543.03,1363.57 1548.1,1365.9C1553.17,1368.23 1557.53,1371.37 1561.2,1375.3C1564.87,1379.23 1567.7,1383.83 1569.7,1389.1C1571.7,1394.37 1572.7,1399.93 1572.7,1405.8C1572.7,1412.87 1571.57,1419.23 1569.3,1424.9C1567.03,1430.57 1563.97,1435.37 1560.1,1439.3C1556.23,1443.23 1551.77,1446.27 1546.7,1448.4C1541.63,1450.53 1536.3,1451.6 1530.7,1451.6ZM1531.5,1444.8C1536.7,1444.8 1540.8,1443.63 1543.8,1441.3C1546.8,1438.97 1549.1,1436.2 1550.7,1433C1552.3,1429.8 1553.33,1426.47 1553.8,1423C1554.27,1419.53 1554.5,1416.67 1554.5,1414.4C1554.5,1410 1554.23,1405.17 1553.7,1399.9C1553.17,1394.63 1552.07,1389.77 1550.4,1385.3C1548.73,1380.83 1546.33,1377.07 1543.2,1374C1540.07,1370.93 1535.9,1369.4 1530.7,1369.4C1525.37,1369.4 1521.17,1370.57 1518.1,1372.9C1515.03,1375.23 1512.7,1378 1511.1,1381.2C1509.5,1384.4 1508.47,1387.73 1508,1391.2C1507.53,1394.67 1507.3,1397.53 1507.3,1399.8C1507.3,1404.2 1507.57,1409.03 1508.1,1414.3C1508.63,1419.57 1509.73,1424.43 1511.4,1428.9C1513.07,1433.37 1515.5,1437.13 1518.7,1440.2C1521.9,1443.27 1526.17,1444.8 1531.5,1444.8Z" style="fill:rgb(42,62,80);fill-rule:nonzero;"/>
                    <path d="M1583.9,1447.8L1583.9,1441.8C1593.1,1441.8 1597.7,1437.73 1597.7,1429.6L1597.7,1389.8C1597.7,1379.27 1593.63,1374 1585.5,1374L1585.5,1368.6L1614.3,1362.4L1614.3,1430.4C1614.3,1438 1619.37,1441.8 1629.5,1441.8L1629.5,1447.8L1583.9,1447.8ZM1604.5,1340.4C1597.43,1340.4 1593.9,1336.33 1593.9,1328.2C1593.9,1320.6 1597.7,1316.8 1605.3,1316.8C1612.5,1316.8 1616.1,1320.6 1616.1,1328.2C1616.1,1336.33 1612.23,1340.4 1604.5,1340.4Z" style="fill:rgb(42,62,80);fill-rule:nonzero;"/>
                    <path d="M1733.9,1446.2C1731.77,1446.73 1728.33,1447.23 1723.6,1447.7C1718.87,1448.17 1712.9,1448.93 1705.7,1450L1703.5,1437C1701.1,1441.4 1697.63,1444.9 1693.1,1447.5C1688.57,1450.1 1683.37,1451.4 1677.5,1451.4C1672.57,1451.4 1667.87,1450.57 1663.4,1448.9C1658.93,1447.23 1655.03,1444.7 1651.7,1441.3C1648.37,1437.9 1645.7,1433.57 1643.7,1428.3C1641.7,1423.03 1640.7,1416.8 1640.7,1409.6C1640.7,1402.93 1641.77,1396.7 1643.9,1390.9C1646.03,1385.1 1648.97,1380.1 1652.7,1375.9C1656.43,1371.7 1660.87,1368.4 1666,1366C1671.13,1363.6 1676.7,1362.4 1682.7,1362.4C1687.5,1362.4 1691.67,1363.37 1695.2,1365.3C1698.73,1367.23 1701.5,1369.33 1703.5,1371.6L1703.5,1328.2C1703.5,1323.67 1698.37,1321.4 1688.1,1321.4L1688.1,1315.2L1720.1,1310C1720.37,1314.93 1720.57,1320.67 1720.7,1327.2C1720.83,1333.73 1720.9,1340.67 1720.9,1348L1720.9,1423.4C1720.9,1434.6 1725.5,1440.47 1734.7,1441L1733.9,1446.2ZM1683.5,1441.4C1687.9,1441.4 1691.43,1440.6 1694.1,1439C1696.77,1437.4 1698.83,1435.03 1700.3,1431.9C1701.77,1428.77 1702.77,1424.97 1703.3,1420.5C1703.83,1416.03 1704.1,1410.93 1704.1,1405.2C1704.1,1381.87 1696.5,1370.2 1681.3,1370.2C1677.43,1370.2 1674.07,1371.17 1671.2,1373.1C1668.33,1375.03 1665.97,1377.57 1664.1,1380.7C1662.23,1383.83 1660.83,1387.33 1659.9,1391.2C1658.97,1395.07 1658.5,1398.93 1658.5,1402.8C1658.5,1407.47 1658.93,1412.07 1659.8,1416.6C1660.67,1421.13 1662.07,1425.27 1664,1429C1665.93,1432.73 1668.5,1435.73 1671.7,1438C1674.9,1440.27 1678.83,1441.4 1683.5,1441.4Z" style="fill:rgb(42,62,80);fill-rule:nonzero;"/>
                    <rect x="1146.7" y="1462.8" width="337.4" height="10" style="fill:rgb(42,62,80);"/>
                    <rect x="1577.3" y="1462.8" width="159" height="10" style="fill:rgb(42,62,80);"/>
                </g>
            </g>
        </g>
    </g>
</svg>
