<?xml version="1.0" encoding="UTF-8"?>
<!DOCTYPE svg PUBLIC "-//W3C//DTD SVG 1.1//EN" "http://www.w3.org/Graphics/SVG/1.1/DTD/svg11.dtd">
<svg version="1.1" xmlns="http://www.w3.org/2000/svg" xmlns:xlink="http://www.w3.org/1999/xlink" x="0" y="0" width="312.075" height="62.688" viewBox="0, 0, 312.075, 62.688">
  <g id="Layer_1">
    <path d="M71.733,11.484 L73.933,11.484 L73.933,29.372 L74.048,29.372 Q74.685,27.635 75.843,26.333 Q77.001,25.03 78.506,24.133 Q80.011,23.236 81.748,22.802 Q83.484,22.368 85.337,22.368 Q88.636,22.368 91.039,23.525 Q93.441,24.683 95.062,26.709 Q96.683,28.735 97.464,31.427 Q98.246,34.119 98.246,37.245 Q98.246,42.571 96.799,45.784 Q95.351,48.996 93.325,50.704 Q91.299,52.412 89.099,52.962 Q86.9,53.512 85.337,53.512 Q82.384,53.512 80.329,52.585 Q78.274,51.659 76.943,50.415 Q75.611,49.17 74.917,47.954 Q74.222,46.739 74.048,46.16 L73.933,46.16 L73.933,52.817 L71.733,52.817 z M85.337,51.601 Q88.289,51.601 90.315,50.328 Q92.341,49.054 93.615,46.999 Q94.888,44.944 95.467,42.368 Q96.046,39.792 96.046,37.245 Q96.046,34.756 95.38,32.44 Q94.715,30.125 93.354,28.301 Q91.994,26.478 89.997,25.378 Q88,24.278 85.337,24.278 Q82.442,24.278 80.3,25.262 Q78.158,26.246 76.769,27.983 Q75.38,29.719 74.685,32.093 Q73.99,34.466 73.99,37.245 Q73.99,39.966 74.627,42.571 Q75.264,45.176 76.624,47.173 Q77.985,49.17 80.127,50.386 Q82.269,51.601 85.337,51.601 z" fill="#717D8A"/>
    <path d="M103.913,17.447 L103.913,11.484 L106.113,11.484 L106.113,17.447 z M103.913,52.817 L103.913,23.062 L106.113,23.062 L106.113,52.817 z" fill="#717D8A"/>
    <path d="M111.722,37.94 Q111.722,34.756 112.62,31.948 Q113.517,29.14 115.254,26.999 Q116.99,24.857 119.537,23.612 Q122.084,22.368 125.384,22.368 Q128.684,22.368 131.231,23.612 Q133.778,24.857 135.515,26.999 Q137.251,29.14 138.149,31.948 Q139.046,34.756 139.046,37.94 Q139.046,41.123 138.149,43.96 Q137.251,46.797 135.515,48.909 Q133.778,51.022 131.231,52.267 Q128.684,53.512 125.384,53.512 Q122.084,53.512 119.537,52.267 Q116.99,51.022 115.254,48.909 Q113.517,46.797 112.62,43.96 Q111.722,41.123 111.722,37.94 z M113.922,37.94 Q113.922,40.602 114.675,43.063 Q115.427,45.523 116.874,47.433 Q118.322,49.344 120.464,50.473 Q122.605,51.601 125.384,51.601 Q128.163,51.601 130.305,50.473 Q132.447,49.344 133.894,47.433 Q135.341,45.523 136.094,43.063 Q136.846,40.602 136.846,37.94 Q136.846,35.277 136.094,32.816 Q135.341,30.356 133.894,28.446 Q132.447,26.535 130.305,25.407 Q128.163,24.278 125.384,24.278 Q122.605,24.278 120.464,25.407 Q118.322,26.535 116.874,28.446 Q115.427,30.356 114.675,32.816 Q113.922,35.277 113.922,37.94 z" fill="#717D8A"/>
    <path d="M141.488,22.888 L146.409,22.888 L146.409,20.399 Q146.409,17.563 147.103,15.797 Q147.798,14.032 148.956,13.076 Q150.113,12.121 151.59,11.803 Q153.066,11.484 154.687,11.484 Q157.871,11.484 159.318,11.89 L159.318,17.042 Q158.681,16.868 157.957,16.781 Q157.234,16.694 156.25,16.694 Q154.918,16.694 153.963,17.331 Q153.008,17.968 153.008,19.82 L153.008,22.888 L158.623,22.888 L158.623,27.809 L153.008,27.809 L153.008,52.817 L146.409,52.817 L146.409,27.809 L141.488,27.809 z" fill="#717D8A"/>
    <path d="M187.747,46.16 Q187.747,47.375 188.065,47.896 Q188.384,48.417 189.31,48.417 Q189.599,48.417 190.005,48.417 Q190.41,48.417 190.931,48.302 L190.931,52.875 Q190.583,52.991 190.034,53.135 Q189.484,53.28 188.905,53.396 Q188.326,53.512 187.747,53.57 Q187.168,53.627 186.763,53.627 Q184.737,53.627 183.405,52.817 Q182.074,52.007 181.669,49.98 Q179.7,51.891 176.835,52.759 Q173.969,53.627 171.307,53.627 Q169.28,53.627 167.428,53.077 Q165.576,52.528 164.157,51.457 Q162.739,50.386 161.9,48.736 Q161.06,47.086 161.06,44.886 Q161.06,42.108 162.073,40.371 Q163.086,38.634 164.736,37.65 Q166.386,36.666 168.441,36.232 Q170.496,35.798 172.58,35.566 Q174.375,35.219 175.995,35.074 Q177.616,34.929 178.861,34.582 Q180.106,34.235 180.829,33.511 Q181.553,32.787 181.553,31.34 Q181.553,30.067 180.945,29.256 Q180.337,28.446 179.44,28.012 Q178.543,27.577 177.443,27.433 Q176.343,27.288 175.359,27.288 Q172.58,27.288 170.786,28.446 Q168.991,29.604 168.759,32.035 L162.16,32.035 Q162.334,29.14 163.549,27.23 Q164.765,25.32 166.646,24.162 Q168.528,23.004 170.901,22.541 Q173.275,22.078 175.764,22.078 Q177.964,22.078 180.106,22.541 Q182.247,23.004 183.955,24.046 Q185.663,25.088 186.705,26.738 Q187.747,28.388 187.747,30.761 z M181.148,37.824 Q179.643,38.808 177.443,39.011 Q175.243,39.213 173.043,39.618 Q172.001,39.792 171.017,40.11 Q170.033,40.429 169.28,40.979 Q168.528,41.529 168.094,42.426 Q167.66,43.323 167.66,44.597 Q167.66,45.697 168.296,46.449 Q168.933,47.202 169.83,47.636 Q170.728,48.07 171.799,48.244 Q172.87,48.417 173.738,48.417 Q174.838,48.417 176.111,48.128 Q177.385,47.839 178.514,47.144 Q179.643,46.449 180.395,45.378 Q181.148,44.307 181.148,42.744 z" fill="#717D8A"/>
    <path d="M215.065,32.903 Q214.659,30.125 212.836,28.706 Q211.012,27.288 208.234,27.288 Q206.96,27.288 205.513,27.722 Q204.066,28.156 202.85,29.343 Q201.634,30.53 200.824,32.643 Q200.014,34.756 200.014,38.171 Q200.014,40.024 200.448,41.876 Q200.882,43.728 201.837,45.176 Q202.792,46.623 204.297,47.52 Q205.802,48.417 207.944,48.417 Q210.839,48.417 212.72,46.623 Q214.602,44.828 215.065,41.587 L221.664,41.587 Q220.738,47.433 217.235,50.53 Q213.733,53.627 207.944,53.627 Q204.413,53.627 201.721,52.441 Q199.029,51.254 197.177,49.199 Q195.325,47.144 194.369,44.307 Q193.414,41.471 193.414,38.171 Q193.414,34.814 194.34,31.861 Q195.267,28.909 197.119,26.738 Q198.972,24.567 201.721,23.323 Q204.471,22.078 208.176,22.078 Q210.781,22.078 213.125,22.744 Q215.47,23.409 217.293,24.741 Q219.117,26.072 220.275,28.098 Q221.432,30.125 221.664,32.903 z" fill="#717D8A"/>
    <path d="M224.032,22.888 L229.01,22.888 L229.01,13.916 L235.609,13.916 L235.609,22.888 L241.572,22.888 L241.572,27.809 L235.609,27.809 L235.609,43.786 Q235.609,44.828 235.696,45.581 Q235.783,46.333 236.101,46.854 Q236.42,47.375 237.057,47.636 Q237.693,47.896 238.793,47.896 Q239.488,47.896 240.183,47.868 Q240.877,47.839 241.572,47.665 L241.572,52.759 Q240.472,52.875 239.43,52.991 Q238.388,53.106 237.288,53.106 Q234.683,53.106 233.091,52.614 Q231.499,52.122 230.602,51.167 Q229.705,50.212 229.386,48.765 Q229.068,47.318 229.01,45.465 L229.01,27.809 L224.032,27.809 z" fill="#717D8A"/>
    <path d="M244.704,37.94 Q244.704,34.756 245.602,31.948 Q246.499,29.14 248.236,26.999 Q249.972,24.857 252.519,23.612 Q255.067,22.368 258.366,22.368 Q261.666,22.368 264.213,23.612 Q266.76,24.857 268.497,26.999 Q270.233,29.14 271.131,31.948 Q272.028,34.756 272.028,37.94 Q272.028,41.123 271.131,43.96 Q270.233,46.797 268.497,48.909 Q266.76,51.022 264.213,52.267 Q261.666,53.512 258.366,53.512 Q255.067,53.512 252.519,52.267 Q249.972,51.022 248.236,48.909 Q246.499,46.797 245.602,43.96 Q244.704,41.123 244.704,37.94 z M246.904,37.94 Q246.904,40.602 247.657,43.063 Q248.409,45.523 249.857,47.433 Q251.304,49.344 253.446,50.473 Q255.588,51.601 258.366,51.601 Q261.145,51.601 263.287,50.473 Q265.429,49.344 266.876,47.433 Q268.323,45.523 269.076,43.063 Q269.828,40.602 269.828,37.94 Q269.828,35.277 269.076,32.816 Q268.323,30.356 266.876,28.446 Q265.429,26.535 263.287,25.407 Q261.145,24.278 258.366,24.278 Q255.588,24.278 253.446,25.407 Q251.304,26.535 249.857,28.446 Q248.409,30.356 247.657,32.816 Q246.904,35.277 246.904,37.94 z" fill="#717D8A"/>
    <path d="M277.695,17.447 L277.695,11.484 L279.895,11.484 L279.895,17.447 z M277.695,52.817 L277.695,23.062 L279.895,23.062 L279.895,52.817 z" fill="#717D8A"/>
    <path d="M309.876,46.449 L309.76,46.449 Q307.907,49.98 305.129,51.746 Q302.35,53.512 298.356,53.512 Q294.998,53.512 292.567,52.238 Q290.136,50.965 288.573,48.823 Q287.01,46.681 286.257,43.873 Q285.504,41.066 285.504,37.997 Q285.504,34.698 286.315,31.832 Q287.125,28.967 288.775,26.883 Q290.425,24.799 292.914,23.583 Q295.403,22.368 298.761,22.368 Q300.556,22.368 302.292,22.86 Q304.029,23.352 305.505,24.278 Q306.981,25.204 308.081,26.593 Q309.181,27.983 309.76,29.719 L309.876,29.719 L309.876,11.484 L312.075,11.484 L312.075,52.817 L309.876,52.817 z M298.819,51.601 Q301.655,51.601 303.711,50.444 Q305.766,49.286 307.126,47.375 Q308.486,45.465 309.152,43.005 Q309.818,40.545 309.818,37.997 Q309.818,35.392 309.152,32.932 Q308.486,30.472 307.155,28.533 Q305.823,26.593 303.711,25.436 Q301.598,24.278 298.761,24.278 Q295.809,24.278 293.725,25.407 Q291.641,26.535 290.28,28.446 Q288.92,30.356 288.312,32.845 Q287.704,35.335 287.704,37.997 Q287.704,40.602 288.37,43.063 Q289.036,45.523 290.396,47.433 Q291.756,49.344 293.84,50.473 Q295.924,51.601 298.819,51.601 z" fill="#717D8A"/>
    <path d="M63.271,31.362 L54.479,46.59 L36.896,46.59 L28.105,31.362 L36.896,16.135 L54.479,16.135 z" fill="#FFDB8B"/>
    <path d="M35.166,15.227 L26.374,30.454 L8.791,30.454 L0,15.227 L8.791,0 L26.374,0 z" fill="#FFDB8B"/>
    <path d="M35.166,47.46 L26.374,62.688 L8.791,62.688 L0,47.46 L8.791,32.233 L26.374,32.233 z" fill="#FFDB8B"/>
  </g>
</svg>
