<?xml version="1.0" encoding="UTF-8"?>
<!DOCTYPE svg PUBLIC "-//W3C//DTD SVG 1.1//EN" "http://www.w3.org/Graphics/SVG/1.1/DTD/svg11.dtd">
<svg version="1.1" xmlns="http://www.w3.org/2000/svg" xmlns:xlink="http://www.w3.org/1999/xlink" x="0" y="0" width="240.342" height="59.651" viewBox="0, 0, 240.342, 59.651">
  <g id="Layer_1">
    <path d="M0,0 L2.2,0 L2.2,17.888 L2.315,17.888 Q2.952,16.151 4.11,14.849 Q5.268,13.546 6.773,12.649 Q8.278,11.752 10.015,11.318 Q11.751,10.883 13.604,10.883 Q16.903,10.883 19.306,12.041 Q21.708,13.199 23.329,15.225 Q24.95,17.251 25.731,19.943 Q26.513,22.635 26.513,25.761 Q26.513,31.087 25.066,34.3 Q23.618,37.512 21.592,39.22 Q19.566,40.928 17.366,41.478 Q15.167,42.028 13.604,42.028 Q10.651,42.028 8.596,41.101 Q6.541,40.175 5.21,38.931 Q3.878,37.686 3.184,36.47 Q2.489,35.255 2.315,34.676 L2.2,34.676 L2.2,41.333 L0,41.333 z M13.604,40.117 Q16.556,40.117 18.582,38.844 Q20.608,37.57 21.882,35.515 Q23.155,33.46 23.734,30.884 Q24.313,28.308 24.313,25.761 Q24.313,23.272 23.647,20.956 Q22.982,18.641 21.621,16.817 Q20.261,14.994 18.264,13.894 Q16.267,12.794 13.604,12.794 Q10.709,12.794 8.567,13.778 Q6.425,14.762 5.036,16.499 Q3.647,18.235 2.952,20.609 Q2.257,22.982 2.257,25.761 Q2.257,28.482 2.894,31.087 Q3.531,33.692 4.891,35.689 Q6.252,37.686 8.394,38.902 Q10.536,40.117 13.604,40.117 z" fill="#FFD479"/>
    <path d="M32.18,5.963 L32.18,0 L34.38,0 L34.38,5.963 z M32.18,41.333 L32.18,11.578 L34.38,11.578 L34.38,41.333 z" fill="#FFD479"/>
    <path d="M39.989,26.456 Q39.989,23.272 40.887,20.464 Q41.784,17.656 43.521,15.515 Q45.257,13.373 47.804,12.128 Q50.351,10.883 53.651,10.883 Q56.951,10.883 59.498,12.128 Q62.045,13.373 63.782,15.515 Q65.518,17.656 66.416,20.464 Q67.313,23.272 67.313,26.456 Q67.313,29.639 66.416,32.476 Q65.518,35.313 63.782,37.426 Q62.045,39.538 59.498,40.783 Q56.951,42.028 53.651,42.028 Q50.351,42.028 47.804,40.783 Q45.257,39.538 43.521,37.426 Q41.784,35.313 40.887,32.476 Q39.989,29.639 39.989,26.456 z M42.189,26.456 Q42.189,29.118 42.942,31.579 Q43.694,34.039 45.141,35.949 Q46.589,37.86 48.731,38.989 Q50.872,40.117 53.651,40.117 Q56.43,40.117 58.572,38.989 Q60.714,37.86 62.161,35.949 Q63.608,34.039 64.361,31.579 Q65.113,29.118 65.113,26.456 Q65.113,23.793 64.361,21.332 Q63.608,18.872 62.161,16.962 Q60.714,15.051 58.572,13.923 Q56.43,12.794 53.651,12.794 Q50.872,12.794 48.731,13.923 Q46.589,15.051 45.141,16.962 Q43.694,18.872 42.942,21.332 Q42.189,23.793 42.189,26.456 z" fill="#FFD479"/>
    <path d="M69.755,11.404 L74.676,11.404 L74.676,8.915 Q74.676,6.079 75.37,4.313 Q76.065,2.548 77.223,1.592 Q78.38,0.637 79.857,0.319 Q81.333,0 82.954,0 Q86.138,0 87.585,0.406 L87.585,5.558 Q86.948,5.384 86.224,5.297 Q85.501,5.21 84.517,5.21 Q83.185,5.21 82.23,5.847 Q81.275,6.484 81.275,8.336 L81.275,11.404 L86.89,11.404 L86.89,16.325 L81.275,16.325 L81.275,41.333 L74.676,41.333 L74.676,16.325 L69.755,16.325 z" fill="#FFD479"/>
    <path d="M116.014,34.676 Q116.014,35.891 116.332,36.412 Q116.651,36.933 117.577,36.933 Q117.866,36.933 118.272,36.933 Q118.677,36.933 119.198,36.818 L119.198,41.391 Q118.85,41.507 118.301,41.651 Q117.751,41.796 117.172,41.912 Q116.593,42.028 116.014,42.086 Q115.435,42.143 115.03,42.143 Q113.004,42.143 111.672,41.333 Q110.341,40.523 109.936,38.496 Q107.967,40.407 105.102,41.275 Q102.236,42.143 99.574,42.143 Q97.547,42.143 95.695,41.593 Q93.843,41.044 92.424,39.973 Q91.006,38.902 90.167,37.252 Q89.327,35.602 89.327,33.402 Q89.327,30.624 90.34,28.887 Q91.353,27.15 93.003,26.166 Q94.653,25.182 96.708,24.748 Q98.763,24.314 100.847,24.082 Q102.642,23.735 104.262,23.59 Q105.883,23.445 107.128,23.098 Q108.373,22.751 109.096,22.027 Q109.82,21.303 109.82,19.856 Q109.82,18.583 109.212,17.772 Q108.604,16.962 107.707,16.528 Q106.81,16.093 105.71,15.949 Q104.61,15.804 103.626,15.804 Q100.847,15.804 99.053,16.962 Q97.258,18.12 97.026,20.551 L90.427,20.551 Q90.601,17.656 91.816,15.746 Q93.032,13.836 94.913,12.678 Q96.795,11.52 99.168,11.057 Q101.542,10.594 104.031,10.594 Q106.231,10.594 108.373,11.057 Q110.514,11.52 112.222,12.562 Q113.93,13.604 114.972,15.254 Q116.014,16.904 116.014,19.277 z M109.415,26.34 Q107.91,27.324 105.71,27.527 Q103.51,27.729 101.31,28.134 Q100.268,28.308 99.284,28.626 Q98.3,28.945 97.547,29.495 Q96.795,30.045 96.361,30.942 Q95.927,31.839 95.927,33.113 Q95.927,34.213 96.563,34.965 Q97.2,35.718 98.097,36.152 Q98.995,36.586 100.066,36.76 Q101.137,36.933 102.005,36.933 Q103.105,36.933 104.378,36.644 Q105.652,36.355 106.781,35.66 Q107.91,34.965 108.662,33.894 Q109.415,32.823 109.415,31.26 z" fill="#FFD479"/>
    <path d="M143.332,21.419 Q142.926,18.641 141.103,17.222 Q139.279,15.804 136.501,15.804 Q135.227,15.804 133.78,16.238 Q132.333,16.672 131.117,17.859 Q129.901,19.046 129.091,21.159 Q128.281,23.272 128.281,26.687 Q128.281,28.54 128.715,30.392 Q129.149,32.244 130.104,33.692 Q131.059,35.139 132.564,36.036 Q134.069,36.933 136.211,36.933 Q139.106,36.933 140.987,35.139 Q142.869,33.344 143.332,30.103 L149.931,30.103 Q149.005,35.949 145.502,39.046 Q142,42.143 136.211,42.143 Q132.68,42.143 129.988,40.957 Q127.296,39.77 125.444,37.715 Q123.592,35.66 122.636,32.823 Q121.681,29.987 121.681,26.687 Q121.681,23.33 122.607,20.377 Q123.534,17.425 125.386,15.254 Q127.239,13.083 129.988,11.839 Q132.738,10.594 136.443,10.594 Q139.048,10.594 141.392,11.26 Q143.737,11.925 145.56,13.257 Q147.384,14.588 148.542,16.614 Q149.699,18.641 149.931,21.419 z" fill="#FFD479"/>
    <path d="M152.299,11.404 L157.277,11.404 L157.277,2.432 L163.876,2.432 L163.876,11.404 L169.839,11.404 L169.839,16.325 L163.876,16.325 L163.876,32.302 Q163.876,33.344 163.963,34.097 Q164.05,34.849 164.368,35.37 Q164.687,35.891 165.324,36.152 Q165.96,36.412 167.06,36.412 Q167.755,36.412 168.45,36.384 Q169.144,36.355 169.839,36.181 L169.839,41.275 Q168.739,41.391 167.697,41.507 Q166.655,41.622 165.555,41.622 Q162.95,41.622 161.358,41.13 Q159.766,40.638 158.869,39.683 Q157.972,38.728 157.653,37.281 Q157.335,35.834 157.277,33.981 L157.277,16.325 L152.299,16.325 z" fill="#FFD479"/>
    <path d="M172.971,26.456 Q172.971,23.272 173.869,20.464 Q174.766,17.656 176.503,15.515 Q178.239,13.373 180.786,12.128 Q183.334,10.883 186.633,10.883 Q189.933,10.883 192.48,12.128 Q195.027,13.373 196.764,15.515 Q198.5,17.656 199.398,20.464 Q200.295,23.272 200.295,26.456 Q200.295,29.639 199.398,32.476 Q198.5,35.313 196.764,37.426 Q195.027,39.538 192.48,40.783 Q189.933,42.028 186.633,42.028 Q183.334,42.028 180.786,40.783 Q178.239,39.538 176.503,37.426 Q174.766,35.313 173.869,32.476 Q172.971,29.639 172.971,26.456 z M175.171,26.456 Q175.171,29.118 175.924,31.579 Q176.676,34.039 178.124,35.949 Q179.571,37.86 181.713,38.989 Q183.855,40.117 186.633,40.117 Q189.412,40.117 191.554,38.989 Q193.696,37.86 195.143,35.949 Q196.59,34.039 197.343,31.579 Q198.095,29.118 198.095,26.456 Q198.095,23.793 197.343,21.332 Q196.59,18.872 195.143,16.962 Q193.696,15.051 191.554,13.923 Q189.412,12.794 186.633,12.794 Q183.855,12.794 181.713,13.923 Q179.571,15.051 178.124,16.962 Q176.676,18.872 175.924,21.332 Q175.171,23.793 175.171,26.456 z" fill="#FFD479"/>
    <path d="M205.962,5.963 L205.962,0 L208.162,0 L208.162,5.963 z M205.962,41.333 L205.962,11.578 L208.162,11.578 L208.162,41.333 z" fill="#FFD479"/>
    <path d="M238.143,34.965 L238.027,34.965 Q236.174,38.496 233.396,40.262 Q230.617,42.028 226.623,42.028 Q223.265,42.028 220.834,40.754 Q218.403,39.481 216.84,37.339 Q215.277,35.197 214.524,32.389 Q213.771,29.582 213.771,26.513 Q213.771,23.214 214.582,20.348 Q215.392,17.483 217.042,15.399 Q218.692,13.315 221.181,12.099 Q223.67,10.883 227.028,10.883 Q228.823,10.883 230.559,11.376 Q232.296,11.868 233.772,12.794 Q235.248,13.72 236.348,15.109 Q237.448,16.499 238.027,18.235 L238.143,18.235 L238.143,0 L240.342,0 L240.342,41.333 L238.143,41.333 z M227.086,40.117 Q229.922,40.117 231.978,38.96 Q234.033,37.802 235.393,35.891 Q236.753,33.981 237.419,31.521 Q238.085,29.061 238.085,26.513 Q238.085,23.908 237.419,21.448 Q236.753,18.988 235.422,17.049 Q234.09,15.109 231.978,13.952 Q229.865,12.794 227.028,12.794 Q224.076,12.794 221.992,13.923 Q219.908,15.051 218.547,16.962 Q217.187,18.872 216.579,21.361 Q215.971,23.851 215.971,26.513 Q215.971,29.118 216.637,31.579 Q217.303,34.039 218.663,35.949 Q220.023,37.86 222.107,38.989 Q224.191,40.117 227.086,40.117 z" fill="#FFD479"/>
    <path d="M25.007,53.48 L26.033,53.48 Q26,52.797 25.756,52.292 Q25.512,51.787 25.096,51.445 Q24.681,51.103 24.136,50.94 Q23.59,50.778 22.955,50.778 Q22.402,50.778 21.84,50.908 Q21.278,51.038 20.822,51.315 Q20.367,51.592 20.082,52.048 Q19.797,52.503 19.797,53.138 Q19.797,53.676 19.976,54.042 Q20.155,54.408 20.472,54.661 Q20.79,54.913 21.213,55.084 Q21.637,55.255 22.141,55.385 L23.46,55.678 Q23.802,55.76 24.136,55.874 Q24.469,55.988 24.73,56.159 Q24.991,56.33 25.145,56.582 Q25.3,56.834 25.3,57.209 Q25.3,57.648 25.08,57.95 Q24.86,58.251 24.518,58.446 Q24.176,58.642 23.778,58.723 Q23.379,58.804 23.004,58.804 Q21.978,58.804 21.287,58.275 Q20.595,57.746 20.529,56.704 L19.504,56.704 Q19.634,58.251 20.554,58.951 Q21.474,59.651 22.955,59.651 Q23.541,59.651 24.144,59.521 Q24.746,59.39 25.227,59.089 Q25.707,58.788 26.016,58.308 Q26.326,57.827 26.326,57.144 Q26.326,56.59 26.114,56.183 Q25.902,55.776 25.568,55.499 Q25.235,55.222 24.803,55.051 Q24.372,54.881 23.932,54.815 L22.565,54.506 Q22.304,54.441 21.995,54.335 Q21.685,54.229 21.425,54.066 Q21.164,53.904 20.993,53.668 Q20.822,53.432 20.822,53.09 Q20.822,52.683 21.002,52.406 Q21.181,52.129 21.474,51.958 Q21.767,51.787 22.117,51.714 Q22.467,51.641 22.809,51.641 Q23.248,51.641 23.639,51.746 Q24.03,51.852 24.331,52.08 Q24.632,52.308 24.811,52.658 Q24.991,53.008 25.007,53.48 z" fill="#FFD479"/>
    <path d="M34.611,59.423 L34.611,51.022 L33.585,51.022 L33.585,55.434 Q33.585,56.069 33.439,56.68 Q33.292,57.29 32.983,57.762 Q32.674,58.234 32.201,58.519 Q31.729,58.804 31.062,58.804 Q29.841,58.804 29.344,58.218 Q28.848,57.632 28.815,56.492 L28.815,51.022 L27.789,51.022 L27.789,56.476 Q27.789,57.225 27.952,57.811 Q28.115,58.397 28.465,58.804 Q28.815,59.211 29.377,59.431 Q29.938,59.651 30.736,59.651 Q31.68,59.651 32.454,59.203 Q33.227,58.755 33.634,57.909 L33.667,57.909 L33.667,59.423 z" fill="#FFD479"/>
    <path d="M36.547,51.022 L36.547,59.423 L37.573,59.423 L37.573,54.734 Q37.573,54.066 37.719,53.505 Q37.866,52.943 38.167,52.528 Q38.468,52.113 38.948,51.877 Q39.429,51.641 40.08,51.641 Q40.568,51.641 40.91,51.803 Q41.252,51.966 41.456,52.251 Q41.659,52.536 41.749,52.919 Q41.838,53.301 41.838,53.725 L41.838,59.423 L42.864,59.423 L42.864,54.669 Q42.864,54.083 42.97,53.537 Q43.076,52.992 43.336,52.569 Q43.597,52.145 44.036,51.893 Q44.476,51.641 45.143,51.641 Q46.25,51.641 46.69,52.186 Q47.13,52.731 47.13,53.773 L47.13,59.423 L48.155,59.423 L48.155,53.725 Q48.155,50.778 45.371,50.778 Q44.541,50.778 43.808,51.185 Q43.076,51.592 42.701,52.422 Q42.473,51.592 41.798,51.185 Q41.122,50.778 40.292,50.778 Q39.266,50.778 38.606,51.217 Q37.947,51.657 37.54,52.438 L37.491,52.438 L37.491,51.022 z" fill="#FFD479"/>
    <path d="M50.108,51.022 L50.108,59.423 L51.133,59.423 L51.133,54.734 Q51.133,54.066 51.28,53.505 Q51.426,52.943 51.727,52.528 Q52.029,52.113 52.509,51.877 Q52.989,51.641 53.641,51.641 Q54.129,51.641 54.471,51.803 Q54.813,51.966 55.016,52.251 Q55.22,52.536 55.309,52.919 Q55.399,53.301 55.399,53.725 L55.399,59.423 L56.425,59.423 L56.425,54.669 Q56.425,54.083 56.53,53.537 Q56.636,52.992 56.897,52.569 Q57.157,52.145 57.597,51.893 Q58.036,51.641 58.704,51.641 Q59.811,51.641 60.251,52.186 Q60.69,52.731 60.69,53.773 L60.69,59.423 L61.716,59.423 L61.716,53.725 Q61.716,50.778 58.932,50.778 Q58.102,50.778 57.369,51.185 Q56.636,51.592 56.262,52.422 Q56.034,51.592 55.358,51.185 Q54.683,50.778 53.852,50.778 Q52.826,50.778 52.167,51.217 Q51.508,51.657 51.101,52.438 L51.052,52.438 L51.052,51.022 z" fill="#FFD479"/>
    <path d="M63.57,53.594 L64.596,53.594 Q64.629,52.569 65.247,52.105 Q65.866,51.641 66.843,51.641 Q67.299,51.641 67.698,51.714 Q68.097,51.787 68.398,51.982 Q68.699,52.178 68.87,52.512 Q69.041,52.845 69.041,53.366 Q69.041,53.708 68.951,53.92 Q68.862,54.132 68.699,54.254 Q68.536,54.376 68.292,54.425 Q68.048,54.474 67.722,54.506 Q66.892,54.604 66.086,54.71 Q65.28,54.815 64.637,55.076 Q63.994,55.336 63.603,55.833 Q63.212,56.33 63.212,57.209 Q63.212,57.844 63.432,58.308 Q63.652,58.772 64.034,59.073 Q64.417,59.374 64.93,59.513 Q65.443,59.651 66.029,59.651 Q66.648,59.651 67.095,59.537 Q67.543,59.423 67.893,59.211 Q68.243,59 68.528,58.682 Q68.813,58.365 69.09,57.958 L69.122,57.958 Q69.122,58.283 69.163,58.552 Q69.204,58.821 69.334,59.016 Q69.464,59.211 69.7,59.317 Q69.936,59.423 70.327,59.423 Q70.539,59.423 70.677,59.407 Q70.816,59.39 70.995,59.358 L70.995,58.495 Q70.848,58.56 70.669,58.56 Q70.067,58.56 70.067,57.941 L70.067,53.48 Q70.067,52.634 69.79,52.105 Q69.513,51.575 69.073,51.282 Q68.634,50.989 68.08,50.884 Q67.527,50.778 66.973,50.778 Q66.241,50.778 65.638,50.94 Q65.036,51.103 64.588,51.445 Q64.14,51.787 63.88,52.324 Q63.619,52.862 63.57,53.594 z M69.041,54.832 L69.041,56.167 Q69.041,56.785 68.805,57.274 Q68.569,57.762 68.17,58.104 Q67.771,58.446 67.234,58.625 Q66.696,58.804 66.11,58.804 Q65.752,58.804 65.41,58.69 Q65.068,58.576 64.808,58.357 Q64.547,58.137 64.393,57.836 Q64.238,57.534 64.238,57.144 Q64.238,56.525 64.604,56.191 Q64.971,55.857 65.54,55.678 Q66.11,55.499 66.802,55.41 Q67.494,55.32 68.145,55.206 Q68.357,55.174 68.634,55.092 Q68.911,55.011 69.008,54.832 z" fill="#FFD479"/>
    <path d="M72.116,51.044 L72.116,59.445 L73.142,59.445 L73.142,54.968 Q73.142,54.301 73.37,53.739 Q73.598,53.177 74.013,52.77 Q74.428,52.363 74.998,52.143 Q75.568,51.924 76.268,51.956 L76.268,50.93 Q75.128,50.882 74.306,51.435 Q73.484,51.989 73.093,53.014 L73.061,53.014 L73.061,51.044 z" fill="#FFD479"/>
    <path d="M77.26,47.798 L77.26,49.443 L78.285,49.443 L78.285,47.798 z M77.26,51.022 L77.26,59.423 L78.285,59.423 L78.285,51.022 z" fill="#FFD479"/>
    <path d="M80.758,58.56 L86.31,51.755 L86.31,51.022 L79.896,51.022 L79.896,51.885 L85.008,51.885 L79.521,58.593 L79.521,59.423 L86.538,59.423 L86.538,58.56 z" fill="#FFD479"/>
    <path d="M93.817,54.636 L88.379,54.636 Q88.444,54.066 88.647,53.521 Q88.851,52.976 89.193,52.56 Q89.535,52.145 90.023,51.893 Q90.512,51.641 91.147,51.641 Q91.765,51.641 92.254,51.893 Q92.742,52.145 93.084,52.56 Q93.426,52.976 93.613,53.513 Q93.8,54.05 93.817,54.636 z M88.379,55.499 L94.842,55.499 Q94.875,54.62 94.68,53.765 Q94.484,52.911 94.036,52.251 Q93.589,51.592 92.872,51.185 Q92.156,50.778 91.147,50.778 Q90.153,50.778 89.429,51.16 Q88.704,51.543 88.249,52.17 Q87.793,52.797 87.573,53.594 Q87.353,54.392 87.353,55.222 Q87.353,56.118 87.573,56.924 Q87.793,57.73 88.249,58.34 Q88.704,58.951 89.429,59.301 Q90.153,59.651 91.147,59.651 Q92.742,59.651 93.613,58.869 Q94.484,58.088 94.81,56.655 L93.784,56.655 Q93.54,57.632 92.905,58.218 Q92.27,58.804 91.147,58.804 Q90.414,58.804 89.893,58.495 Q89.372,58.186 89.03,57.713 Q88.688,57.241 88.533,56.647 Q88.379,56.053 88.379,55.499 z" fill="#FFD479"/>
    <path d="M100.585,55.548 Q100.585,55.146 100.736,54.794 Q100.888,54.441 101.149,54.18 Q101.409,53.92 101.762,53.768 Q102.115,53.616 102.517,53.616 Q102.918,53.616 103.271,53.768 Q103.624,53.92 103.89,54.18 Q104.155,54.441 104.307,54.794 Q104.459,55.146 104.459,55.548 Q104.459,55.95 104.307,56.302 Q104.155,56.655 103.89,56.921 Q103.624,57.187 103.271,57.339 Q102.918,57.491 102.517,57.491 Q102.115,57.491 101.762,57.339 Q101.409,57.187 101.149,56.921 Q100.888,56.655 100.736,56.302 Q100.585,55.95 100.585,55.548 z" fill="#FFD479"/>
    <path d="M115.764,53.48 L116.789,53.48 Q116.757,52.797 116.513,52.292 Q116.268,51.787 115.853,51.445 Q115.438,51.103 114.893,50.94 Q114.347,50.778 113.712,50.778 Q113.159,50.778 112.597,50.908 Q112.035,51.038 111.58,51.315 Q111.124,51.592 110.839,52.048 Q110.554,52.503 110.554,53.138 Q110.554,53.676 110.733,54.042 Q110.912,54.408 111.229,54.661 Q111.547,54.913 111.97,55.084 Q112.394,55.255 112.898,55.385 L114.217,55.678 Q114.559,55.76 114.893,55.874 Q115.226,55.988 115.487,56.159 Q115.747,56.33 115.902,56.582 Q116.057,56.834 116.057,57.209 Q116.057,57.648 115.837,57.95 Q115.617,58.251 115.275,58.446 Q114.933,58.642 114.535,58.723 Q114.136,58.804 113.761,58.804 Q112.735,58.804 112.043,58.275 Q111.352,57.746 111.286,56.704 L110.261,56.704 Q110.391,58.251 111.311,58.951 Q112.231,59.651 113.712,59.651 Q114.298,59.651 114.901,59.521 Q115.503,59.39 115.984,59.089 Q116.464,58.788 116.773,58.308 Q117.083,57.827 117.083,57.144 Q117.083,56.59 116.871,56.183 Q116.659,55.776 116.325,55.499 Q115.992,55.222 115.56,55.051 Q115.129,54.881 114.689,54.815 L113.322,54.506 Q113.061,54.441 112.752,54.335 Q112.442,54.229 112.182,54.066 Q111.921,53.904 111.75,53.668 Q111.58,53.432 111.58,53.09 Q111.58,52.683 111.759,52.406 Q111.938,52.129 112.231,51.958 Q112.524,51.787 112.874,51.714 Q113.224,51.641 113.566,51.641 Q114.005,51.641 114.396,51.746 Q114.787,51.852 115.088,52.08 Q115.389,52.308 115.568,52.658 Q115.747,53.008 115.764,53.48 z" fill="#FFD479"/>
    <path d="M118.546,47.798 L118.546,59.423 L119.572,59.423 L119.572,54.522 Q119.588,53.904 119.775,53.375 Q119.963,52.845 120.296,52.463 Q120.63,52.08 121.111,51.86 Q121.591,51.641 122.21,51.641 Q122.828,51.641 123.243,51.836 Q123.659,52.031 123.903,52.373 Q124.147,52.715 124.245,53.179 Q124.342,53.643 124.342,54.18 L124.342,59.423 L125.368,59.423 L125.368,54.018 Q125.368,53.269 125.222,52.666 Q125.075,52.064 124.717,51.649 Q124.359,51.234 123.764,51.006 Q123.17,50.778 122.291,50.778 Q121.395,50.778 120.647,51.242 Q119.898,51.706 119.605,52.471 L119.572,52.471 L119.572,47.798 z" fill="#FFD479"/>
    <path d="M127.206,53.594 L128.232,53.594 Q128.264,52.569 128.883,52.105 Q129.502,51.641 130.479,51.641 Q130.935,51.641 131.333,51.714 Q131.732,51.787 132.034,51.982 Q132.335,52.178 132.506,52.512 Q132.677,52.845 132.677,53.366 Q132.677,53.708 132.587,53.92 Q132.498,54.132 132.335,54.254 Q132.172,54.376 131.928,54.425 Q131.684,54.474 131.358,54.506 Q130.528,54.604 129.722,54.71 Q128.916,54.815 128.273,55.076 Q127.629,55.336 127.239,55.833 Q126.848,56.33 126.848,57.209 Q126.848,57.844 127.068,58.308 Q127.288,58.772 127.67,59.073 Q128.053,59.374 128.566,59.513 Q129.079,59.651 129.665,59.651 Q130.283,59.651 130.731,59.537 Q131.179,59.423 131.529,59.211 Q131.879,59 132.164,58.682 Q132.449,58.365 132.725,57.958 L132.758,57.958 Q132.758,58.283 132.799,58.552 Q132.84,58.821 132.97,59.016 Q133.1,59.211 133.336,59.317 Q133.572,59.423 133.963,59.423 Q134.175,59.423 134.313,59.407 Q134.451,59.39 134.63,59.358 L134.63,58.495 Q134.484,58.56 134.305,58.56 Q133.702,58.56 133.702,57.941 L133.702,53.48 Q133.702,52.634 133.426,52.105 Q133.149,51.575 132.709,51.282 Q132.27,50.989 131.716,50.884 Q131.163,50.778 130.609,50.778 Q129.876,50.778 129.274,50.94 Q128.671,51.103 128.224,51.445 Q127.776,51.787 127.516,52.324 Q127.255,52.862 127.206,53.594 z M132.677,54.832 L132.677,56.167 Q132.677,56.785 132.441,57.274 Q132.204,57.762 131.806,58.104 Q131.407,58.446 130.869,58.625 Q130.332,58.804 129.746,58.804 Q129.388,58.804 129.046,58.69 Q128.704,58.576 128.444,58.357 Q128.183,58.137 128.028,57.836 Q127.874,57.534 127.874,57.144 Q127.874,56.525 128.24,56.191 Q128.606,55.857 129.176,55.678 Q129.746,55.499 130.438,55.41 Q131.13,55.32 131.781,55.206 Q131.993,55.174 132.27,55.092 Q132.546,55.011 132.644,54.832 z" fill="#FFD479"/>
    <path d="M135.752,51.044 L135.752,59.445 L136.778,59.445 L136.778,54.968 Q136.778,54.301 137.006,53.739 Q137.234,53.177 137.649,52.77 Q138.064,52.363 138.634,52.143 Q139.204,51.924 139.904,51.956 L139.904,50.93 Q138.764,50.882 137.942,51.435 Q137.12,51.989 136.729,53.014 L136.697,53.014 L136.697,51.044 z" fill="#FFD479"/>
    <path d="M146.614,54.636 L141.176,54.636 Q141.241,54.066 141.445,53.521 Q141.648,52.976 141.99,52.56 Q142.332,52.145 142.821,51.893 Q143.309,51.641 143.944,51.641 Q144.563,51.641 145.051,51.893 Q145.54,52.145 145.881,52.56 Q146.223,52.976 146.411,53.513 Q146.598,54.05 146.614,54.636 z M141.176,55.499 L147.64,55.499 Q147.672,54.62 147.477,53.765 Q147.282,52.911 146.834,52.251 Q146.386,51.592 145.67,51.185 Q144.953,50.778 143.944,50.778 Q142.951,50.778 142.226,51.16 Q141.502,51.543 141.046,52.17 Q140.59,52.797 140.37,53.594 Q140.15,54.392 140.15,55.222 Q140.15,56.118 140.37,56.924 Q140.59,57.73 141.046,58.34 Q141.502,58.951 142.226,59.301 Q142.951,59.651 143.944,59.651 Q145.54,59.651 146.411,58.869 Q147.282,58.088 147.607,56.655 L146.582,56.655 Q146.337,57.632 145.702,58.218 Q145.067,58.804 143.944,58.804 Q143.211,58.804 142.69,58.495 Q142.169,58.186 141.827,57.713 Q141.486,57.241 141.331,56.647 Q141.176,56.053 141.176,55.499 z" fill="#FFD479"/>
    <path d="M153.374,55.548 Q153.374,55.146 153.525,54.794 Q153.677,54.441 153.938,54.18 Q154.198,53.92 154.551,53.768 Q154.904,53.616 155.306,53.616 Q155.707,53.616 156.06,53.768 Q156.413,53.92 156.679,54.18 Q156.944,54.441 157.096,54.794 Q157.248,55.146 157.248,55.548 Q157.248,55.95 157.096,56.302 Q156.944,56.655 156.679,56.921 Q156.413,57.187 156.06,57.339 Q155.707,57.491 155.306,57.491 Q154.904,57.491 154.551,57.339 Q154.198,57.187 153.938,56.921 Q153.677,56.655 153.525,56.302 Q153.374,55.95 153.374,55.548 z" fill="#FFD479"/>
    <path d="M170.915,59.423 L170.915,47.798 L169.889,47.798 L169.889,52.617 L169.856,52.617 Q169.693,52.162 169.392,51.82 Q169.091,51.478 168.7,51.242 Q168.31,51.006 167.862,50.892 Q167.414,50.778 166.942,50.778 Q165.981,50.778 165.273,51.136 Q164.565,51.494 164.093,52.105 Q163.621,52.715 163.393,53.521 Q163.165,54.327 163.165,55.222 Q163.165,56.118 163.393,56.924 Q163.621,57.73 164.093,58.34 Q164.565,58.951 165.273,59.301 Q165.981,59.651 166.942,59.651 Q167.398,59.651 167.862,59.521 Q168.326,59.39 168.733,59.154 Q169.14,58.918 169.457,58.576 Q169.775,58.234 169.938,57.827 L169.97,57.827 L169.97,59.423 z M164.19,55.222 Q164.19,54.571 164.345,53.928 Q164.5,53.285 164.834,52.78 Q165.167,52.276 165.688,51.958 Q166.209,51.641 166.942,51.641 Q167.756,51.641 168.318,51.958 Q168.879,52.276 169.229,52.78 Q169.58,53.285 169.734,53.928 Q169.889,54.571 169.889,55.222 Q169.889,55.874 169.734,56.517 Q169.58,57.16 169.229,57.665 Q168.879,58.169 168.318,58.487 Q167.756,58.804 166.942,58.804 Q166.209,58.804 165.688,58.487 Q165.167,58.169 164.834,57.665 Q164.5,57.16 164.345,56.517 Q164.19,55.874 164.19,55.222 z" fill="#FFD479"/>
    <path d="M172.883,47.798 L172.883,49.443 L173.909,49.443 L173.909,47.798 z M172.883,51.022 L172.883,59.423 L173.909,59.423 L173.909,51.022 z" fill="#FFD479"/>
    <path d="M180.908,53.48 L181.934,53.48 Q181.901,52.797 181.657,52.292 Q181.413,51.787 180.997,51.445 Q180.582,51.103 180.037,50.94 Q179.491,50.778 178.856,50.778 Q178.303,50.778 177.741,50.908 Q177.18,51.038 176.724,51.315 Q176.268,51.592 175.983,52.048 Q175.698,52.503 175.698,53.138 Q175.698,53.676 175.877,54.042 Q176.056,54.408 176.374,54.661 Q176.691,54.913 177.114,55.084 Q177.538,55.255 178.042,55.385 L179.361,55.678 Q179.703,55.76 180.037,55.874 Q180.371,55.988 180.631,56.159 Q180.892,56.33 181.046,56.582 Q181.201,56.834 181.201,57.209 Q181.201,57.648 180.981,57.95 Q180.761,58.251 180.42,58.446 Q180.078,58.642 179.679,58.723 Q179.28,58.804 178.905,58.804 Q177.88,58.804 177.188,58.275 Q176.496,57.746 176.431,56.704 L175.405,56.704 Q175.535,58.251 176.455,58.951 Q177.375,59.651 178.856,59.651 Q179.443,59.651 180.045,59.521 Q180.647,59.39 181.128,59.089 Q181.608,58.788 181.917,58.308 Q182.227,57.827 182.227,57.144 Q182.227,56.59 182.015,56.183 Q181.803,55.776 181.47,55.499 Q181.136,55.222 180.704,55.051 Q180.273,54.881 179.833,54.815 L178.466,54.506 Q178.205,54.441 177.896,54.335 Q177.587,54.229 177.326,54.066 Q177.066,53.904 176.895,53.668 Q176.724,53.432 176.724,53.09 Q176.724,52.683 176.903,52.406 Q177.082,52.129 177.375,51.958 Q177.668,51.787 178.018,51.714 Q178.368,51.641 178.71,51.641 Q179.15,51.641 179.54,51.746 Q179.931,51.852 180.232,52.08 Q180.533,52.308 180.713,52.658 Q180.892,53.008 180.908,53.48 z" fill="#FFD479"/>
    <path d="M189.666,53.659 L190.691,53.659 Q190.512,52.21 189.576,51.494 Q188.64,50.778 187.289,50.778 Q186.328,50.778 185.587,51.136 Q184.846,51.494 184.342,52.096 Q183.837,52.699 183.576,53.505 Q183.316,54.311 183.316,55.222 Q183.316,56.134 183.576,56.94 Q183.837,57.746 184.342,58.348 Q184.846,58.951 185.587,59.301 Q186.328,59.651 187.289,59.651 Q188.721,59.651 189.633,58.796 Q190.545,57.941 190.756,56.411 L189.731,56.411 Q189.682,56.932 189.47,57.372 Q189.259,57.811 188.933,58.129 Q188.607,58.446 188.184,58.625 Q187.761,58.804 187.289,58.804 Q186.556,58.804 186.002,58.495 Q185.449,58.186 185.082,57.681 Q184.716,57.176 184.529,56.533 Q184.342,55.89 184.342,55.222 Q184.342,54.555 184.529,53.912 Q184.716,53.269 185.082,52.764 Q185.449,52.259 186.002,51.95 Q186.556,51.641 187.289,51.641 Q188.314,51.641 188.884,52.178 Q189.454,52.715 189.666,53.659 z" fill="#FFD479"/>
    <path d="M195.704,51.641 Q196.437,51.641 196.991,51.95 Q197.544,52.259 197.91,52.764 Q198.277,53.269 198.464,53.912 Q198.651,54.555 198.651,55.222 Q198.651,55.89 198.464,56.533 Q198.277,57.176 197.91,57.681 Q197.544,58.186 196.991,58.495 Q196.437,58.804 195.704,58.804 Q194.972,58.804 194.418,58.495 Q193.865,58.186 193.498,57.681 Q193.132,57.176 192.945,56.533 Q192.757,55.89 192.757,55.222 Q192.757,54.555 192.945,53.912 Q193.132,53.269 193.498,52.764 Q193.865,52.259 194.418,51.95 Q194.972,51.641 195.704,51.641 z M195.704,50.778 Q194.744,50.778 194.003,51.136 Q193.262,51.494 192.757,52.096 Q192.253,52.699 191.992,53.505 Q191.732,54.311 191.732,55.222 Q191.732,56.134 191.992,56.94 Q192.253,57.746 192.757,58.348 Q193.262,58.951 194.003,59.301 Q194.744,59.651 195.704,59.651 Q196.665,59.651 197.406,59.301 Q198.146,58.951 198.651,58.348 Q199.156,57.746 199.416,56.94 Q199.677,56.134 199.677,55.222 Q199.677,54.311 199.416,53.505 Q199.156,52.699 198.651,52.096 Q198.146,51.494 197.406,51.136 Q196.665,50.778 195.704,50.778 z" fill="#FFD479"/>
    <path d="M200.261,51.022 L203.501,59.423 L204.592,59.423 L207.734,51.022 L206.676,51.022 L204.071,58.397 L204.039,58.397 L201.401,51.022 z" fill="#FFD479"/>
    <path d="M214.769,54.636 L209.331,54.636 Q209.396,54.066 209.599,53.521 Q209.803,52.976 210.145,52.56 Q210.487,52.145 210.975,51.893 Q211.464,51.641 212.099,51.641 Q212.717,51.641 213.206,51.893 Q213.694,52.145 214.036,52.56 Q214.378,52.976 214.565,53.513 Q214.752,54.05 214.769,54.636 z M209.331,55.499 L215.794,55.499 Q215.827,54.62 215.632,53.765 Q215.436,52.911 214.988,52.251 Q214.541,51.592 213.824,51.185 Q213.108,50.778 212.099,50.778 Q211.105,50.778 210.381,51.16 Q209.656,51.543 209.2,52.17 Q208.745,52.797 208.525,53.594 Q208.305,54.392 208.305,55.222 Q208.305,56.118 208.525,56.924 Q208.745,57.73 209.2,58.34 Q209.656,58.951 210.381,59.301 Q211.105,59.651 212.099,59.651 Q213.694,59.651 214.565,58.869 Q215.436,58.088 215.762,56.655 L214.736,56.655 Q214.492,57.632 213.857,58.218 Q213.222,58.804 212.099,58.804 Q211.366,58.804 210.845,58.495 Q210.324,58.186 209.982,57.713 Q209.64,57.241 209.485,56.647 Q209.331,56.053 209.331,55.499 z" fill="#FFD479"/>
    <path d="M217.191,51.044 L217.191,59.445 L218.216,59.445 L218.216,54.968 Q218.216,54.301 218.444,53.739 Q218.672,53.177 219.087,52.77 Q219.503,52.363 220.072,52.143 Q220.642,51.924 221.342,51.956 L221.342,50.93 Q220.203,50.882 219.38,51.435 Q218.558,51.989 218.167,53.014 L218.135,53.014 L218.135,51.044 z" fill="#FFD479"/>
  </g>
</svg>
