<?xml version="1.0" encoding="UTF-8"?>
<!DOCTYPE svg PUBLIC "-//W3C//DTD SVG 1.1//EN" "http://www.w3.org/Graphics/SVG/1.1/DTD/svg11.dtd">
<svg version="1.1" xmlns="http://www.w3.org/2000/svg" xmlns:xlink="http://www.w3.org/1999/xlink" x="0" y="0" width="240.342" height="42.143" viewBox="0, 0, 240.342, 42.143">
  <g id="Layer_1">
    <path d="M0,0 L2.2,0 L2.2,17.888 L2.315,17.888 Q2.952,16.151 4.11,14.849 Q5.268,13.546 6.773,12.649 Q8.278,11.752 10.015,11.318 Q11.751,10.883 13.604,10.883 Q16.903,10.883 19.306,12.041 Q21.708,13.199 23.329,15.225 Q24.95,17.251 25.731,19.943 Q26.513,22.635 26.513,25.761 Q26.513,31.087 25.066,34.3 Q23.618,37.512 21.592,39.22 Q19.566,40.928 17.366,41.478 Q15.167,42.028 13.604,42.028 Q10.651,42.028 8.596,41.101 Q6.541,40.175 5.21,38.931 Q3.878,37.686 3.184,36.47 Q2.489,35.255 2.315,34.676 L2.2,34.676 L2.2,41.333 L0,41.333 z M13.604,40.117 Q16.556,40.117 18.582,38.844 Q20.608,37.57 21.882,35.515 Q23.155,33.46 23.734,30.884 Q24.313,28.308 24.313,25.761 Q24.313,23.272 23.647,20.956 Q22.982,18.641 21.621,16.817 Q20.261,14.994 18.264,13.894 Q16.267,12.794 13.604,12.794 Q10.709,12.794 8.567,13.778 Q6.425,14.762 5.036,16.499 Q3.647,18.235 2.952,20.609 Q2.257,22.982 2.257,25.761 Q2.257,28.482 2.894,31.087 Q3.531,33.692 4.891,35.689 Q6.252,37.686 8.394,38.902 Q10.536,40.117 13.604,40.117 z" fill="#000000"/>
    <path d="M32.18,5.963 L32.18,0 L34.38,0 L34.38,5.963 z M32.18,41.333 L32.18,11.578 L34.38,11.578 L34.38,41.333 z" fill="#000000"/>
    <path d="M39.989,26.456 Q39.989,23.272 40.887,20.464 Q41.784,17.656 43.521,15.515 Q45.257,13.373 47.804,12.128 Q50.351,10.883 53.651,10.883 Q56.951,10.883 59.498,12.128 Q62.045,13.373 63.782,15.515 Q65.518,17.656 66.416,20.464 Q67.313,23.272 67.313,26.456 Q67.313,29.639 66.416,32.476 Q65.518,35.313 63.782,37.426 Q62.045,39.538 59.498,40.783 Q56.951,42.028 53.651,42.028 Q50.351,42.028 47.804,40.783 Q45.257,39.538 43.521,37.426 Q41.784,35.313 40.887,32.476 Q39.989,29.639 39.989,26.456 z M42.189,26.456 Q42.189,29.118 42.942,31.579 Q43.694,34.039 45.141,35.949 Q46.589,37.86 48.731,38.989 Q50.872,40.117 53.651,40.117 Q56.43,40.117 58.572,38.989 Q60.714,37.86 62.161,35.949 Q63.608,34.039 64.361,31.579 Q65.113,29.118 65.113,26.456 Q65.113,23.793 64.361,21.332 Q63.608,18.872 62.161,16.962 Q60.714,15.051 58.572,13.923 Q56.43,12.794 53.651,12.794 Q50.872,12.794 48.731,13.923 Q46.589,15.051 45.141,16.962 Q43.694,18.872 42.942,21.332 Q42.189,23.793 42.189,26.456 z" fill="#000000"/>
    <path d="M69.755,11.404 L74.676,11.404 L74.676,8.915 Q74.676,6.079 75.37,4.313 Q76.065,2.548 77.223,1.592 Q78.38,0.637 79.857,0.319 Q81.333,0 82.954,0 Q86.138,0 87.585,0.406 L87.585,5.558 Q86.948,5.384 86.224,5.297 Q85.501,5.21 84.517,5.21 Q83.185,5.21 82.23,5.847 Q81.275,6.484 81.275,8.336 L81.275,11.404 L86.89,11.404 L86.89,16.325 L81.275,16.325 L81.275,41.333 L74.676,41.333 L74.676,16.325 L69.755,16.325 z" fill="#000000"/>
    <path d="M116.014,34.676 Q116.014,35.891 116.332,36.412 Q116.651,36.933 117.577,36.933 Q117.866,36.933 118.272,36.933 Q118.677,36.933 119.198,36.818 L119.198,41.391 Q118.85,41.507 118.301,41.651 Q117.751,41.796 117.172,41.912 Q116.593,42.028 116.014,42.086 Q115.435,42.143 115.03,42.143 Q113.004,42.143 111.672,41.333 Q110.341,40.523 109.936,38.496 Q107.967,40.407 105.102,41.275 Q102.236,42.143 99.574,42.143 Q97.547,42.143 95.695,41.593 Q93.843,41.044 92.424,39.973 Q91.006,38.902 90.167,37.252 Q89.327,35.602 89.327,33.402 Q89.327,30.624 90.34,28.887 Q91.353,27.15 93.003,26.166 Q94.653,25.182 96.708,24.748 Q98.763,24.314 100.847,24.082 Q102.642,23.735 104.262,23.59 Q105.883,23.445 107.128,23.098 Q108.373,22.751 109.096,22.027 Q109.82,21.303 109.82,19.856 Q109.82,18.583 109.212,17.772 Q108.604,16.962 107.707,16.528 Q106.81,16.093 105.71,15.949 Q104.61,15.804 103.626,15.804 Q100.847,15.804 99.053,16.962 Q97.258,18.12 97.026,20.551 L90.427,20.551 Q90.601,17.656 91.816,15.746 Q93.032,13.836 94.913,12.678 Q96.795,11.52 99.168,11.057 Q101.542,10.594 104.031,10.594 Q106.231,10.594 108.373,11.057 Q110.514,11.52 112.222,12.562 Q113.93,13.604 114.972,15.254 Q116.014,16.904 116.014,19.277 z M109.415,26.34 Q107.91,27.324 105.71,27.527 Q103.51,27.729 101.31,28.134 Q100.268,28.308 99.284,28.626 Q98.3,28.945 97.547,29.495 Q96.795,30.045 96.361,30.942 Q95.927,31.839 95.927,33.113 Q95.927,34.213 96.563,34.965 Q97.2,35.718 98.097,36.152 Q98.995,36.586 100.066,36.76 Q101.137,36.933 102.005,36.933 Q103.105,36.933 104.378,36.644 Q105.652,36.355 106.781,35.66 Q107.91,34.965 108.662,33.894 Q109.415,32.823 109.415,31.26 z" fill="#000000"/>
    <path d="M143.332,21.419 Q142.926,18.641 141.103,17.222 Q139.279,15.804 136.501,15.804 Q135.227,15.804 133.78,16.238 Q132.333,16.672 131.117,17.859 Q129.901,19.046 129.091,21.159 Q128.281,23.272 128.281,26.687 Q128.281,28.54 128.715,30.392 Q129.149,32.244 130.104,33.692 Q131.059,35.139 132.564,36.036 Q134.069,36.933 136.211,36.933 Q139.106,36.933 140.987,35.139 Q142.869,33.344 143.332,30.103 L149.931,30.103 Q149.005,35.949 145.502,39.046 Q142,42.143 136.211,42.143 Q132.68,42.143 129.988,40.957 Q127.296,39.77 125.444,37.715 Q123.592,35.66 122.636,32.823 Q121.681,29.987 121.681,26.687 Q121.681,23.33 122.607,20.377 Q123.534,17.425 125.386,15.254 Q127.239,13.083 129.988,11.839 Q132.738,10.594 136.443,10.594 Q139.048,10.594 141.392,11.26 Q143.737,11.925 145.56,13.257 Q147.384,14.588 148.542,16.614 Q149.699,18.641 149.931,21.419 z" fill="#000000"/>
    <path d="M152.299,11.404 L157.277,11.404 L157.277,2.432 L163.876,2.432 L163.876,11.404 L169.839,11.404 L169.839,16.325 L163.876,16.325 L163.876,32.302 Q163.876,33.344 163.963,34.097 Q164.05,34.849 164.368,35.37 Q164.687,35.891 165.324,36.152 Q165.96,36.412 167.06,36.412 Q167.755,36.412 168.45,36.384 Q169.144,36.355 169.839,36.181 L169.839,41.275 Q168.739,41.391 167.697,41.507 Q166.655,41.622 165.555,41.622 Q162.95,41.622 161.358,41.13 Q159.766,40.638 158.869,39.683 Q157.972,38.728 157.653,37.281 Q157.335,35.834 157.277,33.981 L157.277,16.325 L152.299,16.325 z" fill="#000000"/>
    <path d="M172.971,26.456 Q172.971,23.272 173.869,20.464 Q174.766,17.656 176.503,15.515 Q178.239,13.373 180.786,12.128 Q183.334,10.883 186.633,10.883 Q189.933,10.883 192.48,12.128 Q195.027,13.373 196.764,15.515 Q198.5,17.656 199.398,20.464 Q200.295,23.272 200.295,26.456 Q200.295,29.639 199.398,32.476 Q198.5,35.313 196.764,37.426 Q195.027,39.538 192.48,40.783 Q189.933,42.028 186.633,42.028 Q183.334,42.028 180.786,40.783 Q178.239,39.538 176.503,37.426 Q174.766,35.313 173.869,32.476 Q172.971,29.639 172.971,26.456 z M175.171,26.456 Q175.171,29.118 175.924,31.579 Q176.676,34.039 178.124,35.949 Q179.571,37.86 181.713,38.989 Q183.855,40.117 186.633,40.117 Q189.412,40.117 191.554,38.989 Q193.696,37.86 195.143,35.949 Q196.59,34.039 197.343,31.579 Q198.095,29.118 198.095,26.456 Q198.095,23.793 197.343,21.332 Q196.59,18.872 195.143,16.962 Q193.696,15.051 191.554,13.923 Q189.412,12.794 186.633,12.794 Q183.855,12.794 181.713,13.923 Q179.571,15.051 178.124,16.962 Q176.676,18.872 175.924,21.332 Q175.171,23.793 175.171,26.456 z" fill="#000000"/>
    <path d="M205.962,5.963 L205.962,0 L208.162,0 L208.162,5.963 z M205.962,41.333 L205.962,11.578 L208.162,11.578 L208.162,41.333 z" fill="#000000"/>
    <path d="M238.143,34.965 L238.027,34.965 Q236.174,38.496 233.396,40.262 Q230.617,42.028 226.623,42.028 Q223.265,42.028 220.834,40.754 Q218.403,39.481 216.84,37.339 Q215.277,35.197 214.524,32.389 Q213.771,29.582 213.771,26.513 Q213.771,23.214 214.582,20.348 Q215.392,17.483 217.042,15.399 Q218.692,13.315 221.181,12.099 Q223.67,10.883 227.028,10.883 Q228.823,10.883 230.559,11.376 Q232.296,11.868 233.772,12.794 Q235.248,13.72 236.348,15.109 Q237.448,16.499 238.027,18.235 L238.143,18.235 L238.143,0 L240.342,0 L240.342,41.333 L238.143,41.333 z M227.086,40.117 Q229.922,40.117 231.978,38.96 Q234.033,37.802 235.393,35.891 Q236.753,33.981 237.419,31.521 Q238.085,29.061 238.085,26.513 Q238.085,23.908 237.419,21.448 Q236.753,18.988 235.422,17.049 Q234.09,15.109 231.978,13.952 Q229.865,12.794 227.028,12.794 Q224.076,12.794 221.992,13.923 Q219.908,15.051 218.547,16.962 Q217.187,18.872 216.579,21.361 Q215.971,23.851 215.971,26.513 Q215.971,29.118 216.637,31.579 Q217.303,34.039 218.663,35.949 Q220.023,37.86 222.107,38.989 Q224.191,40.117 227.086,40.117 z" fill="#000000"/>
  </g>
</svg>
