<?xml version="1.0" encoding="utf-8"?>
<!-- Generator: Adobe Illustrator 16.0.4, SVG Export Plug-In . SVG Version: 6.00 Build 0)  -->
<!DOCTYPE svg PUBLIC "-//W3C//DTD SVG 1.1//EN" "http://www.w3.org/Graphics/SVG/1.1/DTD/svg11.dtd">
<svg version="1.1" id="Layer_1" xmlns="http://www.w3.org/2000/svg" xmlns:xlink="http://www.w3.org/1999/xlink" x="0px" y="0px"
	 width="244.71px" height="32px" viewBox="0 0 244.71 32" enable-background="new 0 0 244.71 32" xml:space="preserve">
<path fill="#FFFFFF" d="M244.71,0.958h-5.883v30.169h5.883V0.958z M237.483,0.958h-5.882v30.169h5.882V0.958z M215.298,17.681
	c0.336-2.941,1.848-4.706,4.537-4.706c1.85,0,4.202,1.093,4.538,4.706H215.298z M224.122,24.571
	c-0.421,1.597-2.101,2.438-3.782,2.438c-4.705,0-5.041-3.782-5.209-5.462h15.293v-1.009c0-10.252-6.05-12.354-10.504-12.354
	c-9.748,0-10.672,8.571-10.672,11.261c0,9.244,4.873,12.27,11.092,12.27c3.782,0,8.32-1.766,9.832-7.144H224.122z M208.323,10.79
	c-0.336-4.454-3.95-10.673-13.025-10.673c-7.731,0-13.866,5.378-13.866,15.967c0,10.42,5.799,15.799,13.782,15.799
	c7.563,0,11.849-4.622,13.109-11.093h-6.303c-0.757,3.697-3.193,5.714-6.723,5.714c-5.294,0-7.479-4.873-7.479-10.252
	c0-8.571,4.454-10.588,7.479-10.588c5.21,0,6.135,3.446,6.723,5.21h6.303V10.79z M158.07,31.042h5.883V19.445
	c0-2.438,0.84-5.294,5.462-5.294c0.505,0,1.177,0,1.681,0.084V8.269c-0.42-0.084-0.756-0.084-1.176-0.084
	c-3.53,0-4.959,2.185-6.135,4.454h-0.084V8.773h-5.631V31.042z M149.583,23.059c0,2.689-2.689,4.37-5.21,4.37
	c-1.093,0-2.689-0.673-2.689-2.688c0-2.438,1.849-2.941,4.033-3.361c2.438-0.337,3.445-0.757,4.034-1.178v2.857H149.583z
	 M155.38,14.571c0-5.462-5.714-6.471-8.907-6.471c-4.538,0-9.328,1.009-10.001,7.815h5.715c0.168-1.261,0.672-3.109,3.613-3.109
	c1.514,0,3.866,0.168,3.866,2.605c0,1.26-1.093,1.68-2.017,1.764l-5.295,0.841c-3.697,0.589-6.555,2.773-6.555,7.144
	c0,4.621,3.445,6.555,6.807,6.555c4.034,0,5.883-1.85,7.228-3.193c0.084,1.26,0.168,1.596,0.505,2.605h6.387v-0.841
	c-0.673-0.253-1.346-0.841-1.346-3.53V14.571L155.38,14.571z M134.121,0.958h-5.883v30.169h5.883V0.958z M125.128,8.689h-5.715
	v12.858c0,4.033-2.521,5.125-4.37,5.125c-1.765,0-3.698-0.672-3.698-4.117V8.689h-5.714v14.706c0,5.715,3.109,8.236,7.396,8.236
	c3.025,0,5.294-1.345,6.639-3.781h0.084v3.192h5.462V8.689H125.128z M98.069,22.975c0,1.009-1.008,3.95-4.034,3.95
	c-4.454,0-4.538-4.874-4.538-7.312c0-2.773,1.009-6.471,4.622-6.471c2.689-0.168,3.698,2.101,3.866,3.613h5.966
	c-0.504-6.975-6.303-8.571-9.916-8.571c-7.563,0-10.672,5.21-10.672,12.438c0,4.706,1.933,11.093,10.336,11.093
	c8.235,0,10-6.471,10.252-8.74H98.069z M66.976,17.681c0.336-2.941,1.765-4.706,4.538-4.706c1.849,0,4.202,1.093,4.538,4.706H66.976
	z M75.8,24.571c-0.42,1.597-2.101,2.438-3.782,2.438c-4.706,0-5.042-3.782-5.21-5.462h15.294v-1.009
	c0-10.252-6.05-12.354-10.504-12.354c-9.748,0-10.672,8.571-10.672,11.261c0,9.244,4.874,12.27,11.093,12.27
	c3.866,0,8.319-1.766,9.832-7.144H75.8z M59.581,0.958h-5.883v30.169h5.883V0.958z M45.967,19.949c0,2.857-0.84,6.807-5.294,6.807
	c-4.454,0-5.294-3.949-5.294-6.807s0.84-6.807,5.294-6.807C45.127,13.143,45.967,17.092,45.967,19.949 M51.934,19.949
	c0-8.067-5.294-11.765-11.177-11.765c-5.882,0-11.176,3.698-11.176,11.765c0,8.068,5.294,11.766,11.176,11.766
	C46.555,31.715,51.934,28.018,51.934,19.949 M27.815,0.958H19.16L14.034,24.74H13.95L8.74,0.958H0v30.169h5.546V5.916H5.63
	l5.21,25.211h5.883l5.378-25.211h0.084v25.211h5.546V0.958H27.815z"/>
</svg>
