<?xml version="1.0" encoding="UTF-8"?>
<!DOCTYPE svg PUBLIC "-//W3C//DTD SVG 1.1//EN" "http://www.w3.org/Graphics/SVG/1.1/DTD/svg11.dtd">
<svg version="1.1" xmlns="http://www.w3.org/2000/svg" xmlns:xlink="http://www.w3.org/1999/xlink" x="0" y="0" width="24" height="24" viewBox="0, 0, 24, 24">
  <g id="Layer_1">
    <path d="M12,1 L8,5 L11,5 L11,14 L13,14 L13,5 L16,5 M18,23 L6,23 C4.89,23 4,22.1 4,21 L4,9 C4,7.895 4.895,7 6,7 L9,7 L9,9 L6,9 L6,21 L18,21 L18,9 L15,9 L15,7 L18,7 C19.105,7 20,7.895 20,9 L20,21 C20,22.105 19.105,23 18,23 z" fill="#000000"/>
  </g>
</svg>
