<?xml version="1.0" encoding="UTF-8"?>
<!DOCTYPE svg PUBLIC "-//W3C//DTD SVG 1.1//EN" "http://www.w3.org/Graphics/SVG/1.1/DTD/svg11.dtd">
<svg version="1.1" xmlns="http://www.w3.org/2000/svg" xmlns:xlink="http://www.w3.org/1999/xlink" x="0" y="0" width="1044" height="396" viewBox="0, 0, 1044, 396">
  <g id="arrows">
    <g id="ic_arrow_forward_black_24px">
      <path d="M666.32,148.333 L660.21,154.443 L684.39,178.667 L631.653,178.667 L631.653,187.333 L684.39,187.333 L660.21,211.557 L666.32,217.667 L700.987,183 z" fill="#7B7B7B"/>
    </g>
    <g id="ic_arrow_forward_black_24px">
      <path d="M309.32,148.333 L303.21,154.443 L327.39,178.667 L274.653,178.667 L274.653,187.333 L327.39,187.333 L303.21,211.557 L309.32,217.667 L343.987,183 z" fill="#7B7B7B"/>
    </g>
  </g>
  <g id="3-finalise">
    <g id="ic_share_black_24px">
      <path d="M838.499,163.315 C841.396,164.978 844.645,165.322 847.656,164.669 L865.756,196.094 C865.062,196.861 864.406,197.65 863.881,198.565 C863.355,199.48 863.004,200.445 862.692,201.431 L826.82,201.671 C825.856,198.583 823.827,195.847 820.816,194.118 C814.487,190.486 806.446,192.662 802.813,198.99 C799.18,205.319 801.356,213.36 807.685,216.992 C814.013,220.625 822.054,218.449 825.687,212.121 C826.212,211.206 826.563,210.242 826.876,209.255 L862.748,209.015 C863.712,212.103 865.74,214.839 868.752,216.568 C875.081,220.201 883.122,218.025 886.755,211.696 C890.388,205.368 888.211,197.327 881.883,193.694 C878.871,191.965 875.486,191.593 872.333,192.317 L854.293,160.876 C854.944,160.185 855.539,159.412 856.021,158.573 C859.544,152.435 857.417,144.574 851.279,141.051 C845.141,137.527 837.28,139.655 833.757,145.792 C830.233,151.93 832.361,159.791 838.499,163.315 z" fill="#000000"/>
    </g>
    <g id="ic_crop_landscape_black_24px">
      <path d="M831.644,345.693 L832.844,345.693 Q832.784,342.633 833.654,340.353 Q834.524,338.073 836.204,336.543 Q837.884,335.013 840.254,334.263 Q842.624,333.513 845.564,333.513 Q847.724,333.513 849.764,333.963 Q851.804,334.413 853.424,335.463 Q855.044,336.513 856.064,338.193 Q857.084,339.873 857.144,342.333 Q857.144,344.853 856.184,346.563 Q855.224,348.273 853.664,349.323 Q852.104,350.373 850.154,350.823 Q848.204,351.273 846.224,351.273 L843.284,351.273 L843.284,352.473 L846.224,352.473 Q848.744,352.593 850.874,353.193 Q853.004,353.793 854.594,354.993 Q856.184,356.193 857.054,358.053 Q857.924,359.913 857.924,362.553 Q857.924,365.193 856.874,367.203 Q855.824,369.213 854.084,370.593 Q852.344,371.973 850.064,372.663 Q847.784,373.353 845.324,373.353 Q842.144,373.353 839.504,372.483 Q836.864,371.613 835.064,369.933 Q833.264,368.253 832.364,365.763 Q831.464,363.273 831.704,360.033 L830.504,360.033 Q830.264,363.513 831.254,366.213 Q832.244,368.913 834.224,370.743 Q836.204,372.573 839.024,373.533 Q841.844,374.493 845.324,374.493 Q848.144,374.493 850.634,373.713 Q853.124,372.933 855.014,371.403 Q856.904,369.873 858.014,367.653 Q859.124,365.433 859.124,362.553 Q859.124,359.913 858.314,357.993 Q857.504,356.073 856.154,354.783 Q854.804,353.493 853.094,352.803 Q851.384,352.113 849.584,351.933 L849.584,351.813 Q853.364,351.453 855.854,349.053 Q858.344,346.653 858.344,342.333 Q858.344,339.633 857.264,337.713 Q856.184,335.793 854.384,334.593 Q852.584,333.393 850.304,332.853 Q848.024,332.313 845.564,332.313 Q842.384,332.313 839.774,333.153 Q837.164,333.993 835.334,335.673 Q833.504,337.353 832.544,339.843 Q831.584,342.333 831.644,345.693 z" fill="#000000"/>
      <path d="M923.513,101.417 L762.513,101.417 C749.863,101.417 739.513,111.767 739.513,124.417 L739.513,239.417 C739.513,252.067 749.863,262.417 762.513,262.417 L923.513,262.417 C936.163,262.417 946.513,252.067 946.513,239.417 L946.513,124.417 C946.513,111.767 936.163,101.417 923.513,101.417 z M930.36,246.25 L757.693,245.583 L757.027,118.25 L929.693,118.25 L930.36,246.25 z" fill="#000000"/>
    </g>
    <g id="ic_check_black_24px">
      <path d="M920.19,297.355 L897.931,275.095 L890.351,282.622 L920.19,312.461 L984.245,248.405 L976.719,240.879 z" fill="#16A085"/>
    </g>
    <g id="ic_lens_black_24px">
      <path d="M963.175,23.492 C933.454,23.492 909.333,47.613 909.333,77.333 C909.333,107.054 933.454,131.175 963.175,131.175 C992.895,131.175 1017.016,107.054 1017.016,77.333 C1017.016,47.613 992.895,23.492 963.175,23.492 z" fill="#16A085"/>
    </g>
    <g id="ic_chat_bubble_black_24px" display="none">
      <path d="M974.333,-142.333 L881,-142.333 C874.583,-142.333 869.333,-137.083 869.333,-130.667 L869.333,-25.667 L892.667,-49 L974.333,-49 C980.75,-49 986,-54.25 986,-60.667 L986,-130.667 C986,-137.083 980.75,-142.333 974.333,-142.333 z" fill="#16A085"/>
    </g>
    <g id="ic_send_black_24px" display="none">
      <path d="M901.03,-69.556 L964.259,-96.667 L901.03,-123.778 L901,-102.691 L946.185,-96.667 L901,-90.642 z" fill="#FFFFFF"/>
    </g>
    <g id="ic_publish_black_24px">
      <path d="M940.777,50.222 L940.777,56.622 L985.572,56.622 L985.572,50.222 L940.777,50.222 z M940.777,82.219 L953.576,82.219 L953.576,101.417 L972.774,101.417 L972.774,82.219 L985.572,82.219 L963.175,59.821 L940.777,82.219 z" fill="#FFFFFF" display="none"/>
    </g>
    <g id="ic_cloud_upload_black_24px">
      <path d="M986.555,70.219 C984.401,59.29 974.802,51.085 963.27,51.085 C954.115,51.085 946.163,56.28 942.203,63.883 C932.667,64.897 925.254,72.975 925.254,82.764 C925.254,93.251 933.776,101.772 944.262,101.772 L985.446,101.772 C994.19,101.772 1001.286,94.676 1001.286,85.932 C1001.286,77.569 994.792,70.789 986.555,70.219 z M969.606,79.597 L969.606,92.268 L956.934,92.268 L956.934,79.597 L947.43,79.597 L963.27,63.757 L979.11,79.597 L969.606,79.597 z" fill="#FFFFFF"/>
    </g>
  </g>
  <g id="2-edit">
    <g id="ic_share_black_24px">
      <path d="M483.472,163.315 C486.369,164.978 489.618,165.322 492.629,164.669 L510.729,196.094 C510.035,196.861 509.379,197.65 508.854,198.565 C508.329,199.48 507.978,200.445 507.665,201.431 L471.793,201.671 C470.829,198.583 468.801,195.847 465.789,194.118 C459.46,190.486 451.419,192.662 447.786,198.99 C444.154,205.319 446.329,213.36 452.658,216.993 C458.986,220.625 467.028,218.449 470.66,212.121 C471.186,211.206 471.537,210.242 471.849,209.255 L507.721,209.015 C508.685,212.103 510.714,214.839 513.725,216.568 C520.054,220.201 528.095,218.025 531.728,211.696 C535.361,205.368 533.185,197.327 526.856,193.694 C523.845,191.965 520.459,191.593 517.306,192.317 L499.267,160.876 C499.917,160.185 500.513,159.412 500.994,158.573 C504.518,152.435 502.39,144.574 496.253,141.051 C490.115,137.527 482.254,139.655 478.73,145.792 C475.207,151.93 477.334,159.791 483.472,163.315 z" fill="#000000"/>
    </g>
    <g id="ic_crop_landscape_black_24px">
      <path d="M568.487,101.417 L407.487,101.417 C394.837,101.417 384.487,111.767 384.487,124.417 L384.487,239.417 C384.487,252.067 394.837,262.417 407.487,262.417 L568.487,262.417 C581.137,262.417 591.487,252.067 591.487,239.417 L591.487,124.417 C591.487,111.767 581.137,101.417 568.487,101.417 z M575.333,246.25 L402.667,245.583 L402,118.25 L574.667,118.25 L575.333,246.25 z" fill="#000000"/>
    </g>
    <path d="M503.857,372.633 L477.577,372.633 Q477.817,369.993 479.797,367.743 Q481.777,365.493 484.567,363.363 Q487.357,361.233 490.537,359.103 Q493.717,356.973 496.447,354.573 Q499.177,352.173 500.977,349.413 Q502.777,346.653 502.777,343.293 Q502.777,340.533 501.787,338.493 Q500.797,336.453 499.117,335.073 Q497.437,333.693 495.157,333.003 Q492.877,332.313 490.237,332.313 Q483.697,332.313 480.427,336.003 Q477.157,339.693 477.097,346.413 L478.297,346.413 Q478.297,343.593 478.957,341.223 Q479.617,338.853 481.057,337.143 Q482.497,335.433 484.777,334.473 Q487.057,333.513 490.237,333.513 Q492.697,333.513 494.767,334.143 Q496.837,334.773 498.337,336.003 Q499.837,337.233 500.707,339.063 Q501.577,340.893 501.577,343.293 Q501.577,345.693 500.527,347.763 Q499.477,349.833 497.737,351.663 Q495.997,353.493 493.777,355.173 Q491.557,356.853 489.217,358.473 Q486.937,360.093 484.627,361.743 Q482.317,363.393 480.457,365.223 Q478.597,367.053 477.457,369.153 Q476.317,371.253 476.377,373.833 L503.857,373.833 z" fill="#000000"/>
    <path d="M514.324,56.191 C518.465,56.191 521.808,59.533 521.808,63.675 L521.808,93.611 L525.6,93.611 C526.548,93.611 527.446,93.811 528.294,94.16 L550.946,105.436 C553.591,106.534 555.487,109.228 555.487,112.321 C555.487,112.621 555.437,112.97 555.387,113.319 L551.645,139.614 C551.096,143.256 548.202,146 544.46,146 L510.582,146 C508.536,146 506.64,145.152 505.293,143.805 L480.645,119.157 L484.587,115.165 C485.585,114.168 486.982,113.519 488.529,113.519 C488.978,113.519 489.327,113.619 489.726,113.669 L506.84,117.261 L506.84,63.675 C506.84,59.533 510.183,56.191 514.324,56.191 z" fill="#16A085" id="ic_touch_app_black_24px" display="none"/>
    <g id="ic_mode_edit_black_24px">
      <path d="M551.925,294.84 L551.925,308.939 L566.025,308.939 L607.61,267.355 L593.51,253.255 L551.925,294.84 z M618.513,256.451 C619.98,254.984 619.98,252.616 618.513,251.149 L609.715,242.351 C608.249,240.885 605.88,240.885 604.414,242.351 L597.533,249.232 L611.633,263.331 L618.513,256.451 z" fill="#16A085"/>
    </g>
  </g>
  <g id="1-email">
    <g id="ic_phone_iphone_black_24px" display="none">
      <path d="M133.486,-94.306 L69.93,-94.306 C58.967,-94.306 50.069,-85.408 50.069,-74.444 L50.069,60.611 C50.069,71.574 58.967,80.472 69.93,80.472 L133.486,80.472 C144.449,80.472 153.347,71.574 153.347,60.611 L153.347,-74.444 C153.347,-85.408 144.449,-94.306 133.486,-94.306 z M101.708,72.528 C95.114,72.528 89.791,67.205 89.791,60.611 C89.791,54.017 95.114,48.694 101.708,48.694 C108.302,48.694 113.624,54.017 113.624,60.611 C113.624,67.205 108.302,72.528 101.708,72.528 z M137.458,40.75 L65.958,40.75 L65.958,-70.472 L137.458,-70.472 L137.458,40.75 z" fill="#000000"/>
    </g>
    <g id="ic_computer_black_24px" display="none">
      <path d="M171.013,47 C181.097,47 189.255,38.75 189.255,28.667 L189.347,-63 C189.347,-73.083 181.097,-81.333 171.013,-81.333 L24.347,-81.333 C14.263,-81.333 6.013,-73.083 6.013,-63 L6.013,28.667 C6.013,38.75 14.263,47 24.347,47 L-12.32,47 L-12.32,65.333 L207.68,65.333 L207.68,47 L171.013,47 z M24.347,-63 L171.013,-63 L171.013,28.667 L24.347,28.667 L24.347,-63 z" fill="#000000"/>
    </g>
    <g id="ic_desktop_windows_black_24px" display="none">
      <path d="M171.305,-79.194 L23.055,-79.194 C13.995,-79.194 6.583,-71.782 6.583,-62.722 L6.583,36.111 C6.583,45.171 13.995,52.583 23.055,52.583 L80.708,52.583 L80.708,69.056 L64.236,69.056 L64.236,85.528 L130.124,85.528 L130.124,69.056 L113.652,69.056 L113.652,52.583 L171.305,52.583 C180.365,52.583 187.777,45.171 187.777,36.111 L187.777,-62.722 C187.777,-71.782 180.365,-79.194 171.305,-79.194 z M171.305,36.111 L23.055,36.111 L23.055,-62.722 L171.305,-62.722 L171.305,36.111 z" fill="#000000"/>
    </g>
    <g id="ic_desktop_mac_black_24px">
      <path d="M207.305,94.806 L59.055,94.806 C49.995,94.806 42.583,102.218 42.583,111.278 L42.583,210.111 C42.583,219.171 49.995,226.583 59.055,226.583 L116.708,226.583 L100.236,251.292 L100.236,259.528 L166.124,259.528 L166.124,251.292 L149.652,226.583 L207.305,226.583 C216.365,226.583 223.777,219.171 223.777,210.111 L223.777,111.278 C223.777,102.218 216.365,94.806 207.305,94.806 z M207.305,193.639 L59.055,193.639 L59.055,111.278 L207.305,111.278 L207.305,193.639 z" fill="#000000"/>
    </g>
    <g id="ic_chat_bubble_black_24px">
      <path d="M286.667,31.667 L193.333,31.667 C186.917,31.667 181.667,36.917 181.667,43.333 L181.667,148.333 L205,125 L286.667,125 C293.083,125 298.333,119.75 298.333,113.333 L298.333,43.333 C298.333,36.917 293.083,31.667 286.667,31.667 z" fill="#16A085"/>
    </g>
    <g id="ic_email_black_24px_(1)">
      <path d="M266.593,50.222 L217.276,50.222 C213.885,50.222 211.142,52.996 211.142,56.387 L211.111,93.375 C211.111,96.766 213.885,99.54 217.276,99.54 L266.593,99.54 C269.984,99.54 272.758,96.766 272.758,93.375 L272.758,56.387 C272.758,52.996 269.984,50.222 266.593,50.222 z M266.593,62.552 L241.935,77.963 L217.276,62.552 L217.276,56.387 L241.935,71.799 L266.593,56.387 L266.593,62.552 z" fill="#FFFFFF"/>
    </g>
    <g id="ic_mail_outline_black_24px" display="none">
      <path d="M231.111,-123.778 L176.889,-123.778 C173.161,-123.778 170.145,-120.728 170.145,-117 L170.111,-76.333 C170.111,-72.606 173.161,-69.556 176.889,-69.556 L231.111,-69.556 C234.839,-69.556 237.889,-72.606 237.889,-76.333 L237.889,-117 C237.889,-120.728 234.839,-123.778 231.111,-123.778 z M231.111,-76.333 L176.889,-76.333 L176.889,-110.222 L204,-93.278 L231.111,-110.222 L231.111,-76.333 z M204,-100.056 L176.889,-117 L231.111,-117 L204,-100.056 z" fill="#FFFFFF"/>
    </g>
    <path d="M134.88,334.593 L134.88,373.833 L136.08,373.833 L136.08,333.033 L134.76,333.033 Q133.5,334.473 132.33,335.613 Q131.16,336.753 129.9,337.653 Q128.64,338.553 127.2,339.273 Q125.76,339.993 123.9,340.593 L123.9,341.793 Q126.96,340.953 129.93,339.063 Q132.9,337.173 134.76,334.593 z" fill="#000000"/>
    <g id="logo_icon" display="none">
      <g>
        <path d="M65.456,-20.562 C65.456,-38.269 79.808,-52.624 97.512,-52.624 C115.216,-52.624 129.567,-38.269 129.567,-20.562 C129.567,-2.855 115.216,11.5 97.512,11.5 C79.808,11.5 65.456,-2.855 65.456,-20.562 z" fill="#ECF0F1"/>
        <path d="M65.456,-20.562 C65.456,-38.269 79.808,-52.624 97.512,-52.624 C115.216,-52.624 129.567,-38.269 129.567,-20.562 C129.567,-2.855 115.216,11.5 97.512,11.5 C79.808,11.5 65.456,-2.855 65.456,-20.562 z" fill-opacity="0" stroke="#2A3E50" stroke-width="4"/>
      </g>
      <g>
        <path d="M73.125,-14.553 C73.125,-28.025 84.043,-38.945 97.512,-38.945 C110.981,-38.945 121.899,-28.025 121.899,-14.553 C121.899,-1.082 110.981,9.839 97.512,9.839 C84.043,9.839 73.125,-1.082 73.125,-14.553 z" fill="#ECF0F1"/>
        <path d="M73.125,-14.553 C73.125,-28.025 84.043,-38.945 97.512,-38.945 C110.981,-38.945 121.899,-28.025 121.899,-14.553 C121.899,-1.082 110.981,9.839 97.512,9.839 C84.043,9.839 73.125,-1.082 73.125,-14.553 z" fill-opacity="0" stroke="#2A3E50" stroke-width="4"/>
      </g>
      <g>
        <path d="M97.511,8.401 C88.018,8.401 80.311,0.691 80.311,-8.803 C80.311,-18.297 88.018,-26.006 97.511,-26.006 C107.004,-26.006 114.72,-18.297 114.72,-8.803 C114.72,0.691 107.004,8.401 97.511,8.401 z" fill="#ECF0F1"/>
        <path d="M97.511,8.401 C88.018,8.401 80.311,0.691 80.311,-8.803 C80.311,-18.297 88.018,-26.006 97.511,-26.006 C107.004,-26.006 114.72,-18.297 114.72,-8.803 C114.72,0.691 107.004,8.401 97.511,8.401 z" fill-opacity="0" stroke="#2A3E50" stroke-width="4"/>
      </g>
    </g>
  </g>
</svg>
