<?xml version="1.0" encoding="UTF-8" standalone="no"?>
<!DOCTYPE svg PUBLIC "-//W3C//DTD SVG 1.1//EN" "http://www.w3.org/Graphics/SVG/1.1/DTD/svg11.dtd">
<svg width="100%" height="100%" viewBox="0 0 769 320" version="1.1" xmlns="http://www.w3.org/2000/svg" xmlns:xlink="http://www.w3.org/1999/xlink" xml:space="preserve" xmlns:serif="http://www.serif.com/" style="fill-rule:evenodd;clip-rule:evenodd;stroke-linecap:round;stroke-linejoin:round;stroke-miterlimit:1.5;">
    <g transform="matrix(1,0,0,1,-1027.24,-827.402)">
        <g transform="matrix(1.02919,0,0,0.513704,-291.041,208.762)">
            <rect x="1281.3" y="1205.08" width="746.296" height="620.78" style="fill:white;stroke:rgb(179,179,179);stroke-width:1.02px;"/>
        </g>
        <g transform="matrix(0.91863,0.178343,-0.10449,0.538218,-317.388,461.683)">
            <path d="M1778.72,364.959L1778.72,336.123L1889.07,336.123L1889.07,321.706L1929.32,350.541L1889.07,379.376L1889.07,364.959L1778.72,364.959Z" style="fill:rgb(89,89,89);"/>
        </g>
        <g transform="matrix(1.52701,-0.143766,0.0513915,0.545854,-1411.69,1027.56)">
            <path d="M1778.72,364.959L1778.72,336.123L1904.76,336.123L1904.76,321.706L1929.32,350.541L1904.76,379.376L1904.76,364.959L1778.72,364.959Z" style="fill:rgb(89,89,89);"/>
        </g>
        <g transform="matrix(1,0,0,1,-566.336,-49.7959)">
            <g transform="matrix(0.986932,-0.275685,0.283437,1.01468,-788.92,712.486)">
                <ellipse cx="2404.22" cy="949.048" rx="67.238" ry="54.449" style="fill:rgb(89,89,89);"/>
            </g>
            <g transform="matrix(1,0,0,1,-30.3275,5.21504)">
                <text x="1839.04px" y="1024.92px" style="font-family:'Noteworthy-Bold', 'Noteworthy';font-weight:700;font-size:41.667px;fill:rgb(235,235,235);">R<tspan x="1869.93px 1901.38px " y="1024.92px 1024.92px ">AS</tspan></text>
            </g>
        </g>
        <g transform="matrix(1,0,0,1,-211.175,-89.1321)">
            <g transform="matrix(0.986932,-0.275685,0.283437,1.01468,-788.92,712.486)">
                <ellipse cx="2404.22" cy="949.048" rx="67.238" ry="54.449" style="fill:rgb(89,89,89);"/>
            </g>
            <g transform="matrix(1,0,0,1,-30.3275,5.21504)">
                <text x="1839.04px" y="1024.92px" style="font-family:'Noteworthy-Bold', 'Noteworthy';font-weight:700;font-size:41.667px;fill:rgb(235,235,235);">R<tspan x="1869.93px 1902.06px " y="1024.92px 1024.92px ">AF</tspan></text>
            </g>
        </g>
        <g transform="matrix(0.305517,-0.0853417,0.0877413,0.314107,275.086,815.815)">
            <ellipse cx="2404.22" cy="949.048" rx="67.238" ry="54.449"/>
        </g>
        <g transform="matrix(0.384025,-0.147481,0.200887,0.523087,311.926,1116.8)">
            <path d="M1778.72,364.959L1778.72,336.123L1835.74,336.123L1835.74,321.706L1929.32,350.541L1835.74,379.376L1835.74,364.959L1778.72,364.959Z"/>
        </g>
        <g>
            <g transform="matrix(4.99931,0,-2.77556e-17,2.31835,-5779.3,-672.199)">
                <path d="M1403.51,757.4L1408.84,753.05" style="fill:none;stroke:rgb(217,217,217);stroke-width:1.07px;"/>
            </g>
            <g transform="matrix(4.99931,0,0,2.31835,-5775.79,-662.115)">
                <path d="M1403.51,757.4L1408.84,753.05" style="fill:none;stroke:rgb(217,217,217);stroke-width:1.07px;"/>
            </g>
            <g transform="matrix(4.99931,0,0,2.31835,-5771.18,-652.031)">
                <path d="M1403.51,757.4L1408.84,753.05" style="fill:none;stroke:rgb(217,217,217);stroke-width:1.07px;"/>
            </g>
        </g>
        <g>
            <g transform="matrix(4.99931,3.46945e-18,-3.81639e-17,2.31835,-5650.37,-695.67)">
                <path d="M1403.51,757.4L1408.84,753.05" style="fill:none;stroke:rgb(204,204,204);stroke-width:1.07px;"/>
            </g>
            <g transform="matrix(4.99931,-2.22045e-16,1.11022e-16,2.31835,-5647.2,-685.586)">
                <path d="M1403.51,757.4L1408.84,753.05" style="fill:none;stroke:rgb(204,204,204);stroke-width:1.07px;"/>
            </g>
            <g transform="matrix(4.99931,-2.22045e-16,1.11022e-16,2.31835,-5642.75,-675.502)">
                <path d="M1403.51,757.4L1408.84,753.05" style="fill:none;stroke:rgb(204,204,204);stroke-width:1.07px;"/>
            </g>
        </g>
        <g transform="matrix(0.179274,0,0,0.179274,1427.32,1036.48)">
            <g transform="matrix(1,0,0,1,-224,-224)">
                <clipPath id="_clip1">
                    <rect x="0" y="0" width="448" height="448"/>
                </clipPath>
                <g clip-path="url(#_clip1)">
                    <path d="M349.928,155.311L349.245,155.311C339.9,155.252 330.878,158.706 323.96,164.988C318.442,149.43 304.207,138.204 287.526,138.204C277.291,138.204 267.5,142.383 260.418,149.77C253.976,136.534 240.912,127.341 225.881,127.341L225.155,127.341C216.961,127.325 209.008,130.138 202.648,135.305L202.648,41.011C202.648,18.394 185.081,0 163.674,0C142.286,0 124.797,18.379 124.782,40.98L124.657,165.175L75.549,211.353C61.314,224.67 56.6,245.297 63.632,263.477L114.905,396.924C115.011,397.205 115.136,397.24 115.272,397.509C131.56,428.8 162.55,447.999 196.155,447.999L296.247,447.999C347.181,447.999 388.66,404.108 388.711,349.861C388.734,325.684 388.758,307.761 388.777,293.117C388.828,253.721 388.848,239.284 388.746,195.912C388.691,173.358 371.28,155.311 349.928,155.311ZM372.79,293.214C372.775,307.863 372.748,325.664 372.728,349.845C372.685,395.289 338.374,432.016 296.247,432.016L196.155,432.016C168.672,432.016 143.235,416.279 129.655,390.521L78.542,257.624C73.852,245.527 76.993,231.792 86.479,222.934L124.606,187.101L124.559,250.167C124.555,254.588 128.126,258.182 132.547,258.201L132.551,258.201C136.98,258.197 140.573,254.619 140.601,250.194L140.714,168.668L140.714,168.605L140.745,40.991C140.757,27.205 151.121,15.983 163.709,15.983C176.297,15.983 186.665,27.209 186.665,41.011L186.665,167.134C186.665,167.571 186.645,168.012 186.645,168.457C186.645,168.648 186.665,168.835 186.665,169.027L186.665,222.954C186.665,227.367 190.243,230.945 194.656,230.945C199.07,230.945 202.648,227.367 202.648,222.954L202.648,167.403C202.648,154.097 212.887,143.331 225.155,143.331L225.881,143.331C238.465,143.331 248.599,154.671 248.599,168.473L248.599,217.814C248.599,222.228 252.177,225.806 256.59,225.806C261.003,225.806 264.582,222.228 264.582,217.814L264.582,179.094C264.582,165.292 274.93,154.066 287.592,154.066C300.18,154.066 310.533,165.292 310.533,179.094L310.533,215.618C310.533,220.031 314.111,223.609 318.524,223.609C322.937,223.609 326.516,220.031 326.516,215.618L326.516,195.838C326.516,182.04 336.653,171.294 349.245,171.294L349.928,171.294C362.485,171.294 372.728,182.247 372.759,196.01C372.865,239.35 372.841,253.842 372.79,293.214Z" style="fill:rgb(204,204,204);fill-rule:nonzero;stroke:rgb(204,204,204);stroke-width:12px;stroke-linecap:butt;stroke-miterlimit:2;"/>
                </g>
            </g>
        </g>
        <g transform="matrix(0.179274,0,0,0.179274,1298.9,1061.31)">
            <g transform="matrix(1,0,0,1,-224,-224)">
                <clipPath id="_clip2">
                    <rect x="0" y="0" width="448" height="448"/>
                </clipPath>
                <g clip-path="url(#_clip2)">
                    <path d="M349.928,155.311L349.245,155.311C339.9,155.252 330.878,158.706 323.96,164.988C318.442,149.43 304.207,138.204 287.526,138.204C277.291,138.204 267.5,142.383 260.418,149.77C253.976,136.534 240.912,127.341 225.881,127.341L225.155,127.341C216.961,127.325 209.008,130.138 202.648,135.305L202.648,41.011C202.648,18.394 185.081,0 163.674,0C142.286,0 124.797,18.379 124.782,40.98L124.657,165.175L75.549,211.353C61.314,224.67 56.6,245.297 63.632,263.477L114.905,396.924C115.011,397.205 115.136,397.24 115.272,397.509C131.56,428.8 162.55,447.999 196.155,447.999L296.247,447.999C347.181,447.999 388.66,404.108 388.711,349.861C388.734,325.684 388.758,307.761 388.777,293.117C388.828,253.721 388.848,239.284 388.746,195.912C388.691,173.358 371.28,155.311 349.928,155.311ZM372.79,293.214C372.775,307.863 372.748,325.664 372.728,349.845C372.685,395.289 338.374,432.016 296.247,432.016L196.155,432.016C168.672,432.016 143.235,416.279 129.655,390.521L78.542,257.624C73.852,245.527 76.993,231.792 86.479,222.934L124.606,187.101L124.559,250.167C124.555,254.588 128.126,258.182 132.547,258.201L132.551,258.201C136.98,258.197 140.573,254.619 140.601,250.194L140.714,168.668L140.714,168.605L140.745,40.991C140.757,27.205 151.121,15.983 163.709,15.983C176.297,15.983 186.665,27.209 186.665,41.011L186.665,167.134C186.665,167.571 186.645,168.012 186.645,168.457C186.645,168.648 186.665,168.835 186.665,169.027L186.665,222.954C186.665,227.367 190.243,230.945 194.656,230.945C199.07,230.945 202.648,227.367 202.648,222.954L202.648,167.403C202.648,154.097 212.887,143.331 225.155,143.331L225.881,143.331C238.465,143.331 248.599,154.671 248.599,168.473L248.599,217.814C248.599,222.228 252.177,225.806 256.59,225.806C261.003,225.806 264.582,222.228 264.582,217.814L264.582,179.094C264.582,165.292 274.93,154.066 287.592,154.066C300.18,154.066 310.533,165.292 310.533,179.094L310.533,215.618C310.533,220.031 314.111,223.609 318.524,223.609C322.937,223.609 326.516,220.031 326.516,215.618L326.516,195.838C326.516,182.04 336.653,171.294 349.245,171.294L349.928,171.294C362.485,171.294 372.728,182.247 372.759,196.01C372.865,239.35 372.841,253.842 372.79,293.214Z" style="fill:rgb(217,217,217);fill-rule:nonzero;stroke:rgb(217,217,217);stroke-width:12px;stroke-linecap:butt;stroke-miterlimit:2;"/>
                </g>
            </g>
        </g>
        <g transform="matrix(4.99931,-2.22045e-16,0,2.31835,-5519.34,-749.514)">
            <path d="M1403.51,757.4L1408.84,753.05" style="fill:none;stroke:black;stroke-width:1.07px;"/>
        </g>
        <g transform="matrix(4.99931,2.22045e-16,0,2.31835,-5514.42,-739.43)">
            <path d="M1403.51,757.4L1408.84,753.05" style="fill:none;stroke:black;stroke-width:1.07px;"/>
        </g>
        <g transform="matrix(4.99931,2.22045e-16,0,2.31835,-5509.46,-729.497)">
            <path d="M1403.51,757.4L1408.84,753.05" style="fill:none;stroke:black;stroke-width:1.07px;"/>
        </g>
        <g transform="matrix(0.179274,0,0,0.179274,1121.49,1067.44)">
            <g transform="matrix(1,0,0,1,-224,-224)">
                <clipPath id="_clip3">
                    <rect x="0" y="0" width="448" height="448"/>
                </clipPath>
                <g clip-path="url(#_clip3)">
                    <path d="M349.928,155.311L349.245,155.311C339.9,155.252 330.878,158.706 323.96,164.988C318.442,149.43 304.207,138.204 287.526,138.204C277.291,138.204 267.5,142.383 260.418,149.77C253.976,136.534 240.912,127.341 225.881,127.341L225.155,127.341C216.961,127.325 209.008,130.138 202.648,135.305L202.648,41.011C202.648,18.394 185.081,0 163.674,0C142.286,0 124.797,18.379 124.782,40.98L124.657,165.175L75.549,211.353C61.314,224.67 56.6,245.297 63.632,263.477L114.905,396.924C115.011,397.205 115.136,397.24 115.272,397.509C131.56,428.8 162.55,447.999 196.155,447.999L296.247,447.999C347.181,447.999 388.66,404.108 388.711,349.861C388.734,325.684 388.758,307.761 388.777,293.117C388.828,253.721 388.848,239.284 388.746,195.912C388.691,173.358 371.28,155.311 349.928,155.311ZM372.79,293.214C372.775,307.863 372.748,325.664 372.728,349.845C372.685,395.289 338.374,432.016 296.247,432.016L196.155,432.016C168.672,432.016 143.235,416.279 129.655,390.521L78.542,257.624C73.852,245.527 76.993,231.792 86.479,222.934L124.606,187.101L124.559,250.167C124.555,254.588 128.126,258.182 132.547,258.201L132.551,258.201C136.98,258.197 140.573,254.619 140.601,250.194L140.714,168.668L140.714,168.605L140.745,40.991C140.757,27.205 151.121,15.983 163.709,15.983C176.297,15.983 186.665,27.209 186.665,41.011L186.665,167.134C186.665,167.571 186.645,168.012 186.645,168.457C186.645,168.648 186.665,168.835 186.665,169.027L186.665,222.954C186.665,227.367 190.243,230.945 194.656,230.945C199.07,230.945 202.648,227.367 202.648,222.954L202.648,167.403C202.648,154.097 212.887,143.331 225.155,143.331L225.881,143.331C238.465,143.331 248.599,154.671 248.599,168.473L248.599,217.814C248.599,222.228 252.177,225.806 256.59,225.806C261.003,225.806 264.582,222.228 264.582,217.814L264.582,179.094C264.582,165.292 274.93,154.066 287.592,154.066C300.18,154.066 310.533,165.292 310.533,179.094L310.533,215.618C310.533,220.031 314.111,223.609 318.524,223.609C322.937,223.609 326.516,220.031 326.516,215.618L326.516,195.838C326.516,182.04 336.653,171.294 349.245,171.294L349.928,171.294C362.485,171.294 372.728,182.247 372.759,196.01C372.865,239.35 372.841,253.842 372.79,293.214Z" style="fill-rule:nonzero;stroke:black;stroke-width:12px;stroke-linecap:butt;stroke-miterlimit:2;"/>
                </g>
            </g>
        </g>
        <g transform="matrix(0.179274,0,0,0.179274,1562.61,985.267)">
            <g transform="matrix(1,0,0,1,-224,-224)">
                <clipPath id="_clip4">
                    <rect x="0" y="0" width="448" height="448"/>
                </clipPath>
                <g clip-path="url(#_clip4)">
                    <path d="M349.928,155.311L349.245,155.311C339.9,155.252 330.878,158.706 323.96,164.988C318.442,149.43 304.207,138.204 287.526,138.204C277.291,138.204 267.5,142.383 260.418,149.77C253.976,136.534 240.912,127.341 225.881,127.341L225.155,127.341C216.961,127.325 209.008,130.138 202.648,135.305L202.648,41.011C202.648,18.394 185.081,0 163.674,0C142.286,0 124.797,18.379 124.782,40.98L124.657,165.175L75.549,211.353C61.314,224.67 56.6,245.297 63.632,263.477L114.905,396.924C115.011,397.205 115.136,397.24 115.272,397.509C131.56,428.8 162.55,447.999 196.155,447.999L296.247,447.999C347.181,447.999 388.66,404.108 388.711,349.861C388.734,325.684 388.758,307.761 388.777,293.117C388.828,253.721 388.848,239.284 388.746,195.912C388.691,173.358 371.28,155.311 349.928,155.311ZM372.79,293.214C372.775,307.863 372.748,325.664 372.728,349.845C372.685,395.289 338.374,432.016 296.247,432.016L196.155,432.016C168.672,432.016 143.235,416.279 129.655,390.521L78.542,257.624C73.852,245.527 76.993,231.792 86.479,222.934L124.606,187.101L124.559,250.167C124.555,254.588 128.126,258.182 132.547,258.201L132.551,258.201C136.98,258.197 140.573,254.619 140.601,250.194L140.714,168.668L140.714,168.605L140.745,40.991C140.757,27.205 151.121,15.983 163.709,15.983C176.297,15.983 186.665,27.209 186.665,41.011L186.665,167.134C186.665,167.571 186.645,168.012 186.645,168.457C186.645,168.648 186.665,168.835 186.665,169.027L186.665,222.954C186.665,227.367 190.243,230.945 194.656,230.945C199.07,230.945 202.648,227.367 202.648,222.954L202.648,167.403C202.648,154.097 212.887,143.331 225.155,143.331L225.881,143.331C238.465,143.331 248.599,154.671 248.599,168.473L248.599,217.814C248.599,222.228 252.177,225.806 256.59,225.806C261.003,225.806 264.582,222.228 264.582,217.814L264.582,179.094C264.582,165.292 274.93,154.066 287.592,154.066C300.18,154.066 310.533,165.292 310.533,179.094L310.533,215.618C310.533,220.031 314.111,223.609 318.524,223.609C322.937,223.609 326.516,220.031 326.516,215.618L326.516,195.838C326.516,182.04 336.653,171.294 349.245,171.294L349.928,171.294C362.485,171.294 372.728,182.247 372.759,196.01C372.865,239.35 372.841,253.842 372.79,293.214Z" style="fill-rule:nonzero;stroke:black;stroke-width:12px;stroke-linecap:butt;stroke-miterlimit:2;"/>
                </g>
            </g>
        </g>
        <g transform="matrix(5.77581e-17,0.943261,-1,6.12323e-17,2837.98,-605.973)">
            <path d="M1520.04,1668.33L1858.12,1668.33" style="fill:none;stroke:rgb(179,179,179);stroke-width:0.86px;"/>
        </g>
    </g>
</svg>
