<?xml version="1.0" encoding="UTF-8" standalone="no"?>
<!DOCTYPE svg PUBLIC "-//W3C//DTD SVG 1.1//EN" "http://www.w3.org/Graphics/SVG/1.1/DTD/svg11.dtd">
<svg width="100%" height="100%" viewBox="0 0 769 320" version="1.1" xmlns="http://www.w3.org/2000/svg" xmlns:xlink="http://www.w3.org/1999/xlink" xml:space="preserve" xmlns:serif="http://www.serif.com/" style="fill-rule:evenodd;clip-rule:evenodd;stroke-linecap:round;stroke-linejoin:round;stroke-miterlimit:1.5;">
    <g transform="matrix(1,0,0,1,-1027.24,-827.402)">
        <g transform="matrix(1.02919,0,0,0.513704,-291.041,208.762)">
            <rect x="1281.3" y="1205.08" width="746.296" height="620.78" style="fill:white;stroke:rgb(179,179,179);stroke-width:1.02px;"/>
        </g>
        <g transform="matrix(0.91863,0.178343,-0.10449,0.538218,-317.388,461.683)">
            <path d="M1778.72,364.959L1778.72,336.123L1889.07,336.123L1889.07,321.706L1929.32,350.541L1889.07,379.376L1889.07,364.959L1778.72,364.959Z" style="fill:rgb(89,89,89);fill-opacity:0.41;"/>
        </g>
        <g transform="matrix(1.52701,-0.143766,0.0513915,0.545854,-1411.69,1027.56)">
            <path d="M1778.72,364.959L1778.72,336.123L1904.76,336.123L1904.76,321.706L1929.32,350.541L1904.76,379.376L1904.76,364.959L1778.72,364.959Z" style="fill:rgb(89,89,89);"/>
        </g>
        <g transform="matrix(1,0,0,1,-566.336,-49.7959)">
            <g transform="matrix(0.986932,-0.275685,0.283437,1.01468,-788.92,712.486)">
                <ellipse cx="2404.22" cy="949.048" rx="67.238" ry="54.449" style="fill:rgb(89,89,89);"/>
            </g>
            <g transform="matrix(1,0,0,1,-30.3275,5.21504)">
                <g transform="matrix(41.6667,0,0,41.6667,1839.04,1024.92)">
                    <path d="M0.731,-0.021L0.731,-0.015C0.719,0.003 0.703,0.013 0.685,0.013C0.671,0.013 0.659,0.006 0.649,-0.006C0.641,-0.036 0.586,-0.085 0.483,-0.153C0.38,-0.22 0.312,-0.254 0.279,-0.254L0.256,-0.254C0.245,-0.253 0.237,-0.253 0.233,-0.253L0.233,-0.204C0.233,-0.187 0.235,-0.165 0.239,-0.138C0.243,-0.104 0.247,-0.084 0.253,-0.076C0.268,-0.056 0.275,-0.044 0.275,-0.039C0.275,-0.024 0.269,-0.011 0.258,-0.002C0.246,0.008 0.233,0.013 0.218,0.013C0.186,0.013 0.161,0.001 0.144,-0.021C0.127,-0.041 0.119,-0.124 0.119,-0.269C0.101,-0.269 0.083,-0.274 0.064,-0.285C0.042,-0.298 0.031,-0.313 0.031,-0.328C0.031,-0.358 0.059,-0.38 0.115,-0.394C0.118,-0.42 0.121,-0.455 0.124,-0.5C0.125,-0.551 0.128,-0.586 0.13,-0.606C0.135,-0.633 0.141,-0.673 0.149,-0.726L0.139,-0.726C0.105,-0.725 0.089,-0.74 0.089,-0.77C0.089,-0.796 0.099,-0.812 0.119,-0.819C0.133,-0.823 0.147,-0.827 0.161,-0.831C0.178,-0.846 0.191,-0.856 0.201,-0.861C0.21,-0.865 0.225,-0.868 0.246,-0.868C0.261,-0.868 0.269,-0.861 0.269,-0.848C0.269,-0.843 0.279,-0.841 0.3,-0.841C0.398,-0.841 0.48,-0.822 0.549,-0.783C0.633,-0.735 0.675,-0.666 0.675,-0.576C0.675,-0.507 0.653,-0.45 0.61,-0.405C0.581,-0.374 0.529,-0.34 0.455,-0.301C0.514,-0.264 0.573,-0.226 0.631,-0.189C0.699,-0.138 0.732,-0.082 0.731,-0.021ZM0.56,-0.581C0.56,-0.635 0.533,-0.675 0.479,-0.703C0.435,-0.725 0.385,-0.736 0.326,-0.736C0.319,-0.736 0.301,-0.735 0.273,-0.733C0.273,-0.703 0.265,-0.651 0.249,-0.578C0.24,-0.533 0.233,-0.469 0.23,-0.384C0.278,-0.367 0.308,-0.359 0.32,-0.359C0.33,-0.359 0.345,-0.362 0.364,-0.368C0.419,-0.384 0.464,-0.41 0.499,-0.444C0.54,-0.483 0.56,-0.529 0.56,-0.581Z" style="fill:rgb(235,235,235);fill-rule:nonzero;"/>
                </g>
                <g transform="matrix(41.6667,0,0,41.6667,1869.93,1024.92)">
                    <path d="M0.691,-0.221C0.691,-0.181 0.673,-0.161 0.638,-0.16C0.642,-0.141 0.651,-0.115 0.665,-0.083C0.664,-0.064 0.657,-0.049 0.643,-0.038C0.628,-0.026 0.612,-0.02 0.593,-0.02C0.578,-0.02 0.56,-0.025 0.54,-0.034C0.529,-0.055 0.524,-0.081 0.524,-0.111C0.524,-0.119 0.524,-0.13 0.525,-0.144C0.526,-0.158 0.526,-0.168 0.526,-0.175C0.526,-0.169 0.513,-0.166 0.485,-0.166C0.438,-0.166 0.383,-0.164 0.319,-0.16C0.227,-0.155 0.177,-0.148 0.169,-0.139C0.161,-0.13 0.156,-0.085 0.154,-0.005C0.143,0.011 0.129,0.019 0.113,0.019C0.095,0.019 0.077,0.011 0.059,-0.003C0.04,-0.018 0.031,-0.033 0.031,-0.05C0.031,-0.056 0.039,-0.079 0.054,-0.12C0.07,-0.179 0.097,-0.268 0.135,-0.386C0.247,-0.692 0.34,-0.845 0.414,-0.845C0.486,-0.845 0.542,-0.764 0.581,-0.603C0.599,-0.53 0.615,-0.419 0.63,-0.269C0.652,-0.264 0.665,-0.26 0.671,-0.256C0.685,-0.249 0.691,-0.237 0.691,-0.221ZM0.516,-0.269C0.48,-0.56 0.447,-0.705 0.418,-0.705C0.394,-0.705 0.353,-0.637 0.295,-0.5C0.253,-0.402 0.22,-0.316 0.196,-0.244C0.223,-0.25 0.263,-0.257 0.315,-0.265C0.363,-0.271 0.43,-0.272 0.516,-0.269Z" style="fill:rgb(235,235,235);fill-rule:nonzero;"/>
                </g>
                <g transform="matrix(41.6667,0,0,41.6667,1901.38,1024.92)">
                    <path d="M0.593,-0.123C0.593,-0.072 0.563,-0.033 0.504,-0.005C0.457,0.018 0.405,0.029 0.348,0.029C0.295,0.029 0.233,0.017 0.163,-0.006C0.075,-0.036 0.031,-0.071 0.031,-0.111C0.031,-0.126 0.037,-0.139 0.048,-0.15C0.058,-0.161 0.071,-0.166 0.086,-0.166C0.109,-0.166 0.13,-0.157 0.149,-0.139C0.181,-0.111 0.199,-0.096 0.201,-0.094C0.23,-0.077 0.283,-0.069 0.359,-0.069C0.426,-0.069 0.46,-0.084 0.46,-0.115C0.46,-0.141 0.428,-0.177 0.365,-0.223C0.321,-0.251 0.277,-0.279 0.233,-0.308C0.176,-0.346 0.135,-0.382 0.109,-0.416C0.075,-0.461 0.058,-0.513 0.058,-0.571C0.058,-0.645 0.08,-0.71 0.125,-0.768C0.173,-0.831 0.233,-0.863 0.305,-0.863C0.367,-0.863 0.419,-0.846 0.461,-0.812C0.504,-0.778 0.531,-0.731 0.543,-0.67C0.545,-0.647 0.55,-0.612 0.558,-0.566C0.561,-0.553 0.563,-0.543 0.563,-0.536C0.563,-0.506 0.558,-0.481 0.548,-0.46C0.535,-0.432 0.515,-0.418 0.489,-0.418C0.474,-0.418 0.459,-0.424 0.446,-0.438C0.432,-0.452 0.425,-0.466 0.425,-0.481C0.425,-0.492 0.428,-0.508 0.433,-0.529C0.438,-0.551 0.44,-0.567 0.44,-0.578C0.44,-0.69 0.403,-0.746 0.328,-0.746C0.286,-0.746 0.251,-0.729 0.223,-0.693C0.194,-0.658 0.18,-0.619 0.18,-0.576C0.18,-0.516 0.216,-0.458 0.288,-0.401C0.353,-0.357 0.42,-0.313 0.486,-0.269C0.557,-0.218 0.593,-0.169 0.593,-0.123Z" style="fill:rgb(235,235,235);fill-rule:nonzero;"/>
                </g>
            </g>
        </g>
        <g transform="matrix(1,0,0,1,-211.175,-89.1321)">
            <g transform="matrix(0.986932,-0.275685,0.283437,1.01468,-788.92,712.486)">
                <ellipse cx="2404.22" cy="949.048" rx="67.238" ry="54.449" style="fill:rgb(89,89,89);"/>
            </g>
            <g transform="matrix(1,0,0,1,-30.3275,5.21504)">
                <g transform="matrix(41.6667,0,0,41.6667,1839.04,1024.92)">
                    <path d="M0.731,-0.021L0.731,-0.015C0.719,0.003 0.703,0.013 0.685,0.013C0.671,0.013 0.659,0.006 0.649,-0.006C0.641,-0.036 0.586,-0.085 0.483,-0.153C0.38,-0.22 0.312,-0.254 0.279,-0.254L0.256,-0.254C0.245,-0.253 0.237,-0.253 0.233,-0.253L0.233,-0.204C0.233,-0.187 0.235,-0.165 0.239,-0.138C0.243,-0.104 0.247,-0.084 0.253,-0.076C0.268,-0.056 0.275,-0.044 0.275,-0.039C0.275,-0.024 0.269,-0.011 0.258,-0.002C0.246,0.008 0.233,0.013 0.218,0.013C0.186,0.013 0.161,0.001 0.144,-0.021C0.127,-0.041 0.119,-0.124 0.119,-0.269C0.101,-0.269 0.083,-0.274 0.064,-0.285C0.042,-0.298 0.031,-0.313 0.031,-0.328C0.031,-0.358 0.059,-0.38 0.115,-0.394C0.118,-0.42 0.121,-0.455 0.124,-0.5C0.125,-0.551 0.128,-0.586 0.13,-0.606C0.135,-0.633 0.141,-0.673 0.149,-0.726L0.139,-0.726C0.105,-0.725 0.089,-0.74 0.089,-0.77C0.089,-0.796 0.099,-0.812 0.119,-0.819C0.133,-0.823 0.147,-0.827 0.161,-0.831C0.178,-0.846 0.191,-0.856 0.201,-0.861C0.21,-0.865 0.225,-0.868 0.246,-0.868C0.261,-0.868 0.269,-0.861 0.269,-0.848C0.269,-0.843 0.279,-0.841 0.3,-0.841C0.398,-0.841 0.48,-0.822 0.549,-0.783C0.633,-0.735 0.675,-0.666 0.675,-0.576C0.675,-0.507 0.653,-0.45 0.61,-0.405C0.581,-0.374 0.529,-0.34 0.455,-0.301C0.514,-0.264 0.573,-0.226 0.631,-0.189C0.699,-0.138 0.732,-0.082 0.731,-0.021ZM0.56,-0.581C0.56,-0.635 0.533,-0.675 0.479,-0.703C0.435,-0.725 0.385,-0.736 0.326,-0.736C0.319,-0.736 0.301,-0.735 0.273,-0.733C0.273,-0.703 0.265,-0.651 0.249,-0.578C0.24,-0.533 0.233,-0.469 0.23,-0.384C0.278,-0.367 0.308,-0.359 0.32,-0.359C0.33,-0.359 0.345,-0.362 0.364,-0.368C0.419,-0.384 0.464,-0.41 0.499,-0.444C0.54,-0.483 0.56,-0.529 0.56,-0.581Z" style="fill:rgb(235,235,235);fill-rule:nonzero;"/>
                </g>
                <g transform="matrix(41.6667,0,0,41.6667,1869.93,1024.92)">
                    <path d="M0.691,-0.221C0.691,-0.181 0.673,-0.161 0.638,-0.16C0.642,-0.141 0.651,-0.115 0.665,-0.083C0.664,-0.064 0.657,-0.049 0.643,-0.038C0.628,-0.026 0.612,-0.02 0.593,-0.02C0.578,-0.02 0.56,-0.025 0.54,-0.034C0.529,-0.055 0.524,-0.081 0.524,-0.111C0.524,-0.119 0.524,-0.13 0.525,-0.144C0.526,-0.158 0.526,-0.168 0.526,-0.175C0.526,-0.169 0.513,-0.166 0.485,-0.166C0.438,-0.166 0.383,-0.164 0.319,-0.16C0.227,-0.155 0.177,-0.148 0.169,-0.139C0.161,-0.13 0.156,-0.085 0.154,-0.005C0.143,0.011 0.129,0.019 0.113,0.019C0.095,0.019 0.077,0.011 0.059,-0.003C0.04,-0.018 0.031,-0.033 0.031,-0.05C0.031,-0.056 0.039,-0.079 0.054,-0.12C0.07,-0.179 0.097,-0.268 0.135,-0.386C0.247,-0.692 0.34,-0.845 0.414,-0.845C0.486,-0.845 0.542,-0.764 0.581,-0.603C0.599,-0.53 0.615,-0.419 0.63,-0.269C0.652,-0.264 0.665,-0.26 0.671,-0.256C0.685,-0.249 0.691,-0.237 0.691,-0.221ZM0.516,-0.269C0.48,-0.56 0.447,-0.705 0.418,-0.705C0.394,-0.705 0.353,-0.637 0.295,-0.5C0.253,-0.402 0.22,-0.316 0.196,-0.244C0.223,-0.25 0.263,-0.257 0.315,-0.265C0.363,-0.271 0.43,-0.272 0.516,-0.269Z" style="fill:rgb(235,235,235);fill-rule:nonzero;"/>
                </g>
                <g transform="matrix(41.6667,0,0,41.6667,1902.06,1024.92)">
                    <path d="M0.585,-0.783C0.585,-0.753 0.565,-0.738 0.525,-0.738C0.52,-0.738 0.512,-0.738 0.502,-0.739C0.491,-0.741 0.484,-0.741 0.479,-0.741C0.445,-0.741 0.403,-0.735 0.351,-0.723C0.284,-0.706 0.242,-0.696 0.225,-0.694C0.219,-0.653 0.213,-0.613 0.208,-0.573C0.201,-0.523 0.198,-0.483 0.198,-0.45C0.198,-0.423 0.204,-0.41 0.218,-0.411L0.226,-0.413C0.294,-0.418 0.34,-0.421 0.366,-0.421C0.425,-0.421 0.468,-0.403 0.494,-0.366C0.494,-0.331 0.481,-0.314 0.455,-0.314C0.45,-0.314 0.443,-0.315 0.433,-0.318C0.424,-0.32 0.416,-0.321 0.411,-0.321C0.4,-0.321 0.385,-0.322 0.365,-0.323L0.319,-0.323C0.275,-0.323 0.24,-0.32 0.214,-0.315C0.2,-0.312 0.193,-0.308 0.19,-0.303C0.188,-0.299 0.186,-0.288 0.184,-0.272C0.183,-0.256 0.183,-0.24 0.183,-0.224C0.183,-0.126 0.186,-0.073 0.193,-0.065C0.205,-0.047 0.211,-0.035 0.211,-0.029C0.211,-0.017 0.204,-0.006 0.191,0.006C0.177,0.017 0.164,0.023 0.153,0.023C0.123,0.023 0.104,0.014 0.095,-0.004C0.078,-0.035 0.069,-0.097 0.069,-0.188C0.069,-0.238 0.074,-0.312 0.083,-0.411C0.093,-0.51 0.097,-0.585 0.098,-0.635C0.097,-0.672 0.095,-0.69 0.089,-0.69L0.073,-0.688C0.063,-0.688 0.053,-0.694 0.044,-0.708C0.036,-0.721 0.031,-0.733 0.031,-0.745C0.031,-0.758 0.039,-0.768 0.055,-0.775C0.058,-0.777 0.071,-0.781 0.095,-0.788C0.094,-0.795 0.094,-0.801 0.094,-0.805C0.094,-0.833 0.108,-0.848 0.136,-0.848C0.152,-0.848 0.177,-0.835 0.21,-0.809C0.342,-0.831 0.433,-0.842 0.484,-0.843C0.508,-0.842 0.53,-0.838 0.549,-0.83C0.573,-0.819 0.585,-0.803 0.585,-0.783Z" style="fill:rgb(235,235,235);fill-rule:nonzero;"/>
                </g>
            </g>
        </g>
        <g transform="matrix(0.305517,-0.0853417,0.0877413,0.314107,275.086,815.815)">
            <ellipse cx="2404.22" cy="949.048" rx="67.238" ry="54.449"/>
        </g>
        <g transform="matrix(0.384025,-0.147481,0.200887,0.523087,311.926,1116.8)">
            <path d="M1778.72,364.959L1778.72,336.123L1835.74,336.123L1835.74,321.706L1929.32,350.541L1835.74,379.376L1835.74,364.959L1778.72,364.959Z"/>
        </g>
        <g>
            <g transform="matrix(4.99931,0,-2.77556e-17,2.31835,-5779.3,-672.199)">
                <path d="M1403.51,757.4L1408.84,753.05" style="fill:none;stroke:rgb(217,217,217);stroke-width:1.07px;"/>
            </g>
            <g transform="matrix(4.99931,0,0,2.31835,-5775.79,-662.115)">
                <path d="M1403.51,757.4L1408.84,753.05" style="fill:none;stroke:rgb(217,217,217);stroke-width:1.07px;"/>
            </g>
            <g transform="matrix(4.99931,0,0,2.31835,-5771.18,-652.031)">
                <path d="M1403.51,757.4L1408.84,753.05" style="fill:none;stroke:rgb(217,217,217);stroke-width:1.07px;"/>
            </g>
        </g>
        <g>
            <g transform="matrix(4.99931,3.46945e-18,-3.81639e-17,2.31835,-5650.37,-695.67)">
                <path d="M1403.51,757.4L1408.84,753.05" style="fill:none;stroke:rgb(204,204,204);stroke-width:1.07px;"/>
            </g>
            <g transform="matrix(4.99931,-2.22045e-16,1.11022e-16,2.31835,-5647.2,-685.586)">
                <path d="M1403.51,757.4L1408.84,753.05" style="fill:none;stroke:rgb(204,204,204);stroke-width:1.07px;"/>
            </g>
            <g transform="matrix(4.99931,-2.22045e-16,1.11022e-16,2.31835,-5642.75,-675.502)">
                <path d="M1403.51,757.4L1408.84,753.05" style="fill:none;stroke:rgb(204,204,204);stroke-width:1.07px;"/>
            </g>
        </g>
        <g transform="matrix(0.179274,0,0,0.179274,1427.32,1036.48)">
            <g transform="matrix(1,0,0,1,-224,-224)">
                <clipPath id="_clip1">
                    <rect x="0" y="0" width="448" height="448"/>
                </clipPath>
                <g clip-path="url(#_clip1)">
                    <path d="M349.928,155.311L349.245,155.311C339.9,155.252 330.878,158.706 323.96,164.988C318.442,149.43 304.207,138.204 287.526,138.204C277.291,138.204 267.5,142.383 260.418,149.77C253.976,136.534 240.912,127.341 225.881,127.341L225.155,127.341C216.961,127.325 209.008,130.138 202.648,135.305L202.648,41.011C202.648,18.394 185.081,0 163.674,0C142.286,0 124.797,18.379 124.782,40.98L124.657,165.175L75.549,211.353C61.314,224.67 56.6,245.297 63.632,263.477L114.905,396.924C115.011,397.205 115.136,397.24 115.272,397.509C131.56,428.8 162.55,447.999 196.155,447.999L296.247,447.999C347.181,447.999 388.66,404.108 388.711,349.861C388.734,325.684 388.758,307.761 388.777,293.117C388.828,253.721 388.848,239.284 388.746,195.912C388.691,173.358 371.28,155.311 349.928,155.311ZM372.79,293.214C372.775,307.863 372.748,325.664 372.728,349.845C372.685,395.289 338.374,432.016 296.247,432.016L196.155,432.016C168.672,432.016 143.235,416.279 129.655,390.521L78.542,257.624C73.852,245.527 76.993,231.792 86.479,222.934L124.606,187.101L124.559,250.167C124.555,254.588 128.126,258.182 132.547,258.201L132.551,258.201C136.98,258.197 140.573,254.619 140.601,250.194L140.714,168.668L140.714,168.605L140.745,40.991C140.757,27.205 151.121,15.983 163.709,15.983C176.297,15.983 186.665,27.209 186.665,41.011L186.665,167.134C186.665,167.571 186.645,168.012 186.645,168.457C186.645,168.648 186.665,168.835 186.665,169.027L186.665,222.954C186.665,227.367 190.243,230.945 194.656,230.945C199.07,230.945 202.648,227.367 202.648,222.954L202.648,167.403C202.648,154.097 212.887,143.331 225.155,143.331L225.881,143.331C238.465,143.331 248.599,154.671 248.599,168.473L248.599,217.814C248.599,222.228 252.177,225.806 256.59,225.806C261.003,225.806 264.582,222.228 264.582,217.814L264.582,179.094C264.582,165.292 274.93,154.066 287.592,154.066C300.18,154.066 310.533,165.292 310.533,179.094L310.533,215.618C310.533,220.031 314.111,223.609 318.524,223.609C322.937,223.609 326.516,220.031 326.516,215.618L326.516,195.838C326.516,182.04 336.653,171.294 349.245,171.294L349.928,171.294C362.485,171.294 372.728,182.247 372.759,196.01C372.865,239.35 372.841,253.842 372.79,293.214Z" style="fill:rgb(204,204,204);fill-rule:nonzero;stroke:rgb(204,204,204);stroke-width:12px;stroke-linecap:butt;stroke-miterlimit:2;"/>
                </g>
            </g>
        </g>
        <g transform="matrix(0.179274,0,0,0.179274,1298.9,1061.31)">
            <g transform="matrix(1,0,0,1,-224,-224)">
                <clipPath id="_clip2">
                    <rect x="0" y="0" width="448" height="448"/>
                </clipPath>
                <g clip-path="url(#_clip2)">
                    <path d="M349.928,155.311L349.245,155.311C339.9,155.252 330.878,158.706 323.96,164.988C318.442,149.43 304.207,138.204 287.526,138.204C277.291,138.204 267.5,142.383 260.418,149.77C253.976,136.534 240.912,127.341 225.881,127.341L225.155,127.341C216.961,127.325 209.008,130.138 202.648,135.305L202.648,41.011C202.648,18.394 185.081,0 163.674,0C142.286,0 124.797,18.379 124.782,40.98L124.657,165.175L75.549,211.353C61.314,224.67 56.6,245.297 63.632,263.477L114.905,396.924C115.011,397.205 115.136,397.24 115.272,397.509C131.56,428.8 162.55,447.999 196.155,447.999L296.247,447.999C347.181,447.999 388.66,404.108 388.711,349.861C388.734,325.684 388.758,307.761 388.777,293.117C388.828,253.721 388.848,239.284 388.746,195.912C388.691,173.358 371.28,155.311 349.928,155.311ZM372.79,293.214C372.775,307.863 372.748,325.664 372.728,349.845C372.685,395.289 338.374,432.016 296.247,432.016L196.155,432.016C168.672,432.016 143.235,416.279 129.655,390.521L78.542,257.624C73.852,245.527 76.993,231.792 86.479,222.934L124.606,187.101L124.559,250.167C124.555,254.588 128.126,258.182 132.547,258.201L132.551,258.201C136.98,258.197 140.573,254.619 140.601,250.194L140.714,168.668L140.714,168.605L140.745,40.991C140.757,27.205 151.121,15.983 163.709,15.983C176.297,15.983 186.665,27.209 186.665,41.011L186.665,167.134C186.665,167.571 186.645,168.012 186.645,168.457C186.645,168.648 186.665,168.835 186.665,169.027L186.665,222.954C186.665,227.367 190.243,230.945 194.656,230.945C199.07,230.945 202.648,227.367 202.648,222.954L202.648,167.403C202.648,154.097 212.887,143.331 225.155,143.331L225.881,143.331C238.465,143.331 248.599,154.671 248.599,168.473L248.599,217.814C248.599,222.228 252.177,225.806 256.59,225.806C261.003,225.806 264.582,222.228 264.582,217.814L264.582,179.094C264.582,165.292 274.93,154.066 287.592,154.066C300.18,154.066 310.533,165.292 310.533,179.094L310.533,215.618C310.533,220.031 314.111,223.609 318.524,223.609C322.937,223.609 326.516,220.031 326.516,215.618L326.516,195.838C326.516,182.04 336.653,171.294 349.245,171.294L349.928,171.294C362.485,171.294 372.728,182.247 372.759,196.01C372.865,239.35 372.841,253.842 372.79,293.214Z" style="fill:rgb(217,217,217);fill-rule:nonzero;stroke:rgb(217,217,217);stroke-width:12px;stroke-linecap:butt;stroke-miterlimit:2;"/>
                </g>
            </g>
        </g>
        <g transform="matrix(4.99931,-2.22045e-16,0,2.31835,-5519.34,-749.514)">
            <path d="M1403.51,757.4L1408.84,753.05" style="fill:none;stroke:black;stroke-width:1.07px;"/>
        </g>
        <g transform="matrix(4.99931,2.22045e-16,0,2.31835,-5514.42,-739.43)">
            <path d="M1403.51,757.4L1408.84,753.05" style="fill:none;stroke:black;stroke-width:1.07px;"/>
        </g>
        <g transform="matrix(4.99931,2.22045e-16,0,2.31835,-5509.46,-729.497)">
            <path d="M1403.51,757.4L1408.84,753.05" style="fill:none;stroke:black;stroke-width:1.07px;"/>
        </g>
        <g transform="matrix(0.179274,0,0,0.179274,1121.49,1067.44)">
            <g transform="matrix(1,0,0,1,-224,-224)">
                <clipPath id="_clip3">
                    <rect x="0" y="0" width="448" height="448"/>
                </clipPath>
                <g clip-path="url(#_clip3)">
                    <path d="M349.928,155.311L349.245,155.311C339.9,155.252 330.878,158.706 323.96,164.988C318.442,149.43 304.207,138.204 287.526,138.204C277.291,138.204 267.5,142.383 260.418,149.77C253.976,136.534 240.912,127.341 225.881,127.341L225.155,127.341C216.961,127.325 209.008,130.138 202.648,135.305L202.648,41.011C202.648,18.394 185.081,0 163.674,0C142.286,0 124.797,18.379 124.782,40.98L124.657,165.175L75.549,211.353C61.314,224.67 56.6,245.297 63.632,263.477L114.905,396.924C115.011,397.205 115.136,397.24 115.272,397.509C131.56,428.8 162.55,447.999 196.155,447.999L296.247,447.999C347.181,447.999 388.66,404.108 388.711,349.861C388.734,325.684 388.758,307.761 388.777,293.117C388.828,253.721 388.848,239.284 388.746,195.912C388.691,173.358 371.28,155.311 349.928,155.311ZM372.79,293.214C372.775,307.863 372.748,325.664 372.728,349.845C372.685,395.289 338.374,432.016 296.247,432.016L196.155,432.016C168.672,432.016 143.235,416.279 129.655,390.521L78.542,257.624C73.852,245.527 76.993,231.792 86.479,222.934L124.606,187.101L124.559,250.167C124.555,254.588 128.126,258.182 132.547,258.201L132.551,258.201C136.98,258.197 140.573,254.619 140.601,250.194L140.714,168.668L140.714,168.605L140.745,40.991C140.757,27.205 151.121,15.983 163.709,15.983C176.297,15.983 186.665,27.209 186.665,41.011L186.665,167.134C186.665,167.571 186.645,168.012 186.645,168.457C186.645,168.648 186.665,168.835 186.665,169.027L186.665,222.954C186.665,227.367 190.243,230.945 194.656,230.945C199.07,230.945 202.648,227.367 202.648,222.954L202.648,167.403C202.648,154.097 212.887,143.331 225.155,143.331L225.881,143.331C238.465,143.331 248.599,154.671 248.599,168.473L248.599,217.814C248.599,222.228 252.177,225.806 256.59,225.806C261.003,225.806 264.582,222.228 264.582,217.814L264.582,179.094C264.582,165.292 274.93,154.066 287.592,154.066C300.18,154.066 310.533,165.292 310.533,179.094L310.533,215.618C310.533,220.031 314.111,223.609 318.524,223.609C322.937,223.609 326.516,220.031 326.516,215.618L326.516,195.838C326.516,182.04 336.653,171.294 349.245,171.294L349.928,171.294C362.485,171.294 372.728,182.247 372.759,196.01C372.865,239.35 372.841,253.842 372.79,293.214Z" style="fill-rule:nonzero;stroke:black;stroke-width:12px;stroke-linecap:butt;stroke-miterlimit:2;"/>
                </g>
            </g>
        </g>
        <g transform="matrix(0.179274,0,0,0.179274,1562.61,985.267)">
            <g transform="matrix(1,0,0,1,-224,-224)">
                <clipPath id="_clip4">
                    <rect x="0" y="0" width="448" height="448"/>
                </clipPath>
                <g clip-path="url(#_clip4)">
                    <path d="M349.928,155.311L349.245,155.311C339.9,155.252 330.878,158.706 323.96,164.988C318.442,149.43 304.207,138.204 287.526,138.204C277.291,138.204 267.5,142.383 260.418,149.77C253.976,136.534 240.912,127.341 225.881,127.341L225.155,127.341C216.961,127.325 209.008,130.138 202.648,135.305L202.648,41.011C202.648,18.394 185.081,0 163.674,0C142.286,0 124.797,18.379 124.782,40.98L124.657,165.175L75.549,211.353C61.314,224.67 56.6,245.297 63.632,263.477L114.905,396.924C115.011,397.205 115.136,397.24 115.272,397.509C131.56,428.8 162.55,447.999 196.155,447.999L296.247,447.999C347.181,447.999 388.66,404.108 388.711,349.861C388.734,325.684 388.758,307.761 388.777,293.117C388.828,253.721 388.848,239.284 388.746,195.912C388.691,173.358 371.28,155.311 349.928,155.311ZM372.79,293.214C372.775,307.863 372.748,325.664 372.728,349.845C372.685,395.289 338.374,432.016 296.247,432.016L196.155,432.016C168.672,432.016 143.235,416.279 129.655,390.521L78.542,257.624C73.852,245.527 76.993,231.792 86.479,222.934L124.606,187.101L124.559,250.167C124.555,254.588 128.126,258.182 132.547,258.201L132.551,258.201C136.98,258.197 140.573,254.619 140.601,250.194L140.714,168.668L140.714,168.605L140.745,40.991C140.757,27.205 151.121,15.983 163.709,15.983C176.297,15.983 186.665,27.209 186.665,41.011L186.665,167.134C186.665,167.571 186.645,168.012 186.645,168.457C186.645,168.648 186.665,168.835 186.665,169.027L186.665,222.954C186.665,227.367 190.243,230.945 194.656,230.945C199.07,230.945 202.648,227.367 202.648,222.954L202.648,167.403C202.648,154.097 212.887,143.331 225.155,143.331L225.881,143.331C238.465,143.331 248.599,154.671 248.599,168.473L248.599,217.814C248.599,222.228 252.177,225.806 256.59,225.806C261.003,225.806 264.582,222.228 264.582,217.814L264.582,179.094C264.582,165.292 274.93,154.066 287.592,154.066C300.18,154.066 310.533,165.292 310.533,179.094L310.533,215.618C310.533,220.031 314.111,223.609 318.524,223.609C322.937,223.609 326.516,220.031 326.516,215.618L326.516,195.838C326.516,182.04 336.653,171.294 349.245,171.294L349.928,171.294C362.485,171.294 372.728,182.247 372.759,196.01C372.865,239.35 372.841,253.842 372.79,293.214Z" style="fill-rule:nonzero;stroke:black;stroke-width:12px;stroke-linecap:butt;stroke-miterlimit:2;"/>
                </g>
            </g>
        </g>
        <g transform="matrix(5.77581e-17,0.943261,-1,6.12323e-17,2837.98,-605.973)">
            <path d="M1520.04,1668.33L1858.12,1668.33" style="fill:none;stroke:rgb(179,179,179);stroke-width:0.86px;"/>
        </g>
    </g>
</svg>
