<?xml version="1.0" encoding="UTF-8" standalone="no"?>
<!DOCTYPE svg PUBLIC "-//W3C//DTD SVG 1.1//EN" "http://www.w3.org/Graphics/SVG/1.1/DTD/svg11.dtd">
<svg width="100%" height="100%" viewBox="0 0 769 639" version="1.1" xmlns="http://www.w3.org/2000/svg" xmlns:xlink="http://www.w3.org/1999/xlink" xml:space="preserve" xmlns:serif="http://www.serif.com/" style="fill-rule:evenodd;clip-rule:evenodd;stroke-linecap:round;stroke-linejoin:round;stroke-miterlimit:1.5;">
    <g transform="matrix(1,0,0,1,-851.39,-743.514)">
        <g>
            <g transform="matrix(1.02919,0,0,1.02741,-466.892,-494.182)">
                <rect x="1281.3" y="1205.08" width="746.296" height="620.78" style="fill:white;stroke:rgb(179,179,179);stroke-width:0.81px;"/>
            </g>
            <g transform="matrix(1,0,0,1,-1269.6,-48.1999)">
                <g transform="matrix(-3.23767,-3.80929,1.7665,-1.50142,5654.34,7688.4)">
                    <path d="M1403.51,757.4L1408.84,753.05" style="fill:none;stroke:black;stroke-width:1.07px;"/>
                </g>
                <g transform="matrix(-3.23767,-3.80929,1.7665,-1.50142,5654.34,7676.43)">
                    <path d="M1403.51,757.4L1408.84,753.05" style="fill:none;stroke:black;stroke-width:1.07px;"/>
                </g>
                <g transform="matrix(-3.23767,-3.80929,1.7665,-1.50142,5654.34,7665.17)">
                    <path d="M1403.51,757.4L1408.84,753.05" style="fill:none;stroke:black;stroke-width:1.07px;"/>
                </g>
            </g>
            <g transform="matrix(0.179274,0,0,0.179274,1285.08,1196.81)">
                <g transform="matrix(1,0,0,1,-224,-224)">
                    <clipPath id="_clip1">
                        <rect x="0" y="0" width="448" height="448"/>
                    </clipPath>
                    <g clip-path="url(#_clip1)">
                        <path d="M349.928,155.311L349.245,155.311C339.9,155.252 330.878,158.706 323.96,164.988C318.442,149.43 304.207,138.204 287.526,138.204C277.291,138.204 267.5,142.383 260.418,149.77C253.976,136.534 240.912,127.341 225.881,127.341L225.155,127.341C216.961,127.325 209.008,130.138 202.648,135.305L202.648,41.011C202.648,18.394 185.081,0 163.674,0C142.286,0 124.797,18.379 124.782,40.98L124.657,165.175L75.549,211.353C61.314,224.67 56.6,245.297 63.632,263.477L114.905,396.924C115.011,397.205 115.136,397.24 115.272,397.509C131.56,428.8 162.55,447.999 196.155,447.999L296.247,447.999C347.181,447.999 388.66,404.108 388.711,349.861C388.734,325.684 388.758,307.761 388.777,293.117C388.828,253.721 388.848,239.284 388.746,195.912C388.691,173.358 371.28,155.311 349.928,155.311ZM372.79,293.214C372.775,307.863 372.748,325.664 372.728,349.845C372.685,395.289 338.374,432.016 296.247,432.016L196.155,432.016C168.672,432.016 143.235,416.279 129.655,390.521L78.542,257.624C73.852,245.527 76.993,231.792 86.479,222.934L124.606,187.101L124.559,250.167C124.555,254.588 128.126,258.182 132.547,258.201L132.551,258.201C136.98,258.197 140.573,254.619 140.601,250.194L140.714,168.668L140.714,168.605L140.745,40.991C140.757,27.205 151.121,15.983 163.709,15.983C176.297,15.983 186.665,27.209 186.665,41.011L186.665,167.134C186.665,167.571 186.645,168.012 186.645,168.457C186.645,168.648 186.665,168.835 186.665,169.027L186.665,222.954C186.665,227.367 190.243,230.945 194.656,230.945C199.07,230.945 202.648,227.367 202.648,222.954L202.648,167.403C202.648,154.097 212.887,143.331 225.155,143.331L225.881,143.331C238.465,143.331 248.599,154.671 248.599,168.473L248.599,217.814C248.599,222.228 252.177,225.806 256.59,225.806C261.003,225.806 264.582,222.228 264.582,217.814L264.582,179.094C264.582,165.292 274.93,154.066 287.592,154.066C300.18,154.066 310.533,165.292 310.533,179.094L310.533,215.618C310.533,220.031 314.111,223.609 318.524,223.609C322.937,223.609 326.516,220.031 326.516,215.618L326.516,195.838C326.516,182.04 336.653,171.294 349.245,171.294L349.928,171.294C362.485,171.294 372.728,182.247 372.759,196.01C372.865,239.35 372.841,253.842 372.79,293.214Z" style="fill:rgb(217,217,217);fill-rule:nonzero;stroke:rgb(217,217,217);stroke-width:12px;stroke-linecap:butt;stroke-miterlimit:2;"/>
                    </g>
                </g>
            </g>
            <g transform="matrix(1,0,0,1,-815.455,-100.303)">
                <g transform="matrix(0.986932,-0.275685,0.283437,1.01468,-788.92,712.486)">
                    <ellipse cx="2404.22" cy="949.048" rx="67.238" ry="54.449" style="fill:rgb(89,89,89);"/>
                </g>
                <g transform="matrix(1,0,0,1,-30.3275,5.21504)">
                    <g transform="matrix(41.6667,0,0,41.6667,1839.04,1024.92)">
                        <path d="M0.731,-0.021L0.731,-0.015C0.719,0.003 0.703,0.013 0.685,0.013C0.671,0.013 0.659,0.006 0.649,-0.006C0.641,-0.036 0.586,-0.085 0.483,-0.153C0.38,-0.22 0.312,-0.254 0.279,-0.254L0.256,-0.254C0.245,-0.253 0.237,-0.253 0.233,-0.253L0.233,-0.204C0.233,-0.187 0.235,-0.165 0.239,-0.138C0.243,-0.104 0.247,-0.084 0.253,-0.076C0.268,-0.056 0.275,-0.044 0.275,-0.039C0.275,-0.024 0.269,-0.011 0.258,-0.002C0.246,0.008 0.233,0.013 0.218,0.013C0.186,0.013 0.161,0.001 0.144,-0.021C0.127,-0.041 0.119,-0.124 0.119,-0.269C0.101,-0.269 0.083,-0.274 0.064,-0.285C0.042,-0.298 0.031,-0.313 0.031,-0.328C0.031,-0.358 0.059,-0.38 0.115,-0.394C0.118,-0.42 0.121,-0.455 0.124,-0.5C0.125,-0.551 0.128,-0.586 0.13,-0.606C0.135,-0.633 0.141,-0.673 0.149,-0.726L0.139,-0.726C0.105,-0.725 0.089,-0.74 0.089,-0.77C0.089,-0.796 0.099,-0.812 0.119,-0.819C0.133,-0.823 0.147,-0.827 0.161,-0.831C0.178,-0.846 0.191,-0.856 0.201,-0.861C0.21,-0.865 0.225,-0.868 0.246,-0.868C0.261,-0.868 0.269,-0.861 0.269,-0.848C0.269,-0.843 0.279,-0.841 0.3,-0.841C0.398,-0.841 0.48,-0.822 0.549,-0.783C0.633,-0.735 0.675,-0.666 0.675,-0.576C0.675,-0.507 0.653,-0.45 0.61,-0.405C0.581,-0.374 0.529,-0.34 0.455,-0.301C0.514,-0.264 0.573,-0.226 0.631,-0.189C0.699,-0.138 0.732,-0.082 0.731,-0.021ZM0.56,-0.581C0.56,-0.635 0.533,-0.675 0.479,-0.703C0.435,-0.725 0.385,-0.736 0.326,-0.736C0.319,-0.736 0.301,-0.735 0.273,-0.733C0.273,-0.703 0.265,-0.651 0.249,-0.578C0.24,-0.533 0.233,-0.469 0.23,-0.384C0.278,-0.367 0.308,-0.359 0.32,-0.359C0.33,-0.359 0.345,-0.362 0.364,-0.368C0.419,-0.384 0.464,-0.41 0.499,-0.444C0.54,-0.483 0.56,-0.529 0.56,-0.581Z" style="fill:rgb(235,235,235);fill-rule:nonzero;"/>
                    </g>
                    <g transform="matrix(41.6667,0,0,41.6667,1869.93,1024.92)">
                        <path d="M0.691,-0.221C0.691,-0.181 0.673,-0.161 0.638,-0.16C0.642,-0.141 0.651,-0.115 0.665,-0.083C0.664,-0.064 0.657,-0.049 0.643,-0.038C0.628,-0.026 0.612,-0.02 0.593,-0.02C0.578,-0.02 0.56,-0.025 0.54,-0.034C0.529,-0.055 0.524,-0.081 0.524,-0.111C0.524,-0.119 0.524,-0.13 0.525,-0.144C0.526,-0.158 0.526,-0.168 0.526,-0.175C0.526,-0.169 0.513,-0.166 0.485,-0.166C0.438,-0.166 0.383,-0.164 0.319,-0.16C0.227,-0.155 0.177,-0.148 0.169,-0.139C0.161,-0.13 0.156,-0.085 0.154,-0.005C0.143,0.011 0.129,0.019 0.113,0.019C0.095,0.019 0.077,0.011 0.059,-0.003C0.04,-0.018 0.031,-0.033 0.031,-0.05C0.031,-0.056 0.039,-0.079 0.054,-0.12C0.07,-0.179 0.097,-0.268 0.135,-0.386C0.247,-0.692 0.34,-0.845 0.414,-0.845C0.486,-0.845 0.542,-0.764 0.581,-0.603C0.599,-0.53 0.615,-0.419 0.63,-0.269C0.652,-0.264 0.665,-0.26 0.671,-0.256C0.685,-0.249 0.691,-0.237 0.691,-0.221ZM0.516,-0.269C0.48,-0.56 0.447,-0.705 0.418,-0.705C0.394,-0.705 0.353,-0.637 0.295,-0.5C0.253,-0.402 0.22,-0.316 0.196,-0.244C0.223,-0.25 0.263,-0.257 0.315,-0.265C0.363,-0.271 0.43,-0.272 0.516,-0.269Z" style="fill:rgb(235,235,235);fill-rule:nonzero;"/>
                    </g>
                    <g transform="matrix(41.6667,0,0,41.6667,1901.38,1024.92)">
                        <path d="M0.593,-0.123C0.593,-0.072 0.563,-0.033 0.504,-0.005C0.457,0.018 0.405,0.029 0.348,0.029C0.295,0.029 0.233,0.017 0.163,-0.006C0.075,-0.036 0.031,-0.071 0.031,-0.111C0.031,-0.126 0.037,-0.139 0.048,-0.15C0.058,-0.161 0.071,-0.166 0.086,-0.166C0.109,-0.166 0.13,-0.157 0.149,-0.139C0.181,-0.111 0.199,-0.096 0.201,-0.094C0.23,-0.077 0.283,-0.069 0.359,-0.069C0.426,-0.069 0.46,-0.084 0.46,-0.115C0.46,-0.141 0.428,-0.177 0.365,-0.223C0.321,-0.251 0.277,-0.279 0.233,-0.308C0.176,-0.346 0.135,-0.382 0.109,-0.416C0.075,-0.461 0.058,-0.513 0.058,-0.571C0.058,-0.645 0.08,-0.71 0.125,-0.768C0.173,-0.831 0.233,-0.863 0.305,-0.863C0.367,-0.863 0.419,-0.846 0.461,-0.812C0.504,-0.778 0.531,-0.731 0.543,-0.67C0.545,-0.647 0.55,-0.612 0.558,-0.566C0.561,-0.553 0.563,-0.543 0.563,-0.536C0.563,-0.506 0.558,-0.481 0.548,-0.46C0.535,-0.432 0.515,-0.418 0.489,-0.418C0.474,-0.418 0.459,-0.424 0.446,-0.438C0.432,-0.452 0.425,-0.466 0.425,-0.481C0.425,-0.492 0.428,-0.508 0.433,-0.529C0.438,-0.551 0.44,-0.567 0.44,-0.578C0.44,-0.69 0.403,-0.746 0.328,-0.746C0.286,-0.746 0.251,-0.729 0.223,-0.693C0.194,-0.658 0.18,-0.619 0.18,-0.576C0.18,-0.516 0.216,-0.458 0.288,-0.401C0.353,-0.357 0.42,-0.313 0.486,-0.269C0.557,-0.218 0.593,-0.169 0.593,-0.123Z" style="fill:rgb(235,235,235);fill-rule:nonzero;"/>
                    </g>
                </g>
            </g>
            <g transform="matrix(1,0,0,1,-519.415,821.33)">
                <g transform="matrix(0.986932,-0.275685,0.283437,1.01468,-676.462,65.8573)">
                    <ellipse cx="2404.22" cy="949.048" rx="67.238" ry="54.449" style="fill:rgb(217,217,217);"/>
                </g>
                <g transform="matrix(1,0,0,1,82.1301,-641.414)">
                    <g transform="matrix(41.6667,0,0,41.6667,1839.04,1024.92)">
                        <path d="M0.628,-0.253C0.628,-0.18 0.596,-0.115 0.533,-0.059C0.469,-0.002 0.401,0.026 0.328,0.026C0.222,0.026 0.143,-0.015 0.093,-0.098C0.052,-0.165 0.031,-0.255 0.031,-0.369C0.031,-0.484 0.056,-0.588 0.105,-0.681C0.164,-0.795 0.246,-0.853 0.35,-0.853C0.402,-0.853 0.447,-0.84 0.485,-0.816C0.528,-0.789 0.554,-0.751 0.564,-0.704C0.572,-0.665 0.576,-0.646 0.576,-0.648C0.576,-0.538 0.551,-0.483 0.501,-0.483C0.486,-0.483 0.472,-0.488 0.46,-0.498C0.448,-0.507 0.441,-0.52 0.441,-0.535C0.441,-0.543 0.446,-0.555 0.454,-0.571C0.463,-0.587 0.468,-0.6 0.468,-0.609C0.468,-0.656 0.462,-0.689 0.45,-0.706C0.435,-0.73 0.405,-0.743 0.361,-0.743C0.316,-0.743 0.275,-0.715 0.236,-0.659C0.205,-0.612 0.184,-0.563 0.174,-0.513C0.164,-0.458 0.159,-0.408 0.159,-0.363C0.159,-0.284 0.165,-0.228 0.178,-0.193C0.198,-0.136 0.238,-0.099 0.299,-0.081C0.317,-0.076 0.332,-0.074 0.344,-0.074C0.374,-0.074 0.405,-0.086 0.439,-0.111C0.468,-0.135 0.49,-0.161 0.506,-0.19C0.515,-0.208 0.521,-0.23 0.523,-0.256L0.518,-0.26C0.458,-0.26 0.413,-0.253 0.38,-0.239C0.37,-0.234 0.36,-0.228 0.35,-0.223C0.337,-0.217 0.326,-0.214 0.319,-0.214C0.298,-0.214 0.282,-0.223 0.27,-0.24C0.258,-0.258 0.253,-0.277 0.253,-0.299C0.253,-0.317 0.262,-0.332 0.281,-0.344C0.294,-0.35 0.333,-0.358 0.399,-0.368C0.459,-0.375 0.501,-0.379 0.525,-0.379C0.593,-0.379 0.628,-0.337 0.628,-0.253Z" style="fill:rgb(235,235,235);fill-rule:nonzero;"/>
                    </g>
                    <g transform="matrix(41.6667,0,0,41.6667,1865.19,1024.92)">
                        <path d="M0.614,-0.76C0.614,-0.746 0.609,-0.734 0.601,-0.723C0.592,-0.713 0.581,-0.708 0.568,-0.708C0.56,-0.708 0.546,-0.711 0.526,-0.718C0.505,-0.725 0.488,-0.729 0.475,-0.729L0.389,-0.729C0.376,-0.729 0.369,-0.728 0.368,-0.726C0.367,-0.724 0.365,-0.715 0.364,-0.701C0.36,-0.68 0.355,-0.649 0.349,-0.608C0.333,-0.494 0.325,-0.366 0.325,-0.224C0.325,-0.127 0.336,-0.061 0.359,-0.025L0.359,0.009C0.343,0.017 0.33,0.021 0.321,0.021C0.268,0.021 0.233,-0.005 0.218,-0.056C0.21,-0.081 0.206,-0.129 0.206,-0.2C0.206,-0.282 0.208,-0.347 0.211,-0.393C0.212,-0.413 0.217,-0.46 0.225,-0.536C0.232,-0.595 0.235,-0.643 0.235,-0.68L0.234,-0.716C0.222,-0.715 0.2,-0.713 0.166,-0.708C0.139,-0.703 0.116,-0.701 0.099,-0.701C0.041,-0.701 0.013,-0.718 0.013,-0.753C0.013,-0.767 0.017,-0.775 0.025,-0.778C0.038,-0.796 0.103,-0.812 0.221,-0.825C0.313,-0.835 0.387,-0.84 0.444,-0.84C0.484,-0.84 0.519,-0.835 0.549,-0.825C0.592,-0.811 0.614,-0.789 0.614,-0.76Z" style="fill:rgb(235,235,235);fill-rule:nonzero;"/>
                    </g>
                    <g transform="matrix(41.6667,0,0,41.6667,1892.43,1024.92)">
                        <path d="M0.634,-0.518C0.634,-0.499 0.632,-0.483 0.63,-0.469C0.598,-0.276 0.506,-0.18 0.356,-0.18C0.28,-0.18 0.211,-0.2 0.15,-0.239L0.15,-0.213C0.149,-0.157 0.154,-0.118 0.165,-0.098C0.181,-0.068 0.189,-0.052 0.189,-0.048C0.189,-0.031 0.182,-0.016 0.169,-0.004C0.156,0.009 0.142,0.015 0.125,0.015C0.088,0.015 0.062,0.002 0.049,-0.025C0.041,-0.041 0.036,-0.07 0.034,-0.114C0.032,-0.142 0.031,-0.175 0.031,-0.211C0.031,-0.225 0.033,-0.247 0.037,-0.275C0.041,-0.303 0.043,-0.325 0.043,-0.34L0.043,-0.425C0.042,-0.45 0.043,-0.487 0.048,-0.536C0.052,-0.584 0.054,-0.62 0.054,-0.644L0.054,-0.756C0.054,-0.758 0.05,-0.78 0.041,-0.824C0.063,-0.844 0.083,-0.854 0.103,-0.854C0.125,-0.854 0.143,-0.846 0.156,-0.829C0.17,-0.813 0.176,-0.793 0.176,-0.77C0.176,-0.764 0.176,-0.758 0.175,-0.753C0.23,-0.825 0.3,-0.861 0.384,-0.861C0.463,-0.861 0.525,-0.832 0.571,-0.773C0.612,-0.719 0.633,-0.652 0.633,-0.57L0.633,-0.544C0.633,-0.532 0.634,-0.523 0.634,-0.518ZM0.521,-0.538C0.521,-0.595 0.513,-0.644 0.495,-0.685C0.471,-0.74 0.434,-0.768 0.384,-0.768C0.32,-0.768 0.265,-0.728 0.219,-0.65C0.178,-0.582 0.158,-0.513 0.158,-0.444C0.158,-0.328 0.216,-0.27 0.333,-0.27C0.395,-0.27 0.441,-0.297 0.47,-0.351C0.487,-0.381 0.502,-0.436 0.518,-0.515C0.52,-0.531 0.521,-0.538 0.521,-0.538Z" style="fill:rgb(235,235,235);fill-rule:nonzero;"/>
                    </g>
                </g>
            </g>
            <g transform="matrix(1,0,0,1,-853.528,224.432)">
                <g transform="matrix(0.986932,-0.275685,0.283437,1.01468,-667.642,480.708)">
                    <ellipse cx="2404.22" cy="949.048" rx="67.238" ry="54.449" style="fill:rgb(89,89,89);"/>
                </g>
                <g transform="matrix(1,0,0,1,90.9504,-226.563)">
                    <g transform="matrix(41.6667,0,0,41.6667,1839.04,1024.92)">
                        <path d="M0.628,-0.253C0.628,-0.18 0.596,-0.115 0.533,-0.059C0.469,-0.002 0.401,0.026 0.328,0.026C0.222,0.026 0.143,-0.015 0.093,-0.098C0.052,-0.165 0.031,-0.255 0.031,-0.369C0.031,-0.484 0.056,-0.588 0.105,-0.681C0.164,-0.795 0.246,-0.853 0.35,-0.853C0.402,-0.853 0.447,-0.84 0.485,-0.816C0.528,-0.789 0.554,-0.751 0.564,-0.704C0.572,-0.665 0.576,-0.646 0.576,-0.648C0.576,-0.538 0.551,-0.483 0.501,-0.483C0.486,-0.483 0.472,-0.488 0.46,-0.498C0.448,-0.507 0.441,-0.52 0.441,-0.535C0.441,-0.543 0.446,-0.555 0.454,-0.571C0.463,-0.587 0.468,-0.6 0.468,-0.609C0.468,-0.656 0.462,-0.689 0.45,-0.706C0.435,-0.73 0.405,-0.743 0.361,-0.743C0.316,-0.743 0.275,-0.715 0.236,-0.659C0.205,-0.612 0.184,-0.563 0.174,-0.513C0.164,-0.458 0.159,-0.408 0.159,-0.363C0.159,-0.284 0.165,-0.228 0.178,-0.193C0.198,-0.136 0.238,-0.099 0.299,-0.081C0.317,-0.076 0.332,-0.074 0.344,-0.074C0.374,-0.074 0.405,-0.086 0.439,-0.111C0.468,-0.135 0.49,-0.161 0.506,-0.19C0.515,-0.208 0.521,-0.23 0.523,-0.256L0.518,-0.26C0.458,-0.26 0.413,-0.253 0.38,-0.239C0.37,-0.234 0.36,-0.228 0.35,-0.223C0.337,-0.217 0.326,-0.214 0.319,-0.214C0.298,-0.214 0.282,-0.223 0.27,-0.24C0.258,-0.258 0.253,-0.277 0.253,-0.299C0.253,-0.317 0.262,-0.332 0.281,-0.344C0.294,-0.35 0.333,-0.358 0.399,-0.368C0.459,-0.375 0.501,-0.379 0.525,-0.379C0.593,-0.379 0.628,-0.337 0.628,-0.253Z" style="fill:rgb(235,235,235);fill-rule:nonzero;"/>
                    </g>
                    <g transform="matrix(41.6667,0,0,41.6667,1865.19,1024.92)">
                        <path d="M0.614,-0.76C0.614,-0.746 0.609,-0.734 0.601,-0.723C0.592,-0.713 0.581,-0.708 0.568,-0.708C0.56,-0.708 0.546,-0.711 0.526,-0.718C0.505,-0.725 0.488,-0.729 0.475,-0.729L0.389,-0.729C0.376,-0.729 0.369,-0.728 0.368,-0.726C0.367,-0.724 0.365,-0.715 0.364,-0.701C0.36,-0.68 0.355,-0.649 0.349,-0.608C0.333,-0.494 0.325,-0.366 0.325,-0.224C0.325,-0.127 0.336,-0.061 0.359,-0.025L0.359,0.009C0.343,0.017 0.33,0.021 0.321,0.021C0.268,0.021 0.233,-0.005 0.218,-0.056C0.21,-0.081 0.206,-0.129 0.206,-0.2C0.206,-0.282 0.208,-0.347 0.211,-0.393C0.212,-0.413 0.217,-0.46 0.225,-0.536C0.232,-0.595 0.235,-0.643 0.235,-0.68L0.234,-0.716C0.222,-0.715 0.2,-0.713 0.166,-0.708C0.139,-0.703 0.116,-0.701 0.099,-0.701C0.041,-0.701 0.013,-0.718 0.013,-0.753C0.013,-0.767 0.017,-0.775 0.025,-0.778C0.038,-0.796 0.103,-0.812 0.221,-0.825C0.313,-0.835 0.387,-0.84 0.444,-0.84C0.484,-0.84 0.519,-0.835 0.549,-0.825C0.592,-0.811 0.614,-0.789 0.614,-0.76Z" style="fill:rgb(235,235,235);fill-rule:nonzero;"/>
                    </g>
                    <g transform="matrix(41.6667,0,0,41.6667,1892.43,1024.92)">
                        <path d="M0.634,-0.518C0.634,-0.499 0.632,-0.483 0.63,-0.469C0.598,-0.276 0.506,-0.18 0.356,-0.18C0.28,-0.18 0.211,-0.2 0.15,-0.239L0.15,-0.213C0.149,-0.157 0.154,-0.118 0.165,-0.098C0.181,-0.068 0.189,-0.052 0.189,-0.048C0.189,-0.031 0.182,-0.016 0.169,-0.004C0.156,0.009 0.142,0.015 0.125,0.015C0.088,0.015 0.062,0.002 0.049,-0.025C0.041,-0.041 0.036,-0.07 0.034,-0.114C0.032,-0.142 0.031,-0.175 0.031,-0.211C0.031,-0.225 0.033,-0.247 0.037,-0.275C0.041,-0.303 0.043,-0.325 0.043,-0.34L0.043,-0.425C0.042,-0.45 0.043,-0.487 0.048,-0.536C0.052,-0.584 0.054,-0.62 0.054,-0.644L0.054,-0.756C0.054,-0.758 0.05,-0.78 0.041,-0.824C0.063,-0.844 0.083,-0.854 0.103,-0.854C0.125,-0.854 0.143,-0.846 0.156,-0.829C0.17,-0.813 0.176,-0.793 0.176,-0.77C0.176,-0.764 0.176,-0.758 0.175,-0.753C0.23,-0.825 0.3,-0.861 0.384,-0.861C0.463,-0.861 0.525,-0.832 0.571,-0.773C0.612,-0.719 0.633,-0.652 0.633,-0.57L0.633,-0.544C0.633,-0.532 0.634,-0.523 0.634,-0.518ZM0.521,-0.538C0.521,-0.595 0.513,-0.644 0.495,-0.685C0.471,-0.74 0.434,-0.768 0.384,-0.768C0.32,-0.768 0.265,-0.728 0.219,-0.65C0.178,-0.582 0.158,-0.513 0.158,-0.444C0.158,-0.328 0.216,-0.27 0.333,-0.27C0.395,-0.27 0.441,-0.297 0.47,-0.351C0.487,-0.381 0.502,-0.436 0.518,-0.515C0.52,-0.531 0.521,-0.538 0.521,-0.538Z" style="fill:rgb(235,235,235);fill-rule:nonzero;"/>
                    </g>
                </g>
            </g>
            <g transform="matrix(1,0,0,1,3.02355,40.5401)">
                <g transform="matrix(0.814754,0,0,0.814754,-764.333,74.1849)">
                    <rect x="2105.43" y="887" width="314" height="314" style="fill:none;stroke:rgb(191,191,191);stroke-width:3.32px;"/>
                </g>
                <g transform="matrix(1,0,0,1,-1215.82,-110.467)">
                    <g transform="matrix(33.3333,0,0,33.3333,2219.95,898.539)">
                        <path d="M0.731,-0.021L0.731,-0.015C0.719,0.003 0.703,0.013 0.685,0.013C0.671,0.013 0.659,0.006 0.649,-0.006C0.641,-0.036 0.586,-0.085 0.483,-0.153C0.38,-0.22 0.312,-0.254 0.279,-0.254L0.256,-0.254C0.245,-0.253 0.237,-0.253 0.233,-0.253L0.233,-0.204C0.233,-0.187 0.235,-0.165 0.239,-0.138C0.243,-0.104 0.247,-0.084 0.253,-0.076C0.268,-0.056 0.275,-0.044 0.275,-0.039C0.275,-0.024 0.269,-0.011 0.258,-0.002C0.246,0.008 0.233,0.013 0.218,0.013C0.186,0.013 0.161,0.001 0.144,-0.021C0.127,-0.041 0.119,-0.124 0.119,-0.269C0.101,-0.269 0.083,-0.274 0.064,-0.285C0.042,-0.298 0.031,-0.313 0.031,-0.328C0.031,-0.358 0.059,-0.38 0.115,-0.394C0.118,-0.42 0.121,-0.455 0.124,-0.5C0.125,-0.551 0.128,-0.586 0.13,-0.606C0.135,-0.633 0.141,-0.673 0.149,-0.726L0.139,-0.726C0.105,-0.725 0.089,-0.74 0.089,-0.77C0.089,-0.796 0.099,-0.812 0.119,-0.819C0.133,-0.823 0.147,-0.827 0.161,-0.831C0.178,-0.846 0.191,-0.856 0.201,-0.861C0.21,-0.865 0.225,-0.868 0.246,-0.868C0.261,-0.868 0.269,-0.861 0.269,-0.848C0.269,-0.843 0.279,-0.841 0.3,-0.841C0.398,-0.841 0.48,-0.822 0.549,-0.783C0.633,-0.735 0.675,-0.666 0.675,-0.576C0.675,-0.507 0.653,-0.45 0.61,-0.405C0.581,-0.374 0.529,-0.34 0.455,-0.301C0.514,-0.264 0.573,-0.226 0.631,-0.189C0.699,-0.138 0.732,-0.082 0.731,-0.021ZM0.56,-0.581C0.56,-0.635 0.533,-0.675 0.479,-0.703C0.435,-0.725 0.385,-0.736 0.326,-0.736C0.319,-0.736 0.301,-0.735 0.273,-0.733C0.273,-0.703 0.265,-0.651 0.249,-0.578C0.24,-0.533 0.233,-0.469 0.23,-0.384C0.278,-0.367 0.308,-0.359 0.32,-0.359C0.33,-0.359 0.345,-0.362 0.364,-0.368C0.419,-0.384 0.464,-0.41 0.499,-0.444C0.54,-0.483 0.56,-0.529 0.56,-0.581Z" style="fill:white;fill-rule:nonzero;"/>
                    </g>
                    <g transform="matrix(33.3333,0,0,33.3333,2244.66,898.539)">
                        <path d="M0.691,-0.221C0.691,-0.181 0.673,-0.161 0.638,-0.16C0.642,-0.141 0.651,-0.115 0.665,-0.083C0.664,-0.064 0.657,-0.049 0.643,-0.038C0.628,-0.026 0.612,-0.02 0.593,-0.02C0.578,-0.02 0.56,-0.025 0.54,-0.034C0.529,-0.055 0.524,-0.081 0.524,-0.111C0.524,-0.119 0.524,-0.13 0.525,-0.144C0.526,-0.158 0.526,-0.168 0.526,-0.175C0.526,-0.169 0.513,-0.166 0.485,-0.166C0.438,-0.166 0.383,-0.164 0.319,-0.16C0.227,-0.155 0.177,-0.148 0.169,-0.139C0.161,-0.13 0.156,-0.085 0.154,-0.005C0.143,0.011 0.129,0.019 0.113,0.019C0.095,0.019 0.077,0.011 0.059,-0.003C0.04,-0.018 0.031,-0.033 0.031,-0.05C0.031,-0.056 0.039,-0.079 0.054,-0.12C0.07,-0.179 0.097,-0.268 0.135,-0.386C0.247,-0.692 0.34,-0.845 0.414,-0.845C0.486,-0.845 0.542,-0.764 0.581,-0.603C0.599,-0.53 0.615,-0.419 0.63,-0.269C0.652,-0.264 0.665,-0.26 0.671,-0.256C0.685,-0.249 0.691,-0.237 0.691,-0.221ZM0.516,-0.269C0.48,-0.56 0.447,-0.705 0.418,-0.705C0.394,-0.705 0.353,-0.637 0.295,-0.5C0.253,-0.402 0.22,-0.316 0.196,-0.244C0.223,-0.25 0.263,-0.257 0.315,-0.265C0.363,-0.271 0.43,-0.272 0.516,-0.269Z" style="fill:white;fill-rule:nonzero;"/>
                    </g>
                    <g transform="matrix(33.3333,0,0,33.3333,2269.83,898.539)">
                        <path d="M0.593,-0.123C0.593,-0.072 0.563,-0.033 0.504,-0.005C0.457,0.018 0.405,0.029 0.348,0.029C0.295,0.029 0.233,0.017 0.163,-0.006C0.075,-0.036 0.031,-0.071 0.031,-0.111C0.031,-0.126 0.037,-0.139 0.048,-0.15C0.058,-0.161 0.071,-0.166 0.086,-0.166C0.109,-0.166 0.13,-0.157 0.149,-0.139C0.181,-0.111 0.199,-0.096 0.201,-0.094C0.23,-0.077 0.283,-0.069 0.359,-0.069C0.426,-0.069 0.46,-0.084 0.46,-0.115C0.46,-0.141 0.428,-0.177 0.365,-0.223C0.321,-0.251 0.277,-0.279 0.233,-0.308C0.176,-0.346 0.135,-0.382 0.109,-0.416C0.075,-0.461 0.058,-0.513 0.058,-0.571C0.058,-0.645 0.08,-0.71 0.125,-0.768C0.173,-0.831 0.233,-0.863 0.305,-0.863C0.367,-0.863 0.419,-0.846 0.461,-0.812C0.504,-0.778 0.531,-0.731 0.543,-0.67C0.545,-0.647 0.55,-0.612 0.558,-0.566C0.561,-0.553 0.563,-0.543 0.563,-0.536C0.563,-0.506 0.558,-0.481 0.548,-0.46C0.535,-0.432 0.515,-0.418 0.489,-0.418C0.474,-0.418 0.459,-0.424 0.446,-0.438C0.432,-0.452 0.425,-0.466 0.425,-0.481C0.425,-0.492 0.428,-0.508 0.433,-0.529C0.438,-0.551 0.44,-0.567 0.44,-0.578C0.44,-0.69 0.403,-0.746 0.328,-0.746C0.286,-0.746 0.251,-0.729 0.223,-0.693C0.194,-0.658 0.18,-0.619 0.18,-0.576C0.18,-0.516 0.216,-0.458 0.288,-0.401C0.353,-0.357 0.42,-0.313 0.486,-0.269C0.557,-0.218 0.593,-0.169 0.593,-0.123Z" style="fill:white;fill-rule:nonzero;"/>
                    </g>
                    <g transform="matrix(33.3333,0,0,33.3333,2290.91,898.539)">
                        <path d="M0.368,-0.35C0.363,-0.348 0.36,-0.345 0.36,-0.341C0.36,-0.339 0.361,-0.335 0.363,-0.331C0.365,-0.327 0.366,-0.324 0.366,-0.321C0.366,-0.312 0.352,-0.308 0.324,-0.308C0.318,-0.308 0.31,-0.309 0.3,-0.311C0.29,-0.313 0.282,-0.314 0.276,-0.314C0.262,-0.314 0.241,-0.313 0.212,-0.313C0.183,-0.312 0.161,-0.311 0.146,-0.311C0.07,-0.311 0.031,-0.325 0.031,-0.354C0.031,-0.378 0.042,-0.39 0.064,-0.39C0.07,-0.39 0.08,-0.388 0.093,-0.385C0.106,-0.382 0.116,-0.38 0.123,-0.38C0.14,-0.38 0.166,-0.381 0.202,-0.383C0.237,-0.384 0.264,-0.385 0.281,-0.385C0.333,-0.385 0.362,-0.373 0.368,-0.35Z" style="fill:white;fill-rule:nonzero;"/>
                    </g>
                    <g transform="matrix(33.3333,0,0,33.3333,2304.79,898.539)">
                        <path d="M0.628,-0.253C0.628,-0.18 0.596,-0.115 0.533,-0.059C0.469,-0.002 0.401,0.026 0.328,0.026C0.222,0.026 0.143,-0.015 0.093,-0.098C0.052,-0.165 0.031,-0.255 0.031,-0.369C0.031,-0.484 0.056,-0.588 0.105,-0.681C0.164,-0.795 0.246,-0.853 0.35,-0.853C0.402,-0.853 0.447,-0.84 0.485,-0.816C0.528,-0.789 0.554,-0.751 0.564,-0.704C0.572,-0.665 0.576,-0.646 0.576,-0.648C0.576,-0.538 0.551,-0.483 0.501,-0.483C0.486,-0.483 0.472,-0.488 0.46,-0.498C0.448,-0.507 0.441,-0.52 0.441,-0.535C0.441,-0.543 0.446,-0.555 0.454,-0.571C0.463,-0.587 0.468,-0.6 0.468,-0.609C0.468,-0.656 0.462,-0.689 0.45,-0.706C0.435,-0.73 0.405,-0.743 0.361,-0.743C0.316,-0.743 0.275,-0.715 0.236,-0.659C0.205,-0.612 0.184,-0.563 0.174,-0.513C0.164,-0.458 0.159,-0.408 0.159,-0.363C0.159,-0.284 0.165,-0.228 0.178,-0.193C0.198,-0.136 0.238,-0.099 0.299,-0.081C0.317,-0.076 0.332,-0.074 0.344,-0.074C0.374,-0.074 0.405,-0.086 0.439,-0.111C0.468,-0.135 0.49,-0.161 0.506,-0.19C0.515,-0.208 0.521,-0.23 0.523,-0.256L0.518,-0.26C0.458,-0.26 0.413,-0.253 0.38,-0.239C0.37,-0.234 0.36,-0.228 0.35,-0.223C0.337,-0.217 0.326,-0.214 0.319,-0.214C0.298,-0.214 0.282,-0.223 0.27,-0.24C0.258,-0.258 0.253,-0.277 0.253,-0.299C0.253,-0.317 0.262,-0.332 0.281,-0.344C0.294,-0.35 0.333,-0.358 0.399,-0.368C0.459,-0.375 0.501,-0.379 0.525,-0.379C0.593,-0.379 0.628,-0.337 0.628,-0.253Z" style="fill:white;fill-rule:nonzero;"/>
                    </g>
                    <g transform="matrix(33.3333,0,0,33.3333,2325.7,898.539)">
                        <path d="M0.614,-0.76C0.614,-0.746 0.609,-0.734 0.601,-0.723C0.592,-0.713 0.581,-0.708 0.568,-0.708C0.56,-0.708 0.546,-0.711 0.526,-0.718C0.505,-0.725 0.488,-0.729 0.475,-0.729L0.389,-0.729C0.376,-0.729 0.369,-0.728 0.368,-0.726C0.367,-0.724 0.365,-0.715 0.364,-0.701C0.36,-0.68 0.355,-0.649 0.349,-0.608C0.333,-0.494 0.325,-0.366 0.325,-0.224C0.325,-0.127 0.336,-0.061 0.359,-0.025L0.359,0.009C0.343,0.017 0.33,0.021 0.321,0.021C0.268,0.021 0.233,-0.005 0.218,-0.056C0.21,-0.081 0.206,-0.129 0.206,-0.2C0.206,-0.282 0.208,-0.347 0.211,-0.393C0.212,-0.413 0.217,-0.46 0.225,-0.536C0.232,-0.595 0.235,-0.643 0.235,-0.68L0.234,-0.716C0.222,-0.715 0.2,-0.713 0.166,-0.708C0.139,-0.703 0.116,-0.701 0.099,-0.701C0.041,-0.701 0.013,-0.718 0.013,-0.753C0.013,-0.767 0.017,-0.775 0.025,-0.778C0.038,-0.796 0.103,-0.812 0.221,-0.825C0.313,-0.835 0.387,-0.84 0.444,-0.84C0.484,-0.84 0.519,-0.835 0.549,-0.825C0.592,-0.811 0.614,-0.789 0.614,-0.76Z" style="fill:white;fill-rule:nonzero;"/>
                    </g>
                    <g transform="matrix(33.3333,0,0,33.3333,2347.5,898.539)">
                        <path d="M0.634,-0.518C0.634,-0.499 0.632,-0.483 0.63,-0.469C0.598,-0.276 0.506,-0.18 0.356,-0.18C0.28,-0.18 0.211,-0.2 0.15,-0.239L0.15,-0.213C0.149,-0.157 0.154,-0.118 0.165,-0.098C0.181,-0.068 0.189,-0.052 0.189,-0.048C0.189,-0.031 0.182,-0.016 0.169,-0.004C0.156,0.009 0.142,0.015 0.125,0.015C0.088,0.015 0.062,0.002 0.049,-0.025C0.041,-0.041 0.036,-0.07 0.034,-0.114C0.032,-0.142 0.031,-0.175 0.031,-0.211C0.031,-0.225 0.033,-0.247 0.037,-0.275C0.041,-0.303 0.043,-0.325 0.043,-0.34L0.043,-0.425C0.042,-0.45 0.043,-0.487 0.048,-0.536C0.052,-0.584 0.054,-0.62 0.054,-0.644L0.054,-0.756C0.054,-0.758 0.05,-0.78 0.041,-0.824C0.063,-0.844 0.083,-0.854 0.103,-0.854C0.125,-0.854 0.143,-0.846 0.156,-0.829C0.17,-0.813 0.176,-0.793 0.176,-0.77C0.176,-0.764 0.176,-0.758 0.175,-0.753C0.23,-0.825 0.3,-0.861 0.384,-0.861C0.463,-0.861 0.525,-0.832 0.571,-0.773C0.612,-0.719 0.633,-0.652 0.633,-0.57L0.633,-0.544C0.633,-0.532 0.634,-0.523 0.634,-0.518ZM0.521,-0.538C0.521,-0.595 0.513,-0.644 0.495,-0.685C0.471,-0.74 0.434,-0.768 0.384,-0.768C0.32,-0.768 0.265,-0.728 0.219,-0.65C0.178,-0.582 0.158,-0.513 0.158,-0.444C0.158,-0.328 0.216,-0.27 0.333,-0.27C0.395,-0.27 0.441,-0.297 0.47,-0.351C0.487,-0.381 0.502,-0.436 0.518,-0.515C0.52,-0.531 0.521,-0.538 0.521,-0.538Z" style="fill:white;fill-rule:nonzero;"/>
                    </g>
                </g>
            </g>
            <g transform="matrix(1,0,0,1,-930.596,121.111)">
                <g transform="matrix(-3.23767,-3.80929,1.7665,-1.50142,5654.34,7688.4)">
                    <path d="M1403.51,757.4L1408.84,753.05" style="fill:none;stroke:rgb(217,217,217);stroke-width:1.07px;"/>
                </g>
                <g transform="matrix(-3.23767,-3.80929,1.7665,-1.50142,5654.34,7676.43)">
                    <path d="M1403.51,757.4L1408.84,753.05" style="fill:none;stroke:rgb(217,217,217);stroke-width:1.07px;"/>
                </g>
                <g transform="matrix(-3.23767,-3.80929,1.7665,-1.50142,5654.34,7665.17)">
                    <path d="M1403.51,757.4L1408.84,753.05" style="fill:none;stroke:rgb(217,217,217);stroke-width:1.07px;"/>
                </g>
            </g>
            <g transform="matrix(0.179274,0,0,0.179274,1453.66,1285.8)">
                <g transform="matrix(1,0,0,1,-224,-224)">
                    <clipPath id="_clip2">
                        <rect x="0" y="0" width="448" height="448"/>
                    </clipPath>
                    <g clip-path="url(#_clip2)">
                        <path d="M349.928,155.311L349.245,155.311C339.9,155.252 330.878,158.706 323.96,164.988C318.442,149.43 304.207,138.204 287.526,138.204C277.291,138.204 267.5,142.383 260.418,149.77C253.976,136.534 240.912,127.341 225.881,127.341L225.155,127.341C216.961,127.325 209.008,130.138 202.648,135.305L202.648,41.011C202.648,18.394 185.081,0 163.674,0C142.286,0 124.797,18.379 124.782,40.98L124.657,165.175L75.549,211.353C61.314,224.67 56.6,245.297 63.632,263.477L114.905,396.924C115.011,397.205 115.136,397.24 115.272,397.509C131.56,428.8 162.55,447.999 196.155,447.999L296.247,447.999C347.181,447.999 388.66,404.108 388.711,349.861C388.734,325.684 388.758,307.761 388.777,293.117C388.828,253.721 388.848,239.284 388.746,195.912C388.691,173.358 371.28,155.311 349.928,155.311ZM372.79,293.214C372.775,307.863 372.748,325.664 372.728,349.845C372.685,395.289 338.374,432.016 296.247,432.016L196.155,432.016C168.672,432.016 143.235,416.279 129.655,390.521L78.542,257.624C73.852,245.527 76.993,231.792 86.479,222.934L124.606,187.101L124.559,250.167C124.555,254.588 128.126,258.182 132.547,258.201L132.551,258.201C136.98,258.197 140.573,254.619 140.601,250.194L140.714,168.668L140.714,168.605L140.745,40.991C140.757,27.205 151.121,15.983 163.709,15.983C176.297,15.983 186.665,27.209 186.665,41.011L186.665,167.134C186.665,167.571 186.645,168.012 186.645,168.457C186.645,168.648 186.665,168.835 186.665,169.027L186.665,222.954C186.665,227.367 190.243,230.945 194.656,230.945C199.07,230.945 202.648,227.367 202.648,222.954L202.648,167.403C202.648,154.097 212.887,143.331 225.155,143.331L225.881,143.331C238.465,143.331 248.599,154.671 248.599,168.473L248.599,217.814C248.599,222.228 252.177,225.806 256.59,225.806C261.003,225.806 264.582,222.228 264.582,217.814L264.582,179.094C264.582,165.292 274.93,154.066 287.592,154.066C300.18,154.066 310.533,165.292 310.533,179.094L310.533,215.618C310.533,220.031 314.111,223.609 318.524,223.609C322.937,223.609 326.516,220.031 326.516,215.618L326.516,195.838C326.516,182.04 336.653,171.294 349.245,171.294L349.928,171.294C362.485,171.294 372.728,182.247 372.759,196.01C372.865,239.35 372.841,253.842 372.79,293.214Z" style="fill:rgb(217,217,217);fill-rule:nonzero;stroke:rgb(217,217,217);stroke-width:12px;stroke-linecap:butt;stroke-miterlimit:2;"/>
                    </g>
                </g>
            </g>
            <g transform="matrix(1,0,0,1,-674.546,733.666)">
                <g transform="matrix(0.986932,-0.275685,0.283437,1.01468,-676.462,65.8573)">
                    <ellipse cx="2404.22" cy="949.048" rx="67.238" ry="54.449" style="fill:rgb(191,191,191);"/>
                </g>
                <g transform="matrix(1,0,0,1,82.1301,-641.414)">
                    <g transform="matrix(41.6667,0,0,41.6667,1839.04,1024.92)">
                        <path d="M0.628,-0.253C0.628,-0.18 0.596,-0.115 0.533,-0.059C0.469,-0.002 0.401,0.026 0.328,0.026C0.222,0.026 0.143,-0.015 0.093,-0.098C0.052,-0.165 0.031,-0.255 0.031,-0.369C0.031,-0.484 0.056,-0.588 0.105,-0.681C0.164,-0.795 0.246,-0.853 0.35,-0.853C0.402,-0.853 0.447,-0.84 0.485,-0.816C0.528,-0.789 0.554,-0.751 0.564,-0.704C0.572,-0.665 0.576,-0.646 0.576,-0.648C0.576,-0.538 0.551,-0.483 0.501,-0.483C0.486,-0.483 0.472,-0.488 0.46,-0.498C0.448,-0.507 0.441,-0.52 0.441,-0.535C0.441,-0.543 0.446,-0.555 0.454,-0.571C0.463,-0.587 0.468,-0.6 0.468,-0.609C0.468,-0.656 0.462,-0.689 0.45,-0.706C0.435,-0.73 0.405,-0.743 0.361,-0.743C0.316,-0.743 0.275,-0.715 0.236,-0.659C0.205,-0.612 0.184,-0.563 0.174,-0.513C0.164,-0.458 0.159,-0.408 0.159,-0.363C0.159,-0.284 0.165,-0.228 0.178,-0.193C0.198,-0.136 0.238,-0.099 0.299,-0.081C0.317,-0.076 0.332,-0.074 0.344,-0.074C0.374,-0.074 0.405,-0.086 0.439,-0.111C0.468,-0.135 0.49,-0.161 0.506,-0.19C0.515,-0.208 0.521,-0.23 0.523,-0.256L0.518,-0.26C0.458,-0.26 0.413,-0.253 0.38,-0.239C0.37,-0.234 0.36,-0.228 0.35,-0.223C0.337,-0.217 0.326,-0.214 0.319,-0.214C0.298,-0.214 0.282,-0.223 0.27,-0.24C0.258,-0.258 0.253,-0.277 0.253,-0.299C0.253,-0.317 0.262,-0.332 0.281,-0.344C0.294,-0.35 0.333,-0.358 0.399,-0.368C0.459,-0.375 0.501,-0.379 0.525,-0.379C0.593,-0.379 0.628,-0.337 0.628,-0.253Z" style="fill:rgb(235,235,235);fill-rule:nonzero;"/>
                    </g>
                    <g transform="matrix(41.6667,0,0,41.6667,1865.19,1024.92)">
                        <path d="M0.614,-0.76C0.614,-0.746 0.609,-0.734 0.601,-0.723C0.592,-0.713 0.581,-0.708 0.568,-0.708C0.56,-0.708 0.546,-0.711 0.526,-0.718C0.505,-0.725 0.488,-0.729 0.475,-0.729L0.389,-0.729C0.376,-0.729 0.369,-0.728 0.368,-0.726C0.367,-0.724 0.365,-0.715 0.364,-0.701C0.36,-0.68 0.355,-0.649 0.349,-0.608C0.333,-0.494 0.325,-0.366 0.325,-0.224C0.325,-0.127 0.336,-0.061 0.359,-0.025L0.359,0.009C0.343,0.017 0.33,0.021 0.321,0.021C0.268,0.021 0.233,-0.005 0.218,-0.056C0.21,-0.081 0.206,-0.129 0.206,-0.2C0.206,-0.282 0.208,-0.347 0.211,-0.393C0.212,-0.413 0.217,-0.46 0.225,-0.536C0.232,-0.595 0.235,-0.643 0.235,-0.68L0.234,-0.716C0.222,-0.715 0.2,-0.713 0.166,-0.708C0.139,-0.703 0.116,-0.701 0.099,-0.701C0.041,-0.701 0.013,-0.718 0.013,-0.753C0.013,-0.767 0.017,-0.775 0.025,-0.778C0.038,-0.796 0.103,-0.812 0.221,-0.825C0.313,-0.835 0.387,-0.84 0.444,-0.84C0.484,-0.84 0.519,-0.835 0.549,-0.825C0.592,-0.811 0.614,-0.789 0.614,-0.76Z" style="fill:rgb(235,235,235);fill-rule:nonzero;"/>
                    </g>
                    <g transform="matrix(41.6667,0,0,41.6667,1892.43,1024.92)">
                        <path d="M0.634,-0.518C0.634,-0.499 0.632,-0.483 0.63,-0.469C0.598,-0.276 0.506,-0.18 0.356,-0.18C0.28,-0.18 0.211,-0.2 0.15,-0.239L0.15,-0.213C0.149,-0.157 0.154,-0.118 0.165,-0.098C0.181,-0.068 0.189,-0.052 0.189,-0.048C0.189,-0.031 0.182,-0.016 0.169,-0.004C0.156,0.009 0.142,0.015 0.125,0.015C0.088,0.015 0.062,0.002 0.049,-0.025C0.041,-0.041 0.036,-0.07 0.034,-0.114C0.032,-0.142 0.031,-0.175 0.031,-0.211C0.031,-0.225 0.033,-0.247 0.037,-0.275C0.041,-0.303 0.043,-0.325 0.043,-0.34L0.043,-0.425C0.042,-0.45 0.043,-0.487 0.048,-0.536C0.052,-0.584 0.054,-0.62 0.054,-0.644L0.054,-0.756C0.054,-0.758 0.05,-0.78 0.041,-0.824C0.063,-0.844 0.083,-0.854 0.103,-0.854C0.125,-0.854 0.143,-0.846 0.156,-0.829C0.17,-0.813 0.176,-0.793 0.176,-0.77C0.176,-0.764 0.176,-0.758 0.175,-0.753C0.23,-0.825 0.3,-0.861 0.384,-0.861C0.463,-0.861 0.525,-0.832 0.571,-0.773C0.612,-0.719 0.633,-0.652 0.633,-0.57L0.633,-0.544C0.633,-0.532 0.634,-0.523 0.634,-0.518ZM0.521,-0.538C0.521,-0.595 0.513,-0.644 0.495,-0.685C0.471,-0.74 0.434,-0.768 0.384,-0.768C0.32,-0.768 0.265,-0.728 0.219,-0.65C0.178,-0.582 0.158,-0.513 0.158,-0.444C0.158,-0.328 0.216,-0.27 0.333,-0.27C0.395,-0.27 0.441,-0.297 0.47,-0.351C0.487,-0.381 0.502,-0.436 0.518,-0.515C0.52,-0.531 0.521,-0.538 0.521,-0.538Z" style="fill:rgb(235,235,235);fill-rule:nonzero;"/>
                    </g>
                </g>
            </g>
            <g transform="matrix(1,0,0,1,-1098,33.4468)">
                <g transform="matrix(-3.23767,-3.80929,1.7665,-1.50142,5654.34,7688.4)">
                    <path d="M1403.51,757.4L1408.84,753.05" style="fill:none;stroke:rgb(191,191,191);stroke-width:1.07px;"/>
                </g>
                <g transform="matrix(-3.23767,-3.80929,1.7665,-1.50142,5654.34,7676.43)">
                    <path d="M1403.51,757.4L1408.84,753.05" style="fill:none;stroke:rgb(191,191,191);stroke-width:1.07px;"/>
                </g>
                <g transform="matrix(-3.23767,-3.80929,1.7665,-1.50142,5654.34,7665.17)">
                    <path d="M1403.51,757.4L1408.84,753.05" style="fill:none;stroke:rgb(191,191,191);stroke-width:1.07px;"/>
                </g>
            </g>
            <g transform="matrix(0.179274,0,0,0.179274,1113.49,1103.06)">
                <g transform="matrix(1,0,0,1,-224,-224)">
                    <clipPath id="_clip3">
                        <rect x="0" y="0" width="448" height="448"/>
                    </clipPath>
                    <g clip-path="url(#_clip3)">
                        <path d="M349.928,155.311L349.245,155.311C339.9,155.252 330.878,158.706 323.96,164.988C318.442,149.43 304.207,138.204 287.526,138.204C277.291,138.204 267.5,142.383 260.418,149.77C253.976,136.534 240.912,127.341 225.881,127.341L225.155,127.341C216.961,127.325 209.008,130.138 202.648,135.305L202.648,41.011C202.648,18.394 185.081,0 163.674,0C142.286,0 124.797,18.379 124.782,40.98L124.657,165.175L75.549,211.353C61.314,224.67 56.6,245.297 63.632,263.477L114.905,396.924C115.011,397.205 115.136,397.24 115.272,397.509C131.56,428.8 162.55,447.999 196.155,447.999L296.247,447.999C347.181,447.999 388.66,404.108 388.711,349.861C388.734,325.684 388.758,307.761 388.777,293.117C388.828,253.721 388.848,239.284 388.746,195.912C388.691,173.358 371.28,155.311 349.928,155.311ZM372.79,293.214C372.775,307.863 372.748,325.664 372.728,349.845C372.685,395.289 338.374,432.016 296.247,432.016L196.155,432.016C168.672,432.016 143.235,416.279 129.655,390.521L78.542,257.624C73.852,245.527 76.993,231.792 86.479,222.934L124.606,187.101L124.559,250.167C124.555,254.588 128.126,258.182 132.547,258.201L132.551,258.201C136.98,258.197 140.573,254.619 140.601,250.194L140.714,168.668L140.714,168.605L140.745,40.991C140.757,27.205 151.121,15.983 163.709,15.983C176.297,15.983 186.665,27.209 186.665,41.011L186.665,167.134C186.665,167.571 186.645,168.012 186.645,168.457C186.645,168.648 186.665,168.835 186.665,169.027L186.665,222.954C186.665,227.367 190.243,230.945 194.656,230.945C199.07,230.945 202.648,227.367 202.648,222.954L202.648,167.403C202.648,154.097 212.887,143.331 225.155,143.331L225.881,143.331C238.465,143.331 248.599,154.671 248.599,168.473L248.599,217.814C248.599,222.228 252.177,225.806 256.59,225.806C261.003,225.806 264.582,222.228 264.582,217.814L264.582,179.094C264.582,165.292 274.93,154.066 287.592,154.066C300.18,154.066 310.533,165.292 310.533,179.094L310.533,215.618C310.533,220.031 314.111,223.609 318.524,223.609C322.937,223.609 326.516,220.031 326.516,215.618L326.516,195.838C326.516,182.04 336.653,171.294 349.245,171.294L349.928,171.294C362.485,171.294 372.728,182.247 372.759,196.01C372.865,239.35 372.841,253.842 372.79,293.214Z" style="fill-rule:nonzero;stroke:black;stroke-width:12px;stroke-linecap:butt;stroke-miterlimit:2;"/>
                    </g>
                </g>
            </g>
        </g>
    </g>
</svg>
