<?xml version="1.0" encoding="UTF-8" standalone="no"?>
<!DOCTYPE svg PUBLIC "-//W3C//DTD SVG 1.1//EN" "http://www.w3.org/Graphics/SVG/1.1/DTD/svg11.dtd">
<svg width="100%" height="100%" viewBox="0 0 769 639" version="1.1" xmlns="http://www.w3.org/2000/svg" xmlns:xlink="http://www.w3.org/1999/xlink" xml:space="preserve" xmlns:serif="http://www.serif.com/" style="fill-rule:evenodd;clip-rule:evenodd;stroke-linecap:round;stroke-linejoin:round;stroke-miterlimit:1.5;">
    <g transform="matrix(1,0,0,1,-1027.24,-1351.71)">
        <g transform="matrix(1.02919,0,0,1.02741,-291.041,114.016)">
            <rect x="1281.3" y="1205.08" width="746.296" height="620.78" style="fill:white;stroke:rgb(179,179,179);stroke-width:0.81px;"/>
        </g>
        <g transform="matrix(0.169055,0,0,0.169055,1101.54,1671.03)">
            <g transform="matrix(1,0,0,1,-237.541,-237.541)">
                <clipPath id="_clip1">
                    <rect x="0" y="0" width="475.082" height="475.081"/>
                </clipPath>
                <g clip-path="url(#_clip1)">
                    <g>
                        <path d="M469.658,133.333L360.029,23.697C356.408,20.08 352.12,18.273 347.175,18.273C344.9,18.273 342.514,18.749 340.043,19.698C332.617,22.935 328.904,28.55 328.904,36.544L328.904,91.365L283.221,91.365C263.047,91.365 244.342,92.412 227.12,94.505C209.896,96.597 194.716,99.498 181.583,103.213C168.449,106.921 156.6,111.539 146.036,117.059C135.474,122.577 126.481,128.431 119.056,134.618C111.63,140.804 105.113,147.848 99.498,155.747C93.88,163.645 89.41,171.4 86.076,179.014C82.748,186.63 80.084,195.004 78.084,204.139C76.082,213.276 74.751,221.84 74.085,229.832C73.419,237.826 73.086,246.489 73.086,255.811C73.086,266.474 74.754,278.082 78.084,290.649C81.415,303.208 85.079,314.056 89.076,323.194C93.072,332.324 97.785,341.797 103.21,351.597C108.634,361.399 112.392,367.914 114.486,371.152C116.579,374.382 118.581,377.339 120.483,380.002C122.386,382.476 124.86,383.712 127.904,383.712C128.669,383.712 129.806,383.526 131.331,383.144C135.708,381.049 137.61,377.819 137.039,373.439C128.475,309.485 135.519,264.466 158.167,238.392C180.059,213.458 221.742,200.989 283.218,200.989L328.904,200.989L328.904,255.805C328.904,263.806 332.614,269.418 340.04,272.656C342.511,273.607 344.893,274.08 347.172,274.08C352.312,274.08 356.597,272.273 360.026,268.659L469.659,159.022C473.272,155.403 475.083,151.124 475.083,146.175C475.082,141.23 473.271,136.944 469.658,133.333Z" style="fill-rule:nonzero;"/>
                        <path d="M395.996,292.356C392.371,290.827 389.045,291.593 386.003,294.639C381.055,299.207 375.911,302.732 370.583,305.203C367.15,307.105 365.442,309.863 365.442,313.48L365.442,374.584C365.442,387.146 360.976,397.892 352.027,406.844C343.082,415.79 332.323,420.263 319.763,420.263L82.222,420.263C69.658,420.263 58.904,415.79 49.958,406.844C41.011,397.892 36.54,387.147 36.54,374.584L36.54,137.039C36.54,124.476 41.011,113.726 49.958,104.78C58.903,95.833 69.657,91.362 82.222,91.362L114.199,91.362C115.34,91.362 116.865,90.979 118.767,90.219C129.427,83.746 142.08,78.034 156.739,73.086C161.688,72.136 164.162,69.092 164.162,63.95C164.162,61.476 163.259,59.339 161.45,57.527C159.641,55.723 157.504,54.819 155.027,54.819L82.226,54.819C59.576,54.819 40.208,62.861 24.124,78.944C8.042,95.026 0,114.394 0,137.044L0,374.581C0,397.232 8.042,416.599 24.125,432.683C40.209,448.767 59.577,456.809 82.227,456.809L319.768,456.809C342.415,456.809 361.785,448.767 377.869,432.683C393.954,416.599 401.996,397.233 401.996,374.581L401.996,300.635C401.995,296.829 399.996,294.071 395.996,292.356Z" style="fill-rule:nonzero;"/>
                    </g>
                </g>
            </g>
        </g>
        <g transform="matrix(1.01042,0,0,1.12374,-270.979,-68.1981)">
            <path d="M2031.3,1401.31C2031.3,1390.5 2021.55,1381.73 2009.53,1381.73L1543.3,1381.73C1531.28,1381.73 1521.52,1390.5 1521.52,1401.31L1521.52,1790.36C1521.52,1801.17 1531.28,1809.94 1543.3,1809.94L2009.53,1809.94C2021.55,1809.94 2031.3,1801.17 2031.3,1790.36L2031.3,1401.31Z" style="fill:white;stroke:rgb(179,179,179);stroke-width:0.94px;"/>
        </g>
        <g transform="matrix(0.517483,0,0,0.517483,669.08,785.787)">
            <ellipse cx="1072.31" cy="1189.25" rx="71.365" ry="63.818" style="fill:rgb(230,230,230);"/>
        </g>
        <g transform="matrix(0.252792,0.752489,-0.519724,0.174597,1109.39,174.413)">
            <path d="M1778.72,364.959L1778.72,336.123L1881.87,336.123L1881.87,321.706L1929.32,350.541L1881.87,379.376L1881.87,364.959L1778.72,364.959Z" style="fill:rgb(89,89,89);"/>
        </g>
        <g transform="matrix(1.04587,0,0,1,-347.167,143.201)">
            <g transform="matrix(-0.719371,-8.37198e-17,-6.887e-17,-0.548268,3167.41,1786.08)">
                <rect x="1778.72" y="336.123" width="150.596" height="28.835" style="fill:rgb(89,89,89);"/>
            </g>
            <g transform="matrix(-0.000982654,-0.359971,0.548265,-0.00149666,1589.16,2261.79)">
                <path d="M1795.49,364.989C1786.23,364.972 1778.72,360.25 1778.72,354.432C1778.72,346.193 1778.72,336.123 1778.72,336.123L1929.32,336.123C1929.32,336.123 1929.28,345.015 1929.25,352.969C1929.22,359.74 1920.46,365.213 1909.67,365.193C1879.87,365.14 1823.55,365.039 1795.49,364.989Z" style="fill:rgb(89,89,89);"/>
            </g>
        </g>
        <g transform="matrix(1,0,0,1,-483.519,543.784)">
            <g transform="matrix(0.986932,-0.275685,0.283437,1.01468,-788.92,712.486)">
                <ellipse cx="2404.22" cy="949.048" rx="67.238" ry="54.449" style="fill:rgb(89,89,89);"/>
            </g>
            <g transform="matrix(1,0,0,1,-30.3275,5.21504)">
                <text x="1839.04px" y="1024.92px" style="font-family:'Noteworthy-Bold', 'Noteworthy';font-weight:700;font-size:41.667px;fill:rgb(235,235,235);">R<tspan x="1869.93px 1901.38px " y="1024.92px 1024.92px ">AS</tspan></text>
            </g>
        </g>
        <g transform="matrix(1,0,0,1,-415.376,724.435)">
            <g transform="matrix(0.986932,-0.275685,0.283437,1.01468,-788.92,712.486)">
                <ellipse cx="2404.22" cy="949.048" rx="67.238" ry="54.449" style="fill:rgb(89,89,89);"/>
            </g>
            <g transform="matrix(1,0,0,1,-30.3275,5.21504)">
                <text x="1839.04px" y="1024.92px" style="font-family:'Noteworthy-Bold', 'Noteworthy';font-weight:700;font-size:41.667px;fill:rgb(235,235,235);">R<tspan x="1869.93px 1902.06px " y="1024.92px 1024.92px ">AF</tspan></text>
            </g>
        </g>
        <g transform="matrix(1,0,0,1,-167.984,724.435)">
            <g transform="matrix(0.986932,-0.275685,0.283437,1.01468,-788.92,712.486)">
                <ellipse cx="2404.22" cy="949.048" rx="67.238" ry="54.449" style="fill:rgb(89,89,89);"/>
            </g>
            <g transform="matrix(1,0,0,1,-14.6244,5.21504)">
                <text x="1839.04px" y="1024.92px" style="font-family:'Noteworthy-Bold', 'Noteworthy';font-weight:700;font-size:41.667px;fill:rgb(235,235,235);">Rx</text>
            </g>
        </g>
        <g transform="matrix(1,0,0,1,-253.639,147.046)">
            <text x="1540.76px" y="1244.61px" style="font-family:'Noteworthy-Bold', 'Noteworthy';font-weight:700;font-size:29.167px;">A no<tspan x="1598.95px 1612.29px 1626.15px " y="1244.61px 1244.61px 1244.61px ">vel</tspan> drug t<tspan x="1707.67px 1723.82px 1733.7px 1748.54px 1761.22px 1770.59px 1784.96px 1791.05px 1812.67px 1834.69px " y="1244.61px 1244.61px 1244.61px 1244.61px 1244.61px 1244.61px 1244.61px 1244.61px 1244.61px 1244.61px ">argets RAS</tspan>-R<tspan x="1886.9px 1909.39px " y="1244.61px 1244.61px ">AF</tspan></text>
            <text x="1540.76px" y="1282.11px" style="font-family:'Noteworthy-Bold', 'Noteworthy';font-weight:700;font-size:29.167px;">in<tspan x="1560.74px 1570.69px 1584.55px 1594.25px 1610.21px 1622.76px 1633.58px 1638.65px 1653.78px " y="1282.11px 1282.11px 1282.11px 1282.11px 1282.11px 1282.11px 1282.11px 1282.11px 1282.11px ">teraction</tspan>s</text>
            <text x="1689.77px" y="1282.11px" style="font-family:'Noteworthy-Bold', 'Noteworthy';font-weight:700;font-size:29.167px;">in m<tspan x="1737.93px 1754.08px 1760.24px 1765.6px 1780.8px 1796.33px 1812.3px 1826.34px 1837.17px 1843.26px 1864.33px 1878.18px 1883.76px 1899.73px 1915.26px 1930.39px 1950.99px " y="1282.11px 1282.11px 1282.11px 1282.11px 1282.11px 1282.11px 1282.11px 1282.11px 1282.11px 1282.11px 1282.11px 1282.11px 1282.11px 1282.11px 1282.11px 1282.11px 1282.11px ">alignant melanoma</tspan></text>
            <text x="1540.76px" y="1319.61px" style="font-family:'Noteworthy-Bold', 'Noteworthy';font-weight:700;font-size:29.167px;fill:rgb(89,89,89);">#m<tspan x="1580.1px 1593.95px 1599.53px 1615.5px 1631.03px 1646.16px 1666.76px 1682.37px " y="1319.61px 1319.61px 1319.61px 1319.61px 1319.61px 1319.61px 1319.61px 1319.61px ">elanoma </tspan>#F<tspan x="1720.72px 1736.69px 1749.23px 1758.89px 1774.6px 1780.55px " y="1319.61px 1319.61px 1319.61px 1319.61px 1319.61px 1319.61px ">actoid</tspan>Su<tspan x="1827.69px 1849.16px 1869.76px 1885.91px 1897px " y="1319.61px 1319.61px 1319.61px 1319.61px 1319.61px ">mmary</tspan></text>
        </g>
        <g transform="matrix(1,0,0,1,-250.741,609.364)">
            <text x="1540.76px" y="1241px" style="font-family:'Noteworthy-Bold', 'Noteworthy';font-weight:700;font-size:25px;">Di<tspan x="1562.23px 1574.29px 1584.29px 1596.51px 1608.23px 1617.51px 1621.85px 1634.82px " y="1241px 1241px 1241px 1241px 1241px 1241px 1241px 1241px ">sruption</tspan> o<tspan x="1665.57px 1675.57px 1680.79px 1699.2px 1703.01px 1711.29px 1724.26px " y="1241px 1241px 1241px 1241px 1241px 1241px 1241px ">f mitog</tspan>en<tspan x="1762.67px 1767.76px " y="1241px 1241px ">ic</tspan></text>
            <text x="1784.76px" y="1241px" style="font-family:'Noteworthy-Bold', 'Noteworthy';font-weight:700;font-size:25px;">s<tspan x="1797.32px 1801.92px 1814.95px 1828.26px 1842.1px 1847.38px 1852.48px " y="1241px 1241px 1241px 1241px 1241px 1241px 1241px ">ignalin</tspan>g b<tspan x="1896.04px 1908.82px 1914.04px 1925.6px 1938.63px 1950.67px 1959.45px 1971.1px 1981.98px 1991.26px " y="1241px 1241px 1241px 1241px 1241px 1241px 1241px 1241px 1241px 1241px ">y syntheti</tspan>c</text>
            <text x="1540.76px" y="1270.17px" style="font-family:'Noteworthy-Bold', 'Noteworthy';font-weight:700;font-size:25px;">deri<tspan x="1579.85px 1590.6px 1603.01px 1612.29px 1616.88px 1628.32px 1639.7px 1652.01px 1657.23px 1669.45px 1679.45px " y="1270.17px 1270.17px 1270.17px 1270.17px 1270.17px 1270.17px 1270.17px 1270.17px 1270.17px 1270.17px 1270.17px ">vatives of </tspan>Rx</text>
            <text x="1540.76px" y="1303.5px" style="font-family:'Noteworthy-Bold', 'Noteworthy';font-weight:700;font-size:25px;fill:rgb(102,102,102);">Doe J<tspan x="1604.1px " y="1303.5px ">A</tspan></text>
            <text x="1622.98px" y="1303.5px" style="font-family:'Noteworthy-Bold', 'Noteworthy';font-weight:700;font-size:25px;fill:rgb(102,102,102);">,</text>
            <text x="1633.7px" y="1303.5px" style="font-family:'Noteworthy-Bold', 'Noteworthy';font-weight:700;font-size:25px;fill:rgb(102,102,102);">Br<tspan x="1660.23px 1673.2px 1691.01px 1704.32px " y="1303.5px 1303.5px 1303.5px 1303.5px ">own </tspan>JB</text>
            <text x="1749.63px" y="1303.5px" style="font-family:'Noteworthy-Bold', 'Noteworthy';font-weight:700;font-size:25px;fill:rgb(102,102,102);">a<tspan x="1763.32px 1776.63px " y="1303.5px 1303.5px ">nd</tspan></text>
            <text x="1794.48px" y="1303.5px" style="font-family:'Noteworthy-Bold', 'Noteworthy';font-weight:700;font-size:25px;fill:rgb(102,102,102);">P<tspan x="1812.26px 1824.38px 1837.7px 1842.98px 1848.07px " y="1303.5px 1303.5px 1303.5px 1303.5px 1303.5px ">ublic</tspan> JE</text>
            <rect x="1540.76" y="1307.65" width="82.219" height="0.625" style="fill:rgb(102,102,102);"/>
            <rect x="1633.7" y="1307.65" width="110.719" height="0.625" style="fill:rgb(102,102,102);"/>
            <rect x="1794.48" y="1307.65" width="105.25" height="0.625" style="fill:rgb(102,102,102);"/>
            <text x="1576.19px" y="1336.83px" style="font-family:'Noteworthy-Bold', 'Noteworthy';font-weight:700;font-size:25px;fill:rgb(102,102,102);">j<tspan x="1582.44px 1596.07px 1608.29px 1618.29px 1631.6px 1645.44px 1650.48px 1656.44px 1666.57px 1680.88px 1694.73px 1713.13px 1726.1px 1731.13px " y="1336.83px 1336.83px 1336.83px 1336.83px 1336.83px 1336.83px 1336.83px 1336.83px 1336.83px 1336.83px 1336.83px 1336.83px 1336.83px 1336.83px ">ournal.example</tspan>.com</text>
        </g>
        <g transform="matrix(0.0888359,0,0,0.0888359,1223.98,1401.2)">
            <g transform="matrix(1,0,0,1,-224,-256)">
                <path d="M224,256C294.7,256 352,198.7 352,128C352,57.3 294.7,0 224,0C153.3,0 96,57.3 96,128C96,198.7 153.3,256 224,256ZM313.6,288L296.9,288C274.7,298.2 250,304 224,304C198,304 173.4,298.2 151.1,288L134.4,288C60.2,288 0,348.2 0,422.4L0,464C0,490.5 21.5,512 48,512L400,512C426.5,512 448,490.5 448,464L448,422.4C448,348.2 387.8,288 313.6,288Z" style="fill:rgb(102,102,102);fill-rule:nonzero;"/>
            </g>
        </g>
        <g transform="matrix(0.0503898,0,0,0.0503898,1302.49,1937.98)">
            <g transform="matrix(1,0,0,1,-228.515,-228.515)">
                <clipPath id="_clip2">
                    <rect x="0" y="0" width="457.03" height="457.03"/>
                </clipPath>
                <g clip-path="url(#_clip2)">
                    <path d="M421.512,207.074L335.717,292.841C288.365,340.221 211.548,340.221 164.188,292.841C156.728,285.402 150.892,277.02 145.767,268.376L185.631,228.515C187.526,226.604 189.866,225.509 192.102,224.219C194.858,233.635 199.669,242.549 207.074,249.955C230.722,273.622 269.202,273.589 292.836,249.955L378.604,164.19C402.27,140.526 402.27,102.055 378.604,78.409C354.969,54.763 316.499,54.763 292.836,78.409L262.337,108.941C237.587,99.304 210.922,96.713 184.964,100.517L249.955,35.528C297.335,-11.843 374.132,-11.843 421.512,35.528C468.869,82.897 468.869,159.706 421.512,207.074ZM194.708,348.104L164.187,378.636C140.541,402.27 102.059,402.27 78.409,378.636C54.761,354.969 54.761,316.498 78.409,292.841L164.187,207.074C187.852,183.412 226.308,183.412 249.954,207.074C257.342,214.464 262.158,223.376 264.94,232.78C267.189,231.473 269.5,230.411 271.394,228.514L311.255,188.669C306.163,179.991 300.297,171.639 292.834,164.192C245.486,116.821 168.662,116.821 121.291,164.192L35.526,249.96C-11.84,297.345 -11.84,374.132 35.526,421.513C82.897,468.869 159.703,468.869 207.073,421.513L272.081,356.51C246.109,360.336 219.437,357.723 194.708,348.104Z" style="fill:rgb(127,140,141);fill-rule:nonzero;"/>
                </g>
            </g>
        </g>
        <g transform="matrix(0.179274,0,0,0.179274,1123.49,1748.34)">
            <g transform="matrix(1,0,0,1,-224,-224)">
                <clipPath id="_clip3">
                    <rect x="0" y="0" width="448" height="448"/>
                </clipPath>
                <g clip-path="url(#_clip3)">
                    <path d="M349.928,155.311L349.245,155.311C339.9,155.252 330.878,158.706 323.96,164.988C318.442,149.43 304.207,138.204 287.526,138.204C277.291,138.204 267.5,142.383 260.418,149.77C253.976,136.534 240.912,127.341 225.881,127.341L225.155,127.341C216.961,127.325 209.008,130.138 202.648,135.305L202.648,41.011C202.648,18.394 185.081,0 163.674,0C142.286,0 124.797,18.379 124.782,40.98L124.657,165.175L75.549,211.353C61.314,224.67 56.6,245.297 63.632,263.477L114.905,396.924C115.011,397.205 115.136,397.24 115.272,397.509C131.56,428.8 162.55,447.999 196.155,447.999L296.247,447.999C347.181,447.999 388.66,404.108 388.711,349.861C388.734,325.684 388.758,307.761 388.777,293.117C388.828,253.721 388.848,239.284 388.746,195.912C388.691,173.358 371.28,155.311 349.928,155.311ZM372.79,293.214C372.775,307.863 372.748,325.664 372.728,349.845C372.685,395.289 338.374,432.016 296.247,432.016L196.155,432.016C168.672,432.016 143.235,416.279 129.655,390.521L78.542,257.624C73.852,245.527 76.993,231.792 86.479,222.934L124.606,187.101L124.559,250.167C124.555,254.588 128.126,258.182 132.547,258.201L132.551,258.201C136.98,258.197 140.573,254.619 140.601,250.194L140.714,168.668L140.714,168.605L140.745,40.991C140.757,27.205 151.121,15.983 163.709,15.983C176.297,15.983 186.665,27.209 186.665,41.011L186.665,167.134C186.665,167.571 186.645,168.012 186.645,168.457C186.645,168.648 186.665,168.835 186.665,169.027L186.665,222.954C186.665,227.367 190.243,230.945 194.656,230.945C199.07,230.945 202.648,227.367 202.648,222.954L202.648,167.403C202.648,154.097 212.887,143.331 225.155,143.331L225.881,143.331C238.465,143.331 248.599,154.671 248.599,168.473L248.599,217.814C248.599,222.228 252.177,225.806 256.59,225.806C261.003,225.806 264.582,222.228 264.582,217.814L264.582,179.094C264.582,165.292 274.93,154.066 287.592,154.066C300.18,154.066 310.533,165.292 310.533,179.094L310.533,215.618C310.533,220.031 314.111,223.609 318.524,223.609C322.937,223.609 326.516,220.031 326.516,215.618L326.516,195.838C326.516,182.04 336.653,171.294 349.245,171.294L349.928,171.294C362.485,171.294 372.728,182.247 372.759,196.01C372.865,239.35 372.841,253.842 372.79,293.214Z" style="fill-rule:nonzero;stroke:black;stroke-width:12px;stroke-linecap:butt;stroke-miterlimit:2;"/>
                </g>
            </g>
        </g>
        <g transform="matrix(0.943261,0,0,1,-151.413,145.617)">
            <path d="M1520.04,1668.33L2032.23,1668.33" style="fill:none;stroke:rgb(179,179,179);stroke-width:0.86px;"/>
        </g>
        <g transform="matrix(5.77581e-17,0.943261,-1,6.12323e-17,2837.98,-81.6617)">
            <path d="M1520.04,1668.33L2196.2,1668.33" style="fill:none;stroke:rgb(179,179,179);stroke-width:0.86px;"/>
        </g>
    </g>
</svg>
